<svg width="127" height="98" viewBox="0 0 127 98" fill="none" xmlns="http://www.w3.org/2000/svg">
<path fill-rule="evenodd" clip-rule="evenodd" d="M60.9024 0.0453351C50.4474 0.831278 41.2011 6.87574 36.4679 16.0186C33.1398 22.4471 32.1985 29.322 33.6814 36.3695C34.1881 38.7779 34.9 40.7881 36.125 43.2699C39.003 49.1008 43.5685 53.745 49.2929 56.6653C56.7377 60.4632 64.9923 61.0319 72.9462 58.2951C76.0257 57.2353 79.0733 55.5642 81.6801 53.5058C82.9359 52.5142 85.4796 49.9713 86.4852 48.7023C89.8092 44.5075 91.9012 39.6908 92.7414 34.2977C92.9871 32.7199 93.0833 28.8276 92.9169 27.1902C92.1622 19.7633 88.7175 12.7843 83.4496 8.00954C82.3005 6.96794 82.1244 6.81896 81.2541 6.15196C77.0093 2.89869 72.0019 0.858015 66.6346 0.194229C65.2362 0.0212438 62.2537 -0.0562262 60.9024 0.0453351ZM75.7448 15.1082C76.2253 15.3088 76.3047 15.5373 76.2375 16.5278C76.0475 19.334 74.326 21.901 71.7457 23.226C70.5536 23.8381 69.8153 24.0331 68.2076 24.1604L66.8128 24.271V25.19V26.1092L67.3565 26.2184C69.1841 26.5852 70.4316 27.1933 71.7052 28.338C72.2668 28.8427 73.3379 30.218 73.3379 30.4344C73.3379 30.5675 70.8089 33.3027 70.6857 33.3027C70.6552 33.3027 70.5745 33.0235 70.5066 32.6821C70.2669 31.4772 69.2405 30.3614 68.0237 29.9831C67.6359 29.8625 67.0068 29.7786 66.2018 29.7402L64.9721 29.6814L64.3558 29.2571C63.658 28.7768 62.5335 28.2353 61.5839 27.9223C60.8189 27.6702 60.8353 27.6176 61.8311 27.126C62.7019 26.6962 63.4805 26.4236 64.2595 26.2757L64.8742 26.1591L64.9009 25.2102L64.9278 24.2613L63.9184 24.1961C63.3633 24.1602 62.6916 24.0869 62.4259 24.0331C61.7678 23.8999 60.3468 23.1911 59.7529 22.6997C58.4144 21.5923 57.5677 20.0128 57.3998 18.3096C57.3181 17.4819 57.4726 17.1228 57.9826 16.9546C58.4793 16.7908 61.2884 16.8916 62.0321 17.0999C63.1695 17.4186 64.364 18.1794 65.2546 19.1526C65.5531 19.4787 65.8132 19.7022 65.8327 19.6494C65.945 19.345 66.7094 18.306 67.251 17.7216C68.5246 16.3473 70.4055 15.3348 72.1587 15.0796C73.1278 14.9387 75.3814 14.9565 75.7448 15.1082ZM59.2337 29.2442C60.7721 29.4369 62.1983 30.0159 63.5502 30.9967L64.3068 31.5455L65.8198 31.6118C66.652 31.6483 67.418 31.7099 67.522 31.7486C67.9132 31.8943 68.3524 32.302 68.5232 32.6777C68.842 33.379 68.7361 34.143 68.2489 34.6574C67.6898 35.2478 67.7837 35.2352 63.5883 35.2867C59.388 35.3384 59.5328 35.3174 59.2846 35.9107C59.1243 36.2939 59.232 36.6839 59.5671 36.9336C59.8237 37.1249 59.9266 37.129 64.4322 37.129C68.0948 37.129 69.1124 37.1025 69.4134 36.9989C69.7067 36.898 70.4389 36.2271 72.6759 34.0095C74.2622 32.437 75.6963 31.0819 75.8628 30.9984C76.2604 30.7987 76.7925 30.809 77.2698 31.0255C78.3889 31.5333 78.5539 32.9266 77.6454 34.1986C77.1067 34.9528 73.2458 39.9437 72.0436 41.4399C71.3187 42.3422 71.0897 42.5664 70.8476 42.6113C70.6829 42.6419 67.7395 42.6508 64.3068 42.631C57.198 42.5901 57.7679 42.6466 54.992 41.7082C54.0818 41.4005 53.1456 41.1036 52.9115 41.0482C52.6775 40.993 51.1462 40.9078 49.5086 40.8588C46.1928 40.76 46.1496 40.7506 45.9796 40.0979C45.8461 39.5857 45.9402 32.3562 46.0837 32.1004C46.2971 31.7198 46.5365 31.6746 48.6963 31.6062L50.7838 31.5402L52.6751 30.635C53.7154 30.1372 54.8669 29.6393 55.2342 29.5285C56.4286 29.1684 57.8323 29.0686 59.2337 29.2442Z" fill="#505050"/>
<path d="M14.643 90.408H9.043L7.939 93H5.795L10.835 81.8H12.883L17.939 93H15.763L14.643 90.408ZM13.955 88.776L11.843 83.88L9.747 88.776H13.955ZM19.3634 81.8H21.4434V91.24H27.2994V93H19.3634V81.8ZM28.9415 81.8H31.0215V91.24H36.8775V93H28.9415V81.8ZM52.8935 81.8V93H51.1815L45.0055 85.416V93H42.9415V81.8H44.6535L50.8295 89.384V81.8H52.8935ZM63.1586 90.408H57.5586L56.4546 93H54.3106L59.3506 81.8H61.3986L66.4546 93H64.2786L63.1586 90.408ZM62.4706 88.776L60.3586 83.88L58.2626 88.776H62.4706ZM69.5885 83.56H65.8765V81.8H75.3805V83.56H71.6685V93H69.5885V83.56ZM81.5544 93.16C80.0077 93.16 78.8024 92.728 77.9384 91.864C77.0744 90.9893 76.6424 89.7413 76.6424 88.12V81.8H78.7224V88.04C78.7224 90.2373 79.6717 91.336 81.5704 91.336C83.4584 91.336 84.4024 90.2373 84.4024 88.04V81.8H86.4504V88.12C86.4504 89.7413 86.0184 90.9893 85.1544 91.864C84.301 92.728 83.101 93.16 81.5544 93.16ZM96.6914 93L94.4034 89.72C94.3074 89.7307 94.1634 89.736 93.9714 89.736H91.4434V93H89.3634V81.8H93.9714C94.942 81.8 95.7847 81.96 96.4994 82.28C97.2247 82.6 97.7794 83.0587 98.1634 83.656C98.5474 84.2533 98.7394 84.9627 98.7394 85.784C98.7394 86.6267 98.5314 87.352 98.1154 87.96C97.71 88.568 97.1234 89.0213 96.3554 89.32L98.9314 93H96.6914ZM96.6434 85.784C96.6434 85.0693 96.4087 84.52 95.9394 84.136C95.47 83.752 94.782 83.56 93.8754 83.56H91.4434V88.024H93.8754C94.782 88.024 95.47 87.832 95.9394 87.448C96.4087 87.0533 96.6434 86.4987 96.6434 85.784ZM108.331 90.408H102.731L101.627 93H99.4825L104.523 81.8H106.571L111.627 93H109.451L108.331 90.408ZM107.642 88.776L105.531 83.88L103.435 88.776H107.642ZM113.051 81.8H115.131V91.24H120.987V93H113.051V81.8Z" fill="#505050"/>
</svg>
