<svg width="127" height="98" viewBox="0 0 127 98" fill="none" xmlns="http://www.w3.org/2000/svg">
    <path fill-rule="evenodd" clip-rule="evenodd" d="M60.9024 0.0453351C50.4474 0.831278 41.2011 6.87574 36.4679 16.0186C33.1398 22.4471 32.1985 29.322 33.6814 36.3695C34.1881 38.7779 34.9 40.7881 36.125 43.2699C39.003 49.1008 43.5685 53.745 49.2929 56.6653C56.7377 60.4632 64.9923 61.0319 72.9462 58.2951C76.0257 57.2353 79.0733 55.5642 81.6801 53.5058C82.9359 52.5142 85.4796 49.9713 86.4852 48.7023C89.8092 44.5075 91.9012 39.6908 92.7414 34.2977C92.9871 32.7199 93.0833 28.8276 92.9169 27.1902C92.1622 19.7633 88.7175 12.7843 83.4496 8.00954C82.3005 6.96794 82.1244 6.81896 81.2541 6.15196C77.0093 2.89869 72.0019 0.858015 66.6346 0.194229C65.2362 0.0212438 62.2537 -0.0562262 60.9024 0.0453351ZM75.7448 15.1082C76.2253 15.3088 76.3047 15.5373 76.2375 16.5278C76.0475 19.334 74.326 21.901 71.7457 23.226C70.5536 23.8381 69.8153 24.0331 68.2076 24.1604L66.8128 24.271V25.19V26.1092L67.3565 26.2184C69.1841 26.5852 70.4316 27.1933 71.7052 28.338C72.2668 28.8427 73.3379 30.218 73.3379 30.4344C73.3379 30.5675 70.8089 33.3027 70.6857 33.3027C70.6552 33.3027 70.5745 33.0235 70.5066 32.6821C70.2669 31.4772 69.2405 30.3614 68.0237 29.9831C67.6359 29.8625 67.0068 29.7786 66.2018 29.7402L64.9721 29.6814L64.3558 29.2571C63.658 28.7768 62.5335 28.2353 61.5839 27.9223C60.8189 27.6702 60.8353 27.6176 61.8311 27.126C62.7019 26.6962 63.4805 26.4236 64.2595 26.2757L64.8742 26.1591L64.9009 25.2102L64.9278 24.2613L63.9184 24.1961C63.3633 24.1602 62.6916 24.0869 62.4259 24.0331C61.7678 23.8999 60.3468 23.1911 59.7529 22.6997C58.4144 21.5923 57.5677 20.0128 57.3998 18.3096C57.3181 17.4819 57.4726 17.1228 57.9826 16.9546C58.4793 16.7908 61.2884 16.8916 62.0321 17.0999C63.1695 17.4186 64.364 18.1794 65.2546 19.1526C65.5531 19.4787 65.8132 19.7022 65.8327 19.6494C65.945 19.345 66.7094 18.306 67.251 17.7216C68.5246 16.3473 70.4055 15.3348 72.1587 15.0796C73.1278 14.9387 75.3814 14.9565 75.7448 15.1082ZM59.2337 29.2442C60.7721 29.4369 62.1983 30.0159 63.5502 30.9967L64.3068 31.5455L65.8198 31.6118C66.652 31.6483 67.418 31.7099 67.522 31.7486C67.9132 31.8943 68.3524 32.302 68.5232 32.6777C68.842 33.379 68.7361 34.143 68.2489 34.6574C67.6898 35.2478 67.7837 35.2352 63.5883 35.2867C59.388 35.3384 59.5328 35.3174 59.2846 35.9107C59.1243 36.2939 59.232 36.6839 59.5671 36.9336C59.8237 37.1249 59.9266 37.129 64.4322 37.129C68.0948 37.129 69.1124 37.1025 69.4134 36.9989C69.7067 36.898 70.4389 36.2271 72.6759 34.0095C74.2622 32.437 75.6963 31.0819 75.8628 30.9984C76.2604 30.7987 76.7925 30.809 77.2698 31.0255C78.3889 31.5333 78.5539 32.9266 77.6454 34.1986C77.1067 34.9528 73.2458 39.9437 72.0436 41.4399C71.3187 42.3422 71.0897 42.5664 70.8476 42.6113C70.6829 42.6419 67.7395 42.6508 64.3068 42.631C57.198 42.5901 57.7679 42.6466 54.992 41.7082C54.0818 41.4005 53.1456 41.1036 52.9115 41.0482C52.6775 40.993 51.1462 40.9078 49.5086 40.8588C46.1928 40.76 46.1496 40.7506 45.9796 40.0979C45.8461 39.5857 45.9402 32.3562 46.0837 32.1004C46.2971 31.7198 46.5365 31.6746 48.6963 31.6062L50.7838 31.5402L52.6751 30.635C53.7154 30.1372 54.8669 29.6393 55.2342 29.5285C56.4286 29.1684 57.8323 29.0686 59.2337 29.2442Z" fill="#1D2E42"/>
    <path d="M19.7913 94L24.5033 80.7H26.0423L30.7543 94H29.0633L27.9233 90.751H22.6413L21.5203 94H19.7913ZM23.1353 89.288H27.4103L25.7003 84.367C25.6559 84.2403 25.6053 84.0947 25.5483 83.93C25.4976 83.759 25.4469 83.5943 25.3963 83.436C25.3456 83.2713 25.3076 83.132 25.2823 83.018C25.2506 83.132 25.2094 83.2713 25.1588 83.436C25.1144 83.5943 25.0638 83.759 25.0068 83.93C24.9561 84.0947 24.9086 84.2403 24.8643 84.367L23.1353 89.288ZM33.3898 94V81.061L35.0428 80.282V94H33.3898ZM38.3624 94V81.061L40.0154 80.282V94H38.3624ZM47.7118 94V84.291H49.3648V85.279C49.6624 84.8673 50.0203 84.5633 50.4383 84.367C50.8563 84.1643 51.3344 84.063 51.8728 84.063C53.0508 84.063 53.9248 84.4208 54.4948 85.1365C55.0648 85.8458 55.3498 86.9383 55.3498 88.414V94H53.6968V88.129C53.6968 87.312 53.5131 86.685 53.1458 86.248C52.7848 85.8047 52.2718 85.583 51.6068 85.583C50.8658 85.583 50.3053 85.7952 49.9253 86.2195C49.5516 86.6375 49.3648 87.2613 49.3648 88.091V94H47.7118ZM61.3226 94.228C60.2713 94.228 59.4448 93.9367 58.8431 93.354C58.2414 92.7713 57.9406 91.9733 57.9406 90.96C57.9406 90.3077 58.0894 89.7408 58.3871 89.2595C58.6848 88.7782 59.1059 88.4077 59.6506 88.148C60.1953 87.882 60.8349 87.749 61.5696 87.749C62.0446 87.749 62.4879 87.8028 62.8996 87.9105C63.3176 88.0118 63.7103 88.167 64.0776 88.376V87.692C64.0776 86.9383 63.9066 86.3873 63.5646 86.039C63.2226 85.6843 62.6906 85.507 61.9686 85.507C61.5063 85.507 61.0249 85.5925 60.5246 85.7635C60.0306 85.9345 59.5683 86.172 59.1376 86.476L58.6626 85.089C59.1503 84.766 59.7044 84.5158 60.3251 84.3385C60.9521 84.1548 61.5696 84.063 62.1776 84.063C63.3303 84.063 64.1948 84.3575 64.7711 84.9465C65.3474 85.5292 65.6356 86.4 65.6356 87.559V94H64.0776V93.107C63.6976 93.468 63.2701 93.7467 62.7951 93.943C62.3201 94.133 61.8293 94.228 61.3226 94.228ZM61.5696 92.784C62.0193 92.784 62.4626 92.6732 62.8996 92.4515C63.3429 92.2298 63.7356 91.9163 64.0776 91.511V89.839C63.7546 89.6363 63.3873 89.478 62.9756 89.364C62.5639 89.25 62.1713 89.193 61.7976 89.193C61.0883 89.193 60.5278 89.3545 60.1161 89.6775C59.7044 89.9942 59.4986 90.428 59.4986 90.979C59.4986 91.5363 59.6823 91.9765 60.0496 92.2995C60.4169 92.6225 60.9236 92.784 61.5696 92.784ZM70.9313 94.228C70.2663 94.228 69.7564 94.0285 69.4018 93.6295C69.0534 93.2305 68.8793 92.6573 68.8793 91.91V85.735H67.3023V84.291H68.8793V81.08L70.5323 80.282V84.291H72.9263V85.735H70.5323V91.359C70.5323 91.8213 70.6114 92.1602 70.7698 92.3755C70.9344 92.5845 71.1909 92.689 71.5392 92.689C71.9826 92.689 72.4639 92.518 72.9833 92.176L72.7933 93.791C72.5083 93.943 72.2106 94.0538 71.9003 94.1235C71.5963 94.1932 71.2733 94.228 70.9313 94.228ZM78.3705 94.228C77.1735 94.228 76.2837 93.8733 75.701 93.164C75.1247 92.4547 74.8365 91.3653 74.8365 89.896V84.291H76.4895V90.143C76.4895 90.9663 76.67 91.5965 77.031 92.0335C77.392 92.4705 77.9082 92.689 78.5795 92.689C79.3205 92.689 79.8778 92.4768 80.2515 92.0525C80.6315 91.6282 80.8215 91.0043 80.8215 90.181V84.291H82.4745V94H80.8215V93.069C80.5112 93.468 80.1597 93.7625 79.767 93.9525C79.3807 94.1362 78.9152 94.228 78.3705 94.228ZM85.7674 94V84.291H87.4204V85.564C87.6421 85.07 87.9461 84.6963 88.3324 84.443C88.7251 84.1897 89.1874 84.063 89.7194 84.063C90.3084 84.063 90.8088 84.2277 91.2204 84.557L90.9734 86.115C90.7644 85.9693 90.5459 85.8648 90.3179 85.8015C90.0963 85.7318 89.8524 85.697 89.5864 85.697C89.1494 85.697 88.7694 85.8142 88.4464 86.0485C88.1234 86.2828 87.8701 86.6122 87.6864 87.0365C87.5091 87.4608 87.4204 87.958 87.4204 88.528V94H85.7674ZM95.5931 94.228C94.5418 94.228 93.7153 93.9367 93.1136 93.354C92.5119 92.7713 92.2111 91.9733 92.2111 90.96C92.2111 90.3077 92.3599 89.7408 92.6576 89.2595C92.9553 88.7782 93.3764 88.4077 93.9211 88.148C94.4658 87.882 95.1054 87.749 95.8401 87.749C96.3151 87.749 96.7584 87.8028 97.1701 87.9105C97.5881 88.0118 97.9808 88.167 98.3481 88.376V87.692C98.3481 86.9383 98.1771 86.3873 97.8351 86.039C97.4931 85.6843 96.9611 85.507 96.2391 85.507C95.7768 85.507 95.2954 85.5925 94.7951 85.7635C94.3011 85.9345 93.8388 86.172 93.4081 86.476L92.9331 85.089C93.4208 84.766 93.9749 84.5158 94.5956 84.3385C95.2226 84.1548 95.8401 84.063 96.4481 84.063C97.6008 84.063 98.4653 84.3575 99.0416 84.9465C99.6179 85.5292 99.9061 86.4 99.9061 87.559V94H98.3481V93.107C97.9681 93.468 97.5406 93.7467 97.0656 93.943C96.5906 94.133 96.0998 94.228 95.5931 94.228ZM95.8401 92.784C96.2898 92.784 96.7331 92.6732 97.1701 92.4515C97.6134 92.2298 98.0061 91.9163 98.3481 91.511V89.839C98.0251 89.6363 97.6578 89.478 97.2461 89.364C96.8344 89.25 96.4418 89.193 96.0681 89.193C95.3588 89.193 94.7983 89.3545 94.3866 89.6775C93.9749 89.9942 93.7691 90.428 93.7691 90.979C93.7691 91.5363 93.9528 91.9765 94.3201 92.2995C94.6874 92.6225 95.1941 92.784 95.8401 92.784ZM102.877 94V81.061L104.53 80.282V94H102.877Z" fill="#1D2E42"/>
</svg>
