<svg width="68" height="68" viewBox="0 0 68 68" fill="none" xmlns="http://www.w3.org/2000/svg">
    <path fill-rule="evenodd" clip-rule="evenodd" d="M32.5317 0.0317345C25.2132 0.581895 18.7408 4.81302 15.4275 11.213C13.0979 15.713 12.4389 20.5254 13.477 25.4586C13.8317 27.1445 14.33 28.5517 15.1875 30.2889C17.2021 34.3706 20.3979 37.6215 24.405 39.6657C29.6164 42.3242 35.3946 42.7223 40.9623 40.8066C43.118 40.0647 45.2513 38.8949 47.0761 37.4541C47.9551 36.7599 49.7357 34.9799 50.4396 34.0916C52.7664 31.1552 54.2308 27.7836 54.819 24.0084C54.991 22.9039 55.0583 20.1793 54.9418 19.0331C54.4135 13.8343 52.0022 8.94901 48.3147 5.60668C47.5103 4.87756 47.3871 4.77327 46.7779 4.30637C43.8065 2.02908 40.3013 0.60061 36.5442 0.13596C35.5653 0.0148706 33.4776 -0.0393584 32.5317 0.0317345ZM42.9214 10.5757C43.2577 10.7162 43.3133 10.8761 43.2662 11.5695C43.1332 13.5338 41.9282 15.3307 40.122 16.2582C39.2875 16.6867 38.7707 16.8232 37.6453 16.9123L36.669 16.9897V17.633V18.2764L37.0495 18.3529C38.3289 18.6096 39.2021 19.0353 40.0936 19.8366C40.4868 20.1899 41.2365 21.1526 41.2365 21.3041C41.2365 21.3972 39.4662 23.3119 39.38 23.3119C39.3586 23.3119 39.3021 23.1164 39.2546 22.8775C39.0868 22.034 38.3683 21.253 37.5166 20.9882C37.2451 20.9037 36.8048 20.845 36.2413 20.8181L35.3805 20.777L34.9491 20.48C34.4606 20.1438 33.6734 19.7647 33.0087 19.5456C32.4732 19.3691 32.4847 19.3323 33.1818 18.9882C33.7913 18.6873 34.3363 18.4965 34.8816 18.393L35.3119 18.3114L35.3306 17.6471L35.3495 16.9829L34.6429 16.9373C34.2543 16.9121 33.7841 16.8608 33.5981 16.8232C33.1375 16.7299 32.1428 16.2338 31.727 15.8898C30.7901 15.1146 30.1974 14.009 30.0799 12.8167C30.0227 12.2373 30.1308 11.986 30.4878 11.8682C30.8355 11.7536 32.8019 11.8241 33.3225 11.9699C34.1186 12.193 34.9548 12.7256 35.5782 13.4068C35.7872 13.6351 35.9692 13.7915 35.9829 13.7546C36.0615 13.5415 36.5966 12.8142 36.9757 12.4051C37.8672 11.4431 39.1838 10.7344 40.4111 10.5557C41.0895 10.4571 42.667 10.4695 42.9214 10.5757ZM31.3636 20.4709C32.4405 20.6058 33.4388 21.0111 34.3851 21.6977L34.9148 22.0818L35.9739 22.1283C36.5564 22.1538 37.0926 22.1969 37.1654 22.224C37.4392 22.326 37.7467 22.6114 37.8662 22.8744C38.0894 23.3653 38.0153 23.9001 37.6742 24.2602C37.2829 24.6735 37.3486 24.6646 34.4118 24.7007C31.4716 24.7369 31.573 24.7222 31.3992 25.1375C31.287 25.4057 31.3624 25.6787 31.597 25.8535C31.7766 25.9874 31.8486 25.9903 35.0025 25.9903C37.5664 25.9903 38.2787 25.9717 38.4894 25.8992C38.6947 25.8286 39.2072 25.359 40.7731 23.8066C41.8835 22.7059 42.8874 21.7573 43.004 21.6989C43.2823 21.5591 43.6547 21.5663 43.9889 21.7178C44.7722 22.0733 44.8877 23.0486 44.2518 23.939C43.8747 24.467 41.1721 27.9606 40.3305 29.0079C39.8231 29.6395 39.6628 29.7965 39.4933 29.8279C39.378 29.8493 37.3176 29.8556 34.9148 29.8417C29.9386 29.8131 30.3375 29.8526 28.3944 29.1957C27.7573 28.9803 27.1019 28.7725 26.938 28.7337C26.7742 28.6951 25.7023 28.6355 24.556 28.6012C22.235 28.532 22.2047 28.5254 22.0857 28.0685C21.9923 27.71 22.0581 22.6493 22.1586 22.4703C22.308 22.2039 22.4755 22.1722 23.9874 22.1243L25.4487 22.0781L26.7726 21.4445C27.5008 21.096 28.3068 20.7475 28.5639 20.6699C29.4 20.4179 30.3826 20.348 31.3636 20.4709Z" fill="#1D2E42"/>
    <path d="M4.77823 62L8.00223 52.9H9.05523L12.2792 62H11.1222L10.3422 59.777H6.72823L5.96123 62H4.77823ZM7.06623 58.776H9.99123L8.82123 55.409C8.7909 55.3223 8.75623 55.2227 8.71723 55.11C8.68257 54.993 8.6479 54.8803 8.61323 54.772C8.57857 54.6593 8.55257 54.564 8.53523 54.486C8.51357 54.564 8.4854 54.6593 8.45073 54.772C8.4204 54.8803 8.38573 54.993 8.34673 55.11C8.31207 55.2227 8.27957 55.3223 8.24923 55.409L7.06623 58.776ZM14.0825 62V53.147L15.2135 52.614V62H14.0825ZM17.4848 62V53.147L18.6158 52.614V62H17.4848ZM23.8817 62V55.357H25.0127V56.033C25.2164 55.7513 25.4612 55.5433 25.7472 55.409C26.0332 55.2703 26.3604 55.201 26.7287 55.201C27.5347 55.201 28.1327 55.4458 28.5227 55.9355C28.9127 56.4208 29.1077 57.1683 29.1077 58.178V62H27.9767V57.983C27.9767 57.424 27.8511 56.995 27.5997 56.696C27.3527 56.3927 27.0017 56.241 26.5467 56.241C26.0397 56.241 25.6562 56.3862 25.3962 56.6765C25.1406 56.9625 25.0127 57.3893 25.0127 57.957V62H23.8817ZM33.1944 62.156C32.4751 62.156 31.9096 61.9567 31.4979 61.558C31.0862 61.1593 30.8804 60.6133 30.8804 59.92C30.8804 59.4737 30.9822 59.0858 31.1859 58.7565C31.3896 58.4272 31.6777 58.1737 32.0504 57.996C32.4231 57.814 32.8607 57.723 33.3634 57.723C33.6884 57.723 33.9917 57.7598 34.2734 57.8335C34.5594 57.9028 34.8281 58.009 35.0794 58.152V57.684C35.0794 57.1683 34.9624 56.7913 34.7284 56.553C34.4944 56.3103 34.1304 56.189 33.6364 56.189C33.3201 56.189 32.9907 56.2475 32.6484 56.3645C32.3104 56.4815 31.9941 56.644 31.6994 56.852L31.3744 55.903C31.7081 55.682 32.0872 55.5108 32.5119 55.3895C32.9409 55.2638 33.3634 55.201 33.7794 55.201C34.5681 55.201 35.1596 55.4025 35.5539 55.8055C35.9482 56.2042 36.1454 56.8 36.1454 57.593V62H35.0794V61.389C34.8194 61.636 34.5269 61.8267 34.2019 61.961C33.8769 62.091 33.5411 62.156 33.1944 62.156ZM33.3634 61.168C33.6711 61.168 33.9744 61.0922 34.2734 60.9405C34.5767 60.7888 34.8454 60.5743 35.0794 60.297V59.153C34.8584 59.0143 34.6071 58.906 34.3254 58.828C34.0437 58.75 33.7751 58.711 33.5194 58.711C33.0341 58.711 32.6506 58.8215 32.3689 59.0425C32.0872 59.2592 31.9464 59.556 31.9464 59.933C31.9464 60.3143 32.0721 60.6155 32.3234 60.8365C32.5747 61.0575 32.9214 61.168 33.3634 61.168ZM39.7688 62.156C39.3138 62.156 38.9649 62.0195 38.7223 61.7465C38.4839 61.4735 38.3648 61.0813 38.3648 60.57V56.345H37.2858V55.357H38.3648V53.16L39.4958 52.614V55.357H41.1338V56.345H39.4958V60.193C39.4958 60.5093 39.5499 60.7412 39.6583 60.8885C39.7709 61.0315 39.9464 61.103 40.1847 61.103C40.4881 61.103 40.8174 60.986 41.1728 60.752L41.0428 61.857C40.8478 61.961 40.6441 62.0368 40.4318 62.0845C40.2238 62.1322 40.0028 62.156 39.7688 62.156ZM44.8588 62.156C44.0398 62.156 43.4309 61.9133 43.0323 61.428C42.6379 60.9427 42.4408 60.1973 42.4408 59.192V55.357H43.5718V59.361C43.5718 59.9243 43.6953 60.3555 43.9423 60.6545C44.1893 60.9535 44.5424 61.103 45.0018 61.103C45.5088 61.103 45.8901 60.9578 46.1458 60.6675C46.4058 60.3772 46.5358 59.9503 46.5358 59.387V55.357H47.6668V62H46.5358V61.363C46.3234 61.636 46.0829 61.8375 45.8143 61.9675C45.5499 62.0932 45.2314 62.156 44.8588 62.156ZM49.9198 62V55.357H51.0508V56.228C51.2025 55.89 51.4105 55.6343 51.6748 55.461C51.9435 55.2877 52.2598 55.201 52.6238 55.201C53.0268 55.201 53.3692 55.3137 53.6508 55.539L53.4818 56.605C53.3388 56.5053 53.1893 56.4338 53.0333 56.3905C52.8817 56.3428 52.7148 56.319 52.5328 56.319C52.2338 56.319 51.9738 56.3992 51.7528 56.5595C51.5318 56.7198 51.3585 56.9452 51.2328 57.2355C51.1115 57.5258 51.0508 57.866 51.0508 58.256V62H49.9198ZM56.6426 62.156C55.9233 62.156 55.3578 61.9567 54.9461 61.558C54.5345 61.1593 54.3286 60.6133 54.3286 59.92C54.3286 59.4737 54.4305 59.0858 54.6341 58.7565C54.8378 58.4272 55.126 58.1737 55.4986 57.996C55.8713 57.814 56.309 57.723 56.8116 57.723C57.1366 57.723 57.44 57.7598 57.7216 57.8335C58.0076 57.9028 58.2763 58.009 58.5276 58.152V57.684C58.5276 57.1683 58.4106 56.7913 58.1766 56.553C57.9426 56.3103 57.5786 56.189 57.0846 56.189C56.7683 56.189 56.439 56.2475 56.0966 56.3645C55.7586 56.4815 55.4423 56.644 55.1476 56.852L54.8226 55.903C55.1563 55.682 55.5355 55.5108 55.9601 55.3895C56.3891 55.2638 56.8116 55.201 57.2276 55.201C58.0163 55.201 58.6078 55.4025 59.0021 55.8055C59.3965 56.2042 59.5936 56.8 59.5936 57.593V62H58.5276V61.389C58.2676 61.636 57.9751 61.8267 57.6501 61.961C57.3251 62.091 56.9893 62.156 56.6426 62.156ZM56.8116 61.168C57.1193 61.168 57.4226 61.0922 57.7216 60.9405C58.025 60.7888 58.2936 60.5743 58.5276 60.297V59.153C58.3066 59.0143 58.0553 58.906 57.7736 58.828C57.492 58.75 57.2233 58.711 56.9676 58.711C56.4823 58.711 56.0988 58.8215 55.8171 59.0425C55.5355 59.2592 55.3946 59.556 55.3946 59.933C55.3946 60.3143 55.5203 60.6155 55.7716 60.8365C56.023 61.0575 56.3696 61.168 56.8116 61.168ZM61.6264 62V53.147L62.7574 52.614V62H61.6264Z" fill="#1D2E42"/>
</svg>
