<svg width="53" height="73" viewBox="0 0 53 73" fill="none" xmlns="http://www.w3.org/2000/svg">
    <g clip-path="url(#clip0_1_14)">
        <path fill-rule="evenodd" clip-rule="evenodd" d="M21.7879 0.268278C21.3467 0.475982 20.9654 0.89065 20.8558 1.28167C20.8172 1.41904 20.7501 2.1075 20.7067 2.81153C20.5656 5.09561 20.3417 8.11746 20.2627 8.80599C20.1555 9.73888 19.901 10.3069 19.0752 11.4568C18.0313 12.9104 17.6758 13.6805 17.6077 14.6351C17.4668 16.6106 19.2994 18.8055 21.7136 19.5527C22.061 19.6603 22.3572 19.6967 22.8836 19.6967C23.6255 19.6967 23.6836 19.683 25.2025 19.1477C26.3584 18.7404 27.554 18.796 29.2655 19.3365C30.7058 19.7913 31.5094 19.8106 32.3193 19.4098C33.4969 18.8269 34.3548 17.2675 34.3529 15.7131C34.3513 14.3531 33.9004 13.25 32.5945 11.4111C32.2355 10.9055 31.673 9.99158 31.3447 9.38019C30.2265 7.29823 29.6149 5.2094 29.3722 2.6431C29.2093 0.922045 29.0391 0.555009 28.2498 0.223207C27.9392 0.0926419 27.7835 0.0859047 25.0523 0.0844899L22.1813 0.0830078L21.7879 0.268278ZM24.5121 2.80432C24.6621 2.94358 24.6817 3.01479 24.6557 3.32645C24.5496 4.60083 24.4615 5.79236 24.36 7.32538C24.2961 8.28878 24.2159 9.12614 24.1815 9.18617C24.1473 9.24613 23.9991 9.34819 23.8522 9.41294C23.606 9.5214 23.5665 9.52228 23.3446 9.42398C23.0213 9.28082 22.9764 9.08086 23.0431 8.08047C23.3876 2.91676 23.3967 2.83322 23.629 2.69606C23.6764 2.66803 23.8554 2.64472 24.0268 2.64411C24.2598 2.64337 24.3823 2.68379 24.5121 2.80432ZM18.4551 20.5677C18.2147 20.662 17.8895 20.9534 17.7452 21.2038C17.5972 21.4605 17.5827 22.9644 17.7226 23.5618C18.0015 24.7539 18.4034 25.6351 19.3748 27.1845C20.2011 28.5023 20.686 29.5297 21.3221 31.3094C21.9542 33.078 22.047 33.6372 22.1442 36.2612C22.2095 38.0254 22.2442 38.1628 22.7427 38.6257C23.2484 39.0953 23.2754 39.0978 27.43 39.0763L31.1284 39.0571L31.5218 38.8145C31.7981 38.6441 31.9763 38.4675 32.1209 38.2209C32.3153 37.8892 32.3301 37.804 32.3896 36.6782C32.5913 32.8609 33.0773 30.3399 34.2272 27.1461C34.9758 25.0668 35.1195 24.3714 35.1553 22.6523L35.1742 21.7428L34.9321 21.4159C34.3993 20.6968 33.5959 20.6564 32.603 21.2986C31.8453 21.7886 31.6093 21.8714 30.9705 21.8716C30.331 21.8718 30.154 21.828 29.0686 21.4016C28.1143 21.0267 27.6352 20.942 26.7077 20.9842C26.0404 21.0145 25.8294 21.0602 24.6447 21.4309C23.4383 21.8084 23.2722 21.8438 22.7067 21.8438C21.933 21.8438 21.4718 21.6938 20.712 21.1952C20.4084 20.996 20.0152 20.7685 19.838 20.6896C19.4715 20.5264 18.7277 20.4608 18.4551 20.5677Z" fill="white"/>
    </g>
    <path d="M0.0304347 72V58H4.99043C6.0971 58 6.9671 58.18 7.60044 58.54C8.23377 58.8933 8.68377 59.3533 8.95044 59.92C9.2171 60.4867 9.35043 61.08 9.35043 61.7C9.35043 62.34 9.17043 62.9167 8.81043 63.43C8.45044 63.9433 7.94377 64.34 7.29044 64.62C7.83043 64.7867 8.29043 65.0333 8.67044 65.36C9.0571 65.68 9.35043 66.0633 9.55043 66.51C9.75044 66.9567 9.85044 67.4467 9.85044 67.98C9.85044 68.4533 9.77377 68.9267 9.62044 69.4C9.4671 69.8733 9.21377 70.3067 8.86043 70.7C8.51377 71.0933 8.0471 71.41 7.46044 71.65C6.88044 71.8833 6.16377 72 5.31043 72H0.0304347ZM1.77043 70.4H5.51043C6.1971 70.4 6.73044 70.2867 7.11044 70.06C7.49043 69.8333 7.75377 69.5433 7.90043 69.19C8.05377 68.8367 8.13043 68.4733 8.13043 68.1C8.13043 67.6533 8.04043 67.2333 7.86043 66.84C7.68043 66.4467 7.35377 66.13 6.88043 65.89C6.41377 65.6433 5.74377 65.52 4.87043 65.52H1.77043V70.4ZM1.77043 63.94H4.65044C5.64377 63.94 6.3871 63.7367 6.88043 63.33C7.38043 62.9233 7.63043 62.3867 7.63043 61.72C7.63043 61.38 7.56377 61.0467 7.43044 60.72C7.30377 60.3867 7.0571 60.1133 6.69044 59.9C6.32377 59.6867 5.79043 59.58 5.09043 59.58H1.77043V63.94ZM16.9512 72.24C15.5512 72.24 14.4479 71.7633 13.6412 70.81C12.8345 69.85 12.4312 68.5467 12.4312 66.9C12.4312 65.8 12.6145 64.85 12.9812 64.05C13.3479 63.25 13.8679 62.6333 14.5412 62.2C15.2212 61.76 16.0245 61.54 16.9512 61.54C17.8845 61.54 18.6879 61.7567 19.3612 62.19C20.0412 62.6167 20.5612 63.23 20.9212 64.03C21.2879 64.83 21.4712 65.78 21.4712 66.88C21.4712 67.98 21.2879 68.9333 20.9212 69.74C20.5545 70.54 20.0312 71.1567 19.3512 71.59C18.6779 72.0233 17.8779 72.24 16.9512 72.24ZM16.9512 70.62C17.8112 70.62 18.4845 70.29 18.9712 69.63C19.4645 68.9633 19.7112 68.0467 19.7112 66.88C19.7112 65.7067 19.4645 64.79 18.9712 64.13C18.4845 63.47 17.8112 63.14 16.9512 63.14C16.0845 63.14 15.4079 63.47 14.9212 64.13C14.4345 64.7833 14.1912 65.7067 14.1912 66.9C14.1912 68.0667 14.4345 68.98 14.9212 69.64C15.4079 70.2933 16.0845 70.62 16.9512 70.62ZM24.0859 72V61.78H25.8259V62.82C26.1392 62.3867 26.5159 62.0667 26.9559 61.86C27.3959 61.6467 27.8992 61.54 28.4659 61.54C29.7059 61.54 30.6259 61.9167 31.2259 62.67C31.8259 63.4167 32.1259 64.5667 32.1259 66.12V72H30.3859V65.82C30.3859 64.96 30.1926 64.3 29.8059 63.84C29.4259 63.3733 28.8859 63.14 28.1859 63.14C27.4059 63.14 26.8159 63.3633 26.4159 63.81C26.0226 64.25 25.8259 64.9067 25.8259 65.78V72H24.0859ZM39.5884 72.24C38.6551 72.24 37.8484 72.01 37.1684 71.55C36.4884 71.09 35.9651 70.4567 35.5984 69.65C35.2317 68.8433 35.0484 67.92 35.0484 66.88C35.0484 65.7533 35.2384 64.7933 35.6184 64C35.9984 63.2 36.5284 62.59 37.2084 62.17C37.8884 61.75 38.6817 61.54 39.5884 61.54C40.3551 61.54 41.0584 61.7133 41.6984 62.06C42.3384 62.4 42.8484 62.93 43.2284 63.65C43.6151 64.3633 43.8084 65.28 43.8084 66.4C43.8084 66.56 43.8017 66.7467 43.7884 66.96C43.7817 67.1667 43.7684 67.38 43.7484 67.6H36.8284C36.8951 68.22 37.0484 68.7633 37.2884 69.23C37.5284 69.6967 37.8451 70.0633 38.2384 70.33C38.6317 70.59 39.0951 70.72 39.6284 70.72C40.0617 70.72 40.4617 70.6433 40.8284 70.49C41.2017 70.3367 41.5484 70.1 41.8684 69.78L42.8884 70.92C42.5084 71.3 42.0351 71.6167 41.4684 71.87C40.9084 72.1167 40.2817 72.24 39.5884 72.24ZM36.8084 66.08H42.0484C42.0484 65.5 41.9517 64.9833 41.7584 64.53C41.5717 64.07 41.2951 63.71 40.9284 63.45C40.5617 63.19 40.1151 63.06 39.5884 63.06C38.8484 63.06 38.2117 63.3 37.6784 63.78C37.1517 64.26 36.8617 65.0267 36.8084 66.08ZM49.2348 72.24C48.5148 72.24 47.8215 72.0867 47.1548 71.78C46.4948 71.4667 45.9548 71.0467 45.5348 70.52L46.7748 69.46C47.1348 69.8467 47.5348 70.1467 47.9748 70.36C48.4148 70.5733 48.8481 70.68 49.2748 70.68C49.8748 70.68 50.3415 70.5667 50.6748 70.34C51.0081 70.1067 51.1748 69.7867 51.1748 69.38C51.1748 69.1133 51.0981 68.8733 50.9448 68.66C50.7981 68.4467 50.5515 68.2433 50.2048 68.05C49.8648 67.8567 49.4081 67.6533 48.8348 67.44C47.7081 67.02 46.8981 66.5633 46.4048 66.07C45.9181 65.5767 45.6748 64.9667 45.6748 64.24C45.6748 63.44 45.9915 62.79 46.6248 62.29C47.2648 61.79 48.0948 61.54 49.1148 61.54C49.8148 61.54 50.4581 61.6733 51.0448 61.94C51.6315 62.2 52.1348 62.58 52.5548 63.08L51.3548 64.08C50.7415 63.4267 49.9881 63.1 49.0948 63.1C48.5681 63.1 48.1515 63.2033 47.8448 63.41C47.5448 63.61 47.3948 63.8867 47.3948 64.24C47.3948 64.58 47.5648 64.88 47.9048 65.14C48.2515 65.3933 48.8748 65.6867 49.7748 66.02C50.5081 66.2867 51.1015 66.5767 51.5548 66.89C52.0148 67.2033 52.3481 67.56 52.5548 67.96C52.7681 68.36 52.8748 68.82 52.8748 69.34C52.8748 70.24 52.5515 70.95 51.9048 71.47C51.2581 71.9833 50.3681 72.24 49.2348 72.24Z" fill="white"/>
    <defs>
        <clipPath id="clip0_1_14">
            <rect width="42" height="39" fill="white" transform="translate(5.00012)"/>
        </clipPath>
    </defs>
</svg>
