<svg width="24" height="24" viewBox="0 0 24 24" fill="none" xmlns="http://www.w3.org/2000/svg">
    <g clip-path="url(#clip0_23767_5225)">
        <path fill-rule="evenodd" clip-rule="evenodd" d="M10.8392 0.0287101C10.1722 0.0971361 9.18744 0.29101 8.59528 0.470522C5.86123 1.29928 3.57865 2.98961 1.97031 5.3765C1.21131 6.5029 0.500509 8.19797 0.237513 9.50862C0.0366054 10.51 0 10.8929 0 11.9938C0 13.4568 0.157826 14.469 0.588737 15.7697C1.56169 18.7063 3.71446 21.2241 6.47413 22.6528C8.12222 23.506 9.72507 23.9256 11.5901 23.992C13.6275 24.0645 15.5316 23.6451 17.3625 22.7206C18.6469 22.072 19.6179 21.358 20.6063 20.3351C21.5203 19.3893 22.1712 18.4678 22.756 17.2921C24.1691 14.4506 24.387 11.1779 23.3651 8.14545C23.1251 7.43308 22.5963 6.30471 22.2215 5.70502C20.3158 2.65579 17.2054 0.61784 13.655 0.0921145C13.0811 0.00712168 11.4153 -0.0303766 10.8392 0.0287101ZM17.8892 7.89226C18.2582 8.10617 18.4419 8.58478 18.3241 9.02523C18.2684 9.23351 18.0394 9.47403 14.8804 12.6425C12.814 14.715 11.4231 16.0748 11.3085 16.1346C11.0713 16.2583 10.6699 16.2656 10.4403 16.1503C10.213 16.0361 6.84535 12.6752 6.72225 12.4397C6.50074 12.0158 6.64477 11.4617 7.05062 11.1768C7.30522 10.998 7.75176 10.9519 8.00438 11.0782C8.09228 11.1222 8.77127 11.7631 9.51318 12.5023L10.8622 13.8465L13.8777 10.8371C17.1563 7.56519 17.0003 7.69871 17.4798 7.75329C17.596 7.76653 17.7802 7.82904 17.8892 7.89226Z" fill="#12635F"/>
    </g>
    <defs>
        <clipPath id="clip0_23767_5225">
            <rect width="24" height="24" fill="white"/>
        </clipPath>
    </defs>
</svg>
