<svg width="20" height="20" viewBox="0 0 20 20" fill="none" xmlns="http://www.w3.org/2000/svg">
<path d="M16.7886 3.21165C14.9754 1.39849 12.5646 0.399902 10.0004 0.399902C7.4361 0.399902 5.02534 1.39849 3.21214 3.21165C1.39898 5.02485 0.400391 7.43565 0.400391 9.9999C0.400391 12.5642 1.39898 14.9749 3.21214 16.7881C5.02534 18.6013 7.43614 19.5999 10.0004 19.5999C12.5646 19.5999 14.9754 18.6013 16.7886 16.7882C18.6018 14.9749 19.6004 12.5642 19.6004 9.9999C19.6004 7.43565 18.6018 5.02489 16.7886 3.21165ZM14.5869 7.71514L9.22193 13.0801C9.11209 13.19 8.96813 13.2449 8.8242 13.2449C8.68024 13.2449 8.53628 13.19 8.42644 13.0801L5.41392 10.0676C5.19424 9.84799 5.19424 9.49185 5.41392 9.27214C5.63355 9.05246 5.98973 9.05246 6.2094 9.27214L8.8242 11.8869L13.7914 6.91965C14.011 6.69998 14.3672 6.69998 14.5869 6.91965C14.8065 7.13933 14.8065 7.49546 14.5869 7.71514Z" fill="#65D36E"/>
</svg>
