<svg width="60" height="60" viewBox="0 0 60 60" fill="none" xmlns="http://www.w3.org/2000/svg">
<path fill-rule="evenodd" clip-rule="evenodd" d="M24.6754 0.332501C19.3912 1.43756 14.8899 3.50793 11.1074 6.5732C9.71604 7.70066 7.01666 10.4937 6.00504 11.8524C2.14275 17.0399 0 23.5005 0 29.9583C0 36.835 2.4868 43.8085 6.77131 48.9465C10.9237 53.9259 16.0937 57.2846 22.1779 58.9554C31.3554 61.4756 41.3477 59.3713 48.8586 53.3366C50.3418 52.1447 52.9864 49.399 54.1509 47.8414C55.9502 45.4349 57.5772 42.2307 58.6369 39.0067C60.6477 32.8894 60.4198 25.2146 58.0463 19.1119C54.193 9.20498 45.1929 1.90937 34.7263 0.208526C33.7624 0.0520084 32.3984 -0.00575203 29.8073 0.000446687C26.6319 0.00819508 26.0451 0.0460921 24.6754 0.332501ZM24.8465 17.3553C25.1226 17.6085 25.1625 17.8027 25.198 19.0649L25.2378 20.4888L29.9698 20.5258L34.7017 20.5629L34.7962 19.1874C34.9185 17.4074 34.9451 17.3315 35.5334 17.0852C35.9358 16.9167 36.1078 16.9096 36.4391 17.0471C37.0275 17.2912 37.1563 17.6392 37.2305 19.1842L37.2966 20.5592L38.227 20.5606C39.3276 20.5621 40.3159 20.9679 41.013 21.7043C41.6183 22.3434 41.8469 22.9568 41.9646 24.2573L42.0635 25.3491H30.0301H17.9968V24.485C17.9968 23.157 18.2328 22.5659 19.1162 21.6807C19.9974 20.7977 20.5898 20.5592 21.902 20.5592H22.7517L22.7996 19.0943C22.8384 17.9105 22.8976 17.5742 23.1082 17.3412C23.5639 16.8374 24.2879 16.8432 24.8465 17.3553ZM41.9159 33.1679C41.874 37.3759 41.8209 38.6039 41.6672 38.907C41.3254 39.5814 40.6099 40.2897 39.9126 40.6436L39.2368 40.9868H30.0183C20.04 40.9868 20.3921 41.0123 19.3507 40.2162C19.0899 40.017 18.6786 39.4818 18.4366 39.027L17.9968 38.2002V32.9713V27.7425L29.983 27.7784L41.9692 27.8145L41.9159 33.1679Z" fill="white"/>
</svg>
