<svg width="34" height="45" viewBox="0 0 34 45" fill="none" xmlns="http://www.w3.org/2000/svg">
<path fill-rule="evenodd" clip-rule="evenodd" d="M15.1809 0.135204C13.2894 0.47846 11.5903 1.39375 10.2602 2.7859C8.55344 4.5724 7.74176 6.69504 7.74176 9.37217V10.4724L6.59319 10.52C4.88376 10.5909 3.95919 10.9893 2.89923 12.1117C2.10649 12.951 1.70182 13.9063 1.60159 15.175C1.50699 16.3717 0.428467 39.2716 0.428467 40.0833C0.428467 42.3919 2.08793 44.4308 4.34755 44.8985C4.69315 44.9701 8.47637 45.0009 16.7708 45C27.0768 44.9988 28.7787 44.9794 29.2979 44.857C31.5013 44.3377 33.057 42.3415 33.057 40.0337C33.057 39.2584 31.9742 16.2964 31.8875 15.2326C31.7782 13.891 31.3758 12.9419 30.5487 12.0748C29.4983 10.9736 28.6151 10.5975 26.9043 10.5229L25.7677 10.4733L25.7185 9.00875C25.6468 6.87918 25.247 5.55585 24.1993 3.98124C22.2654 1.07477 18.6053 -0.486144 15.1809 0.135204ZM18.0085 3.1374C19.7073 3.49294 21.2847 4.71342 22.0681 6.27846C22.5652 7.27176 22.7396 8.09113 22.7418 9.44286L22.7434 10.4977H16.7427H10.7421L10.7437 9.44286C10.7457 8.10209 10.9196 7.27907 11.4113 6.28165C12.5908 3.88889 15.3393 2.57897 18.0085 3.1374ZM10.4354 15.4636C11.4307 15.9153 11.5601 17.2982 10.6707 17.9766C10.2308 18.3122 9.40262 18.3418 8.99092 18.0367C8.15524 17.4175 8.06382 16.3594 8.78765 15.6835C9.24886 15.253 9.80729 15.1785 10.4354 15.4636ZM24.5121 15.5356C24.9437 15.8553 25.1811 16.2966 25.1811 16.7796C25.1811 17.9015 23.9443 18.6271 22.9778 18.0724C22.5725 17.8397 22.1808 17.2042 22.1808 16.7796C22.1808 16.6467 22.2757 16.3498 22.3918 16.1197C22.7822 15.3453 23.8558 15.0496 24.5121 15.5356Z" fill="#1D2E42"/>
</svg>
