<svg width="34" height="45" viewBox="0 0 34 45" fill="none" xmlns="http://www.w3.org/2000/svg">
<path fill-rule="evenodd" clip-rule="evenodd" d="M15.1811 0.135204C13.2896 0.47846 11.5906 1.39375 10.2605 2.7859C8.55368 4.5724 7.742 6.69504 7.742 9.37217V10.4724L6.59344 10.52C4.884 10.5909 3.95943 10.9893 2.89948 12.1117C2.10673 12.951 1.70207 13.9063 1.60184 15.175C1.50723 16.3717 0.428711 39.2716 0.428711 40.0833C0.428711 42.3919 2.08817 44.4308 4.34779 44.8985C4.69339 44.9701 8.47661 45.0009 16.771 45C27.077 44.9988 28.779 44.9794 29.2981 44.857C31.5016 44.3377 33.0572 42.3415 33.0572 40.0337C33.0572 39.2584 31.9745 16.2964 31.8878 15.2326C31.7784 13.891 31.376 12.9419 30.549 12.0748C29.4986 10.9736 28.6153 10.5975 26.9045 10.5229L25.7679 10.4733L25.7187 9.00875C25.6471 6.87918 25.2472 5.55585 24.1995 3.98124C22.2656 1.07477 18.6055 -0.486144 15.1811 0.135204ZM18.0087 3.1374C19.7076 3.49294 21.285 4.71342 22.0684 6.27846C22.5655 7.27176 22.7399 8.09113 22.742 9.44286L22.7436 10.4977H16.743H10.7423L10.7439 9.44286C10.746 8.10209 10.9198 7.27907 11.4116 6.28165C12.5911 3.88889 15.3396 2.57897 18.0087 3.1374ZM10.4356 15.4636C11.4309 15.9153 11.5604 17.2982 10.671 17.9766C10.2311 18.3122 9.40287 18.3418 8.99117 18.0367C8.15548 17.4175 8.06407 16.3594 8.78789 15.6835C9.2491 15.253 9.80754 15.1785 10.4356 15.4636ZM24.5123 15.5356C24.944 15.8553 25.1814 16.2966 25.1814 16.7796C25.1814 17.9015 23.9446 18.6271 22.978 18.0724C22.5728 17.8397 22.1811 17.2042 22.1811 16.7796C22.1811 16.6467 22.2759 16.3498 22.392 16.1197C22.7824 15.3453 23.8561 15.0496 24.5123 15.5356Z" fill="#505050"/>
</svg>
