<svg width="30" height="30" viewBox="0 0 30 30" fill="none" xmlns="http://www.w3.org/2000/svg">
<path fill-rule="evenodd" clip-rule="evenodd" d="M0.823707 0.412182C-0.00724658 1.17573 0.0261398 1.53592 1.04035 2.75051C1.54448 3.35395 4.42556 6.3374 7.44277 9.38015L12.9287 14.9125L6.54801 21.3939C2.27305 25.7366 0.123888 28.0507 0.0355994 28.4068C-0.153962 29.1713 0.43531 29.92 1.285 29.9941C1.90803 30.0484 2.17308 29.81 8.45178 23.5484L14.9718 17.0462L21.466 23.4919C27.1508 29.1343 28.0391 29.9448 28.5924 29.9949C29.3176 30.0606 30 29.4832 30 28.8041C30 28.1164 29.1268 27.1381 22.9718 20.9304L17.0188 14.9266L23.4165 8.44242C28.1018 3.69425 29.8145 1.84318 29.8145 1.52785C29.8145 0.984282 28.8589 0 28.3312 0C27.8323 0 26.9722 0.803717 20.3086 7.49792L14.9759 12.855L8.71609 6.53823C1.93845 -0.300878 1.75501 -0.44334 0.823707 0.412182Z" fill="white"/>
</svg>
