<svg width="68" height="68" viewBox="0 0 68 68" fill="none" xmlns="http://www.w3.org/2000/svg">
    <path fill-rule="evenodd" clip-rule="evenodd" d="M32.5119 0.0615795C25.9279 0.435163 19.5496 4.32641 16.0571 10.1003C12.4671 16.0356 12.0143 23.2228 14.8291 29.5954C15.2243 30.4902 15.9336 31.8008 16.0227 31.8008C16.0786 31.8008 16.4965 31.5375 18.3549 30.3313C18.7494 30.0751 19.4378 29.6292 19.8848 29.3405C20.3317 29.0517 21.2172 28.4753 21.8526 28.0598C22.4879 27.6441 23.6596 26.8825 24.4565 26.3672L25.9053 25.4304V21.6795V17.9289L27.8306 15.4433L29.756 12.9576V11.5441V10.1305L29.955 9.93117C30.1117 9.77444 30.2283 9.73146 30.5024 9.72999C30.9521 9.72747 37.0853 9.72747 38.1832 9.72999C38.9879 9.73188 39.0305 9.74007 39.2214 9.93117L39.4205 10.1305V11.5324V12.9344L40.1452 14.2241C40.5438 14.9333 40.8958 15.5412 40.9275 15.5751C40.9592 15.6088 41.61 15.2288 42.3735 14.7307C45.0859 12.9613 45.5298 12.6729 48.33 10.8624C49.8871 9.85543 51.1725 9.02201 51.1864 9.01032C51.3063 8.90847 49.9581 7.26733 48.8272 6.13818C47.7023 5.01515 46.916 4.36675 45.7251 3.58022C42.4981 1.44882 39.0333 0.272217 35.3476 0.0559114C34.058 -0.0196673 33.9397 -0.0194408 32.5119 0.0615795ZM51.0066 12.9669C50.0081 13.6194 47.6212 15.1736 45.7029 16.4207L42.2148 18.688L42.2143 25.288L42.2141 31.888L41.9934 32.1089L41.7727 32.3298H34.1373C25.9828 32.3298 26.1848 32.3387 26.0098 31.9737C25.9742 31.8993 25.9276 31.2672 25.9063 30.5688L25.8675 29.2989L21.8896 31.8865C18.2659 34.2438 17.9186 34.4874 17.9905 34.6218C18.1498 34.9198 20.2283 36.9206 21.0039 37.5227C24.1268 39.9469 27.7484 41.4375 31.6159 41.8903C32.8669 42.0369 35.1806 42.0364 36.4354 41.8894C45.5298 40.8245 52.9046 33.9865 54.6237 25.0253C54.9139 23.5128 55.0052 22.5135 54.9998 20.9175C54.992 18.6854 54.6783 16.6748 54.0176 14.6204C53.6738 13.5519 52.9533 11.7692 52.8683 11.7766C52.8431 11.7788 52.0054 12.3144 51.0066 12.9669ZM29.4515 15.6804C28.7261 16.6242 28.1217 17.4405 28.1082 17.4943C28.0887 17.5724 28.4871 17.5921 30.0936 17.5921H32.1035L32.2887 17.7776C32.5616 18.0508 32.542 18.4284 32.2418 18.6812L32.0095 18.877H29.6746H27.3398V21.6795V24.4822L27.623 24.3092C27.8778 24.1533 29.0026 23.4217 31.0396 22.0867C31.4341 21.8282 32.4533 21.1663 33.3047 20.6158C34.156 20.0653 34.8776 19.5764 34.908 19.5294C34.9385 19.4823 34.9639 19.0899 34.9645 18.6574L34.9658 17.8711L36.1361 15.9612C36.7798 14.9106 37.3064 14.0317 37.3064 14.0078C37.3064 13.9839 35.8358 13.9643 34.0384 13.9643H30.7705L29.4515 15.6804ZM31.0584 25.9281L27.3398 28.3554V29.7008V31.0465L31.1339 31.0268L34.928 31.0073L34.9475 27.2472C34.9631 24.2615 34.9475 23.4887 34.8721 23.4942C34.8198 23.4979 33.1036 24.5933 31.0584 25.9281Z" fill="#1D2E42"/>
    <path d="M6.69685 62V52.9H9.17985C9.95985 52.9 10.6185 53.03 11.1559 53.29C11.6975 53.55 12.133 53.8988 12.4624 54.3365C12.7917 54.7698 13.03 55.2573 13.1774 55.799C13.329 56.3363 13.4049 56.8867 13.4049 57.45C13.4049 57.9743 13.3355 58.503 13.1969 59.036C13.0582 59.569 12.8264 60.0608 12.5014 60.5115C12.1807 60.9578 11.7452 61.3175 11.1949 61.5905C10.6445 61.8635 9.95552 62 9.12785 62H6.69685ZM7.82785 60.947H9.27085C9.83852 60.947 10.3109 60.8452 10.6879 60.6415C11.0692 60.4335 11.3725 60.1605 11.5979 59.8225C11.8275 59.4802 11.99 59.1032 12.0854 58.6915C12.185 58.2755 12.2349 57.8617 12.2349 57.45C12.2349 57.008 12.1807 56.579 12.0724 56.163C11.9684 55.7427 11.8015 55.3657 11.5719 55.032C11.3465 54.6983 11.0562 54.434 10.7009 54.239C10.3455 54.0397 9.91652 53.94 9.41385 53.94H7.82785V60.947ZM17.0587 62.156C16.3393 62.156 15.7738 61.9567 15.3622 61.558C14.9505 61.1593 14.7447 60.6133 14.7447 59.92C14.7447 59.4737 14.8465 59.0858 15.0502 58.7565C15.2538 58.4272 15.542 58.1737 15.9147 57.996C16.2873 57.814 16.725 57.723 17.2277 57.723C17.5527 57.723 17.856 57.7598 18.1377 57.8335C18.4237 57.9028 18.6923 58.009 18.9437 58.152V57.684C18.9437 57.1683 18.8267 56.7913 18.5927 56.553C18.3587 56.3103 17.9947 56.189 17.5007 56.189C17.1843 56.189 16.855 56.2475 16.5127 56.3645C16.1747 56.4815 15.8583 56.644 15.5637 56.852L15.2387 55.903C15.5723 55.682 15.9515 55.5108 16.3762 55.3895C16.8052 55.2638 17.2277 55.201 17.6437 55.201C18.4323 55.201 19.0238 55.4025 19.4182 55.8055C19.8125 56.2042 20.0097 56.8 20.0097 57.593V62H18.9437V61.389C18.6837 61.636 18.3912 61.8267 18.0662 61.961C17.7412 62.091 17.4053 62.156 17.0587 62.156ZM17.2277 61.168C17.5353 61.168 17.8387 61.0922 18.1377 60.9405C18.441 60.7888 18.7097 60.5743 18.9437 60.297V59.153C18.7227 59.0143 18.4713 58.906 18.1897 58.828C17.908 58.75 17.6393 58.711 17.3837 58.711C16.8983 58.711 16.5148 58.8215 16.2332 59.0425C15.9515 59.2592 15.8107 59.556 15.8107 59.933C15.8107 60.3143 15.9363 60.6155 16.1877 60.8365C16.439 61.0575 16.7857 61.168 17.2277 61.168ZM21.9904 62V55.357H23.1214V62H21.9904ZM22.5494 54.148C22.3544 54.148 22.1876 54.0808 22.0489 53.9465C21.9146 53.8078 21.8474 53.641 21.8474 53.446C21.8474 53.2423 21.9146 53.0712 22.0489 52.9325C22.1876 52.7895 22.3544 52.718 22.5494 52.718C22.7531 52.718 22.9221 52.7895 23.0564 52.9325C23.1951 53.0712 23.2644 53.2423 23.2644 53.446C23.2644 53.641 23.1951 53.8078 23.0564 53.9465C22.9221 54.0808 22.7531 54.148 22.5494 54.148ZM25.2782 62V55.357H26.4092V56.228C26.5609 55.89 26.7689 55.6343 27.0332 55.461C27.3019 55.2877 27.6182 55.201 27.9822 55.201C28.3852 55.201 28.7276 55.3137 29.0092 55.539L28.8402 56.605C28.6972 56.5053 28.5477 56.4338 28.3917 56.3905C28.2401 56.3428 28.0732 56.319 27.8912 56.319C27.5922 56.319 27.3322 56.3992 27.1112 56.5595C26.8902 56.7198 26.7169 56.9452 26.5912 57.2355C26.4699 57.5258 26.4092 57.866 26.4092 58.256V62H25.2782ZM31.2317 64.522L32.2457 61.831L29.7887 55.357H30.9197L32.5707 59.881C32.6184 59.998 32.6574 60.1042 32.6877 60.1995C32.718 60.2948 32.7484 60.401 32.7787 60.518C32.8134 60.401 32.8459 60.2948 32.8762 60.1995C32.9065 60.1042 32.9434 59.998 32.9867 59.881L34.6637 55.357H35.8207L32.3757 64.522H31.2317ZM40.7626 62V56.345H39.7356V55.357H40.7626V54.252C40.7626 53.7753 40.8883 53.4048 41.1396 53.1405C41.3953 52.8762 41.7506 52.744 42.2056 52.744C42.4266 52.744 42.639 52.77 42.8426 52.822C43.0463 52.874 43.2456 52.952 43.4406 53.056V54.005C43.2543 53.9183 43.0875 53.8555 42.9401 53.8165C42.7928 53.7775 42.6433 53.758 42.4916 53.758C42.2793 53.758 42.1255 53.8122 42.0301 53.9205C41.9391 54.0245 41.8936 54.2 41.8936 54.447V55.357H43.4406V56.345H41.8936V62H40.7626ZM44.7147 62V55.357H45.8457V56.228C45.9974 55.89 46.2054 55.6343 46.4697 55.461C46.7384 55.2877 47.0547 55.201 47.4187 55.201C47.8217 55.201 48.1641 55.3137 48.4457 55.539L48.2767 56.605C48.1337 56.5053 47.9842 56.4338 47.8282 56.3905C47.6766 56.3428 47.5097 56.319 47.3277 56.319C47.0287 56.319 46.7687 56.3992 46.5477 56.5595C46.3267 56.7198 46.1534 56.9452 46.0277 57.2355C45.9064 57.5258 45.8457 57.866 45.8457 58.256V62H44.7147ZM51.9984 62.156C51.3917 62.156 50.8674 62.0065 50.4254 61.7075C49.9834 61.4085 49.6432 60.9968 49.4049 60.4725C49.1666 59.9482 49.0474 59.348 49.0474 58.672C49.0474 57.9397 49.1709 57.3157 49.4179 56.8C49.6649 56.28 50.0094 55.8835 50.4514 55.6105C50.8934 55.3375 51.4091 55.201 51.9984 55.201C52.4967 55.201 52.9539 55.3137 53.3699 55.539C53.7859 55.76 54.1174 56.1045 54.3644 56.5725C54.6157 57.0362 54.7414 57.632 54.7414 58.36C54.7414 58.464 54.7371 58.5853 54.7284 58.724C54.7241 58.8583 54.7154 58.997 54.7024 59.14H50.2044C50.2477 59.543 50.3474 59.8962 50.5034 60.1995C50.6594 60.5028 50.8652 60.7412 51.1209 60.9145C51.3766 61.0835 51.6777 61.168 52.0244 61.168C52.3061 61.168 52.5661 61.1182 52.8044 61.0185C53.0471 60.9188 53.2724 60.765 53.4804 60.557L54.1434 61.298C53.8964 61.545 53.5887 61.7508 53.2204 61.9155C52.8564 62.0758 52.4491 62.156 51.9984 62.156ZM50.1914 58.152H53.5974C53.5974 57.775 53.5346 57.4392 53.4089 57.1445C53.2876 56.8455 53.1077 56.6115 52.8694 56.4425C52.6311 56.2735 52.3407 56.189 51.9984 56.189C51.5174 56.189 51.1036 56.345 50.7569 56.657C50.4146 56.969 50.2261 57.4673 50.1914 58.152ZM59.222 62.156C58.6154 62.156 58.091 62.0065 57.649 61.7075C57.207 61.4085 56.8669 60.9968 56.6285 60.4725C56.3902 59.9482 56.271 59.348 56.271 58.672C56.271 57.9397 56.3945 57.3157 56.6415 56.8C56.8885 56.28 57.233 55.8835 57.675 55.6105C58.117 55.3375 58.6327 55.201 59.222 55.201C59.7204 55.201 60.1775 55.3137 60.5935 55.539C61.0095 55.76 61.341 56.1045 61.588 56.5725C61.8394 57.0362 61.965 57.632 61.965 58.36C61.965 58.464 61.9607 58.5853 61.952 58.724C61.9477 58.8583 61.939 58.997 61.926 59.14H57.428C57.4714 59.543 57.571 59.8962 57.727 60.1995C57.883 60.5028 58.0889 60.7412 58.3445 60.9145C58.6002 61.0835 58.9014 61.168 59.248 61.168C59.5297 61.168 59.7897 61.1182 60.028 61.0185C60.2707 60.9188 60.496 60.765 60.704 60.557L61.367 61.298C61.12 61.545 60.8124 61.7508 60.444 61.9155C60.08 62.0758 59.6727 62.156 59.222 62.156ZM57.415 58.152H60.821C60.821 57.775 60.7582 57.4392 60.6325 57.1445C60.5112 56.8455 60.3314 56.6115 60.093 56.4425C59.8547 56.2735 59.5644 56.189 59.222 56.189C58.741 56.189 58.3272 56.345 57.9805 56.657C57.6382 56.969 57.4497 57.4673 57.415 58.152Z" fill="#1D2E42"/>
</svg>
