<svg width="127" height="98" viewBox="0 0 127 98" fill="none" xmlns="http://www.w3.org/2000/svg">
<path fill-rule="evenodd" clip-rule="evenodd" d="M61.8741 0.0879707C52.4684 0.621662 43.3565 6.18059 38.3673 14.429C33.2387 22.908 32.5919 33.1755 36.613 42.2792C37.1776 43.5575 38.1909 45.4298 38.3181 45.4298C38.398 45.4298 38.995 45.0536 41.6498 43.3304C42.2134 42.9644 43.1969 42.3275 43.8354 41.915C44.4739 41.5025 45.7389 40.679 46.6466 40.0854C47.5541 39.4916 49.228 38.4036 50.3664 37.6674L52.4361 36.3291V30.9708V25.6128L55.1866 22.0618L57.9371 18.5109V16.4916V14.4721L58.2214 14.1874C58.4453 13.9635 58.6119 13.9021 59.0034 13.9C59.6459 13.8964 68.4076 13.8964 69.976 13.9C71.1256 13.9027 71.1865 13.9144 71.4592 14.1874L71.7436 14.4721V16.4748V18.4777L72.7789 20.3201C73.3483 21.3333 73.8511 22.2018 73.8964 22.2501C73.9417 22.2983 74.8714 21.7555 75.9622 21.0439C79.837 18.5162 80.4712 18.1042 84.4714 15.5177C86.6959 14.0792 88.5322 12.8886 88.552 12.8719C88.7233 12.7264 86.7973 10.3819 85.1818 8.76884C83.5747 7.1645 82.4515 6.23822 80.7502 5.1146C76.1401 2.06975 71.1904 0.388881 65.9251 0.0798734C64.0828 -0.0280962 63.9138 -0.0277726 61.8741 0.0879707ZM88.2952 18.5242C86.8687 19.4563 83.4589 21.6766 80.7184 23.4581L75.7354 26.6971L75.7348 36.1257L75.7345 45.5543L75.4192 45.8699L75.1039 46.1855H64.1962C52.5468 46.1855 52.8355 46.1981 52.5855 45.6767C52.5346 45.5705 52.468 44.6675 52.4376 43.6697L52.3822 41.8556L46.6994 45.5522C41.5227 48.9197 41.0266 49.2677 41.1293 49.4597C41.3569 49.8854 44.3262 52.7438 45.4342 53.6039C49.8955 57.0671 55.0692 59.1965 60.5941 59.8433C62.3813 60.0527 65.6866 60.0521 67.4791 59.8421C80.4712 58.3208 91.0066 48.5522 93.4624 35.7504C93.877 33.5898 94.0075 32.1621 93.9997 29.8822C93.9886 26.6935 93.5404 23.8212 92.5966 20.8863C92.1055 19.3599 91.0762 16.8131 90.9547 16.8237C90.9187 16.8268 89.722 17.592 88.2952 18.5242ZM57.5022 22.4006C56.4659 23.7489 55.6024 24.915 55.5832 24.9919C55.5553 25.1035 56.1245 25.1316 58.4195 25.1316H61.2907L61.5553 25.3966C61.9452 25.7869 61.9171 26.3263 61.4883 26.6875L61.1565 26.9671H57.8209H54.4855V30.9708V34.9746L54.89 34.7274C55.254 34.5048 56.8608 33.4596 59.7708 31.5525C60.3344 31.1832 61.7905 30.2376 63.0067 29.4511C64.2229 28.6648 65.2537 27.9663 65.2972 27.8991C65.3407 27.8319 65.377 27.2713 65.3779 26.6535L65.3797 25.5302L67.0516 22.8017C67.9711 21.3009 68.7235 20.0453 68.7235 20.0111C68.7235 19.977 66.6226 19.949 64.0549 19.949H59.3864L57.5022 22.4006ZM59.7977 37.0401L54.4855 40.5078V42.4298V44.3522L59.9056 44.324L65.3257 44.2961L65.3536 38.9246C65.3758 34.6593 65.3536 33.5553 65.2459 33.5631C65.1712 33.5685 62.7194 35.1333 59.7977 37.0401Z" fill="#505050"/>
<path d="M14.9884 81.8H19.8844C21.079 81.8 22.1404 82.0347 23.0684 82.504C23.9964 82.9627 24.7164 83.6187 25.2284 84.472C25.7404 85.3147 25.9964 86.2907 25.9964 87.4C25.9964 88.5093 25.7404 89.4907 25.2284 90.344C24.7164 91.1867 23.9964 91.8427 23.0684 92.312C22.1404 92.7707 21.079 93 19.8844 93H14.9884V81.8ZM19.7884 91.24C20.6097 91.24 21.3297 91.0853 21.9484 90.776C22.5777 90.456 23.0577 90.008 23.3884 89.432C23.7297 88.8453 23.9004 88.168 23.9004 87.4C23.9004 86.632 23.7297 85.96 23.3884 85.384C23.0577 84.7973 22.5777 84.3493 21.9484 84.04C21.3297 83.72 20.6097 83.56 19.7884 83.56H17.0684V91.24H19.7884ZM35.3149 90.408H29.7149L28.6109 93H26.4669L31.5069 81.8H33.5549L38.6109 93H36.4349L35.3149 90.408ZM34.6269 88.776L32.5149 83.88L30.4189 88.776H34.6269ZM40.0353 81.8H42.1153V93H40.0353V81.8ZM52.4726 93L50.1846 89.72C50.0886 89.7307 49.9446 89.736 49.7526 89.736H47.2246V93H45.1446V81.8H49.7526C50.7233 81.8 51.566 81.96 52.2806 82.28C53.006 82.6 53.5606 83.0587 53.9446 83.656C54.3286 84.2533 54.5206 84.9627 54.5206 85.784C54.5206 86.6267 54.3126 87.352 53.8966 87.96C53.4913 88.568 52.9046 89.0213 52.1366 89.32L54.7126 93H52.4726ZM52.4246 85.784C52.4246 85.0693 52.19 84.52 51.7206 84.136C51.2513 83.752 50.5633 83.56 49.6566 83.56H47.2246V88.024H49.6566C50.5633 88.024 51.2513 87.832 51.7206 87.448C52.19 87.0533 52.4246 86.4987 52.4246 85.784ZM61.5235 89.048V93H59.4435V89.08L55.0435 81.8H57.2675L60.5475 87.256L63.8595 81.8H65.9075L61.5235 89.048ZM73.7715 83.544V86.952H79.1795V88.712H73.7715V93H71.6915V81.8H79.8675V83.544H73.7715ZM89.207 93L86.919 89.72C86.823 89.7307 86.679 89.736 86.487 89.736H83.959V93H81.879V81.8H86.487C87.4577 81.8 88.3003 81.96 89.015 82.28C89.7403 82.6 90.295 83.0587 90.679 83.656C91.063 84.2533 91.255 84.9627 91.255 85.784C91.255 86.6267 91.047 87.352 90.631 87.96C90.2257 88.568 89.639 89.0213 88.871 89.32L91.447 93H89.207ZM89.159 85.784C89.159 85.0693 88.9243 84.52 88.455 84.136C87.9857 83.752 87.2977 83.56 86.391 83.56H83.959V88.024H86.391C87.2977 88.024 87.9857 87.832 88.455 87.448C88.9243 87.0533 89.159 86.4987 89.159 85.784ZM101.982 91.256V93H93.5821V81.8H101.758V83.544H95.6621V86.456H101.07V88.168H95.6621V91.256H101.982ZM112.701 91.256V93H104.301V81.8H112.477V83.544H106.381V86.456H111.789V88.168H106.381V91.256H112.701Z" fill="#505050"/>
</svg>
