<svg width="127" height="98" viewBox="0 0 127 98" fill="none" xmlns="http://www.w3.org/2000/svg">
    <g clip-path="url(#clip0_102_37)">
        <path fill-rule="evenodd" clip-rule="evenodd" d="M61.8741 0.0879707C52.4684 0.621662 43.3565 6.18059 38.3673 14.429C33.2387 22.908 32.5919 33.1755 36.613 42.2792C37.1776 43.5575 38.1909 45.4298 38.3181 45.4298C38.398 45.4298 38.995 45.0536 41.6498 43.3304C42.2134 42.9644 43.1969 42.3275 43.8354 41.915C44.4739 41.5025 45.7389 40.679 46.6466 40.0854C47.5541 39.4916 49.228 38.4036 50.3664 37.6674L52.4361 36.3291V30.9708V25.6128L55.1866 22.0618L57.9371 18.5109V16.4916V14.4721L58.2214 14.1874C58.4453 13.9635 58.6119 13.9021 59.0034 13.9C59.6459 13.8964 68.4076 13.8964 69.976 13.9C71.1256 13.9027 71.1865 13.9144 71.4592 14.1874L71.7436 14.4721V16.4748V18.4777L72.7789 20.3201C73.3483 21.3333 73.8511 22.2018 73.8964 22.2501C73.9417 22.2983 74.8714 21.7555 75.9622 21.0439C79.837 18.5162 80.4712 18.1042 84.4714 15.5177C86.6959 14.0792 88.5322 12.8886 88.552 12.8719C88.7233 12.7264 86.7973 10.3819 85.1818 8.76884C83.5747 7.1645 82.4515 6.23822 80.7502 5.1146C76.1401 2.06975 71.1904 0.388881 65.9251 0.0798734C64.0828 -0.0280962 63.9138 -0.0277726 61.8741 0.0879707ZM88.2952 18.5242C86.8687 19.4563 83.4589 21.6766 80.7184 23.4581L75.7354 26.6971L75.7348 36.1257L75.7345 45.5543L75.4192 45.8699L75.1039 46.1855H64.1962C52.5468 46.1855 52.8355 46.1981 52.5855 45.6767C52.5346 45.5705 52.468 44.6675 52.4376 43.6697L52.3822 41.8556L46.6994 45.5522C41.5227 48.9197 41.0266 49.2677 41.1293 49.4597C41.3569 49.8854 44.3262 52.7438 45.4342 53.6039C49.8955 57.0671 55.0692 59.1965 60.5941 59.8433C62.3813 60.0527 65.6866 60.0521 67.4791 59.8421C80.4712 58.3208 91.0066 48.5522 93.4624 35.7504C93.877 33.5898 94.0075 32.1621 93.9997 29.8822C93.9886 26.6935 93.5404 23.8212 92.5966 20.8863C92.1055 19.3599 91.0762 16.8131 90.9547 16.8237C90.9187 16.8268 89.722 17.592 88.2952 18.5242ZM57.5022 22.4006C56.4659 23.7489 55.6024 24.915 55.5832 24.9919C55.5553 25.1035 56.1245 25.1316 58.4195 25.1316H61.2907L61.5553 25.3966C61.9452 25.7869 61.9171 26.3263 61.4883 26.6875L61.1565 26.9671H57.8209H54.4855V30.9708V34.9746L54.89 34.7274C55.254 34.5048 56.8608 33.4596 59.7708 31.5525C60.3344 31.1832 61.7905 30.2376 63.0067 29.4511C64.2229 28.6648 65.2537 27.9663 65.2972 27.8991C65.3407 27.8319 65.377 27.2713 65.3779 26.6535L65.3797 25.5302L67.0516 22.8017C67.9711 21.3009 68.7235 20.0453 68.7235 20.0111C68.7235 19.977 66.6226 19.949 64.0549 19.949H59.3864L57.5022 22.4006ZM59.7977 37.0401L54.4855 40.5078V42.4298V44.3522L59.9056 44.324L65.3257 44.2961L65.3536 38.9246C65.3758 34.6593 65.3536 33.5553 65.2459 33.5631C65.1712 33.5685 62.7194 35.1333 59.7977 37.0401Z" fill="#1D2E42"/>
        <path d="M23.5954 94V80.7H27.2244C28.3644 80.7 29.3271 80.89 30.1124 81.27C30.9041 81.65 31.5406 82.1598 32.0219 82.7995C32.5032 83.4328 32.8516 84.1453 33.0669 84.937C33.2886 85.7223 33.3994 86.5267 33.3994 87.35C33.3994 88.1163 33.2981 88.889 33.0954 89.668C32.8927 90.447 32.5539 91.1658 32.0789 91.8245C31.6102 92.4768 30.9737 93.0025 30.1694 93.4015C29.3651 93.8005 28.3581 94 27.1484 94H23.5954ZM25.2484 92.461H27.3574C28.1871 92.461 28.8774 92.3122 29.4284 92.0145C29.9857 91.7105 30.4291 91.3115 30.7584 90.8175C31.0941 90.3172 31.3316 89.7662 31.4709 89.1645C31.6166 88.5565 31.6894 87.9517 31.6894 87.35C31.6894 86.704 31.6102 86.077 31.4519 85.469C31.2999 84.8547 31.0561 84.3037 30.7204 83.816C30.3911 83.3283 29.9667 82.942 29.4474 82.657C28.9281 82.3657 28.3011 82.22 27.5664 82.22H25.2484V92.461ZM38.7396 94.228C37.6883 94.228 36.8618 93.9367 36.2601 93.354C35.6584 92.7713 35.3576 91.9733 35.3576 90.96C35.3576 90.3077 35.5064 89.7408 35.8041 89.2595C36.1018 88.7782 36.5229 88.4077 37.0676 88.148C37.6123 87.882 38.2519 87.749 38.9866 87.749C39.4616 87.749 39.9049 87.8028 40.3166 87.9105C40.7346 88.0118 41.1273 88.167 41.4946 88.376V87.692C41.4946 86.9383 41.3236 86.3873 40.9816 86.039C40.6396 85.6843 40.1076 85.507 39.3856 85.507C38.9233 85.507 38.4419 85.5925 37.9416 85.7635C37.4476 85.9345 36.9853 86.172 36.5546 86.476L36.0796 85.089C36.5673 84.766 37.1214 84.5158 37.7421 84.3385C38.3691 84.1548 38.9866 84.063 39.5946 84.063C40.7473 84.063 41.6118 84.3575 42.1881 84.9465C42.7644 85.5292 43.0526 86.4 43.0526 87.559V94H41.4946V93.107C41.1146 93.468 40.6871 93.7467 40.2121 93.943C39.7371 94.133 39.2463 94.228 38.7396 94.228ZM38.9866 92.784C39.4363 92.784 39.8796 92.6732 40.3166 92.4515C40.7599 92.2298 41.1526 91.9163 41.4946 91.511V89.839C41.1716 89.6363 40.8043 89.478 40.3926 89.364C39.9809 89.25 39.5883 89.193 39.2146 89.193C38.5053 89.193 37.9448 89.3545 37.5331 89.6775C37.1214 89.9942 36.9156 90.428 36.9156 90.979C36.9156 91.5363 37.0993 91.9765 37.4666 92.2995C37.8339 92.6225 38.3406 92.784 38.9866 92.784ZM45.9476 94V84.291H47.6006V94H45.9476ZM46.7646 82.524C46.4796 82.524 46.2357 82.4258 46.0331 82.2295C45.8367 82.0268 45.7386 81.783 45.7386 81.498C45.7386 81.2003 45.8367 80.9502 46.0331 80.7475C46.2357 80.5385 46.4796 80.434 46.7646 80.434C47.0622 80.434 47.3092 80.5385 47.5056 80.7475C47.7082 80.9502 47.8096 81.2003 47.8096 81.498C47.8096 81.783 47.7082 82.0268 47.5056 82.2295C47.3092 82.4258 47.0622 82.524 46.7646 82.524ZM50.7528 94V84.291H52.4058V85.564C52.6274 85.07 52.9314 84.6963 53.3178 84.443C53.7104 84.1897 54.1728 84.063 54.7048 84.063C55.2938 84.063 55.7941 84.2277 56.2058 84.557L55.9588 86.115C55.7498 85.9693 55.5313 85.8648 55.3033 85.8015C55.0816 85.7318 54.8378 85.697 54.5718 85.697C54.1348 85.697 53.7548 85.8142 53.4318 86.0485C53.1088 86.2828 52.8554 86.6122 52.6718 87.0365C52.4944 87.4608 52.4058 87.958 52.4058 88.528V94H50.7528ZM59.454 97.686L60.936 93.753L57.345 84.291H58.998L61.411 90.903C61.4807 91.074 61.5377 91.2292 61.582 91.3685C61.6264 91.5078 61.6707 91.663 61.715 91.834C61.7657 91.663 61.8132 91.5078 61.8575 91.3685C61.9019 91.2292 61.9557 91.074 62.019 90.903L64.47 84.291H66.161L61.126 97.686H59.454ZM73.3839 94V85.735H71.8829V84.291H73.3839V82.676C73.3839 81.9793 73.5675 81.4378 73.9349 81.0515C74.3085 80.6652 74.8279 80.472 75.4929 80.472C75.8159 80.472 76.1262 80.51 76.4239 80.586C76.7215 80.662 77.0129 80.776 77.2979 80.928V82.315C77.0255 82.1883 76.7817 82.0965 76.5664 82.0395C76.351 81.9825 76.1325 81.954 75.9109 81.954C75.6005 81.954 75.3757 82.0332 75.2364 82.1915C75.1034 82.3435 75.0369 82.6 75.0369 82.961V84.291H77.2979V85.735H75.0369V94H73.3839ZM79.16 94V84.291H80.813V85.564C81.0347 85.07 81.3387 84.6963 81.725 84.443C82.1177 84.1897 82.58 84.063 83.112 84.063C83.701 84.063 84.2013 84.2277 84.613 84.557L84.366 86.115C84.157 85.9693 83.9385 85.8648 83.7105 85.8015C83.4888 85.7318 83.245 85.697 82.979 85.697C82.542 85.697 82.162 85.8142 81.839 86.0485C81.516 86.2828 81.2627 86.6122 81.079 87.0365C80.9017 87.4608 80.813 87.958 80.813 88.528V94H79.16ZM89.8054 94.228C88.9187 94.228 88.1524 94.0095 87.5064 93.5725C86.8604 93.1355 86.3632 92.5338 86.0149 91.7675C85.6665 91.0012 85.4924 90.124 85.4924 89.136C85.4924 88.0657 85.6729 87.1537 86.0339 86.4C86.3949 85.64 86.8984 85.0605 87.5444 84.6615C88.1904 84.2625 88.944 84.063 89.8054 84.063C90.5337 84.063 91.2019 84.2277 91.8099 84.557C92.4179 84.88 92.9024 85.3835 93.2634 86.0675C93.6307 86.7452 93.8144 87.616 93.8144 88.68C93.8144 88.832 93.808 89.0093 93.7954 89.212C93.789 89.4083 93.7764 89.611 93.7574 89.82H87.1834C87.2467 90.409 87.3924 90.9252 87.6204 91.3685C87.8484 91.8118 88.1492 92.1602 88.5229 92.4135C88.8965 92.6605 89.3367 92.784 89.8434 92.784C90.255 92.784 90.635 92.7112 90.9834 92.5655C91.338 92.4198 91.6674 92.195 91.9714 91.891L92.9404 92.974C92.5794 93.335 92.1297 93.6358 91.5914 93.8765C91.0594 94.1108 90.464 94.228 89.8054 94.228ZM87.1644 88.376H92.1424C92.1424 87.825 92.0505 87.3342 91.8669 86.9035C91.6895 86.4665 91.4267 86.1245 91.0784 85.8775C90.73 85.6305 90.3057 85.507 89.8054 85.507C89.1024 85.507 88.4975 85.735 87.9909 86.191C87.4905 86.647 87.215 87.3753 87.1644 88.376ZM100.363 94.228C99.4763 94.228 98.71 94.0095 98.064 93.5725C97.418 93.1355 96.9208 92.5338 96.5725 91.7675C96.2241 91.0012 96.05 90.124 96.05 89.136C96.05 88.0657 96.2305 87.1537 96.5915 86.4C96.9525 85.64 97.456 85.0605 98.102 84.6615C98.748 84.2625 99.5016 84.063 100.363 84.063C101.091 84.063 101.759 84.2277 102.367 84.557C102.975 84.88 103.46 85.3835 103.821 86.0675C104.188 86.7452 104.372 87.616 104.372 88.68C104.372 88.832 104.366 89.0093 104.353 89.212C104.347 89.4083 104.334 89.611 104.315 89.82H97.741C97.8043 90.409 97.95 90.9252 98.178 91.3685C98.406 91.8118 98.7068 92.1602 99.0805 92.4135C99.4541 92.6605 99.8943 92.784 100.401 92.784C100.813 92.784 101.193 92.7112 101.541 92.5655C101.896 92.4198 102.225 92.195 102.529 91.891L103.498 92.974C103.137 93.335 102.687 93.6358 102.149 93.8765C101.617 94.1108 101.022 94.228 100.363 94.228ZM97.722 88.376H102.7C102.7 87.825 102.608 87.3342 102.424 86.9035C102.247 86.4665 101.984 86.1245 101.636 85.8775C101.288 85.6305 100.863 85.507 100.363 85.507C99.66 85.507 99.0551 85.735 98.5485 86.191C98.0481 86.647 97.7726 87.3753 97.722 88.376Z" fill="#1D2E42"/>
    </g>
    <defs>
        <clipPath id="clip0_102_37">
            <rect width="127" height="98" fill="white"/>
        </clipPath>
    </defs>
</svg>
