<svg width="20" height="20" viewBox="0 0 20 20" fill="none" xmlns="http://www.w3.org/2000/svg">
<g clip-path="url(#clip0_4322_1104)">
<path d="M11.063 19.0664H7.87549C7.58185 19.0664 7.34424 18.8288 7.34424 18.5352V11.5581H5.75049C5.45685 11.5581 5.21924 11.3205 5.21924 11.0269V7.83936C5.21924 7.54572 5.45685 7.30811 5.75049 7.30811H7.34424V4.65186C7.34424 2.60155 9.01268 0.933105 11.063 0.933105H14.2505C14.5441 0.933105 14.7817 1.17072 14.7817 1.46436V4.65186C14.7817 4.9455 14.5441 5.18311 14.2505 5.18311H11.5942V7.30811H14.2505C14.4066 7.30811 14.555 7.3766 14.6557 7.49592C14.7568 7.61524 14.8004 7.77245 14.7744 7.92652L14.2432 11.114C14.2007 11.3703 13.9791 11.5581 13.7192 11.5581H11.5942V18.5352C11.5942 18.8288 11.3566 19.0664 11.063 19.0664Z" fill="#505050"/>
</g>
<defs>
<clipPath id="clip0_4322_1104">
<rect width="18.1333" height="18.1333" fill="white" transform="translate(0.933594 0.933105)"/>
</clipPath>
</defs>
</svg>
