<svg width="45" height="45" viewBox="0 0 45 45" fill="none" xmlns="http://www.w3.org/2000/svg">
<rect width="45" height="45" rx="3" fill="white" fill-opacity="0.18"/>
<path d="M24.4062 35H20.1875C19.7989 35 19.4844 34.6855 19.4844 34.2969V25.0625H17.375C16.9864 25.0625 16.6719 24.748 16.6719 24.3594V20.1406C16.6719 19.752 16.9864 19.4375 17.375 19.4375H19.4844V15.9219C19.4844 13.2082 21.6926 11 24.4062 11H28.625C29.0136 11 29.3281 11.3145 29.3281 11.7031V15.9219C29.3281 16.3105 29.0136 16.625 28.625 16.625H25.1094V19.4375H28.625C28.8317 19.4375 29.0281 19.5282 29.1613 19.6861C29.2951 19.844 29.3528 20.0521 29.3185 20.256L28.6153 24.4747C28.559 24.8139 28.2658 25.0625 27.9218 25.0625H25.1093V34.2969C25.1094 34.6855 24.7949 35 24.4062 35Z" fill="#F8F8F8"/>
</svg>
