<svg width="99" height="76" viewBox="0 0 99 76" fill="none" xmlns="http://www.w3.org/2000/svg">
    <g clip-path="url(#clip0_1_14)">
        <path fill-rule="evenodd" clip-rule="evenodd" d="M48.1155 0.135968C45.8172 0.493045 43.9663 1.43137 42.391 3.03814C41.3952 4.05376 40.6707 5.19426 40.1941 6.49653L39.9956 7.03887L37.7644 7.08139C36.2644 7.10995 35.4384 7.15413 35.2439 7.21618C34.2332 7.53869 33.3561 8.28654 32.9257 9.19283C32.4516 10.191 32.418 9.37787 33.4648 22.2244C33.9833 28.5878 34.441 33.9696 34.4818 34.1838C34.732 35.4958 36.0256 36.7632 37.3689 37.0123C37.9019 37.1111 60.86 37.1111 61.393 37.0123C62.7362 36.7632 64.0299 35.4958 64.28 34.1838C64.3209 33.9696 64.7785 28.5878 65.2971 22.2244C66.3439 9.37787 66.3102 10.191 65.8362 9.19283C65.4058 8.28654 64.5287 7.53869 63.5179 7.21618C63.3235 7.15413 62.4975 7.10995 60.9975 7.08139L58.7663 7.03887L58.5678 6.49653C58.0912 5.19426 57.3667 4.05376 56.3709 3.03814C54.969 1.60838 53.3213 0.695808 51.3695 0.268227C50.6183 0.103645 48.7993 0.0297416 48.1155 0.135968ZM50.5465 2.84246C53.3351 3.33078 55.4572 5.26506 56.2649 8.05478C56.4114 8.56082 56.4308 8.78137 56.4272 9.89519C56.4234 11.0582 56.4073 11.2121 56.2279 11.7961C55.7261 13.4297 54.6965 14.8552 53.3992 15.7124C52.6234 16.225 52.2131 16.4239 51.4775 16.6438C49.9931 17.0876 48.7687 17.0876 47.2844 16.6438C45.0274 15.9691 43.2626 14.1682 42.534 11.7961C42.3546 11.2121 42.3385 11.0582 42.3346 9.89519C42.3301 8.50246 42.4153 8.04994 42.8853 6.9701C44.1571 4.04826 47.4136 2.29376 50.5465 2.84246ZM52.7073 6.84775C51.9826 7.08486 49.7455 8.02962 48.8727 8.46718C48.3741 8.71723 48.2181 8.83727 48.0341 9.11256C47.322 10.178 48.033 11.5584 49.2938 11.5584C49.9763 11.5584 50.1461 11.4376 51.3498 10.0963C53.1458 8.09463 54.0275 6.91905 53.8941 6.70327C53.8217 6.58598 53.3214 6.64687 52.7073 6.84775Z" fill="white"/>
    </g>
    <path d="M0.149453 71V57H8.56945V58.64H1.88945V62.94H6.30945V64.58H1.88945V71H0.149453ZM12.4384 71.24C11.3317 71.24 10.4617 70.9333 9.82836 70.32C9.19503 69.7067 8.87836 68.8667 8.87836 67.8C8.87836 67.1133 9.03503 66.5167 9.34836 66.01C9.66169 65.5033 10.105 65.1133 10.6784 64.84C11.2517 64.56 11.925 64.42 12.6984 64.42C13.1984 64.42 13.665 64.4767 14.0984 64.59C14.5384 64.6967 14.9517 64.86 15.3384 65.08V64.36C15.3384 63.5667 15.1584 62.9867 14.7984 62.62C14.4384 62.2467 13.8784 62.06 13.1184 62.06C12.6317 62.06 12.125 62.15 11.5984 62.33C11.0784 62.51 10.5917 62.76 10.1384 63.08L9.63836 61.62C10.1517 61.28 10.735 61.0167 11.3884 60.83C12.0484 60.6367 12.6984 60.54 13.3384 60.54C14.5517 60.54 15.4617 60.85 16.0684 61.47C16.675 62.0833 16.9784 63 16.9784 64.22V71H15.3384V70.06C14.9384 70.44 14.4884 70.7333 13.9884 70.94C13.4884 71.14 12.9717 71.24 12.4384 71.24ZM12.6984 69.72C13.1717 69.72 13.6384 69.6033 14.0984 69.37C14.565 69.1367 14.9784 68.8067 15.3384 68.38V66.62C14.9984 66.4067 14.6117 66.24 14.1784 66.12C13.745 66 13.3317 65.94 12.9384 65.94C12.1917 65.94 11.6017 66.11 11.1684 66.45C10.735 66.7833 10.5184 67.24 10.5184 67.82C10.5184 68.4067 10.7117 68.87 11.0984 69.21C11.485 69.55 12.0184 69.72 12.6984 69.72ZM22.5527 71.24C21.8527 71.24 21.3161 71.03 20.9427 70.61C20.5761 70.19 20.3927 69.5867 20.3927 68.8V62.3H18.7327V60.78H20.3927V57.4L22.1327 56.56V60.78H24.6527V62.3H22.1327V68.22C22.1327 68.7067 22.2161 69.0633 22.3827 69.29C22.5561 69.51 22.8261 69.62 23.1927 69.62C23.6594 69.62 24.1661 69.44 24.7127 69.08L24.5127 70.78C24.2127 70.94 23.8994 71.0567 23.5727 71.13C23.2527 71.2033 22.9127 71.24 22.5527 71.24ZM36.3384 71.24C35.8317 71.24 35.3717 71.15 34.9584 70.97C34.545 70.79 34.1317 70.5067 33.7184 70.12V71H31.9784V57.38L33.7184 56.56V61.66C34.0384 61.3067 34.4217 61.0333 34.8684 60.84C35.3217 60.64 35.7917 60.54 36.2784 60.54C37.145 60.54 37.895 60.7567 38.5284 61.19C39.1617 61.6233 39.6517 62.24 39.9984 63.04C40.345 63.84 40.5184 64.7867 40.5184 65.88C40.5184 67.58 40.1517 68.9 39.4184 69.84C38.685 70.7733 37.6584 71.24 36.3384 71.24ZM36.0984 69.62C36.9517 69.62 37.605 69.2967 38.0584 68.65C38.5117 68.0033 38.7384 67.08 38.7384 65.88C38.7384 64.66 38.5117 63.7333 38.0584 63.1C37.6117 62.46 36.9584 62.14 36.0984 62.14C35.6384 62.14 35.185 62.27 34.7384 62.53C34.2917 62.7833 33.9517 63.1067 33.7184 63.5V68.24C33.9717 68.66 34.3084 68.9967 34.7284 69.25C35.155 69.4967 35.6117 69.62 36.0984 69.62ZM46.8288 71.24C45.5688 71.24 44.6322 70.8667 44.0188 70.12C43.4122 69.3733 43.1088 68.2267 43.1088 66.68V60.78H44.8488V66.94C44.8488 67.8067 45.0388 68.47 45.4188 68.93C45.7988 69.39 46.3422 69.62 47.0488 69.62C47.8288 69.62 48.4155 69.3967 48.8088 68.95C49.2088 68.5033 49.4088 67.8467 49.4088 66.98V60.78H51.1488V71H49.4088V70.02C49.0822 70.44 48.7122 70.75 48.2988 70.95C47.8922 71.1433 47.4022 71.24 46.8288 71.24ZM54.6151 71V60.78H56.3551V62.12C56.5884 61.6 56.9084 61.2067 57.3151 60.94C57.7284 60.6733 58.2151 60.54 58.7751 60.54C59.3951 60.54 59.9217 60.7133 60.3551 61.06L60.0951 62.7C59.8751 62.5467 59.6451 62.4367 59.4051 62.37C59.1717 62.2967 58.9151 62.26 58.6351 62.26C58.1751 62.26 57.7751 62.3833 57.4351 62.63C57.0951 62.8767 56.8284 63.2233 56.6351 63.67C56.4484 64.1167 56.3551 64.64 56.3551 65.24V71H54.6151ZM62.2909 71V60.78H64.0309V61.82C64.3442 61.3867 64.7209 61.0667 65.1609 60.86C65.6009 60.6467 66.1042 60.54 66.6709 60.54C67.9109 60.54 68.8309 60.9167 69.4309 61.67C70.0309 62.4167 70.3309 63.5667 70.3309 65.12V71H68.5909V64.82C68.5909 63.96 68.3975 63.3 68.0109 62.84C67.6309 62.3733 67.0909 62.14 66.3909 62.14C65.6109 62.14 65.0209 62.3633 64.6209 62.81C64.2275 63.25 64.0309 63.9067 64.0309 64.78V71H62.2909ZM73.5804 71V60.78H75.3204V71H73.5804ZM74.4404 58.92C74.1404 58.92 73.8837 58.8167 73.6704 58.61C73.4637 58.3967 73.3604 58.14 73.3604 57.84C73.3604 57.5267 73.4637 57.2633 73.6704 57.05C73.8837 56.83 74.1404 56.72 74.4404 56.72C74.7537 56.72 75.0137 56.83 75.2204 57.05C75.4337 57.2633 75.5404 57.5267 75.5404 57.84C75.5404 58.14 75.4337 58.3967 75.2204 58.61C75.0137 58.8167 74.7537 58.92 74.4404 58.92ZM78.6385 71V60.78H80.3785V61.82C80.6918 61.3867 81.0685 61.0667 81.5085 60.86C81.9485 60.6467 82.4518 60.54 83.0185 60.54C84.2585 60.54 85.1785 60.9167 85.7785 61.67C86.3785 62.4167 86.6785 63.5667 86.6785 65.12V71H84.9385V64.82C84.9385 63.96 84.7452 63.3 84.3585 62.84C83.9785 62.3733 83.4385 62.14 82.7385 62.14C81.9585 62.14 81.3685 62.3633 80.9685 62.81C80.5752 63.25 80.3785 63.9067 80.3785 64.78V71H78.6385ZM93.341 75.26L92.501 73.9C93.4077 73.8467 94.1477 73.7233 94.721 73.53C95.301 73.3367 95.7277 73.0633 96.001 72.71C96.281 72.3567 96.421 71.9133 96.421 71.38V70C95.8077 70.8267 94.9277 71.24 93.781 71.24C92.941 71.24 92.2077 71.0167 91.581 70.57C90.9543 70.1233 90.4677 69.5 90.121 68.7C89.7743 67.8933 89.601 66.9533 89.601 65.88C89.601 64.7933 89.7743 63.85 90.121 63.05C90.4743 62.25 90.9677 61.6333 91.601 61.2C92.2343 60.76 92.981 60.54 93.841 60.54C94.3543 60.54 94.8343 60.6367 95.281 60.83C95.7343 61.0167 96.1143 61.28 96.421 61.62V60.78H98.161V70.72C98.161 71.4467 98.0643 72.0833 97.871 72.63C97.6777 73.1833 97.381 73.6467 96.981 74.02C96.581 74.3933 96.0777 74.68 95.471 74.88C94.871 75.0867 94.161 75.2133 93.341 75.26ZM94.141 69.62C94.581 69.62 95.0077 69.4867 95.421 69.22C95.841 68.9533 96.1743 68.6067 96.421 68.18V63.5C96.1943 63.1067 95.861 62.7833 95.421 62.53C94.9877 62.27 94.561 62.14 94.141 62.14C93.241 62.14 92.551 62.46 92.071 63.1C91.5977 63.74 91.361 64.6667 91.361 65.88C91.361 66.64 91.4743 67.3 91.701 67.86C91.9343 68.42 92.2577 68.8533 92.671 69.16C93.091 69.4667 93.581 69.62 94.141 69.62Z" fill="white"/>
    <defs>
        <clipPath id="clip0_1_14">
            <rect width="37" height="37" fill="white" transform="matrix(1 0 0 -1 31.0001 37)"/>
        </clipPath>
    </defs>
</svg>
