<svg width="200" height="200" viewBox="0 0 200 200" fill="none" xmlns="http://www.w3.org/2000/svg">
<g clip-path="url(#clip0_26602_8302)">
<path fill-rule="evenodd" clip-rule="evenodd" d="M44.9379 0.288726C28.3176 1.80477 12.5422 12.893 5.08023 28.3043C2.85171 32.9065 1.1845 38.3224 0.386237 43.5531C0.0305986 45.8821 -0.0645235 62.0166 0.0400257 102.077L0.184423 157.385L1.1515 161.03C3.8235 171.1 7.94291 178.459 14.7245 185.278C22.5815 193.179 32.29 198.056 43.224 199.595C45.9444 199.978 60.7972 200.069 101.926 199.953C162.029 199.785 158.519 199.926 165.984 197.374C180.221 192.506 192.151 180.616 197.069 166.393C199.963 158.026 199.779 162.104 199.944 102.72C200.103 45.5065 200.052 43.7255 198.063 36.8076C192.794 18.4817 178.319 5.07439 159.175 0.788216C156.491 0.187113 149.745 0.0949324 102.568 0.0117556C73.1105 -0.0401227 47.1767 0.0846425 44.9379 0.288726ZM128.063 48.2693V58.5592L121.1 58.5832C112.606 58.6128 111.5 58.9125 110.174 61.5442C109.318 63.2416 109.21 64.0986 109.21 69.1544V74.8516H118.851H128.492L128.463 76.6738C128.447 77.6762 128.013 83.2229 127.499 89.0002L126.563 99.5045L117.137 99.7189L107.71 99.9333L107.6 130.696L107.49 161.458H95.927H84.3636L84.2539 130.696L84.1438 99.9333L77.8237 99.8145L71.5037 99.6962V87.2737V74.8516H77.0131H82.5225L82.7615 67.027C83.1305 54.938 84.5847 50.603 90.1353 45.0434C92.1705 43.0047 94.0563 41.5933 95.9729 40.6741C100.719 38.3983 103.365 38.0531 116.387 38.0146L128.063 37.9794V48.2693Z" fill="white"/>
</g>
<defs>
<clipPath id="clip0_26602_8302">
<rect width="200" height="200" fill="white"/>
</clipPath>
</defs>
</svg>
