<svg width="60" height="60" viewBox="0 0 60 60" fill="none" xmlns="http://www.w3.org/2000/svg">
<path fill-rule="evenodd" clip-rule="evenodd" d="M54.9338 0.0704473C55.1308 0.109202 55.4533 0.109202 55.6503 0.0704473C55.9573 0.0100879 55.9062 0 55.292 0C54.6779 0 54.6268 0.0100879 54.9338 0.0704473ZM27.4029 0.246397C26.8747 0.286497 25.8696 0.414277 25.1694 0.530372C17.022 1.88072 9.93876 6.38439 5.20824 13.222C2.93367 16.5097 1.20972 20.6521 0.520281 24.4868C0.238689 26.0525 0.172273 26.5476 0.0857131 27.7234C-0.562515 36.5298 2.48317 44.8363 8.64087 51.0563C11.5428 53.9876 14.5787 56.0478 18.4262 57.6969C23.6506 59.9361 30.0403 60.5843 35.7803 59.4574C46.5507 57.3428 55.39 49.4476 58.65 39.0302C59.5092 36.2847 59.8997 33.9368 59.9853 31.0019C60.1369 25.8013 59.1174 21.2209 56.7663 16.5413C53.5909 10.2207 47.9548 5.03345 41.3631 2.36486C38.9901 1.40415 36.973 0.861508 34.0946 0.409401C32.5238 0.162752 29.4803 0.0886055 27.4029 0.246397ZM32.8424 1.28192C38.5774 1.88804 43.7462 3.9891 48.1701 7.51256C49.3652 8.46443 51.6829 10.7773 52.6279 11.961C56.8019 17.1894 58.9938 23.4253 58.9992 30.0874C59.0067 39.3148 54.6569 47.8834 47.1633 53.4026C44.8015 55.1421 42.25 56.4696 39.3624 57.4613C33.7829 59.3774 27.5575 59.5098 21.7892 57.8351C18.1498 56.7785 14.1483 54.6275 11.2958 52.1945C4.7108 46.5776 1.00736 38.6197 1.01461 30.1018C1.01663 27.7322 1.29578 25.3454 1.82104 23.207C3.54439 16.1908 7.91873 9.98485 13.9508 5.99853C18.8142 2.78443 24.0311 1.19954 29.8503 1.16835C30.9405 1.16246 32.1445 1.2082 32.8424 1.28192ZM27.0991 4.06762C26.96 4.08695 26.3721 4.16084 25.7927 4.2318C24.116 4.43717 24.2446 4.38026 24.3095 4.88743C24.4512 5.99592 24.63 7.42672 24.7417 8.34615C24.8092 8.90099 24.889 9.51845 24.919 9.71828L24.9737 10.0816L25.6089 10.0223C26.6656 9.92348 26.6819 9.91424 26.6519 9.43178C26.6378 9.20455 26.5878 8.79616 26.5409 8.5242C26.4939 8.25225 26.487 7.99829 26.5256 7.95979C26.6261 7.85958 27.5099 7.76828 27.7642 7.83192C28.036 7.90002 28.1423 8.09681 28.3598 8.93462L28.5343 9.60714L29.0764 9.58142C29.3745 9.56721 29.7532 9.52703 29.9179 9.49214C30.2574 9.42018 30.2585 9.4127 30.0597 8.55632C29.8752 7.76139 29.712 7.4263 29.3736 7.14813C29.1041 6.92662 29.0872 6.88946 29.209 6.78858C29.6643 6.41163 29.7974 5.50994 29.491 4.87843C29.2148 4.30931 28.7956 4.07703 28.0006 4.0524C27.6438 4.04139 27.2381 4.0482 27.0991 4.06762ZM32.7034 4.17472C31.3603 4.61161 30.5792 6.03325 30.7779 7.67943C30.8596 8.35683 31.1118 8.81835 31.6764 9.32418C32.2396 9.82866 32.8149 10.0251 33.7213 10.0223C34.3344 10.0203 34.5146 9.98527 34.9147 9.79007C35.768 9.37369 36.3102 8.56573 36.5078 7.4163C36.7325 6.10975 36.0805 4.8559 34.904 4.33175C34.4824 4.14395 33.1012 4.04542 32.7034 4.17472ZM37.9799 5.25673C37.9367 5.46765 37.6415 7.82452 37.4245 9.69121C37.3761 10.1073 37.3152 10.5521 37.2891 10.6797C37.2437 10.9012 37.2745 10.9267 37.9757 11.2482C38.9667 11.7027 39.101 11.7309 39.2687 11.5192C39.3434 11.4248 40.1258 10.521 41.0074 9.51063C41.8889 8.50025 42.6953 7.564 42.7993 7.42992L42.9884 7.1863L42.2296 6.85323C41.8123 6.67013 41.4165 6.541 41.3503 6.56639C41.284 6.59178 40.8191 7.13123 40.3172 7.76526C39.3795 8.94966 39.1901 9.17109 39.1514 9.1278C39.1392 9.11401 39.1602 8.89468 39.1981 8.64038C39.236 8.38608 39.3267 7.78081 39.3997 7.29533C39.4726 6.80985 39.556 6.25283 39.585 6.05754C39.6342 5.72481 39.6225 5.69665 39.3993 5.61199C39.2682 5.56231 38.9192 5.41007 38.6236 5.27363C38.3281 5.13719 38.0731 5.02555 38.0568 5.02555C38.0406 5.02555 38.0059 5.12954 37.9799 5.25673ZM19.5803 6.05729C18.7362 6.39145 18.0299 6.70266 18.0106 6.7489C17.9914 6.79514 18.2378 7.47607 18.558 8.26209C19.0726 9.52501 19.9175 11.6023 20.0378 11.9005C20.0887 12.0262 20.2013 11.9978 21.0517 11.6448C21.3878 11.5054 21.6627 11.345 21.6627 11.2884C21.6627 11.2318 21.5478 10.9073 21.4072 10.5674C21.2667 10.2275 21.1624 9.89793 21.1754 9.83513C21.1885 9.77233 21.5057 9.5894 21.8804 9.42875C23.1403 8.88821 23.5671 8.34867 23.4976 7.38393C23.4127 6.2034 22.6518 5.4431 21.5601 5.44781C21.2081 5.44932 20.7935 5.57694 19.5803 6.05729ZM27.6205 5.49749C27.7219 5.52456 27.8416 5.65175 27.8864 5.78004C28.0624 6.28376 27.6229 6.60851 26.7519 6.61809L26.3204 6.6228L26.2682 6.30755C26.1555 5.62763 26.1831 5.54331 26.5301 5.50708C27.0803 5.44974 27.4305 5.44663 27.6205 5.49749ZM34.3734 5.76701C34.6871 6.05922 34.8391 6.58371 34.763 7.11072C34.643 7.94205 34.3215 8.41618 33.7791 8.56187C33.5107 8.63391 33.3982 8.62256 33.1469 8.49781C32.6515 8.252 32.4927 7.96222 32.4962 7.31021C32.4999 6.60078 32.6433 6.18448 33.0102 5.81863C33.2605 5.56895 33.3549 5.52994 33.7093 5.52994C34.0423 5.52994 34.1665 5.57425 34.3734 5.76701ZM21.5725 7.03994C21.8109 7.16721 21.9503 7.57796 21.8307 7.80082C21.7184 8.01023 20.6648 8.52025 20.5621 8.415C20.5251 8.37717 20.417 8.14809 20.322 7.90607L20.1491 7.46598L20.4134 7.32971C20.6911 7.18646 21.2353 6.97504 21.3522 6.96495C21.39 6.96175 21.4891 6.99546 21.5725 7.03994ZM43.0145 9.54409C42.3777 10.3648 41.6179 11.3332 41.326 11.6962C41.0341 12.0591 40.7952 12.4004 40.7952 12.4546C40.7952 12.5774 44.2937 15.3156 44.4883 15.3451C44.5708 15.3576 44.7265 15.2345 44.8604 15.0509C44.9871 14.8772 45.1684 14.6339 45.2634 14.51L45.4361 14.2848L44.2535 13.3772C43.603 12.8781 43.0709 12.428 43.0709 12.3771C43.0709 12.3262 43.1655 12.1958 43.2812 12.0874L43.4916 11.8903L43.808 12.1398C43.9821 12.2771 44.4513 12.6422 44.8508 12.9511L45.5771 13.5128L45.9675 13.0173C46.1823 12.7447 46.3579 12.4883 46.3579 12.4477C46.3579 12.4071 45.9028 12.0225 45.3465 11.5931C44.7903 11.1637 44.3364 10.7871 44.3379 10.7562C44.3434 10.6475 44.6584 10.3217 44.758 10.3217C44.8134 10.3217 45.3438 10.7 45.9365 11.1624C46.5293 11.6247 47.0468 12.0015 47.0865 11.9996C47.212 11.9935 47.9794 10.8962 47.9045 10.8299C47.8651 10.795 47.3967 10.4282 46.8637 10.0149C46.3306 9.60151 45.5487 8.99077 45.1264 8.65762C44.704 8.32446 44.3164 8.05192 44.2653 8.05192C44.2141 8.05192 43.6513 8.72336 43.0145 9.54409ZM15.3566 8.4319C15.0529 8.56355 12.4758 10.453 12.4758 10.5441C12.4758 10.6036 15.5345 14.7216 15.7571 14.9618C15.8801 15.0945 15.9373 15.0675 16.5813 14.5726L17.2733 14.0407L16.7722 13.3792L16.2709 12.7176L16.5132 12.5074C16.6463 12.3918 16.9735 12.1105 17.2402 11.8822C17.867 11.3458 18.1661 10.7404 18.0959 10.1497C18.0077 9.40631 17.4958 8.70722 16.8402 8.43451C16.4508 8.27251 15.7276 8.27125 15.3566 8.4319ZM16.3082 10.0667C16.5813 10.3677 16.5005 10.6567 16.0204 11.097C15.7796 11.318 15.5318 11.4986 15.4699 11.4986C15.3224 11.4986 14.7527 10.7062 14.8234 10.5994C14.9425 10.4192 15.7932 9.90137 15.97 9.90137C16.0735 9.90137 16.2257 9.97577 16.3082 10.0667ZM27.984 12.1391C25.0162 12.4835 21.9216 13.6727 19.5187 15.3925C18.6232 16.0333 17.3609 17.1453 16.7047 17.8714C15.9981 18.6531 14.92 20.0713 14.92 20.2189C14.92 20.2939 15.0789 20.3256 15.4542 20.3256H15.9884L16.5229 19.632C17.1473 18.8219 18.7034 17.2524 19.4292 16.7005C21.9421 14.7905 24.6596 13.6337 27.6048 13.2207C30.3571 12.8348 32.8428 13.0718 35.5275 13.9764C38.7022 15.046 41.6143 17.1498 43.6585 19.8502L44.0182 20.3256H44.556C44.9498 20.3256 45.0937 20.2954 45.0937 20.2127C45.0937 19.9012 43.2113 17.6723 42.157 16.7353C39.635 14.4939 36.7493 13.0389 33.5046 12.3726C32.5179 12.1699 32.2036 12.1454 30.344 12.1262C29.2083 12.1145 28.1463 12.1203 27.984 12.1391ZM47.1819 14.0853C45.88 15.044 44.945 15.7878 44.9663 15.8479C45.0294 16.0253 46.7453 18.2532 47.001 18.4896C47.4872 18.939 47.9423 19.1066 48.6758 19.1063C49.2573 19.1061 49.4187 19.0715 49.8492 18.8541C51.4019 18.0705 52.1641 16.5629 51.6131 15.3657C51.4307 14.9695 49.5939 12.4222 49.4926 12.425C49.4606 12.4259 48.4207 13.1731 47.1819 14.0853ZM9.48253 13.784C9.21687 14.1222 8.98189 14.4443 8.96023 14.4999C8.93865 14.5554 9.16394 14.9904 9.46087 15.4666C9.7578 15.9428 10.4533 17.0777 11.0065 17.9888C11.5596 18.8998 12.0502 19.6457 12.0965 19.6463C12.1711 19.6473 13.0617 18.5566 13.1374 18.3715C13.1537 18.3318 13.0647 18.1521 12.9397 17.9722C12.6826 17.6022 12.6488 17.6969 13.3576 16.8036C13.7432 16.3177 13.7958 16.2806 14.0318 16.3286C14.7391 16.4723 14.6761 16.4995 15.194 15.8279C15.4605 15.4821 15.6786 15.1673 15.6786 15.1284C15.6786 15.0894 14.4364 14.6487 12.9183 14.1491C11.4002 13.6495 10.1147 13.2245 10.0617 13.2047C10.0088 13.1851 9.7482 13.4457 9.48253 13.784ZM49.868 15.3975C49.9393 15.5306 50.0003 15.8067 50.0033 16.011C50.0096 16.4271 49.8593 16.6794 49.369 17.0751C49.0011 17.3721 48.3324 17.4758 47.984 17.2898C47.7737 17.1775 47.2008 16.5028 47.2008 16.3673C47.2008 16.2962 47.8885 15.7507 48.8002 15.0984L49.35 14.7052L49.5441 14.9303C49.6508 15.0542 49.7966 15.2644 49.868 15.3975ZM11.9481 15.4401C12.2554 15.5658 12.5189 15.705 12.5339 15.7496C12.5657 15.8449 12.0762 16.4585 11.9683 16.4585C11.8987 16.4585 11.043 15.2468 11.043 15.1482C11.043 15.0887 11.2584 15.1583 11.9481 15.4401ZM10.2844 30.0716C10.2844 38.0052 10.2871 38.137 10.4494 38.1885C10.6258 38.2443 11.6051 38.2297 11.9376 38.1663L12.1377 38.1281L12.1592 31.0132L12.1808 23.8984L19.8085 23.8723C28.0082 23.8444 28.1253 23.8494 29.1753 24.2756C30.7099 24.8985 31.778 25.8746 32.4883 27.303C32.998 28.3283 33.0837 28.7312 33.0783 30.0772C33.074 31.1575 33.0486 31.3706 32.8547 31.95C32.1766 33.9776 30.5014 35.5412 28.4055 36.103C27.9422 36.2271 27.4611 36.2503 25.287 36.2529L22.7163 36.2561L22.6944 32.4494L22.6725 28.6428L21.683 28.6664L20.6935 28.6901L20.6717 33.4188L20.6499 38.1475H24.1751C27.882 38.1475 28.2576 38.119 29.3326 37.7546C30.3986 37.3934 31.1956 36.9214 32.1719 36.0735C33.0079 35.3475 33.4135 34.7634 35.4898 31.2962C36.5695 29.4929 38.2429 26.7009 39.2084 25.0916C40.1739 23.4823 40.9638 22.1299 40.9638 22.0862C40.9638 21.9928 39.0308 21.9792 38.8852 22.0716C38.7807 22.1378 38.6531 22.3383 37.1339 24.8231C35.3311 27.7717 35.0221 28.2568 34.9427 28.2633C34.8993 28.2668 34.8116 28.0617 34.7477 27.8074C34.566 27.0825 33.8724 25.7233 33.3403 25.0494C32.4358 23.9038 31.0611 22.9113 29.748 22.4558C28.4279 21.9979 28.7118 22.0099 19.1553 22.0083L10.2844 22.0069V30.0716ZM41.1014 22.0729C41.0789 22.1092 41.3349 22.5916 41.6702 23.1447C42.7391 24.9078 43.6293 26.3934 44.1871 27.3451C44.4852 27.8537 45.4048 29.4047 46.2304 30.7918C48.9209 35.3116 49.3922 36.1189 49.3922 36.2086C49.3922 36.2692 47.6544 36.3036 43.8505 36.3185L38.3088 36.3401L38.285 37.2373C38.2622 38.0934 38.2695 38.1371 38.4435 38.1922C38.5438 38.224 40.8385 38.2219 43.5429 38.1876L48.4601 38.1254L48.9879 37.2328C49.2783 36.7418 49.7949 35.8865 50.1359 35.3322C50.6869 34.4364 50.7439 34.3053 50.6483 34.1552C50.5891 34.0623 49.9272 32.9838 49.1773 31.7585C48.4275 30.5333 47.139 28.4337 46.3141 27.0929C45.4891 25.752 44.472 24.0875 44.0537 23.394C43.6354 22.7004 43.2527 22.1051 43.2031 22.0712C43.0817 21.988 41.1531 21.9895 41.1014 22.0729ZM36.6781 30.9212C34.3079 34.8598 32.3858 38.1101 32.4068 38.1441C32.4644 38.2371 34.5746 38.2532 34.8138 38.1625C34.9282 38.119 35.1003 37.9372 35.1961 37.7583C35.2919 37.5793 36.3021 35.8063 37.441 33.8181C38.5799 31.83 39.5956 30.0537 39.6982 29.8707C40.4124 28.5973 40.9863 27.6396 41.034 27.6418C41.0801 27.6438 44.5671 33.3978 44.6579 33.6216C44.6731 33.6593 43.2508 33.6999 41.4972 33.7121L38.3088 33.7341L38.2846 34.5673C38.2712 35.0256 38.2926 35.4328 38.3321 35.4722C38.4054 35.5454 48.0343 35.5788 48.1071 35.5062C48.1291 35.4842 48.0713 35.3413 47.9785 35.1887C47.8858 35.0359 46.3226 32.4521 44.5047 29.4467C42.687 26.4414 41.1519 23.9324 41.0937 23.8712C41.0074 23.7808 40.1841 25.0953 36.6781 30.9212ZM12.9174 24.6264C12.8384 24.7052 12.8129 25.4297 12.8129 27.6051C12.8129 30.1487 12.8283 30.4854 12.9463 30.5306C13.0196 30.5587 14.6099 30.5816 16.4803 30.5816H19.8811L19.908 30.3925C19.9228 30.2884 19.9229 29.8539 19.9081 29.427L19.8812 28.6505L17.3375 28.6283L14.7936 28.6061L14.77 27.5342L14.7464 26.4624H21.0104C27.7207 26.4624 27.7514 26.4641 28.5886 26.8901C29.048 27.1239 29.7167 27.756 29.9816 28.2068C31.1644 30.22 30.2663 32.6432 28.0262 33.4825C27.6964 33.606 27.3666 33.6414 26.5091 33.6452L25.4134 33.65L25.391 31.149L25.3687 28.6481H24.4007H23.4327V32.0948V35.5415H25.583C27.4468 35.5415 27.8113 35.5199 28.3192 35.3796C29.836 34.9603 31.2041 33.8454 31.8453 32.506C32.4565 31.2293 32.5886 30.108 32.2796 28.8219C31.8056 26.8502 30.511 25.4719 28.464 24.76C27.9468 24.5802 27.8719 24.5782 20.4819 24.5503C14.627 24.5282 12.9995 24.5445 12.9174 24.6264ZM5.60665 28.0484C4.15284 28.7095 3.80685 30.6155 4.94561 31.6905C5.50888 32.2222 6.58401 32.4266 7.2839 32.1349C8.08005 31.8032 8.68217 30.9158 8.68032 30.0772C8.67846 29.2441 8.11283 28.3834 7.34855 28.0505C6.87234 27.8432 6.06035 27.8421 5.60665 28.0484ZM52.1469 28.0547C51.6683 28.2774 51.1951 28.7834 50.9869 29.2949C50.6474 30.1292 50.8778 31.0706 51.5756 31.6993C52.0336 32.112 52.4288 32.2631 53.0477 32.2621C54.3079 32.2601 55.2226 31.3469 55.2226 30.0911C55.2226 29.1573 54.7689 28.4391 53.9435 28.0664C53.4586 27.8475 52.6042 27.842 52.1469 28.0547ZM12.87 31.3933C12.8188 31.4445 12.7831 38.1397 12.834 38.1531C13.0439 38.208 13.9746 38.2314 14.309 38.1901L14.7515 38.1354V35.7048V33.2742L17.3432 33.2519L19.9349 33.2297V32.305V31.3802L16.431 31.3583C14.5039 31.3463 12.9014 31.362 12.87 31.3933ZM14.92 39.9188C14.92 40.0667 15.4094 40.7382 16.243 41.7342C18.0942 43.9459 20.6159 45.7667 23.2545 46.7967C24.6263 47.3323 25.2295 47.5128 26.5825 47.7925C27.6257 48.0082 27.8194 48.0214 29.9647 48.0233C32.3974 48.0255 32.8757 47.973 34.6351 47.5114C38.3219 46.5441 41.6364 44.3929 44.0755 41.3841C44.7491 40.5533 45.1746 39.9376 45.1159 39.879C45.0882 39.8514 44.8315 39.8289 44.5454 39.8289H44.0253L43.5116 40.4899C41.1016 43.591 37.5644 45.8423 33.781 46.6829C29.868 47.5524 26.0142 47.0927 22.4213 45.3281C20.1776 44.2261 18.0654 42.4982 16.4954 40.4804L15.9884 39.8289H15.4542C15.1311 39.8289 14.92 39.8644 14.92 39.9188ZM10.8323 42.3147C9.85878 42.6094 8.92955 42.8884 8.7673 42.9344C7.80199 43.2086 7.19903 43.4001 7.13539 43.4528C7.09544 43.4859 7.29486 43.8171 7.57864 44.1889L8.09454 44.8648L8.44154 44.7428C8.63236 44.6756 8.81703 44.6206 8.85201 44.6206C8.90679 44.6206 9.71634 45.649 9.89316 45.9431C9.9284 46.0019 9.8624 46.1832 9.74061 46.362C9.62253 46.5354 9.52586 46.7085 9.52586 46.7467C9.52586 46.8922 10.5593 48.1628 10.6231 48.0957C10.6892 48.0262 13.2454 44.1598 13.6864 43.4624L13.9138 43.1027L13.4278 42.4325C13.085 41.9598 12.8918 41.7648 12.7721 41.7705C12.6787 41.775 11.8057 42.0199 10.8323 42.3147ZM47.1065 42.1653C46.7376 42.3576 46.4609 42.636 45.5819 43.6995C44.9913 44.4142 44.5071 45.0439 44.5059 45.099C44.504 45.1844 45.4679 45.9906 48.2216 48.2072C48.5281 48.4539 48.8185 48.6558 48.8671 48.6558C49.025 48.6558 50.8198 46.3336 51.0529 45.8276C51.3508 45.1811 51.3611 44.4179 51.0796 43.8676C50.7728 43.2677 50.0295 42.5543 49.367 42.2236C48.858 41.9697 48.6979 41.9305 48.1684 41.9305C47.6631 41.9305 47.4791 41.9712 47.1065 42.1653ZM11.7477 43.7169C11.6992 43.7969 11.0618 44.6379 10.8078 44.9569C10.761 45.0157 10.2029 44.3476 10.2014 44.2308C10.2007 44.1783 10.5131 44.0223 10.8955 43.8842C11.6935 43.596 11.8384 43.5676 11.7477 43.7169ZM48.8474 43.9714C49.3243 44.2991 49.5607 44.6995 49.5607 45.1792C49.5607 45.4621 49.495 45.6133 49.2217 45.9581C49.0351 46.1935 48.8587 46.386 48.8297 46.386C48.7815 46.386 47.6459 45.4806 46.9653 44.8996L46.6877 44.6627L46.9586 44.3375C47.5539 43.623 48.1675 43.5041 48.8474 43.9714ZM13.6074 46.8632C12.6944 48.011 11.8927 49.0129 11.8259 49.0898C11.7165 49.2157 11.7662 49.2808 12.3218 49.7401C12.6615 50.0208 12.9962 50.2496 13.0658 50.2485C13.1353 50.2473 13.3969 49.9831 13.6471 49.6613C13.8973 49.3394 14.1357 49.0761 14.1769 49.0761C14.2181 49.0761 14.5001 49.2659 14.8035 49.4978C15.5419 50.0623 15.7891 50.1796 16.3457 50.23C17.1061 50.2988 17.8375 49.8703 18.23 49.1261C18.5067 48.6015 18.4884 47.8087 18.1876 47.2985C17.9898 46.9629 16.937 46.05 15.3676 44.8531C15.2969 44.7992 14.776 45.3941 13.6074 46.8632ZM42.0633 46.853C41.0687 47.5676 40.2177 48.1894 40.1722 48.2348C40.1181 48.2888 40.1486 48.3831 40.2605 48.5076C40.3547 48.6122 41.0676 49.5868 41.845 50.6734C42.6223 51.7599 43.308 52.7014 43.3688 52.7656C43.4813 52.8843 43.7749 52.6946 46.4001 50.8069C47.4715 50.0366 47.4181 50.1461 47.0073 49.5614C46.8124 49.2841 46.6062 49.0387 46.5492 49.0162C46.492 48.9936 45.9042 49.3594 45.2428 49.8289L44.0401 50.6826L43.8509 50.4468C43.7469 50.3171 43.6734 50.1754 43.6877 50.1321C43.702 50.0886 44.1285 49.7562 44.6354 49.3934C45.9215 48.473 45.8533 48.5937 45.4292 47.9907C45.2312 47.7092 45.044 47.4789 45.0131 47.4789C44.9822 47.4789 44.5053 47.8004 43.9534 48.1934C43.4014 48.5864 42.9034 48.908 42.8466 48.908C42.7344 48.908 42.4804 48.5877 42.4817 48.4479C42.4822 48.4004 42.9942 48.0026 43.6196 47.5638C44.2449 47.125 44.7566 46.7259 44.7566 46.6769C44.7566 46.5604 44.0149 45.5441 43.9339 45.5495C43.8996 45.5518 43.0578 46.1383 42.0633 46.853ZM16.5846 47.7269C16.9543 48.0754 16.7322 48.6558 16.2292 48.6558C16.0265 48.6558 15.8253 48.5602 15.5176 48.3176C15.2816 48.1315 15.0886 47.9554 15.0886 47.9262C15.0886 47.863 15.4511 47.3814 15.6425 47.1906C15.7663 47.0671 15.8031 47.0764 16.0863 47.3021C16.2561 47.4374 16.4803 47.6287 16.5846 47.7269ZM19.1753 48.5401C19.06 48.8002 18.9657 49.0234 18.9657 49.0362C18.9657 49.049 18.811 49.3901 18.622 49.7944C18.3266 50.4263 17.6172 52.0168 17.2253 52.9263L17.1057 53.2036L17.8265 53.5357C18.2229 53.7184 18.587 53.8679 18.6355 53.8679C18.6841 53.8679 18.8748 53.5463 19.0595 53.1533C19.2441 52.7603 19.445 52.4388 19.5059 52.4388C19.5668 52.4388 19.8779 52.5571 20.1972 52.7019C21.6816 53.3746 22.8867 52.9589 23.3059 51.6294C23.5552 50.8392 23.2888 49.9329 22.6801 49.5006C22.382 49.289 19.6768 48.0673 19.5061 48.0673C19.4395 48.0673 19.2906 48.2801 19.1753 48.5401ZM39.2781 48.6293C38.8841 48.7885 38.5284 48.9515 38.4878 48.9914C38.4238 49.0541 38.593 51.0587 38.7451 52.0394C38.772 52.2129 38.7595 52.3547 38.7174 52.3547C38.6753 52.3547 38.1946 51.7504 37.6492 51.0118L36.6576 49.6689L36.0925 49.8848C35.7817 50.0036 35.4231 50.1388 35.2957 50.1851C35.1682 50.2315 35.0639 50.3044 35.0639 50.3471C35.0639 50.4125 35.848 51.4691 35.9922 51.5981C36.0181 51.6212 36.619 52.3873 37.3276 53.3004C38.0363 54.2136 38.6607 54.9617 38.7152 54.9627C38.8927 54.9664 40.455 54.3339 40.4839 54.2468C40.4994 54.2002 40.485 53.8027 40.452 53.3635C40.4189 52.9242 40.3289 51.638 40.252 50.5052C40.175 49.3724 40.0856 48.4217 40.0533 48.3927C40.021 48.3635 39.6721 48.47 39.2781 48.6293ZM21.1149 50.3577C21.7696 50.6823 21.9052 50.9642 21.5923 51.3498C21.3914 51.5973 21.0748 51.5872 20.4542 51.3134L19.9719 51.1007L20.0904 50.8239C20.3934 50.1165 20.4202 50.0805 20.6022 50.1365C20.6988 50.1662 20.9295 50.2657 21.1149 50.3577ZM24.2467 50.148C24.2254 50.1827 24.1265 50.7406 24.0268 51.3879C23.9271 52.0352 23.8114 52.7351 23.7696 52.9431C23.5998 53.7878 23.3344 55.6472 23.3774 55.6903C23.4529 55.7654 24.8664 55.9872 24.9839 55.9422C25.0454 55.9187 25.136 55.6172 25.1944 55.2417C25.3795 54.051 25.3672 54.0743 25.7974 54.1034C26.3403 54.1402 26.7062 54.2757 26.8258 54.4841C26.889 54.5943 26.9305 54.9828 26.9305 55.4651V56.2638L27.6469 56.4068C28.7552 56.6282 28.6583 56.7058 28.6583 55.5967C28.6583 54.5971 28.591 54.2819 28.3147 53.9876C28.1514 53.8137 28.1518 53.8125 28.4678 53.6093C29.1061 53.1989 29.3532 52.2134 28.9938 51.5107C28.6581 50.8545 28.2036 50.6851 25.7404 50.2983C24.1887 50.0546 24.2974 50.0655 24.2467 50.148ZM32.0297 50.5313C30.8171 50.8815 30.1215 51.6412 29.9364 52.8175C29.7192 54.1978 30.34 55.5601 31.4573 56.1552C31.7713 56.3224 31.9411 56.3478 32.7461 56.3478C33.5893 56.3478 33.7164 56.3266 34.1503 56.1141C35.283 55.5594 35.8693 54.3316 35.6517 52.9703C35.4889 51.9524 34.9135 51.1112 34.1127 50.7207C33.5704 50.4562 32.5961 50.3676 32.0297 50.5313ZM26.4248 51.8101C27.2151 51.9341 27.5073 52.2254 27.2895 52.6723C27.1506 52.9574 26.8831 53.0156 26.2141 52.9064L25.6662 52.8171L25.6724 52.4808C25.6824 51.9338 25.7769 51.6664 25.9429 51.7149C26.0225 51.7382 26.2394 51.781 26.4248 51.8101ZM33.3695 52.0963C33.7095 52.3377 33.9007 52.8675 33.9064 53.5837C33.9139 54.5169 33.5559 54.9607 32.7957 54.9607C32.1312 54.9607 31.6886 54.3198 31.6695 53.33C31.6606 52.8625 31.6963 52.6572 31.8256 52.434C32.1551 51.8652 32.8347 51.7165 33.3695 52.0963Z" fill="#505050"/>
</svg>
