<svg width="55" height="55" viewBox="0 0 55 55" fill="none" xmlns="http://www.w3.org/2000/svg">
    <path fill-rule="evenodd" clip-rule="evenodd" d="M50.356 0.0645767C50.5366 0.100102 50.8322 0.100102 51.0127 0.0645767C51.2942 0.00924726 51.2474 0 50.6844 0C50.1214 0 50.0746 0.00924726 50.356 0.0645767ZM25.1193 0.225864C24.6351 0.262622 23.7138 0.379754 23.0719 0.486174C15.6035 1.724 9.11053 5.85236 4.77422 12.1201C2.6892 15.1339 1.10891 18.9311 0.476925 22.4463C0.218798 23.8814 0.157917 24.3353 0.0785704 25.4131C-0.515639 33.4856 2.27624 41.1 7.9208 46.8016C10.5809 49.4886 13.3638 51.3771 16.8907 52.8888C21.6797 54.9414 27.537 55.5356 32.7986 54.5026C42.6715 52.5643 50.7742 45.327 53.7625 35.7777C54.5501 33.261 54.908 31.1088 54.9865 28.4184C55.1255 23.6512 54.1909 19.4525 52.0358 15.1629C49.125 9.36901 43.9586 4.614 37.9162 2.16779C35.7409 1.28714 33.8919 0.789716 31.2534 0.375285C29.8135 0.149189 27.0236 0.0812217 25.1193 0.225864ZM30.1056 1.1751C35.3627 1.7307 40.1006 3.65667 44.1559 6.88651C45.2514 7.75906 47.376 9.87915 48.2423 10.9642C52.0684 15.7569 54.0777 21.4732 54.0826 27.5801C54.0895 36.0386 50.1021 43.8931 43.233 48.9524C41.068 50.5469 38.7291 51.7638 36.0822 52.6728C30.9676 54.4293 25.261 54.5506 19.9734 53.0155C16.6373 52.047 12.9693 50.0752 10.3545 47.8449C4.31823 42.6961 0.923412 35.4013 0.930056 27.5934C0.93191 25.4212 1.1878 23.2333 1.66928 21.2731C3.24902 14.8415 7.25883 9.15278 12.7882 5.49865C17.2464 2.5524 22.0285 1.09958 27.3628 1.07099C28.3621 1.06559 29.4658 1.10751 30.1056 1.1751ZM24.8408 3.72865C24.7133 3.74637 24.1744 3.81411 23.6433 3.87915C22.1063 4.06741 22.2242 4.01524 22.2837 4.48014C22.4136 5.49626 22.5775 6.80783 22.6799 7.65064C22.7417 8.15924 22.8149 8.72525 22.8424 8.90842L22.8925 9.24148L23.4748 9.18707C24.4435 9.09653 24.4584 9.08805 24.4309 8.6458C24.418 8.4375 24.3721 8.06314 24.3291 7.81385C24.2861 7.56456 24.2797 7.33176 24.3151 7.29647C24.4072 7.20461 25.2175 7.12093 25.4505 7.17926C25.6996 7.24168 25.7971 7.42208 25.9965 8.19006L26.1565 8.80655L26.6533 8.78297C26.9266 8.76994 27.2737 8.73311 27.4248 8.70113C27.7359 8.63517 27.737 8.62831 27.5547 7.84329C27.3856 7.11461 27.236 6.80744 26.9258 6.55245C26.6788 6.3494 26.6632 6.31534 26.7749 6.22286C27.1923 5.87732 27.3143 5.05077 27.0334 4.4719C26.7802 3.9502 26.396 3.73728 25.6672 3.7147C25.3401 3.7046 24.9683 3.71085 24.8408 3.72865ZM29.9782 3.82682C28.7469 4.22731 28.031 5.53048 28.2131 7.03947C28.288 7.66043 28.5192 8.08349 29.0367 8.54716C29.553 9.0096 30.0804 9.18969 30.9112 9.18707C31.4732 9.1853 31.6384 9.15317 32.0052 8.97423C32.7873 8.59255 33.2844 7.85192 33.4655 6.79827C33.6714 5.6006 33.0738 4.45124 31.9953 3.97077C31.6089 3.79862 30.3427 3.7083 29.9782 3.82682ZM34.8149 4.81867C34.7753 5.01201 34.5047 7.17248 34.3058 8.88361C34.2615 9.26506 34.2056 9.67278 34.1817 9.78969C34.1401 9.99274 34.1683 10.0162 34.811 10.3108C35.7194 10.7275 35.8426 10.7533 35.9963 10.5593C36.0648 10.4727 36.782 9.64427 37.5901 8.71808C38.3981 7.79189 39.1374 6.93367 39.2327 6.81076L39.4061 6.58744L38.7104 6.28212C38.3279 6.11429 37.9652 5.99592 37.9044 6.01919C37.8436 6.04247 37.4175 6.53696 36.9574 7.11815C36.0979 8.20386 35.9243 8.40683 35.8888 8.36715C35.8776 8.35451 35.8968 8.15346 35.9316 7.92035C35.9664 7.68724 36.0495 7.13241 36.1164 6.68738C36.1832 6.24236 36.2597 5.73176 36.2862 5.55275C36.3313 5.24774 36.3206 5.22193 36.116 5.14433C35.9959 5.09878 35.6759 4.95923 35.405 4.83416C35.1341 4.70909 34.9003 4.60675 34.8854 4.60675C34.8705 4.60675 34.8388 4.70208 34.8149 4.81867ZM17.9486 5.55252C17.1748 5.85883 16.5274 6.14411 16.5098 6.18649C16.4921 6.22887 16.718 6.85306 17.0115 7.57358C17.4832 8.73126 18.2577 10.6354 18.368 10.9088C18.4146 11.024 18.5179 10.998 19.2974 10.6744C19.6055 10.5466 19.8575 10.3995 19.8575 10.3477C19.8575 10.2958 19.7521 9.99836 19.6233 9.68681C19.4945 9.37518 19.3988 9.0731 19.4108 9.01554C19.4228 8.95797 19.7136 8.79029 20.057 8.64302C21.212 8.14753 21.6031 7.65295 21.5395 6.76861C21.4616 5.68645 20.7642 4.98951 19.7634 4.99383C19.4408 4.99521 19.0607 5.11219 17.9486 5.55252ZM25.3188 5.03937C25.4118 5.06418 25.5215 5.18078 25.5626 5.29837C25.7239 5.76012 25.321 6.0578 24.5226 6.06659L24.1271 6.0709L24.0792 5.78192C23.9759 5.15866 24.0011 5.08137 24.3193 5.04815C24.8236 4.9956 25.1446 4.99275 25.3188 5.03937ZM31.5089 5.28643C31.7965 5.55429 31.9359 6.03507 31.8661 6.51816C31.7561 7.28021 31.4614 7.71483 30.9642 7.84838C30.7182 7.91442 30.615 7.90402 30.3847 7.78966C29.9306 7.56433 29.785 7.29871 29.7882 6.70102C29.7916 6.05071 29.9231 5.66911 30.2593 5.33374C30.4888 5.10487 30.5753 5.06911 30.9002 5.06911C31.2054 5.06911 31.3193 5.10973 31.5089 5.28643ZM19.7748 6.45327C19.9933 6.56994 20.1211 6.94646 20.0115 7.15075C19.9085 7.34271 18.9428 7.81023 18.8486 7.71375C18.8147 7.67908 18.7156 7.46909 18.6285 7.24723L18.47 6.84382L18.7123 6.7189C18.9669 6.58759 19.4657 6.39378 19.5729 6.38454C19.6075 6.38161 19.6984 6.41251 19.7748 6.45327ZM39.43 8.74875C38.8462 9.50109 38.1497 10.3888 37.8822 10.7215C37.6146 11.0542 37.3956 11.367 37.3956 11.4167C37.3956 11.5293 40.6025 14.0393 40.7809 14.0664C40.8566 14.0778 40.9993 13.965 41.122 13.7967C41.2381 13.6375 41.4043 13.4144 41.4914 13.3009L41.6497 13.0944L40.5657 12.2625C39.9695 11.8049 39.4816 11.3923 39.4816 11.3457C39.4816 11.299 39.5684 11.1795 39.6745 11.0801L39.8673 10.8994L40.1574 11.1281C40.3169 11.254 40.747 11.5887 41.1132 11.8719L41.779 12.3868L42.1369 11.9325C42.3338 11.6826 42.4948 11.4476 42.4948 11.4104C42.4948 11.3732 42.0776 11.0206 41.5677 10.627C41.0577 10.2334 40.6417 9.88817 40.6431 9.85981C40.6481 9.76017 40.9368 9.46156 41.0282 9.46156C41.0789 9.46156 41.5651 9.80833 42.1085 10.2322C42.6519 10.656 43.1262 11.0014 43.1626 10.9996C43.2777 10.9941 43.9811 9.98819 43.9124 9.92739C43.8764 9.89541 43.447 9.5592 42.9583 9.18029C42.4697 8.80138 41.753 8.24154 41.3659 7.93615C40.9786 7.63076 40.6234 7.38093 40.5765 7.38093C40.5296 7.38093 40.0137 7.99641 39.43 8.74875ZM14.0769 7.72924C13.7985 7.84992 11.4361 9.58193 11.4361 9.66546C11.4361 9.71994 14.24 13.4948 14.444 13.715C14.5568 13.8367 14.6092 13.8119 15.1995 13.3582L15.8339 12.8706L15.3745 12.2643L14.915 11.6578L15.1371 11.4651C15.2591 11.3592 15.5591 11.1013 15.8035 10.892C16.3781 10.4003 16.6522 9.84532 16.5879 9.3039C16.507 8.62245 16.0378 7.98162 15.4368 7.73163C15.0799 7.58314 14.4169 7.58198 14.0769 7.72924ZM14.9492 9.22784C15.1995 9.50371 15.1255 9.76865 14.6853 10.1723C14.4646 10.3748 14.2375 10.5404 14.1807 10.5404C14.0455 10.5404 13.5233 9.81404 13.5881 9.71609C13.6973 9.55095 14.4771 9.07626 14.6391 9.07626C14.734 9.07626 14.8735 9.14446 14.9492 9.22784ZM25.652 11.1275C22.9316 11.4432 20.0948 12.5333 17.8922 14.1098C17.0713 14.6972 15.9142 15.7166 15.3126 16.3821C14.6649 17.0987 13.6767 18.3987 13.6767 18.534C13.6767 18.6027 13.8223 18.6318 14.1664 18.6318H14.656L15.146 17.996C15.7184 17.2534 17.1448 15.8147 17.8101 15.3088C20.1136 13.5579 22.6047 12.4976 25.3044 12.119C27.8273 11.7652 30.1059 11.9825 32.5668 12.8117C35.477 13.7922 38.1464 15.7206 40.0203 18.1961L40.35 18.6318H40.843C41.204 18.6318 41.3359 18.6041 41.3359 18.5283C41.3359 18.2428 39.6104 16.1996 38.6439 15.3407C36.332 13.2861 33.6869 11.9523 30.7126 11.3415C29.8081 11.1557 29.5199 11.1333 27.8153 11.1157C26.7742 11.105 25.8008 11.1103 25.652 11.1275ZM43.2501 12.9116C42.0566 13.7904 41.1996 14.4722 41.2191 14.5273C41.2769 14.6899 42.8499 16.7321 43.0842 16.9488C43.5299 17.3607 43.9471 17.5144 44.6194 17.5141C45.1525 17.5139 45.3005 17.4822 45.6951 17.283C47.1184 16.5646 47.8171 15.1827 47.312 14.0852C47.1449 13.7221 45.461 11.387 45.3683 11.3896C45.3389 11.3904 44.3857 12.0753 43.2501 12.9116ZM8.69232 12.6353C8.4488 12.9453 8.2334 13.2406 8.21354 13.2915C8.19376 13.3424 8.40028 13.7412 8.67247 14.1777C8.94465 14.6142 9.58221 15.6546 10.0893 16.4897C10.5963 17.3248 11.046 18.0086 11.0885 18.0091C11.1568 18.01 11.9733 17.0102 12.0426 16.8406C12.0575 16.8042 11.976 16.6394 11.8614 16.4745C11.6257 16.1354 11.5948 16.2222 12.2444 15.4033C12.5979 14.9579 12.6462 14.9239 12.8625 14.9678C13.5108 15.0996 13.4531 15.1245 13.9278 14.5089C14.1721 14.1919 14.372 13.9034 14.372 13.8677C14.372 13.832 13.2334 13.428 11.8418 12.97C10.4501 12.512 9.27177 12.1225 9.22326 12.1044C9.17474 12.0863 8.93585 12.3252 8.69232 12.6353ZM45.7123 14.1144C45.7777 14.2364 45.8336 14.4894 45.8364 14.6768C45.8422 15.0582 45.7043 15.2894 45.2549 15.6522C44.9177 15.9245 44.3047 16.0195 43.9854 15.849C43.7925 15.7461 43.2674 15.1276 43.2674 15.0034C43.2674 14.9382 43.8978 14.4381 44.7336 13.8402L45.2375 13.4797L45.4155 13.6861C45.5133 13.7997 45.6469 13.9923 45.7123 14.1144ZM10.9524 14.1535C11.2341 14.2687 11.4757 14.3963 11.4894 14.4371C11.5186 14.5245 11.0699 15.087 10.971 15.087C10.9071 15.087 10.1227 13.9762 10.1227 13.8858C10.1227 13.8314 10.3202 13.8951 10.9524 14.1535ZM9.42738 27.5656C9.42738 34.8381 9.42985 34.9589 9.57865 35.0061C9.74028 35.0573 10.638 35.0439 10.9428 34.9858L11.1263 34.9508L11.146 28.4288L11.1657 21.9068L18.1578 21.8829C25.6741 21.8574 25.7815 21.862 26.744 22.2527C28.1507 22.8236 29.1298 23.7184 29.7809 25.0278C30.2482 25.9676 30.3268 26.337 30.3218 27.5708C30.3179 28.561 30.2945 28.7563 30.1168 29.2875C29.4952 31.1461 27.9596 32.5795 26.0383 33.0944C25.6136 33.2082 25.1726 33.2294 23.1797 33.2319L20.8233 33.2347L20.8032 29.7453L20.7831 26.2559L19.8761 26.2775L18.969 26.2993L18.9491 30.6339L18.9291 34.9686H22.1605C25.5585 34.9686 25.9028 34.9424 26.8882 34.6084C27.8654 34.2773 28.596 33.8447 29.491 33.0674C30.2572 32.4018 30.629 31.8664 32.5323 28.6881C33.5221 27.0352 35.056 24.4758 35.941 23.0006C36.826 21.5255 37.5501 20.2858 37.5501 20.2457C37.5501 20.1601 35.7782 20.1476 35.6447 20.2323C35.549 20.293 35.432 20.4768 34.0394 22.7545C32.3868 25.4574 32.1036 25.902 32.0308 25.908C31.991 25.9113 31.9106 25.7232 31.8521 25.4901C31.6855 24.8256 31.0497 23.5797 30.5619 22.9619C29.7329 21.9118 28.4727 21.002 27.269 20.5845C26.0589 20.1647 26.3191 20.1757 17.559 20.1743L9.42738 20.173V27.5656ZM37.6763 20.2335C37.6557 20.2668 37.8903 20.7089 38.1977 21.216C39.1775 22.8322 39.9936 24.194 40.5049 25.0663C40.7781 25.5325 41.6211 26.9543 42.3779 28.2258C44.8442 32.3689 45.2762 33.109 45.2762 33.1912C45.2762 33.2467 43.6832 33.2783 40.1963 33.292L35.1164 33.3118L35.0946 34.1342C35.0737 34.9189 35.0803 34.959 35.2399 35.0095C35.3318 35.0386 37.4353 35.0368 39.9144 35.0053L44.4217 34.9483L44.9056 34.1301C45.1718 33.68 45.6453 32.896 45.9579 32.3878C46.463 31.5667 46.5153 31.4465 46.4276 31.309C46.3733 31.2237 45.7666 30.2351 45.0792 29.112C44.3918 27.9888 43.2108 26.0642 42.4546 24.8351C41.6984 23.606 40.766 22.0802 40.3826 21.4445C39.9991 20.8087 39.6483 20.2631 39.6029 20.2319C39.4915 20.1556 37.7237 20.157 37.6763 20.2335ZM33.6216 28.3445C31.4489 31.9548 29.687 34.9343 29.7063 34.9654C29.759 35.0506 31.6934 35.0654 31.9127 34.9823C32.0175 34.9425 32.1753 34.7758 32.2631 34.6118C32.3509 34.4477 33.2769 32.8224 34.3209 31C35.3649 29.1775 36.296 27.5492 36.39 27.3815C37.0447 26.2142 37.5708 25.3363 37.6145 25.3383C37.6567 25.3402 40.8532 30.6147 40.9364 30.8198C40.9504 30.8543 39.6466 30.8916 38.0391 30.9027L35.1164 30.9229L35.0942 31.6867C35.0819 32.1068 35.1015 32.4801 35.1378 32.5162C35.205 32.5832 44.0314 32.6139 44.0982 32.5473C44.1183 32.5272 44.0653 32.3962 43.9803 32.2563C43.8953 32.1163 42.4623 29.7477 40.796 26.9928C39.1297 24.2379 37.7226 21.938 37.6692 21.8819C37.5902 21.799 36.8354 23.004 33.6216 28.3445ZM11.841 22.5742C11.7685 22.6465 11.7452 23.3106 11.7452 25.3047C11.7452 27.6363 11.7592 27.945 11.8674 27.9864C11.9346 28.0121 13.3924 28.0331 15.1069 28.0331H18.2243L18.249 27.8597C18.2626 27.7643 18.2626 27.3661 18.2491 26.9747L18.2245 26.263L15.8927 26.2426L13.5608 26.2222L13.5392 25.2397L13.5175 24.2572H19.2595C25.4106 24.2572 25.4388 24.2588 26.2062 24.6493C26.6273 24.8636 27.2403 25.443 27.4831 25.8563C28.5674 27.7017 27.7441 29.9229 25.6907 30.6923C25.3884 30.8055 25.086 30.838 24.3 30.8414L23.2956 30.8458L23.2751 28.5533L23.2547 26.2607H22.3673H21.48V29.4202V32.5797H23.4511C25.1596 32.5797 25.4937 32.5599 25.9592 32.4313C27.3497 32.047 28.6038 31.0249 29.1916 29.7971C29.7518 28.6269 29.8729 27.599 29.5896 26.4201C29.1552 24.6127 27.9684 23.3492 26.092 22.6967C25.6179 22.5319 25.5492 22.53 18.7751 22.5044C13.4081 22.4842 11.9162 22.4991 11.841 22.5742ZM5.13943 25.7111C3.80677 26.3171 3.48961 28.0642 4.53348 29.0496C5.04981 29.537 6.03534 29.7244 6.67691 29.457C7.40671 29.1529 7.95866 28.3395 7.95696 27.5708C7.95526 26.8071 7.43676 26.0181 6.73617 25.713C6.29965 25.5229 5.55532 25.522 5.13943 25.7111ZM47.8013 25.7169C47.3627 25.921 46.9288 26.3848 46.738 26.8536C46.4268 27.6185 46.638 28.4814 47.2776 29.0577C47.6974 29.436 48.0597 29.5745 48.6271 29.5736C49.7822 29.5717 50.6207 28.7347 50.6207 27.5835C50.6207 26.7275 50.2048 26.0692 49.4482 25.7276C49.0037 25.5269 48.2206 25.5218 47.8013 25.7169ZM11.7975 28.7772C11.7506 28.8241 11.7178 34.9614 11.7645 34.9737C11.9569 35.024 12.8101 35.0454 13.1166 35.0076L13.5222 34.9575V32.7294V30.5013L15.8979 30.4809L18.2737 30.4605V29.6129V28.7652L15.0617 28.7451C13.2953 28.7341 11.8263 28.7485 11.7975 28.7772ZM13.6767 36.5922C13.6767 36.7278 14.1253 37.3433 14.8894 38.2564C16.5863 40.2837 18.8979 41.9528 21.3166 42.897C22.5741 43.388 23.127 43.5534 24.3673 43.8098C25.3235 44.0075 25.5011 44.0196 27.4677 44.0213C29.6976 44.0233 30.1361 43.9753 31.7488 43.5521C35.1284 42.6655 38.1667 40.6935 40.4026 37.9354C41.02 37.1738 41.4101 36.6094 41.3562 36.5557C41.3309 36.5304 41.0955 36.5098 40.8333 36.5098H40.3565L39.8856 37.1157C37.6764 39.9584 34.434 42.0221 30.9659 42.7927C27.379 43.5897 23.8463 43.1684 20.5529 41.5508C18.4961 40.5406 16.56 38.9567 15.1208 37.107L14.656 36.5098H14.1664C13.8702 36.5098 13.6767 36.5424 13.6767 36.5922ZM9.92957 38.7885C9.03721 39.0586 8.18542 39.3143 8.03669 39.3566C7.15183 39.6079 6.59911 39.7835 6.54078 39.8317C6.50416 39.8621 6.68695 40.1657 6.94709 40.5065L7.42 41.1261L7.73808 41.0142C7.913 40.9526 8.08228 40.9022 8.11434 40.9022C8.16456 40.9022 8.90664 41.8449 9.06873 42.1145C9.10103 42.1684 9.04053 42.3346 8.92889 42.4985C8.82065 42.6574 8.73203 42.8161 8.73203 42.8512C8.73203 42.9845 9.6794 44.1493 9.73781 44.0878C9.79846 44.024 12.1416 40.4798 12.5458 39.8405L12.7543 39.5108L12.3088 38.8965C11.9946 38.4632 11.8175 38.2844 11.7077 38.2896C11.6221 38.2937 10.8219 38.5182 9.92957 38.7885ZM43.1809 38.6515C42.8428 38.8278 42.5892 39.083 41.7835 40.0579C41.242 40.713 40.7981 41.2902 40.7971 41.3407C40.7954 41.419 41.6789 42.1581 44.2031 44.1899C44.4841 44.4161 44.7503 44.6011 44.7948 44.6011C44.9396 44.6011 46.5848 42.4725 46.7985 42.0086C47.0715 41.416 47.081 40.7164 46.823 40.2119C46.5418 39.662 45.8604 39.0081 45.2531 38.705C44.7865 38.4722 44.6398 38.4363 44.1543 38.4363C43.6912 38.4363 43.5225 38.4736 43.1809 38.6515ZM10.7687 40.0738C10.7243 40.1471 10.1399 40.918 9.90716 41.2105C9.86428 41.2644 9.35267 40.6519 9.35128 40.5449C9.35066 40.4967 9.63698 40.3538 9.98751 40.2272C10.719 39.963 10.8518 39.937 10.7687 40.0738ZM44.7767 40.3071C45.214 40.6076 45.4307 40.9745 45.4307 41.4143C45.4307 41.6736 45.3704 41.8122 45.1199 42.1283C44.9489 42.344 44.7872 42.5205 44.7605 42.5205C44.7164 42.5205 43.6754 41.6906 43.0515 41.158L42.797 40.9408L43.0453 40.6427C43.591 39.9878 44.1536 39.8787 44.7767 40.3071ZM12.4734 42.958C11.6366 44.0101 10.9017 44.9285 10.8404 44.999C10.7401 45.1144 10.7857 45.1741 11.295 45.5951C11.6063 45.8524 11.9132 46.0621 11.977 46.0611C12.0407 46.06 12.2805 45.8178 12.5098 45.5229C12.7392 45.2278 12.9577 44.9864 12.9955 44.9864C13.0333 44.9864 13.2918 45.1604 13.5698 45.373C14.2467 45.8904 14.4733 45.998 14.9836 46.0442C15.6806 46.1072 16.3511 45.7144 16.7109 45.0323C16.9645 44.5514 16.9477 43.8246 16.672 43.3569C16.4907 43.0494 15.5256 42.2125 14.0869 41.1153C14.0222 41.0659 13.5447 41.6113 12.4734 42.958ZM38.558 42.9486C37.6463 43.6036 36.8662 44.1736 36.8245 44.2152C36.7749 44.2647 36.8029 44.3512 36.9055 44.4653C36.9918 44.5612 37.6453 45.4546 38.3579 46.4506C39.0705 47.4466 39.699 48.3096 39.7547 48.3685C39.8579 48.4773 40.127 48.3034 42.5334 46.573C43.5155 45.8669 43.4666 45.9673 43.09 45.4313C42.9114 45.1771 42.7224 44.9521 42.6701 44.9315C42.6177 44.9108 42.0788 45.2461 41.4726 45.6765L40.3701 46.4591L40.1967 46.2429C40.1013 46.124 40.034 45.9942 40.047 45.9544C40.0602 45.9146 40.4511 45.6099 40.9158 45.2773C42.0947 44.4336 42.0322 44.5442 41.6435 43.9914C41.462 43.7334 41.2903 43.5223 41.262 43.5223C41.2337 43.5223 40.7965 43.817 40.2906 44.1773C39.7846 44.5376 39.3281 44.8323 39.276 44.8323C39.1732 44.8323 38.9404 44.5387 38.9416 44.4106C38.942 44.367 39.4113 44.0024 39.9846 43.6001C40.5578 43.1979 41.0268 42.8321 41.0268 42.7871C41.0268 42.6804 40.347 41.7487 40.2727 41.7537C40.2413 41.7558 39.4697 42.2935 38.558 42.9486ZM15.2026 43.7497C15.5414 44.0691 15.3379 44.6011 14.8768 44.6011C14.691 44.6011 14.5065 44.5135 14.2245 44.2911C14.0081 44.1206 13.8312 43.9591 13.8312 43.9323C13.8312 43.8744 14.1635 43.433 14.339 43.258C14.4525 43.1448 14.4861 43.1533 14.7457 43.3602C14.9014 43.4843 15.1069 43.6596 15.2026 43.7497ZM17.5773 44.4951C17.4716 44.7335 17.3852 44.9381 17.3852 44.9498C17.3852 44.9615 17.2434 45.2743 17.0702 45.6448C16.7994 46.2241 16.1491 47.6821 15.7898 48.5157L15.6802 48.77L16.3409 49.0744C16.7044 49.2419 17.0381 49.3789 17.0826 49.3789C17.1271 49.3789 17.3019 49.0841 17.4712 48.7239C17.6405 48.3636 17.8246 48.0689 17.8804 48.0689C17.9362 48.0689 18.2214 48.1774 18.5141 48.3101C19.8748 48.9267 20.9795 48.5456 21.3638 47.327C21.5922 46.6026 21.348 45.7718 20.7901 45.3756C20.5169 45.1816 18.0371 44.0617 17.8806 44.0617C17.8195 44.0617 17.683 44.2568 17.5773 44.4951ZM36.0049 44.5769C35.6437 44.7228 35.3177 44.8722 35.2805 44.9088C35.2218 44.9662 35.3769 46.8038 35.5163 47.7028C35.541 47.8618 35.5295 47.9918 35.491 47.9918C35.4524 47.9918 35.0117 47.4379 34.5118 46.7608L33.6028 45.5299L33.0848 45.7278C32.7999 45.8366 32.4712 45.9606 32.3544 46.003C32.2376 46.0456 32.1419 46.1124 32.1419 46.1515C32.1419 46.2115 32.8607 47.18 32.9929 47.2983C33.0166 47.3194 33.5674 48.0217 34.217 48.8587C34.8666 49.6958 35.439 50.3815 35.489 50.3825C35.6517 50.3858 37.0837 49.8061 37.1103 49.7262C37.1244 49.6835 37.1113 49.3192 37.081 48.9165C37.0506 48.5139 36.9682 47.3349 36.8977 46.2965C36.8271 45.2581 36.7452 44.3866 36.7156 44.3599C36.6859 44.3332 36.3661 44.4308 36.0049 44.5769ZM19.3553 46.1612C19.9555 46.4588 20.0798 46.7172 19.7929 47.0706C19.6087 47.2975 19.3186 47.2882 18.7497 47.0373L18.3076 46.8423L18.4162 46.5886C18.694 45.9401 18.7185 45.9072 18.8854 45.9585C18.9739 45.9857 19.1854 46.0769 19.3553 46.1612ZM22.2262 45.969C22.2066 46.0008 22.1159 46.5122 22.0246 47.1056C21.9332 47.699 21.8271 48.3405 21.7888 48.5312C21.6331 49.3054 21.3898 51.0099 21.4293 51.0494C21.4984 51.1183 22.7942 51.3216 22.9019 51.2803C22.9583 51.2588 23.0413 50.9824 23.0949 50.6382C23.2645 49.5467 23.2533 49.5681 23.6476 49.5948C24.1452 49.6286 24.4807 49.7527 24.5903 49.9437C24.6483 50.0448 24.6863 50.4009 24.6863 50.843V51.5751L25.343 51.7063C26.3589 51.9092 26.2701 51.9803 26.2701 50.9636C26.2701 50.0473 26.2084 49.7584 25.9551 49.4886C25.8054 49.3292 25.8058 49.3281 26.0954 49.1418C26.6806 48.7656 26.9071 47.8623 26.5776 47.2182C26.27 46.6167 25.8533 46.4614 23.5954 46.1067C22.1729 45.8833 22.2726 45.8934 22.2262 45.969ZM29.3605 46.3204C28.249 46.6414 27.6114 47.3378 27.4417 48.416C27.2426 49.6813 27.8116 50.9301 28.8359 51.4756C29.1237 51.6289 29.2793 51.6522 30.0173 51.6522C30.7902 51.6522 30.9067 51.6327 31.3045 51.4379C32.3428 50.9294 32.8802 49.804 32.6807 48.5561C32.5315 47.6231 32.004 46.8519 31.2699 46.494C30.7729 46.2515 29.8798 46.1703 29.3605 46.3204ZM24.2227 47.4926C24.9472 47.6063 25.2151 47.8733 25.0154 48.2829C24.8881 48.5442 24.6429 48.5976 24.0296 48.4975L23.5274 48.4156L23.533 48.1074C23.5422 47.606 23.6288 47.3608 23.781 47.4054C23.854 47.4267 24.0528 47.4659 24.2227 47.4926ZM30.5887 47.7549C30.9003 47.9762 31.0756 48.4619 31.0809 49.1184C31.0878 49.9739 30.7596 50.3807 30.0627 50.3807C29.4536 50.3807 29.0479 49.7932 29.0304 48.8858C29.0222 48.4573 29.055 48.2691 29.1735 48.0645C29.4755 47.5431 30.0984 47.4068 30.5887 47.7549Z" fill="#1D2E42"/>
</svg>
