<svg width="385" height="280" viewBox="0 0 385 280" fill="none" xmlns="http://www.w3.org/2000/svg">
<mask id="path-1-inside-1_4688_854" fill="white">
<path fill-rule="evenodd" clip-rule="evenodd" d="M79.7854 0.995369C87.8475 2.53839 95.1289 5.7125 101.571 10.4931C105.913 13.714 108.087 15.8631 111.644 20.4503C112.727 21.8458 113.961 23.4331 114.388 23.9776C115.429 25.3051 118.819 31.9337 119.392 33.7604C119.644 34.5641 119.996 35.2348 120.175 35.2513C120.354 35.2679 120.468 35.6384 120.427 36.0746C120.387 36.5112 120.461 36.9977 120.591 37.156C121.065 37.7297 122.652 44.8503 122.55 45.9464C122.493 46.5647 122.604 47.2719 122.797 47.5176C123.33 48.1976 123.375 51.6854 122.943 58.7474C122.679 63.0567 122.404 65.1347 122.099 65.1066C121.839 65.0825 121.555 66.063 121.43 67.4191C121.31 68.7143 121.03 69.8645 120.807 69.9761C120.584 70.0873 120.251 70.8044 120.066 71.5698C119.581 73.5709 117.18 79.2447 116.761 79.3779C116.566 79.4402 116.372 79.8638 116.33 80.3199C116.288 80.776 116.06 81.1315 115.823 81.1096C115.586 81.0877 115.368 81.3437 115.336 81.679C115.269 82.4069 112.639 86.6441 112.154 86.8069C111.967 86.8699 111.788 87.1969 111.757 87.5339C111.726 87.8715 111.507 88.1292 111.27 88.1073C111.033 88.0854 110.821 88.2751 110.797 88.5291C110.751 89.0324 108.301 91.8885 107.757 92.0734C107.368 92.2058 107.188 93.4028 107.551 93.4365C107.783 93.458 109.808 92.261 112.331 90.6094C114.374 89.2732 120.775 83.8659 120.814 83.4436C120.834 83.2199 121.378 82.6243 122.021 82.12C122.664 81.6157 123.215 80.9452 123.244 80.6297C123.273 80.3143 123.49 80.0739 123.727 80.0958C123.964 80.1177 124.183 79.86 124.214 79.5225C124.245 79.1854 124.422 78.8583 124.607 78.7951C124.922 78.6881 127.306 74.8628 128.357 72.778C128.617 72.2618 129.043 71.4179 129.304 70.9017C129.564 70.3854 130.092 69.1168 130.477 68.0823C131.175 66.2075 131.179 66.2048 131.665 67.3194C131.933 67.9343 132.1 69.071 132.037 69.8455C131.974 70.62 132.116 71.2712 132.352 71.2931C132.589 71.315 132.731 71.8846 132.669 72.5588C132.606 73.2334 132.687 73.9444 132.848 74.1391C133.008 74.3338 133.284 75.4233 133.459 76.5598C133.634 77.6963 133.927 79.4255 134.11 80.4026C134.292 81.3796 134.495 82.6749 134.559 83.281C134.624 83.8871 134.8 84.7871 134.951 85.2812C135.444 86.8984 136.501 92.5507 136.609 94.1537C136.668 95.0163 136.873 95.8414 137.066 95.9876C137.259 96.1337 137.355 96.9234 137.279 97.7425C137.203 98.5616 137.335 99.2494 137.572 99.2713C137.808 99.2932 137.972 99.6383 137.935 100.038C137.898 100.437 137.999 101.38 138.16 102.132C138.321 102.884 138.658 104.696 138.908 106.16C139.158 107.623 139.509 109.175 139.688 109.608C139.866 110.041 139.976 110.791 139.931 111.273C139.887 111.756 139.988 112.505 140.157 112.937C140.326 113.369 140.831 115.525 141.279 117.726C141.728 119.928 142.236 122.084 142.408 122.516C142.581 122.949 142.677 123.793 142.622 124.391C142.566 124.989 142.715 125.497 142.951 125.519C143.188 125.541 143.349 125.906 143.31 126.331C143.271 126.756 143.583 128.601 144.004 130.432C144.425 132.263 144.742 134.102 144.71 134.519C144.677 134.936 144.844 135.295 145.081 135.317C145.318 135.339 145.457 135.941 145.391 136.655C145.325 137.369 145.464 137.971 145.701 137.993C145.938 138.015 146.096 138.416 146.053 138.883C145.964 139.841 146.726 143.583 147.255 144.787C147.446 145.221 147.575 145.874 147.541 146.238C147.507 146.601 147.625 147.253 147.802 147.686C147.98 148.119 148.361 149.478 148.649 150.704C148.937 151.931 149.465 153.795 149.822 154.845C150.18 155.896 150.446 157.038 150.414 157.384C150.382 157.729 150.524 158.14 150.73 158.295C150.936 158.452 151.183 159.216 151.279 159.995C151.374 160.773 151.573 161.722 151.718 162.103C151.947 162.701 152.832 165.56 153.739 168.633C155.432 174.365 160.434 186.982 161.164 187.359C161.352 187.457 161.481 187.812 161.45 188.149C161.418 188.487 161.586 188.781 161.823 188.802C162.06 188.824 162.226 189.134 162.193 189.491C162.16 189.848 162.304 190.156 162.513 190.176C162.722 190.195 162.975 190.562 163.076 190.991C163.317 192.023 164.434 194.08 165.725 195.869C166.102 196.391 168.763 200.449 169.521 201.656C170.576 203.338 179.114 213.575 180.851 215.242C181.946 216.293 183.374 217.741 184.024 218.46C184.674 219.179 185.337 219.781 185.498 219.797C185.659 219.813 186.023 220.108 186.307 220.453C187.115 221.431 193.401 226.64 196.106 228.573C199.241 230.813 203.615 233.611 206.756 235.388C208.117 236.158 210.621 237.577 212.322 238.543C215.128 240.136 227.253 245.522 231.909 247.243C234.911 248.353 235.159 248.563 233.519 248.601C232.101 248.635 228.343 247.934 220.083 246.098C212.121 244.328 208.746 243.398 196.389 239.57C195.461 239.282 194.043 238.788 193.237 238.472C192.431 238.156 190.267 237.358 188.428 236.699C186.589 236.04 184.61 235.277 184.029 235.003C183.449 234.729 182.126 234.173 181.09 233.768C180.053 233.362 179.037 232.852 178.83 232.635C178.623 232.418 178.048 232.202 177.551 232.156C177.054 232.11 176.479 231.884 176.274 231.654C176.068 231.424 175.148 230.926 174.228 230.548C168.528 228.203 146.558 215.16 146.124 213.863C146.062 213.676 145.847 213.509 145.647 213.49C145.143 213.444 140.17 209.801 140.031 209.377C139.969 209.187 139.644 209.007 139.309 208.975C138.974 208.944 138.718 208.724 138.74 208.486C138.762 208.248 138.58 208.035 138.337 208.013C138.093 207.99 136.072 206.526 133.845 204.76C131.619 202.993 129.701 201.539 129.583 201.528C129.466 201.518 129.153 201.295 128.89 201.033C128.014 200.166 124.845 197.395 121.38 194.466C119.499 192.875 117.911 191.406 117.85 191.202C117.789 190.998 117.532 190.811 117.278 190.788C117.025 190.764 116.171 190.146 115.381 189.413C114.591 188.681 113.043 187.326 111.941 186.401C110.838 185.476 109.754 184.536 109.531 184.312C108.802 183.58 102.632 177.888 101.482 176.887C100.865 176.349 99.8166 175.355 99.1522 174.676C96.4841 171.95 94.4533 170.725 96.1351 172.856C96.6252 173.477 97.4021 174.58 97.8615 175.307C98.7244 176.672 99.5187 177.818 102.292 181.698C105.472 186.147 117.036 199.833 120.756 203.55C122.067 204.86 123.226 206.042 123.333 206.177C124.108 207.159 129.08 212.092 130.884 213.669C132.098 214.73 133.359 215.87 133.686 216.203C136.93 219.498 149.261 229.201 155.242 233.165C159.211 235.795 165.417 239.643 166.813 240.339C167.27 240.566 168.548 241.261 169.653 241.883C176.057 245.483 185.664 249.6 193.2 251.973C194.291 252.317 195.94 252.857 196.865 253.175C198.808 253.841 204.671 255.535 208.064 256.411C214.304 258.021 216.193 258.469 219.739 259.182C236.986 262.648 254.331 263.97 272.519 263.205C277.281 263.004 283.118 262.435 288.938 261.603C289.905 261.465 291.485 261.277 292.448 261.186C293.411 261.094 295.197 260.783 296.417 260.494C297.637 260.205 300.424 259.622 302.611 259.199C304.798 258.775 306.94 258.283 307.371 258.104C307.802 257.925 308.506 257.811 308.935 257.851C309.364 257.891 309.915 257.761 310.161 257.563C310.406 257.364 311.904 256.897 313.489 256.525C315.075 256.153 316.977 255.647 317.715 255.402C318.454 255.157 319.86 254.732 320.84 254.459C322.586 253.971 328.776 251.785 334.469 249.646C336.048 249.053 339.265 247.695 341.619 246.629C343.972 245.562 345.973 244.697 346.064 244.705C346.155 244.714 347.657 243.969 349.403 243.05C351.148 242.132 352.767 241.398 353.002 241.42C353.237 241.441 353.506 241.319 353.602 241.148C353.697 240.977 356.448 239.384 359.715 237.609C362.982 235.833 366.107 234.061 366.66 233.669C368.577 232.313 369.375 231.786 371.206 230.662C372.218 230.041 373.153 229.433 373.283 229.312C373.414 229.19 374.348 228.587 375.36 227.974C376.371 227.36 377.424 226.682 377.7 226.468C377.976 226.253 379.203 225.385 380.427 224.538C381.651 223.691 383.077 222.694 383.596 222.322C384.115 221.95 384.613 221.653 384.704 221.661C384.954 221.684 383.908 223.188 383.23 223.782C382.901 224.07 381.596 225.476 380.332 226.906C375.972 231.837 361.358 244.64 355.904 248.306C354.759 249.076 353.193 250.171 352.425 250.74C351.656 251.308 350.301 252.231 349.414 252.791C348.527 253.35 347.694 253.916 347.562 254.049C347.431 254.181 344.683 255.804 341.456 257.657C334.624 261.578 328.763 264.455 320.457 267.965C317.66 269.147 314.671 270.166 314.143 270.117C313.81 270.086 313.52 270.256 313.497 270.494C313.475 270.732 313.186 270.901 312.853 270.87C312.52 270.84 311.47 271.113 310.519 271.478C309.567 271.844 307.288 272.54 305.453 273.025C302.102 273.913 300.964 274.23 299.106 274.798C298.553 274.967 297.705 275.165 297.221 275.238C296.737 275.312 294.648 275.734 292.578 276.176C290.509 276.619 287.927 277.094 286.84 277.233C285.753 277.372 284.171 277.592 283.323 277.722C273.923 279.159 266.658 279.495 251.36 279.198C244.26 279.061 229.787 277.194 225.192 275.822C224.008 275.469 222.911 275.35 222.614 275.541C222.331 275.725 221.41 275.935 220.568 276.008C219.725 276.082 218.246 276.246 217.28 276.373C200.876 278.53 185.498 278.975 167.777 277.806C150.651 276.676 133.039 273.175 118.05 267.919C115.623 267.068 113.112 266.204 112.47 265.997C111.827 265.792 111.214 265.444 111.105 265.225C110.997 265.006 110.378 264.778 109.73 264.718C109.081 264.658 108.381 264.437 108.174 264.226C107.966 264.016 107.139 263.573 106.334 263.243C105.529 262.913 103.695 262.163 102.258 261.577C100.82 260.99 99.6581 260.365 99.6746 260.186C99.6911 260.008 99.4367 259.837 99.1093 259.806C97.721 259.678 79.6698 249.308 78.0506 247.709C77.7055 247.368 75.9055 246.022 72.1874 243.323C71.6397 242.926 71.0014 242.439 70.769 242.241C70.5365 242.043 69.0836 240.851 67.5405 239.592C65.997 238.333 64.5225 237.065 64.264 236.773C64.0051 236.481 62.7486 235.36 61.4713 234.282C59.4805 232.601 54.8757 228.153 53.4951 226.578C53.2573 226.306 52.0391 225.007 50.7881 223.691C47.4487 220.178 38.2285 208.778 36.5616 206.101C36.25 205.6 35.2136 204.141 34.2585 202.858C33.3035 201.575 32.0102 199.726 31.3847 198.75C30.7591 197.775 30.0276 196.71 29.7596 196.385C29.4913 196.06 29.2845 195.659 29.2997 195.495C29.3149 195.331 28.8536 194.517 28.274 193.686C26.714 191.447 26.1986 190.613 24.9723 188.341C24.3612 187.209 23.7223 186.205 23.5519 186.109C23.3816 186.013 23.2667 185.675 23.2961 185.358C23.3254 185.041 23.1912 184.701 22.9972 184.603C22.501 184.352 17.3723 174.359 17.4284 173.753C17.4538 173.478 17.281 173.236 17.0444 173.214C16.8078 173.192 16.6397 172.898 16.671 172.561C16.7022 172.224 16.5888 171.87 16.4185 171.774C16.2481 171.678 15.6365 170.378 15.0589 168.884C14.4814 167.39 13.9111 166.061 13.7918 165.93C13.4817 165.59 8.53905 152.608 8.57431 152.227C8.59046 152.053 8.28255 150.95 7.89011 149.776C7.49809 148.603 7.05815 147.238 6.91337 146.745C6.76859 146.251 6.41386 145.13 6.12538 144.253C5.83647 143.376 5.44144 141.719 5.24704 140.571C5.05307 139.423 4.74091 138.47 4.55333 138.452C4.36574 138.435 4.24056 138.114 4.27526 137.74C4.30992 137.365 3.98862 135.564 3.56122 133.737C3.13382 131.909 2.8187 130.041 2.86101 129.584C2.90333 129.127 2.75549 128.615 2.53251 128.446C2.30954 128.277 2.18806 127.48 2.26259 126.675C2.33712 125.87 2.23512 125.088 2.03565 124.937C1.83618 124.785 1.63896 123.921 1.59785 123.015C1.55675 122.11 1.28553 119.58 0.995607 117.393C0.705227 115.205 0.532439 112.686 0.610787 111.793C0.689551 110.9 0.575653 110.153 0.357531 110.132C0.139409 110.112 -0.0103221 108.674 0.0246626 106.938C0.0592219 105.201 0.0707927 101.323 0.049413 98.3204C0.000336321 91.3204 1.01502 80.4377 2.32925 73.8734C2.8957 71.0454 3.56935 67.5238 3.82671 66.0472C4.08361 64.571 4.47121 63.3792 4.6876 63.3993C4.90399 63.4193 5.15669 62.6209 5.24889 61.6252C5.40175 59.9744 6.39645 56.7248 7.76759 53.3974C8.06026 52.6874 8.33909 51.6819 8.38709 51.1636C8.4351 50.6452 8.66803 50.2386 8.90463 50.2605C9.14123 50.2824 9.38892 49.7162 9.45504 49.0022C9.52115 48.2882 9.76884 47.722 10.0054 47.7439C10.242 47.7658 10.4785 47.3211 10.5308 46.7556C10.5832 46.1904 11.212 44.6719 11.9281 43.3813C12.6442 42.0908 13.2566 40.7483 13.2891 40.3978C13.3215 40.0477 13.5416 39.7792 13.7782 39.8011C14.0148 39.823 14.2535 39.3541 14.3086 38.7592C14.3637 38.1642 14.6023 37.6953 14.8389 37.7172C15.0755 37.7391 15.2867 37.5675 15.3082 37.336C15.3546 36.8345 18.0113 32.2143 18.4122 31.9381C18.5656 31.8323 19.0816 31.0722 19.5588 30.2492C20.5451 28.5477 25.8059 21.8299 26.8519 20.9361C27.2321 20.6112 28.1848 19.6193 28.969 18.7318C30.5283 16.9668 36.5422 11.8676 39.0978 10.1438C46.5333 5.12733 55.5272 1.69452 64.0499 0.620171C67.0743 0.239039 74.3349 -0.0260742 75.5871 0.198985C75.9392 0.262574 77.8285 0.620825 79.7854 0.995369Z"/>
</mask>
<path fill-rule="evenodd" clip-rule="evenodd" d="M79.7854 0.995369C87.8475 2.53839 95.1289 5.7125 101.571 10.4931C105.913 13.714 108.087 15.8631 111.644 20.4503C112.727 21.8458 113.961 23.4331 114.388 23.9776C115.429 25.3051 118.819 31.9337 119.392 33.7604C119.644 34.5641 119.996 35.2348 120.175 35.2513C120.354 35.2679 120.468 35.6384 120.427 36.0746C120.387 36.5112 120.461 36.9977 120.591 37.156C121.065 37.7297 122.652 44.8503 122.55 45.9464C122.493 46.5647 122.604 47.2719 122.797 47.5176C123.33 48.1976 123.375 51.6854 122.943 58.7474C122.679 63.0567 122.404 65.1347 122.099 65.1066C121.839 65.0825 121.555 66.063 121.43 67.4191C121.31 68.7143 121.03 69.8645 120.807 69.9761C120.584 70.0873 120.251 70.8044 120.066 71.5698C119.581 73.5709 117.18 79.2447 116.761 79.3779C116.566 79.4402 116.372 79.8638 116.33 80.3199C116.288 80.776 116.06 81.1315 115.823 81.1096C115.586 81.0877 115.368 81.3437 115.336 81.679C115.269 82.4069 112.639 86.6441 112.154 86.8069C111.967 86.8699 111.788 87.1969 111.757 87.5339C111.726 87.8715 111.507 88.1292 111.27 88.1073C111.033 88.0854 110.821 88.2751 110.797 88.5291C110.751 89.0324 108.301 91.8885 107.757 92.0734C107.368 92.2058 107.188 93.4028 107.551 93.4365C107.783 93.458 109.808 92.261 112.331 90.6094C114.374 89.2732 120.775 83.8659 120.814 83.4436C120.834 83.2199 121.378 82.6243 122.021 82.12C122.664 81.6157 123.215 80.9452 123.244 80.6297C123.273 80.3143 123.49 80.0739 123.727 80.0958C123.964 80.1177 124.183 79.86 124.214 79.5225C124.245 79.1854 124.422 78.8583 124.607 78.7951C124.922 78.6881 127.306 74.8628 128.357 72.778C128.617 72.2618 129.043 71.4179 129.304 70.9017C129.564 70.3854 130.092 69.1168 130.477 68.0823C131.175 66.2075 131.179 66.2048 131.665 67.3194C131.933 67.9343 132.1 69.071 132.037 69.8455C131.974 70.62 132.116 71.2712 132.352 71.2931C132.589 71.315 132.731 71.8846 132.669 72.5588C132.606 73.2334 132.687 73.9444 132.848 74.1391C133.008 74.3338 133.284 75.4233 133.459 76.5598C133.634 77.6963 133.927 79.4255 134.11 80.4026C134.292 81.3796 134.495 82.6749 134.559 83.281C134.624 83.8871 134.8 84.7871 134.951 85.2812C135.444 86.8984 136.501 92.5507 136.609 94.1537C136.668 95.0163 136.873 95.8414 137.066 95.9876C137.259 96.1337 137.355 96.9234 137.279 97.7425C137.203 98.5616 137.335 99.2494 137.572 99.2713C137.808 99.2932 137.972 99.6383 137.935 100.038C137.898 100.437 137.999 101.38 138.16 102.132C138.321 102.884 138.658 104.696 138.908 106.16C139.158 107.623 139.509 109.175 139.688 109.608C139.866 110.041 139.976 110.791 139.931 111.273C139.887 111.756 139.988 112.505 140.157 112.937C140.326 113.369 140.831 115.525 141.279 117.726C141.728 119.928 142.236 122.084 142.408 122.516C142.581 122.949 142.677 123.793 142.622 124.391C142.566 124.989 142.715 125.497 142.951 125.519C143.188 125.541 143.349 125.906 143.31 126.331C143.271 126.756 143.583 128.601 144.004 130.432C144.425 132.263 144.742 134.102 144.71 134.519C144.677 134.936 144.844 135.295 145.081 135.317C145.318 135.339 145.457 135.941 145.391 136.655C145.325 137.369 145.464 137.971 145.701 137.993C145.938 138.015 146.096 138.416 146.053 138.883C145.964 139.841 146.726 143.583 147.255 144.787C147.446 145.221 147.575 145.874 147.541 146.238C147.507 146.601 147.625 147.253 147.802 147.686C147.98 148.119 148.361 149.478 148.649 150.704C148.937 151.931 149.465 153.795 149.822 154.845C150.18 155.896 150.446 157.038 150.414 157.384C150.382 157.729 150.524 158.14 150.73 158.295C150.936 158.452 151.183 159.216 151.279 159.995C151.374 160.773 151.573 161.722 151.718 162.103C151.947 162.701 152.832 165.56 153.739 168.633C155.432 174.365 160.434 186.982 161.164 187.359C161.352 187.457 161.481 187.812 161.45 188.149C161.418 188.487 161.586 188.781 161.823 188.802C162.06 188.824 162.226 189.134 162.193 189.491C162.16 189.848 162.304 190.156 162.513 190.176C162.722 190.195 162.975 190.562 163.076 190.991C163.317 192.023 164.434 194.08 165.725 195.869C166.102 196.391 168.763 200.449 169.521 201.656C170.576 203.338 179.114 213.575 180.851 215.242C181.946 216.293 183.374 217.741 184.024 218.46C184.674 219.179 185.337 219.781 185.498 219.797C185.659 219.813 186.023 220.108 186.307 220.453C187.115 221.431 193.401 226.64 196.106 228.573C199.241 230.813 203.615 233.611 206.756 235.388C208.117 236.158 210.621 237.577 212.322 238.543C215.128 240.136 227.253 245.522 231.909 247.243C234.911 248.353 235.159 248.563 233.519 248.601C232.101 248.635 228.343 247.934 220.083 246.098C212.121 244.328 208.746 243.398 196.389 239.57C195.461 239.282 194.043 238.788 193.237 238.472C192.431 238.156 190.267 237.358 188.428 236.699C186.589 236.04 184.61 235.277 184.029 235.003C183.449 234.729 182.126 234.173 181.09 233.768C180.053 233.362 179.037 232.852 178.83 232.635C178.623 232.418 178.048 232.202 177.551 232.156C177.054 232.11 176.479 231.884 176.274 231.654C176.068 231.424 175.148 230.926 174.228 230.548C168.528 228.203 146.558 215.16 146.124 213.863C146.062 213.676 145.847 213.509 145.647 213.49C145.143 213.444 140.17 209.801 140.031 209.377C139.969 209.187 139.644 209.007 139.309 208.975C138.974 208.944 138.718 208.724 138.74 208.486C138.762 208.248 138.58 208.035 138.337 208.013C138.093 207.99 136.072 206.526 133.845 204.76C131.619 202.993 129.701 201.539 129.583 201.528C129.466 201.518 129.153 201.295 128.89 201.033C128.014 200.166 124.845 197.395 121.38 194.466C119.499 192.875 117.911 191.406 117.85 191.202C117.789 190.998 117.532 190.811 117.278 190.788C117.025 190.764 116.171 190.146 115.381 189.413C114.591 188.681 113.043 187.326 111.941 186.401C110.838 185.476 109.754 184.536 109.531 184.312C108.802 183.58 102.632 177.888 101.482 176.887C100.865 176.349 99.8166 175.355 99.1522 174.676C96.4841 171.95 94.4533 170.725 96.1351 172.856C96.6252 173.477 97.4021 174.58 97.8615 175.307C98.7244 176.672 99.5187 177.818 102.292 181.698C105.472 186.147 117.036 199.833 120.756 203.55C122.067 204.86 123.226 206.042 123.333 206.177C124.108 207.159 129.08 212.092 130.884 213.669C132.098 214.73 133.359 215.87 133.686 216.203C136.93 219.498 149.261 229.201 155.242 233.165C159.211 235.795 165.417 239.643 166.813 240.339C167.27 240.566 168.548 241.261 169.653 241.883C176.057 245.483 185.664 249.6 193.2 251.973C194.291 252.317 195.94 252.857 196.865 253.175C198.808 253.841 204.671 255.535 208.064 256.411C214.304 258.021 216.193 258.469 219.739 259.182C236.986 262.648 254.331 263.97 272.519 263.205C277.281 263.004 283.118 262.435 288.938 261.603C289.905 261.465 291.485 261.277 292.448 261.186C293.411 261.094 295.197 260.783 296.417 260.494C297.637 260.205 300.424 259.622 302.611 259.199C304.798 258.775 306.94 258.283 307.371 258.104C307.802 257.925 308.506 257.811 308.935 257.851C309.364 257.891 309.915 257.761 310.161 257.563C310.406 257.364 311.904 256.897 313.489 256.525C315.075 256.153 316.977 255.647 317.715 255.402C318.454 255.157 319.86 254.732 320.84 254.459C322.586 253.971 328.776 251.785 334.469 249.646C336.048 249.053 339.265 247.695 341.619 246.629C343.972 245.562 345.973 244.697 346.064 244.705C346.155 244.714 347.657 243.969 349.403 243.05C351.148 242.132 352.767 241.398 353.002 241.42C353.237 241.441 353.506 241.319 353.602 241.148C353.697 240.977 356.448 239.384 359.715 237.609C362.982 235.833 366.107 234.061 366.66 233.669C368.577 232.313 369.375 231.786 371.206 230.662C372.218 230.041 373.153 229.433 373.283 229.312C373.414 229.19 374.348 228.587 375.36 227.974C376.371 227.36 377.424 226.682 377.7 226.468C377.976 226.253 379.203 225.385 380.427 224.538C381.651 223.691 383.077 222.694 383.596 222.322C384.115 221.95 384.613 221.653 384.704 221.661C384.954 221.684 383.908 223.188 383.23 223.782C382.901 224.07 381.596 225.476 380.332 226.906C375.972 231.837 361.358 244.64 355.904 248.306C354.759 249.076 353.193 250.171 352.425 250.74C351.656 251.308 350.301 252.231 349.414 252.791C348.527 253.35 347.694 253.916 347.562 254.049C347.431 254.181 344.683 255.804 341.456 257.657C334.624 261.578 328.763 264.455 320.457 267.965C317.66 269.147 314.671 270.166 314.143 270.117C313.81 270.086 313.52 270.256 313.497 270.494C313.475 270.732 313.186 270.901 312.853 270.87C312.52 270.84 311.47 271.113 310.519 271.478C309.567 271.844 307.288 272.54 305.453 273.025C302.102 273.913 300.964 274.23 299.106 274.798C298.553 274.967 297.705 275.165 297.221 275.238C296.737 275.312 294.648 275.734 292.578 276.176C290.509 276.619 287.927 277.094 286.84 277.233C285.753 277.372 284.171 277.592 283.323 277.722C273.923 279.159 266.658 279.495 251.36 279.198C244.26 279.061 229.787 277.194 225.192 275.822C224.008 275.469 222.911 275.35 222.614 275.541C222.331 275.725 221.41 275.935 220.568 276.008C219.725 276.082 218.246 276.246 217.28 276.373C200.876 278.53 185.498 278.975 167.777 277.806C150.651 276.676 133.039 273.175 118.05 267.919C115.623 267.068 113.112 266.204 112.47 265.997C111.827 265.792 111.214 265.444 111.105 265.225C110.997 265.006 110.378 264.778 109.73 264.718C109.081 264.658 108.381 264.437 108.174 264.226C107.966 264.016 107.139 263.573 106.334 263.243C105.529 262.913 103.695 262.163 102.258 261.577C100.82 260.99 99.6581 260.365 99.6746 260.186C99.6911 260.008 99.4367 259.837 99.1093 259.806C97.721 259.678 79.6698 249.308 78.0506 247.709C77.7055 247.368 75.9055 246.022 72.1874 243.323C71.6397 242.926 71.0014 242.439 70.769 242.241C70.5365 242.043 69.0836 240.851 67.5405 239.592C65.997 238.333 64.5225 237.065 64.264 236.773C64.0051 236.481 62.7486 235.36 61.4713 234.282C59.4805 232.601 54.8757 228.153 53.4951 226.578C53.2573 226.306 52.0391 225.007 50.7881 223.691C47.4487 220.178 38.2285 208.778 36.5616 206.101C36.25 205.6 35.2136 204.141 34.2585 202.858C33.3035 201.575 32.0102 199.726 31.3847 198.75C30.7591 197.775 30.0276 196.71 29.7596 196.385C29.4913 196.06 29.2845 195.659 29.2997 195.495C29.3149 195.331 28.8536 194.517 28.274 193.686C26.714 191.447 26.1986 190.613 24.9723 188.341C24.3612 187.209 23.7223 186.205 23.5519 186.109C23.3816 186.013 23.2667 185.675 23.2961 185.358C23.3254 185.041 23.1912 184.701 22.9972 184.603C22.501 184.352 17.3723 174.359 17.4284 173.753C17.4538 173.478 17.281 173.236 17.0444 173.214C16.8078 173.192 16.6397 172.898 16.671 172.561C16.7022 172.224 16.5888 171.87 16.4185 171.774C16.2481 171.678 15.6365 170.378 15.0589 168.884C14.4814 167.39 13.9111 166.061 13.7918 165.93C13.4817 165.59 8.53905 152.608 8.57431 152.227C8.59046 152.053 8.28255 150.95 7.89011 149.776C7.49809 148.603 7.05815 147.238 6.91337 146.745C6.76859 146.251 6.41386 145.13 6.12538 144.253C5.83647 143.376 5.44144 141.719 5.24704 140.571C5.05307 139.423 4.74091 138.47 4.55333 138.452C4.36574 138.435 4.24056 138.114 4.27526 137.74C4.30992 137.365 3.98862 135.564 3.56122 133.737C3.13382 131.909 2.8187 130.041 2.86101 129.584C2.90333 129.127 2.75549 128.615 2.53251 128.446C2.30954 128.277 2.18806 127.48 2.26259 126.675C2.33712 125.87 2.23512 125.088 2.03565 124.937C1.83618 124.785 1.63896 123.921 1.59785 123.015C1.55675 122.11 1.28553 119.58 0.995607 117.393C0.705227 115.205 0.532439 112.686 0.610787 111.793C0.689551 110.9 0.575653 110.153 0.357531 110.132C0.139409 110.112 -0.0103221 108.674 0.0246626 106.938C0.0592219 105.201 0.0707927 101.323 0.049413 98.3204C0.000336321 91.3204 1.01502 80.4377 2.32925 73.8734C2.8957 71.0454 3.56935 67.5238 3.82671 66.0472C4.08361 64.571 4.47121 63.3792 4.6876 63.3993C4.90399 63.4193 5.15669 62.6209 5.24889 61.6252C5.40175 59.9744 6.39645 56.7248 7.76759 53.3974C8.06026 52.6874 8.33909 51.6819 8.38709 51.1636C8.4351 50.6452 8.66803 50.2386 8.90463 50.2605C9.14123 50.2824 9.38892 49.7162 9.45504 49.0022C9.52115 48.2882 9.76884 47.722 10.0054 47.7439C10.242 47.7658 10.4785 47.3211 10.5308 46.7556C10.5832 46.1904 11.212 44.6719 11.9281 43.3813C12.6442 42.0908 13.2566 40.7483 13.2891 40.3978C13.3215 40.0477 13.5416 39.7792 13.7782 39.8011C14.0148 39.823 14.2535 39.3541 14.3086 38.7592C14.3637 38.1642 14.6023 37.6953 14.8389 37.7172C15.0755 37.7391 15.2867 37.5675 15.3082 37.336C15.3546 36.8345 18.0113 32.2143 18.4122 31.9381C18.5656 31.8323 19.0816 31.0722 19.5588 30.2492C20.5451 28.5477 25.8059 21.8299 26.8519 20.9361C27.2321 20.6112 28.1848 19.6193 28.969 18.7318C30.5283 16.9668 36.5422 11.8676 39.0978 10.1438C46.5333 5.12733 55.5272 1.69452 64.0499 0.620171C67.0743 0.239039 74.3349 -0.0260742 75.5871 0.198985C75.9392 0.262574 77.8285 0.620825 79.7854 0.995369Z" stroke="#F9F9F9" stroke-width="6" mask="url(#path-1-inside-1_4688_854)"/>
</svg>
