<svg width="362" height="273" viewBox="0 0 362 273" fill="none" xmlns="http://www.w3.org/2000/svg">
<path fill-rule="evenodd" clip-rule="evenodd" d="M329.795 0.422308C321.479 1.23019 313.801 3.76583 306.823 8.00977C302.12 10.869 299.715 12.8447 295.679 17.1634C294.451 18.4773 293.051 19.9713 292.567 20.4835C291.388 21.7323 287.329 28.1374 286.577 29.9364C286.246 30.7279 285.826 31.3751 285.643 31.3751C285.461 31.3751 285.311 31.7403 285.311 32.1865C285.311 32.6332 285.191 33.1197 285.043 33.268C284.509 33.8054 282.233 40.8789 282.233 42.0002C282.233 42.6328 282.054 43.3397 281.836 43.5708C281.231 44.2105 280.858 47.7439 280.633 54.9476C280.496 59.3433 280.581 61.477 280.891 61.477C281.158 61.477 281.353 62.4983 281.353 63.8856C281.353 65.2106 281.529 66.4036 281.745 66.5377C281.96 66.6714 282.231 67.4301 282.346 68.2239C282.65 70.2991 284.551 76.2797 284.962 76.4541C285.154 76.5356 285.311 76.9835 285.311 77.4501C285.311 77.9167 285.509 78.2987 285.751 78.2987C285.993 78.2987 286.191 78.5789 286.191 78.922C286.191 79.6666 288.458 84.2115 288.935 84.4223C289.118 84.5037 289.269 84.8521 289.269 85.1969C289.269 85.5422 289.467 85.8242 289.709 85.8242C289.951 85.8242 290.148 86.0367 290.148 86.2965C290.148 86.8114 292.363 89.9384 292.897 90.177C293.279 90.3479 293.349 91.579 292.977 91.579C292.74 91.579 290.801 90.1748 288.398 88.2625C286.453 86.7153 280.474 80.6294 280.474 80.1974C280.474 79.9685 279.979 79.3133 279.374 78.7414C278.77 78.1695 278.275 77.4377 278.275 77.115C278.275 76.7923 278.077 76.528 277.835 76.528C277.593 76.528 277.395 76.246 277.395 75.9008C277.395 75.5559 277.247 75.2075 277.066 75.1261C276.756 74.988 274.699 70.8839 273.829 68.6705C273.614 68.1225 273.262 67.2265 273.046 66.6785C272.831 66.1305 272.415 64.794 272.121 63.7086C271.59 61.7413 271.586 61.7382 270.989 62.8232C270.66 63.4217 270.383 64.559 270.375 65.3505C270.366 66.142 270.161 66.7892 269.919 66.7892C269.678 66.7892 269.48 67.3536 269.48 68.0433C269.48 68.7334 269.331 69.447 269.15 69.6294C268.969 69.8117 268.588 70.891 268.304 72.0273C268.02 73.1637 267.56 74.8901 267.284 75.864C267.006 76.8379 266.68 78.1327 266.557 78.7414C266.435 79.3501 266.172 80.2465 265.973 80.7334C265.321 82.3275 263.72 87.9615 263.459 89.5772C263.319 90.4466 263.033 91.2643 262.824 91.3944C262.615 91.5246 262.444 92.3165 262.444 93.1545C262.444 93.9925 262.246 94.6777 262.004 94.6777C261.762 94.6777 261.564 95.0124 261.564 95.421C261.564 95.8296 261.373 96.776 261.139 97.5237C260.905 98.2714 260.393 100.078 260.003 101.539C259.612 103 259.111 104.541 258.889 104.964C258.667 105.387 258.486 106.136 258.486 106.63C258.486 107.124 258.312 107.873 258.1 108.296C257.889 108.719 257.175 110.858 256.514 113.049C255.853 115.24 255.136 117.379 254.92 117.801C254.704 118.224 254.528 119.071 254.528 119.683C254.528 120.295 254.33 120.796 254.088 120.796C253.846 120.796 253.648 121.151 253.648 121.586C253.648 122.02 253.159 123.863 252.56 125.681C251.962 127.498 251.467 129.334 251.461 129.76C251.455 130.186 251.252 130.534 251.01 130.534C250.768 130.534 250.57 131.132 250.57 131.862C250.57 132.593 250.372 133.191 250.13 133.191C249.888 133.191 249.69 133.582 249.69 134.06C249.69 135.04 248.567 138.764 247.917 139.935C247.683 140.358 247.492 141.008 247.492 141.38C247.492 141.752 247.311 142.402 247.091 142.825C246.87 143.248 246.357 144.589 245.949 145.807C245.542 147.024 244.832 148.865 244.372 149.897C243.911 150.929 243.534 152.063 243.534 152.416C243.534 152.77 243.351 153.172 243.128 153.311C242.905 153.45 242.583 154.203 242.412 154.983C242.242 155.763 241.952 156.707 241.769 157.08C241.481 157.665 240.316 160.482 239.108 163.514C236.855 169.169 230.6 181.497 229.825 181.811C229.625 181.892 229.462 182.241 229.462 182.586C229.462 182.93 229.264 183.213 229.022 183.213C228.78 183.213 228.582 183.512 228.582 183.877C228.582 184.242 228.407 184.541 228.194 184.541C227.98 184.541 227.689 184.89 227.547 185.316C227.205 186.34 225.88 188.32 224.404 190.014C223.973 190.508 220.895 194.375 220.013 195.528C218.786 197.134 209.172 206.716 207.255 208.244C206.047 209.207 204.464 210.541 203.737 211.21C203.011 211.878 202.282 212.426 202.118 212.427C201.954 212.429 201.557 212.694 201.236 213.016C200.326 213.933 193.466 218.626 190.543 220.333C187.155 222.31 182.46 224.738 179.109 226.245C177.658 226.898 174.986 228.102 173.172 228.922C170.179 230.275 157.384 234.599 152.503 235.908C149.357 236.751 149.085 236.941 150.744 237.134C152.178 237.301 156.053 236.944 164.597 235.857C172.832 234.809 176.34 234.183 189.223 231.461C190.191 231.256 191.675 230.888 192.522 230.643C193.368 230.398 195.636 229.792 197.562 229.297C199.487 228.801 201.565 228.213 202.18 227.99C202.794 227.766 204.186 227.326 205.275 227.012C206.363 226.698 207.441 226.276 207.671 226.075C207.901 225.874 208.505 225.71 209.013 225.71C209.521 225.71 210.124 225.534 210.354 225.321C210.584 225.106 211.563 224.688 212.531 224.391C218.528 222.548 242.019 211.381 242.581 210.106C242.662 209.923 242.895 209.773 243.099 209.773C243.614 209.773 248.997 206.545 249.177 206.128C249.258 205.942 249.604 205.789 249.947 205.789C250.289 205.789 250.57 205.59 250.57 205.347C250.57 205.103 250.774 204.904 251.023 204.904C251.271 204.904 253.457 203.609 255.88 202.027C258.303 200.444 260.383 199.149 260.503 199.149C260.623 199.149 260.961 198.953 261.253 198.712C262.222 197.915 265.693 195.402 269.48 192.756C271.536 191.319 273.284 189.978 273.364 189.777C273.445 189.575 273.723 189.41 273.982 189.41C274.242 189.41 275.165 188.864 276.035 188.195C276.904 187.526 278.6 186.297 279.804 185.462C281.008 184.628 282.195 183.776 282.443 183.57C283.25 182.896 290.038 177.702 291.297 176.794C291.973 176.307 293.129 175.397 293.866 174.771C296.826 172.256 298.999 171.204 297.094 173.208C296.539 173.792 295.648 174.838 295.115 175.532C294.112 176.836 293.199 177.923 290.025 181.598C286.384 185.813 273.379 198.608 269.26 202.029C267.809 203.234 266.522 204.324 266.401 204.452C265.524 205.375 260.021 209.912 258.046 211.341C256.716 212.304 255.33 213.342 254.968 213.649C251.371 216.686 237.963 225.369 231.528 228.828C227.259 231.124 220.608 234.444 219.127 235.019C218.643 235.206 217.283 235.791 216.104 236.318C209.276 239.369 199.152 242.642 191.292 244.341C190.154 244.587 188.432 244.98 187.464 245.215C185.433 245.709 179.331 246.877 175.811 247.446C169.335 248.493 167.379 248.77 163.717 249.16C145.912 251.056 128.208 250.767 109.847 248.283C105.038 247.632 99.1759 246.507 93.3557 245.117C92.3882 244.886 90.8051 244.547 89.8376 244.364C88.8701 244.18 87.0891 243.697 85.8798 243.289C84.6704 242.881 81.8999 242.028 79.7231 241.393C77.5463 240.759 75.4218 240.058 75.0018 239.836C74.5819 239.614 73.8791 239.433 73.4407 239.433C73.0018 239.433 72.4552 239.249 72.2252 239.025C71.9956 238.801 70.5211 238.186 68.949 237.66C67.3768 237.133 65.4969 236.442 64.7713 236.124C64.0457 235.806 62.6604 235.243 61.6929 234.874C59.9686 234.215 53.8999 231.416 48.3308 228.712C46.7864 227.962 43.6531 226.283 41.3677 224.98C39.0827 223.677 37.1363 222.611 37.0435 222.611C36.9503 222.611 35.4973 221.715 33.8148 220.619C32.1323 219.523 30.5597 218.627 30.3196 218.627C30.0799 218.627 29.8178 218.478 29.7369 218.295C29.6564 218.112 27.0178 216.238 23.8736 214.131C20.7293 212.023 17.7279 209.931 17.2041 209.483C15.3884 207.927 14.6298 207.317 12.8795 206.006C11.9121 205.281 11.0216 204.576 10.9006 204.441C10.7797 204.305 9.88917 203.606 8.9217 202.889C7.95423 202.171 6.95026 201.385 6.6908 201.141C6.43134 200.898 5.26905 199.902 4.10809 198.928C2.94712 197.954 1.59529 196.809 1.10452 196.382C0.613309 195.957 0.136168 195.608 0.0438185 195.608C-0.211682 195.608 0.706537 197.232 1.33847 197.897C1.64499 198.22 2.83498 199.769 3.98232 201.338C7.93884 206.75 21.5485 221.109 26.732 225.34C27.8204 226.228 29.3046 227.486 30.0302 228.135C30.7558 228.784 32.0421 229.847 32.8886 230.498C33.7352 231.148 34.5267 231.801 34.6477 231.948C34.7686 232.094 37.4015 233.999 40.4978 236.181C47.0542 240.8 52.7249 244.269 60.8134 248.609C63.5368 250.071 66.4709 251.385 67.0105 251.385C67.3513 251.385 67.6297 251.584 67.6297 251.828C67.6297 252.071 67.9076 252.27 68.2476 252.27C68.5879 252.27 69.6266 252.647 70.5563 253.106C71.4864 253.566 73.7314 254.486 75.5454 255.151C78.8585 256.366 79.9817 256.795 81.812 257.546C82.3564 257.769 83.1972 258.049 83.681 258.169C84.1647 258.289 86.2426 258.913 88.2984 259.556C90.3543 260.2 92.9269 260.925 94.0153 261.168C95.1037 261.411 96.6869 261.783 97.5334 261.993C106.926 264.334 114.257 265.357 129.79 266.493C136.999 267.021 151.843 266.486 156.629 265.527C157.862 265.28 158.986 265.262 159.268 265.483C159.538 265.696 160.452 265.996 161.299 266.15C162.145 266.304 163.629 266.609 164.597 266.829C181.02 270.557 196.564 272.453 214.634 272.932C232.098 273.394 250.276 271.497 265.962 267.574C268.501 266.938 271.127 266.297 271.798 266.149C272.468 266 273.123 265.706 273.253 265.493C273.383 265.281 274.032 265.108 274.695 265.108C275.358 265.108 276.088 264.949 276.318 264.756C276.548 264.562 277.428 264.191 278.275 263.931C279.121 263.672 281.051 263.083 282.563 262.624C284.074 262.164 285.311 261.639 285.311 261.456C285.311 261.273 285.585 261.124 285.92 261.124C287.339 261.124 306.607 252.301 308.398 250.831C308.78 250.517 310.731 249.321 314.753 246.933C315.345 246.582 316.038 246.148 316.292 245.969C316.546 245.79 318.13 244.717 319.812 243.585C321.495 242.454 323.108 241.305 323.398 241.033C323.688 240.762 325.066 239.743 326.462 238.769C328.638 237.251 333.722 233.172 335.269 231.704C335.536 231.45 336.892 230.247 338.284 229.03C341.998 225.78 352.413 215.083 354.353 212.524C354.716 212.046 355.904 210.663 356.992 209.451C358.08 208.239 359.565 206.486 360.29 205.555C361.016 204.624 361.857 203.613 362.159 203.308C362.462 203.003 362.709 202.617 362.709 202.448C362.709 202.281 363.253 201.498 363.918 200.71C365.709 198.586 366.31 197.788 367.766 195.599C368.492 194.508 369.234 193.549 369.415 193.468C369.597 193.387 369.745 193.055 369.745 192.73C369.745 192.406 369.913 192.074 370.119 191.992C370.645 191.785 376.781 182.13 376.781 181.51C376.781 181.229 376.979 181 377.221 181C377.463 181 377.661 180.718 377.661 180.372C377.661 180.027 377.809 179.679 377.991 179.598C378.172 179.517 378.914 178.255 379.64 176.794C380.365 175.333 381.068 174.038 381.201 173.917C381.547 173.601 387.775 160.898 387.775 160.508C387.775 160.33 388.191 159.24 388.699 158.086C389.206 156.933 389.78 155.59 389.973 155.103C390.166 154.616 390.631 153.512 391.006 152.65C391.381 151.787 391.937 150.144 392.241 148.998C392.546 147.852 392.952 146.913 393.143 146.913C393.335 146.913 393.492 146.6 393.492 146.217C393.492 145.834 393.987 144.037 394.591 142.223C395.196 140.41 395.691 138.544 395.691 138.077C395.691 137.609 395.889 137.104 396.131 136.953C396.373 136.803 396.57 136.006 396.57 135.183C396.57 134.359 396.747 133.575 396.964 133.441C397.18 133.306 397.461 132.448 397.588 131.533C397.714 130.619 398.227 128.078 398.726 125.886C399.225 123.695 399.637 121.155 399.641 120.242C399.645 119.329 399.831 118.582 400.054 118.582C400.277 118.582 400.563 117.138 400.691 115.373C400.819 113.608 401.171 109.673 401.475 106.63C402.181 99.5343 402.174 88.4006 401.458 81.6188C401.15 78.6971 400.797 75.0619 400.675 73.54C400.553 72.0185 400.272 70.7732 400.051 70.7732C399.83 70.7732 399.649 69.9397 399.649 68.9211C399.649 67.2323 398.946 63.8427 397.868 60.3389C397.638 59.5912 397.45 58.5452 397.45 58.0149C397.45 57.4845 397.252 57.0503 397.01 57.0503C396.768 57.0503 396.57 56.4527 396.57 55.7223C396.57 54.9918 396.373 54.3942 396.131 54.3942C395.889 54.3942 395.691 53.921 395.691 53.3424C395.691 52.7643 395.196 51.1649 394.591 49.7886C393.987 48.4124 393.492 46.9931 393.492 46.6346C393.492 46.2764 393.294 45.9834 393.052 45.9834C392.81 45.9834 392.613 45.4854 392.613 44.8767C392.613 44.268 392.415 43.77 392.173 43.77C391.931 43.77 391.733 43.5761 391.733 43.3393C391.733 42.8262 389.474 37.8904 389.094 37.5725C388.948 37.4508 388.496 36.6314 388.09 35.7518C387.25 33.9333 382.549 26.6252 381.572 25.6203C381.217 25.2551 380.345 24.1595 379.633 23.1856C378.219 21.2489 372.602 15.5118 370.174 13.5233C363.109 7.73664 354.315 3.40993 345.778 1.5197C342.749 0.84905 335.415 -0.101816 334.124 0.00885335C333.762 0.0402833 331.813 0.226203 329.795 0.422308Z" fill="#ED7189"/>
</svg>
