<svg width="395" height="268" viewBox="0 0 395 268" fill="none" xmlns="http://www.w3.org/2000/svg">
<path fill-rule="evenodd" clip-rule="evenodd" d="M324.009 0.414574C315.839 1.20766 308.296 3.69686 301.44 7.86307C296.82 10.6699 294.457 12.6094 290.492 16.8491C289.285 18.1389 287.91 19.6055 287.434 20.1083C286.276 21.3343 282.288 27.622 281.549 29.3881C281.225 30.1651 280.812 30.8005 280.632 30.8005C280.453 30.8005 280.306 31.159 280.306 31.597C280.306 32.0355 280.187 32.5131 280.043 32.6587C279.518 33.1862 277.281 40.1302 277.281 41.231C277.281 41.852 277.106 42.546 276.891 42.7728C276.298 43.4008 275.931 46.8695 275.71 53.9412C275.575 58.2565 275.658 60.3511 275.964 60.3511C276.225 60.3511 276.417 61.3536 276.417 62.7156C276.417 64.0162 276.59 65.1874 276.802 65.3191C277.013 65.4503 277.279 66.1952 277.393 66.9743C277.691 69.0116 279.559 74.8826 279.963 75.0538C280.151 75.1338 280.306 75.5736 280.306 76.0316C280.306 76.4897 280.5 76.8647 280.738 76.8647C280.975 76.8647 281.17 77.1398 281.17 77.4766C281.17 78.2075 283.398 82.6692 283.866 82.8761C284.046 82.956 284.194 83.298 284.194 83.6366C284.194 83.9755 284.388 84.2523 284.626 84.2523C284.864 84.2523 285.058 84.4609 285.058 84.716C285.058 85.2214 287.234 88.2912 287.758 88.5255C288.133 88.6932 288.203 89.9017 287.837 89.9017C287.605 89.9017 285.699 88.5233 283.339 86.6459C281.428 85.1271 275.553 79.1527 275.553 78.7285C275.553 78.5039 275.067 77.8607 274.473 77.2993C273.879 76.7378 273.393 76.0194 273.393 75.7026C273.393 75.3858 273.198 75.1264 272.961 75.1264C272.723 75.1264 272.529 74.8496 272.529 74.5106C272.529 74.1721 272.383 73.8301 272.205 73.7501C271.901 73.6146 269.88 69.5857 269.025 67.4128C268.814 66.8748 268.468 65.9953 268.256 65.4573C268.045 64.9193 267.635 63.6073 267.347 62.5417C266.825 60.6105 266.822 60.6075 266.235 61.6726C265.912 62.2601 265.64 63.3766 265.631 64.1536C265.623 64.9306 265.422 65.5659 265.184 65.5659C264.946 65.5659 264.752 66.12 264.752 66.7971C264.752 67.4745 264.606 68.1751 264.428 68.3541C264.25 68.5331 263.876 69.5926 263.597 70.7082C263.318 71.8237 262.866 73.5185 262.594 74.4746C262.322 75.4306 262.001 76.7017 261.881 77.2993C261.761 77.8968 261.503 78.7768 261.307 79.2548C260.667 80.8197 259.093 86.3504 258.837 87.9366C258.699 88.7901 258.419 89.5928 258.213 89.7205C258.007 89.8483 257.839 90.6257 257.839 91.4484C257.839 92.271 257.645 92.9437 257.407 92.9437C257.17 92.9437 256.975 93.2722 256.975 93.6733C256.975 94.0744 256.787 95.0036 256.557 95.7375C256.328 96.4715 255.825 98.2454 255.441 99.6795C255.057 101.114 254.565 102.626 254.347 103.041C254.129 103.456 253.951 104.193 253.951 104.677C253.951 105.162 253.781 105.898 253.572 106.313C253.365 106.728 252.663 108.827 252.014 110.978C251.364 113.129 250.66 115.229 250.448 115.644C250.236 116.059 250.062 116.89 250.062 117.491C250.062 118.092 249.868 118.583 249.63 118.583C249.393 118.583 249.198 118.932 249.198 119.359C249.198 119.786 248.717 121.594 248.129 123.379C247.541 125.163 247.055 126.965 247.049 127.383C247.043 127.801 246.844 128.144 246.606 128.144C246.368 128.144 246.174 128.73 246.174 129.447C246.174 130.164 245.98 130.751 245.742 130.751C245.504 130.751 245.31 131.135 245.31 131.605C245.31 132.567 244.206 136.222 243.568 137.372C243.338 137.787 243.15 138.426 243.15 138.791C243.15 139.156 242.973 139.794 242.756 140.209C242.539 140.624 242.035 141.941 241.635 143.136C241.234 144.331 240.537 146.138 240.084 147.151C239.632 148.165 239.261 149.278 239.261 149.624C239.261 149.972 239.082 150.367 238.863 150.503C238.643 150.64 238.327 151.378 238.16 152.145C237.992 152.911 237.708 153.837 237.528 154.203C237.245 154.778 236.1 157.543 234.913 160.519C232.699 166.07 226.554 178.173 225.793 178.481C225.597 178.561 225.436 178.903 225.436 179.242C225.436 179.58 225.241 179.857 225.004 179.857C224.766 179.857 224.572 180.151 224.572 180.509C224.572 180.868 224.4 181.161 224.19 181.161C223.98 181.161 223.694 181.503 223.555 181.922C223.219 182.927 221.917 184.871 220.467 186.534C220.044 187.019 217.019 190.815 216.153 191.947C214.948 193.524 205.503 202.93 203.619 204.43C202.432 205.375 200.877 206.685 200.163 207.342C199.449 207.998 198.733 208.536 198.572 208.537C198.411 208.538 198.021 208.798 197.706 209.115C196.811 210.015 190.072 214.622 187.2 216.297C183.872 218.238 179.259 220.622 175.967 222.101C174.541 222.742 171.916 223.925 170.134 224.73C167.193 226.058 154.623 230.302 149.828 231.587C146.737 232.415 146.47 232.601 148.1 232.791C149.509 232.955 153.315 232.604 161.709 231.537C169.8 230.508 173.247 229.894 185.904 227.221C186.854 227.021 188.312 226.659 189.144 226.419C189.976 226.178 192.204 225.583 194.096 225.097C195.988 224.611 198.029 224.033 198.633 223.814C199.236 223.594 200.604 223.163 201.673 222.854C202.743 222.546 203.802 222.132 204.028 221.935C204.254 221.738 204.847 221.576 205.346 221.576C205.845 221.576 206.438 221.404 206.664 221.194C206.889 220.984 207.852 220.573 208.802 220.281C214.694 218.472 237.773 207.51 238.325 206.258C238.405 206.078 238.634 205.931 238.834 205.931C239.34 205.931 244.629 202.763 244.806 202.353C244.885 202.17 245.225 202.02 245.562 202.02C245.898 202.02 246.174 201.825 246.174 201.586C246.174 201.347 246.374 201.151 246.619 201.151C246.863 201.151 249.011 199.88 251.391 198.326C253.771 196.773 255.815 195.502 255.933 195.502C256.051 195.502 256.382 195.309 256.669 195.073C257.622 194.29 261.032 191.823 264.752 189.225C266.772 187.815 268.489 186.499 268.568 186.301C268.648 186.103 268.921 185.941 269.176 185.941C269.431 185.941 270.338 185.405 271.192 184.748C272.046 184.092 273.713 182.885 274.895 182.065C276.078 181.246 277.245 180.41 277.487 180.208C278.281 179.546 284.949 174.447 286.187 173.556C286.851 173.078 287.986 172.184 288.71 171.57C291.618 169.101 293.753 168.069 291.882 170.036C291.337 170.609 290.462 171.636 289.937 172.317C288.952 173.597 288.056 174.665 284.937 178.272C281.36 182.41 268.583 194.971 264.536 198.329C263.11 199.512 261.846 200.582 261.728 200.707C260.865 201.613 255.46 206.067 253.519 207.47C252.212 208.415 250.851 209.435 250.495 209.736C246.961 212.717 233.788 221.242 227.466 224.637C223.272 226.891 216.738 230.15 215.283 230.714C214.808 230.899 213.471 231.473 212.312 231.99C205.605 234.984 195.658 238.198 187.936 239.866C186.818 240.107 185.126 240.494 184.176 240.724C182.18 241.209 176.185 242.355 172.726 242.914C166.364 243.942 164.442 244.214 160.845 244.597C143.352 246.458 125.959 246.175 107.92 243.736C103.196 243.097 97.436 241.992 91.7179 240.627C90.7674 240.401 89.212 240.068 88.2615 239.888C87.311 239.708 85.5612 239.234 84.3731 238.833C83.185 238.433 80.4631 237.595 78.3245 236.972C76.1858 236.349 74.0986 235.661 73.686 235.443C73.2734 235.226 72.583 235.048 72.1523 235.048C71.7211 235.048 71.1841 234.867 70.9581 234.647C70.7326 234.427 69.2839 233.824 67.7394 233.307C66.1948 232.79 64.3478 232.112 63.6349 231.8C62.9221 231.487 61.5611 230.935 60.6106 230.572C58.9166 229.925 52.9543 227.178 47.4829 224.523C45.9656 223.787 42.8873 222.138 40.6419 220.859C38.397 219.58 36.4848 218.534 36.3936 218.534C36.302 218.534 34.8745 217.654 33.2215 216.578C31.5685 215.503 30.0235 214.623 29.7876 214.623C29.5522 214.623 29.2947 214.476 29.2152 214.297C29.1361 214.117 26.5438 212.278 23.4547 210.209C20.3656 208.14 17.4169 206.087 16.9023 205.646C15.1184 204.119 14.3731 203.52 12.6536 202.233C11.7031 201.521 10.8282 200.83 10.7094 200.696C10.5906 200.563 9.71568 199.877 8.76518 199.173C7.81468 198.468 6.82832 197.696 6.57342 197.457C6.31851 197.218 5.17661 196.241 4.03601 195.285C2.89541 194.328 1.56731 193.204 1.08514 192.786C0.602549 192.368 0.133779 192.025 0.0430497 192.025C-0.207969 192.025 0.694142 193.619 1.31499 194.273C1.61613 194.59 2.78524 196.11 3.91245 197.651C7.79956 202.963 21.1705 217.059 26.263 221.213C27.3323 222.085 28.7905 223.319 29.5034 223.956C30.2162 224.594 31.48 225.637 32.3116 226.276C33.1433 226.915 33.921 227.556 34.0398 227.699C34.1586 227.843 36.7453 229.713 39.7873 231.855C46.2287 236.389 51.7999 239.795 59.7465 244.056C62.4222 245.491 65.3048 246.781 65.8349 246.781C66.1697 246.781 66.4432 246.976 66.4432 247.215C66.4432 247.454 66.7163 247.65 67.0502 247.65C67.3846 247.65 68.4051 248.019 69.3185 248.47C70.2323 248.922 72.4379 249.825 74.22 250.478C77.4751 251.671 78.5785 252.092 80.3767 252.829C80.9116 253.048 81.7376 253.323 82.2129 253.441C82.6881 253.558 84.7295 254.171 86.7494 254.803C88.7692 255.434 91.2966 256.146 92.3659 256.384C93.4352 256.623 94.9906 256.988 95.8223 257.195C105.05 259.493 112.253 260.497 127.513 261.612C134.596 262.13 149.179 261.605 153.881 260.664C155.092 260.421 156.196 260.403 156.474 260.621C156.739 260.83 157.637 261.124 158.469 261.275C159.301 261.426 160.759 261.726 161.709 261.942C177.844 265.602 193.115 267.463 210.869 267.933C228.026 268.387 245.885 266.524 261.296 262.673C263.791 262.049 266.371 261.42 267.029 261.274C267.688 261.129 268.331 260.839 268.459 260.631C268.587 260.423 269.224 260.252 269.876 260.252C270.527 260.252 271.245 260.097 271.47 259.907C271.696 259.716 272.561 259.352 273.393 259.097C274.225 258.843 276.12 258.265 277.605 257.814C279.091 257.363 280.306 256.847 280.306 256.667C280.306 256.488 280.575 256.341 280.904 256.341C282.298 256.341 301.228 247.68 302.988 246.237C303.363 245.929 305.28 244.755 309.231 242.411C309.813 242.066 310.493 241.639 310.743 241.464C310.992 241.288 312.549 240.235 314.202 239.124C315.855 238.013 317.44 236.886 317.724 236.619C318.009 236.352 319.363 235.352 320.735 234.396C322.872 232.906 327.867 228.901 329.387 227.46C329.649 227.211 330.982 226.03 332.349 224.835C335.998 221.645 346.23 211.144 348.137 208.632C348.493 208.162 349.66 206.804 350.729 205.615C351.798 204.425 353.256 202.704 353.969 201.79C354.682 200.876 355.509 199.884 355.806 199.585C356.103 199.285 356.346 198.906 356.346 198.741C356.346 198.576 356.88 197.808 357.534 197.034C359.293 194.949 359.884 194.165 361.314 192.017C362.027 190.946 362.756 190.005 362.934 189.925C363.113 189.845 363.258 189.519 363.258 189.201C363.258 188.882 363.423 188.556 363.626 188.476C364.143 188.272 370.171 178.794 370.171 178.186C370.171 177.91 370.365 177.685 370.603 177.685C370.841 177.685 371.035 177.408 371.035 177.069C371.035 176.73 371.181 176.388 371.359 176.308C371.538 176.229 372.266 174.99 372.979 173.556C373.692 172.122 374.383 170.851 374.514 170.731C374.854 170.422 380.972 157.951 380.972 157.568C380.972 157.393 381.38 156.324 381.879 155.191C382.378 154.058 382.942 152.74 383.132 152.262C383.321 151.784 383.778 150.7 384.146 149.854C384.514 149.007 385.061 147.394 385.36 146.269C385.659 145.144 386.058 144.223 386.246 144.223C386.435 144.223 386.589 143.915 386.589 143.539C386.589 143.163 387.075 141.399 387.669 139.619C388.263 137.839 388.749 136.007 388.749 135.548C388.749 135.089 388.943 134.593 389.181 134.445C389.419 134.297 389.613 133.515 389.613 132.707C389.613 131.898 389.787 131.129 389.999 130.997C390.212 130.865 390.488 130.022 390.612 129.124C390.737 128.226 391.24 125.732 391.731 123.581C392.221 121.43 392.626 118.937 392.63 118.04C392.634 117.144 392.816 116.41 393.035 116.41C393.254 116.41 393.536 114.992 393.661 113.26C393.787 111.527 394.133 107.665 394.431 104.677C395.126 97.7114 395.119 86.7815 394.415 80.1239C394.112 77.2558 393.766 73.6871 393.646 72.1931C393.526 70.6995 393.25 69.477 393.033 69.477C392.815 69.477 392.637 68.6587 392.637 67.6588C392.637 66.0009 391.947 62.6734 390.888 59.2338C390.662 58.4998 390.477 57.4729 390.477 56.9523C390.477 56.4317 390.283 56.0054 390.045 56.0054C389.807 56.0054 389.613 55.4187 389.613 54.7017C389.613 53.9847 389.419 53.398 389.181 53.398C388.943 53.398 388.749 52.9334 388.749 52.3655C388.749 51.7979 388.263 50.2278 387.669 48.8768C387.075 47.5257 386.589 46.1325 386.589 45.7805C386.589 45.4289 386.394 45.1412 386.157 45.1412C385.919 45.1412 385.725 44.6523 385.725 44.0548C385.725 43.4572 385.53 42.9684 385.293 42.9684C385.055 42.9684 384.861 42.778 384.861 42.5455C384.861 42.0419 382.641 37.1964 382.267 36.8844C382.124 36.7649 381.681 35.9605 381.281 35.097C380.456 33.3118 375.837 26.1375 374.878 25.1511C374.53 24.7925 373.672 23.717 372.973 22.7609C371.583 20.8597 366.065 15.2277 363.68 13.2756C356.738 7.59495 348.099 3.34748 339.712 1.49187C336.736 0.833499 329.53 -0.0999509 328.263 0.0086912C327.906 0.0395455 325.992 0.22206 324.009 0.414574Z" fill="#F9F9F9"/>
</svg>
