<svg width="674" height="458" viewBox="0 0 674 458" fill="none" xmlns="http://www.w3.org/2000/svg">
    <path fill-rule="evenodd" clip-rule="evenodd" d="M121.061 0.708488C135.003 2.06384 147.876 6.31777 159.576 13.4376C167.46 18.2345 171.492 21.5489 178.259 28.7943C180.318 30.9985 182.666 33.505 183.477 34.3642C185.454 36.4593 192.259 47.2048 193.52 50.2229C194.074 51.5508 194.779 52.6366 195.085 52.6366C195.392 52.6366 195.643 53.2493 195.643 53.9979C195.643 54.7472 195.845 55.5634 196.092 55.8122C196.987 56.7138 200.804 68.5807 200.804 70.4619C200.804 71.5231 201.103 72.7091 201.47 73.0968C202.483 74.1699 203.109 80.0978 203.485 92.1831C203.715 99.5577 203.574 103.137 203.053 103.137C202.607 103.137 202.278 104.851 202.278 107.178C202.278 109.401 201.983 111.402 201.622 111.627C201.262 111.852 200.807 113.125 200.614 114.456C200.105 117.938 196.917 127.971 196.227 128.264C195.906 128.4 195.643 129.152 195.643 129.935C195.643 130.717 195.311 131.358 194.905 131.358C194.5 131.358 194.168 131.828 194.168 132.404C194.168 133.653 190.366 141.278 189.566 141.631C189.259 141.768 189.007 142.353 189.007 142.931C189.007 143.51 188.675 143.983 188.27 143.983C187.864 143.983 187.532 144.34 187.532 144.776C187.532 145.64 183.819 150.886 182.924 151.286C182.284 151.573 182.165 153.638 182.789 153.638C183.187 153.638 186.438 151.282 190.467 148.074C193.728 145.478 203.753 135.268 203.753 134.544C203.753 134.16 204.583 133.06 205.596 132.101C206.61 131.141 207.44 129.914 207.44 129.372C207.44 128.831 207.771 128.388 208.177 128.388C208.582 128.388 208.914 127.915 208.914 127.335C208.914 126.757 209.163 126.172 209.467 126.036C209.986 125.804 213.435 118.919 214.894 115.205C215.254 114.286 215.845 112.783 216.206 111.864C216.567 110.944 217.265 108.702 217.757 106.881C218.647 103.581 218.654 103.575 219.655 105.396C220.207 106.4 220.671 108.308 220.685 109.636C220.699 110.963 221.043 112.049 221.448 112.049C221.854 112.049 222.186 112.996 222.186 114.153C222.186 115.311 222.434 116.508 222.738 116.814C223.042 117.12 223.681 118.931 224.157 120.837C224.634 122.743 225.404 125.64 225.868 127.274C226.332 128.908 226.88 131.08 227.085 132.101C227.29 133.122 227.731 134.626 228.065 135.443C229.158 138.117 231.843 147.569 232.28 150.28C232.515 151.738 232.994 153.11 233.345 153.328C233.696 153.547 233.983 154.875 233.983 156.281C233.983 157.687 234.315 158.837 234.72 158.837C235.126 158.837 235.457 159.398 235.457 160.084C235.457 160.769 235.778 162.357 236.17 163.611C236.563 164.866 237.42 167.897 238.075 170.348C238.73 172.799 239.571 175.384 239.942 176.093C240.314 176.802 240.619 178.06 240.619 178.888C240.619 179.716 240.909 180.974 241.264 181.684C241.619 182.393 242.816 185.981 243.925 189.657C245.033 193.333 246.235 196.921 246.597 197.63C246.959 198.339 247.254 199.76 247.254 200.786C247.254 201.813 247.586 202.653 247.992 202.653C248.397 202.653 248.729 203.25 248.729 203.979C248.729 204.708 249.55 207.799 250.553 210.849C251.557 213.898 252.386 216.978 252.396 217.692C252.407 218.407 252.747 218.992 253.153 218.992C253.558 218.992 253.89 219.994 253.89 221.22C253.89 222.445 254.222 223.448 254.627 223.448C255.033 223.448 255.365 224.104 255.365 224.907C255.365 226.551 257.249 232.798 258.338 234.763C258.73 235.472 259.051 236.563 259.051 237.187C259.051 237.811 259.354 238.902 259.723 239.611C260.093 240.32 260.954 242.571 261.637 244.614C262.32 246.656 263.51 249.744 264.282 251.475C265.055 253.207 265.687 255.109 265.687 255.701C265.687 256.295 265.993 256.971 266.368 257.203C266.742 257.436 267.282 258.699 267.567 260.008C267.853 261.317 268.338 262.901 268.646 263.527C269.128 264.508 271.082 269.234 273.107 274.32C276.885 283.807 287.372 304.489 288.671 305.016C289.007 305.153 289.281 305.737 289.281 306.316C289.281 306.894 289.613 307.368 290.018 307.368C290.424 307.368 290.756 307.869 290.756 308.482C290.756 309.095 291.049 309.596 291.407 309.596C291.765 309.596 292.253 310.181 292.491 310.896C293.064 312.614 295.286 315.937 297.76 318.778C298.483 319.606 303.644 326.093 305.122 328.028C307.18 330.723 323.298 346.799 326.512 349.362C328.538 350.977 331.193 353.216 332.411 354.338C333.629 355.459 334.85 356.378 335.126 356.38C335.401 356.382 336.066 356.827 336.604 357.368C338.131 358.906 349.631 366.779 354.533 369.642C360.212 372.96 368.085 377.032 373.703 379.561C376.136 380.657 380.615 382.677 383.657 384.053C388.675 386.322 410.127 393.577 418.31 395.772C423.586 397.187 424.041 397.505 421.259 397.829C418.855 398.109 412.359 397.51 398.034 395.686C384.227 393.929 378.345 392.878 356.745 388.311C355.123 387.968 352.634 387.351 351.215 386.939C349.796 386.529 345.993 385.512 342.764 384.681C339.536 383.849 336.052 382.862 335.022 382.488C333.993 382.113 331.658 381.375 329.833 380.848C328.008 380.322 326.2 379.614 325.815 379.277C325.43 378.94 324.417 378.663 323.566 378.663C322.714 378.663 321.702 378.369 321.317 378.01C320.931 377.651 319.289 376.949 317.667 376.451C307.612 373.358 268.226 354.625 267.285 352.486C267.149 352.179 266.758 351.928 266.415 351.928C265.552 351.928 256.527 346.512 256.225 345.813C256.089 345.5 255.509 345.244 254.935 345.244C254.361 345.244 253.89 344.909 253.89 344.501C253.89 344.093 253.549 343.758 253.131 343.758C252.714 343.758 249.049 341.586 244.987 338.931C240.925 336.276 237.437 334.104 237.236 334.104C237.034 334.104 236.469 333.774 235.979 333.371C234.354 332.033 228.534 327.816 222.186 323.378C218.739 320.967 215.808 318.718 215.673 318.38C215.537 318.042 215.071 317.765 214.636 317.765C214.201 317.765 212.653 316.848 211.195 315.726C209.738 314.605 206.894 312.542 204.876 311.142C202.857 309.742 200.866 308.313 200.452 307.967C199.098 306.836 187.718 298.123 185.606 296.6C184.473 295.783 182.535 294.255 181.3 293.205C176.337 288.987 172.693 287.222 175.886 290.583C176.817 291.563 178.311 293.318 179.206 294.482C180.887 296.669 182.417 298.494 187.739 304.659C193.844 311.73 215.648 333.196 222.554 338.936C224.988 340.957 227.144 342.785 227.347 342.999C228.819 344.548 238.044 352.159 241.356 354.557C243.586 356.173 245.909 357.914 246.517 358.429C252.547 363.524 275.028 378.092 285.816 383.895C292.974 387.746 304.124 393.316 306.608 394.281C307.419 394.595 309.7 395.577 311.677 396.46C323.124 401.578 340.098 407.07 353.277 409.92C355.184 410.332 358.072 410.993 359.694 411.387C363.1 412.215 373.33 414.174 379.233 415.129C390.09 416.886 393.37 417.351 399.509 418.005C429.362 421.185 459.044 420.701 489.829 416.534C497.891 415.442 507.72 413.553 517.478 411.221C519.1 410.834 521.755 410.265 523.377 409.958C524.999 409.651 527.985 408.84 530.013 408.156C532.04 407.471 536.685 406.04 540.335 404.975C543.985 403.91 547.547 402.734 548.251 402.362C548.955 401.99 550.133 401.686 550.868 401.686C551.604 401.686 552.52 401.377 552.906 401.002C553.291 400.625 555.763 399.594 558.399 398.711C561.035 397.828 564.187 396.668 565.403 396.135C566.62 395.601 568.942 394.657 570.565 394.037C573.456 392.932 583.63 388.237 592.968 383.7C595.557 382.442 600.81 379.624 604.642 377.439C608.473 375.253 611.737 373.465 611.892 373.465C612.049 373.465 614.485 371.961 617.306 370.123C620.127 368.285 622.763 366.781 623.166 366.781C623.568 366.781 624.007 366.53 624.143 366.224C624.278 365.917 628.701 362.773 633.973 359.238C639.245 355.702 644.277 352.193 645.155 351.44C648.2 348.83 649.471 347.807 652.406 345.607C654.028 344.39 655.521 343.209 655.724 342.981C655.927 342.753 657.42 341.581 659.042 340.377C660.664 339.173 662.347 337.854 662.782 337.446C663.217 337.037 665.166 335.366 667.112 333.732C669.059 332.099 671.325 330.177 672.148 329.462C672.972 328.748 673.772 328.163 673.927 328.163C674.355 328.163 672.815 330.887 671.756 332.004C671.242 332.546 669.247 335.144 667.323 337.776C660.69 346.855 637.871 370.944 629.181 378.042C627.356 379.533 624.867 381.643 623.651 382.732C622.434 383.82 620.278 385.604 618.858 386.696C617.439 387.788 616.112 388.882 615.909 389.128C615.706 389.374 611.292 392.57 606.101 396.23C595.108 403.979 585.601 409.799 572.039 417.081C567.473 419.533 562.554 421.737 561.649 421.737C561.078 421.737 560.611 422.072 560.611 422.48C560.611 422.889 560.145 423.223 559.575 423.223C559.004 423.223 557.263 423.854 555.704 424.625C554.145 425.396 550.381 426.94 547.339 428.056C541.784 430.094 539.901 430.813 536.833 432.073C535.92 432.447 534.51 432.918 533.699 433.119C532.888 433.32 529.404 434.367 525.957 435.446C522.51 436.525 518.197 437.742 516.372 438.149C514.547 438.557 511.893 439.181 510.474 439.534C494.726 443.462 482.434 445.178 456.391 447.084C444.305 447.969 419.418 447.072 411.393 445.462C409.326 445.048 407.442 445.018 406.969 445.39C406.515 445.747 404.983 446.25 403.564 446.507C402.145 446.766 399.656 447.277 398.034 447.647C370.499 453.902 344.438 457.082 314.141 457.886C284.86 458.661 254.383 455.478 228.084 448.896C223.826 447.831 219.423 446.755 218.299 446.506C217.176 446.257 216.078 445.762 215.86 445.407C215.641 445.051 214.554 444.76 213.442 444.76C212.33 444.76 211.105 444.494 210.721 444.169C210.335 443.843 208.859 443.221 207.44 442.786C206.02 442.351 202.785 441.363 200.251 440.592C197.716 439.821 195.643 438.94 195.643 438.633C195.643 438.327 195.183 438.076 194.622 438.076C192.243 438.076 159.937 423.274 156.934 420.808C156.294 420.282 153.023 418.275 146.281 414.269C145.287 413.68 144.126 412.951 143.7 412.651C143.274 412.351 140.617 410.551 137.797 408.653C134.976 406.754 132.271 404.827 131.786 404.371C131.3 403.915 128.988 402.206 126.648 400.572C123.001 398.025 114.476 391.182 111.882 388.719C111.435 388.294 109.161 386.276 106.828 384.233C100.6 378.781 83.1388 360.835 79.8851 356.542C79.2767 355.74 77.286 353.42 75.4612 351.387C73.6364 349.354 71.1479 346.412 69.9313 344.85C68.7148 343.288 67.3043 341.592 66.7978 341.081C66.2905 340.569 65.8762 339.921 65.8762 339.639C65.8762 339.357 64.9641 338.044 63.8486 336.722C60.8455 333.158 59.8383 331.82 57.3971 328.148C56.1805 326.318 54.9367 324.709 54.6322 324.573C54.3277 324.437 54.0792 323.88 54.0792 323.335C54.0792 322.791 53.7975 322.234 53.4525 322.097C52.5699 321.749 42.2822 305.552 42.2822 304.511C42.2822 304.04 41.9504 303.655 41.5449 303.655C41.1394 303.655 40.8076 303.182 40.8076 302.603C40.8076 302.024 40.5591 301.44 40.2546 301.303C39.9501 301.167 38.7063 299.05 37.4897 296.6C36.2732 294.149 35.095 291.977 34.8715 291.772C34.2913 291.243 23.8495 269.931 23.8495 269.277C23.8495 268.978 23.1528 267.15 22.3012 265.214C21.4503 263.279 20.4881 261.026 20.1644 260.209C19.8408 259.392 19.0615 257.54 18.4333 256.094C17.8044 254.647 16.8724 251.889 16.3614 249.967C15.8512 248.044 15.1706 246.47 14.8492 246.47C14.5277 246.47 14.2645 245.944 14.2645 245.301C14.2645 244.659 13.435 241.644 12.4212 238.602C11.4074 235.56 10.5779 232.43 10.5779 231.645C10.5779 230.861 10.2462 230.013 9.84064 229.76C9.43512 229.508 9.10333 228.171 9.10333 226.79C9.10333 225.408 8.80688 224.093 8.44415 223.867C8.08136 223.642 7.61029 222.202 7.39795 220.667C7.18561 219.133 6.3266 214.87 5.48975 211.194C4.65216 207.518 3.96204 203.257 3.95465 201.725C3.94806 200.194 3.6369 198.94 3.26306 198.94C2.88928 198.94 2.40857 196.517 2.19476 193.556C1.98016 190.595 1.38959 183.994 0.880859 178.888C-0.304016 166.984 -0.292175 148.306 0.908142 136.928C1.42572 132.027 2.0163 125.928 2.22131 123.375C2.42554 120.822 2.89661 118.733 3.26752 118.733C3.63837 118.733 3.94214 117.335 3.94214 115.626C3.94214 112.793 5.12109 107.106 6.92749 101.228C7.31311 99.9736 7.62872 98.2187 7.62872 97.329C7.62872 96.4393 7.96051 95.7107 8.36603 95.7107C8.77155 95.7107 9.10333 94.7081 9.10333 93.4828C9.10333 92.2574 9.43512 91.2548 9.84064 91.2548C10.2462 91.2548 10.5779 90.4609 10.5779 89.4902C10.5779 88.5203 11.4074 85.8371 12.4212 83.5282C13.435 81.2193 14.2645 78.8383 14.2645 78.2367C14.2645 77.6359 14.5963 77.1443 15.0018 77.1443C15.4073 77.1443 15.7391 76.3088 15.7391 75.2876C15.7391 74.2665 16.0709 73.431 16.4764 73.431C16.882 73.431 17.2137 73.1057 17.2137 72.7084C17.2137 71.8477 21.0013 63.567 21.639 63.0338C21.8831 62.8296 22.6404 61.4549 23.3217 59.9792C24.7299 56.9284 32.6124 44.6679 34.2493 42.982C34.8442 42.3694 36.3071 40.5313 37.5001 38.8974C39.8719 35.6483 49.2889 26.0235 53.3604 22.6874C65.206 12.9794 79.9492 5.72069 94.2626 2.54954C99.3419 1.42441 111.638 -0.170812 113.801 0.0148529C114.41 0.0675816 117.677 0.379491 121.061 0.708488Z" fill="#ED7189"/>
</svg>
