<svg width="120" height="98" viewBox="0 0 120 98" fill="none" xmlns="http://www.w3.org/2000/svg">
    <path fill-rule="evenodd" clip-rule="evenodd" d="M57.3365 0.0590218C53.5354 0.442236 49.8473 1.48831 46.6588 3.0876C38.8101 7.02444 33.0317 14.1958 30.9065 22.637C29.083 29.8804 30.0379 37.7331 33.5241 44.1618C33.9335 44.9169 34.1356 45.2097 34.2236 45.1761C34.2916 45.15 35.6529 44.2785 37.2488 43.2399C38.8447 42.201 42.0547 40.1151 44.3822 38.6043C46.7096 37.0935 49.3423 35.3844 50.2326 34.8063L51.8514 33.7554L51.8466 33.3228C51.8422 32.9163 51.82 32.874 51.4802 32.6274C51.1481 32.3862 51.1164 32.3292 51.0929 31.9302C51.0614 31.3947 51.2814 31.0638 51.7245 30.9807C52.0319 30.9228 52.1114 30.9582 52.8671 31.4883C53.1458 31.6839 53.3573 31.7454 53.9654 31.8081C54.6665 31.8807 54.7388 31.8729 55.0117 31.6959C55.173 31.5912 55.3054 31.4832 55.306 31.4556C55.3065 31.428 55.1029 31.3128 54.8536 31.1991C53.0306 30.3696 51.8525 28.756 51.8525 27.0887C51.8525 26.638 51.8002 26.4351 51.5589 25.9513C50.9931 24.817 50.9889 24.78 50.9889 21.0092C50.9889 17.7233 50.9954 17.5852 51.1652 17.3099C51.4951 16.7753 52.0904 16.7395 52.5434 17.227L52.7593 17.4593L52.8025 20.9783C52.8448 24.4251 52.8497 24.5064 53.0455 24.9397L53.2454 25.3821L53.9523 25.4311C54.3411 25.4581 54.8852 25.5414 55.1614 25.6164C56.7386 26.0442 58.2256 27.3181 58.7257 28.6701C58.8098 28.8972 58.889 29.0971 58.9017 29.1144C58.9579 29.1904 61.9995 27.1537 62.2401 26.8791C62.7483 26.2986 63.5097 25.8083 64.3788 25.5017C64.5957 25.4252 65.2848 25.0316 65.9106 24.6271L67.0482 23.8916L67.0503 20.7508C67.0524 17.2426 67.0596 17.1961 67.6284 16.958C68.0076 16.7993 68.3478 16.8667 68.6175 17.1541L68.8227 17.3727L68.8488 20.0049C68.8635 21.4526 68.8941 22.637 68.9172 22.637C68.94 22.637 69.6666 22.1754 70.5318 21.6113C73.8522 19.4455 80.3937 15.2 82.2519 14.0045C83.3208 13.3169 84.2505 12.7018 84.3183 12.6376C84.4236 12.5375 84.3534 12.4054 83.8296 11.7169C81.1869 8.24313 77.3925 5.11011 73.3956 3.10137C70.461 1.62666 67.1844 0.641757 63.6663 0.176781C62.4225 0.0123857 58.5191 -0.0602078 57.3365 0.0590218ZM60.399 15.078C60.858 15.3496 60.9204 15.5762 60.9204 16.9663V18.234L61.3575 18.7699C61.8138 19.33 62.3844 20.4142 62.5728 21.0796C62.7447 21.6877 62.7189 23.5229 62.5296 24.1512C62.1465 25.4211 61.1397 26.8505 60.4455 27.1093C59.9241 27.3038 59.7624 27.2628 59.2785 26.8132C58.2529 25.8607 57.6742 24.857 57.4169 23.5851C57.0865 21.9513 57.4927 20.379 58.6345 18.8717L59.0945 18.2645L59.1223 16.8688C59.1473 15.6177 59.168 15.4533 59.3229 15.2811C59.643 14.9251 60.0204 14.8539 60.399 15.078ZM56.0558 16.1663C56.4219 16.5016 56.4374 16.6621 56.4114 19.8452L56.3865 22.8854L56.1369 23.1464C55.8201 23.4776 55.4862 23.5548 55.1421 23.3765C54.626 23.1091 54.6161 23.0397 54.6161 19.6833C54.6161 16.6645 54.618 16.6315 54.8104 16.346C55.1234 15.8818 55.6606 15.8042 56.0558 16.1663ZM64.9365 16.2446L65.1954 16.4969L65.2215 19.4588C65.2359 21.0879 65.2251 22.5429 65.1978 22.6922C65.1387 23.0151 64.803 23.3763 64.488 23.4555C64.1706 23.5352 63.8025 23.3581 63.5985 23.0276C63.4332 22.7598 63.4251 22.5999 63.4251 19.6826C63.4251 16.9485 63.4407 16.5959 63.5709 16.405C63.8076 16.0583 64.1892 15.8722 64.5045 15.9498C64.5996 15.9731 64.794 16.1058 64.9365 16.2446ZM85.4907 16.661C84.9207 17.0352 83.2884 18.0983 81.8634 19.0235C80.4384 19.9487 78.7674 21.0349 78.1497 21.4373C74.7225 23.671 72.7701 24.9405 71.5155 25.7519C67.6938 28.2228 67.6962 28.2212 67.587 28.5859C67.4235 29.1321 66.8517 29.9342 66.3069 30.3807C65.3565 31.1598 63.888 31.7166 62.7735 31.7205C62.3607 31.722 62.238 31.7868 60.4173 32.9649C59.3611 33.6486 58.473 34.2318 58.4439 34.2609C58.4147 34.2903 58.4976 34.5525 58.6281 34.8435C59.0784 35.8488 59.2488 37.4976 58.9417 37.8771C58.782 38.0748 58.7353 38.0814 57.5384 38.0814C56.1455 38.0814 55.8161 38.0142 54.6954 37.5009L53.9541 37.1613L53.3777 37.5294L52.8013 37.8978L53.0222 38.1288C53.2079 38.3229 53.3421 38.3682 53.8648 38.4129C55.1413 38.5218 56.4765 38.9946 57.3107 39.6327C57.7475 39.9666 58.3652 40.8501 58.6663 41.5713C58.9063 42.1464 59.1069 43.1736 59.1069 43.8279C59.1069 44.25 59.0735 44.3556 58.8835 44.5341C58.6707 44.7339 58.6086 44.7435 57.5665 44.7384C56.2835 44.7318 55.6691 44.5971 54.6593 44.1C53.851 43.7022 53.1631 43.1406 52.6565 42.4653C52.153 41.7936 51.9301 41.1708 51.8757 40.2834C51.8355 39.6249 51.8034 39.5133 51.5837 39.2667C51.4479 39.1146 51.2916 38.9901 51.2365 38.9901C51.1813 38.9901 50.4715 39.4212 49.6591 39.948C47.0266 41.6559 38.8008 47.001 37.6243 47.7684C36.995 48.1788 36.48 48.5514 36.48 48.5961C36.48 48.6408 36.825 49.0773 37.2467 49.566C42.4812 55.6326 49.5561 59.2308 57.6388 59.9367C59.0848 60.063 62.3886 59.9907 63.7704 59.8026C67.7022 59.2671 71.3553 58.0584 74.604 56.2179C80.727 52.7487 85.3224 47.4945 87.8931 41.0232C90.7272 33.8904 90.7008 25.7918 87.8214 18.7435C87.4359 17.7997 86.5977 15.9725 86.5527 15.9776C86.5386 15.9792 86.0607 16.2868 85.4907 16.661ZM68.5221 30.8145C68.8548 30.9867 68.9523 31.1886 68.9523 31.707C68.9523 32.112 68.9235 32.166 68.4348 32.6859C67.9821 33.1671 67.917 33.2796 67.9152 33.5823C67.9077 34.7445 67.3356 36.0321 66.4761 36.8214C65.4105 37.7997 64.1919 38.2752 62.5365 38.3586C61.4004 38.4162 61.2351 38.3706 60.8787 37.9026C60.6738 37.6335 60.6699 37.6005 60.7515 36.8796C60.798 36.4698 60.9462 35.8329 61.0809 35.4642C61.8795 33.2766 63.5409 32.0442 66.0078 31.8096L66.8202 31.7325L67.26 31.3056C67.932 30.6534 68.0916 30.5913 68.5221 30.8145ZM68.6997 37.599C68.8971 37.7967 68.9523 37.9296 68.9523 38.2089C68.9523 38.6616 68.8071 38.9355 68.3115 39.4191C67.9539 39.7677 67.9158 39.8433 67.9158 40.2054C67.9158 40.7538 67.6245 41.8506 67.3347 42.3924C66.9795 43.0575 66.1452 43.8351 65.3337 44.2581C64.3605 44.7654 63.513 44.9709 62.3187 44.9886L61.3416 45.0033L60.9894 44.6259L60.6375 44.2488L60.6843 43.4148C60.7677 41.9265 61.3641 40.7805 62.5452 39.8382C63.6354 38.9685 64.7334 38.5317 66.1185 38.4159L66.795 38.3592L67.3101 37.8525C67.7457 37.4241 67.8732 37.3461 68.1363 37.3461C68.3649 37.3461 68.5143 37.413 68.6997 37.599Z" fill="#1D2E42"/>
    <path d="M19.2587 94.228C18.2517 94.228 17.3904 94.038 16.6747 93.658C15.9591 93.2717 15.3764 92.7523 14.9267 92.1C14.4771 91.4413 14.1446 90.7035 13.9292 89.8865C13.7202 89.0632 13.6157 88.2177 13.6157 87.35C13.6157 86.4887 13.7266 85.6495 13.9482 84.8325C14.1762 84.0155 14.5182 83.2808 14.9742 82.6285C15.4366 81.9698 16.0224 81.4473 16.7317 81.061C17.4411 80.6683 18.2834 80.472 19.2587 80.472C20.0821 80.472 20.7661 80.5828 21.3107 80.8045C21.8617 81.0262 22.3146 81.3175 22.6692 81.6785C23.0239 82.0332 23.3247 82.41 23.5717 82.809L22.0897 83.664C21.7857 83.227 21.4216 82.847 20.9972 82.524C20.5729 82.1947 19.9934 82.03 19.2587 82.03C18.5177 82.03 17.8939 82.1915 17.3872 82.5145C16.8869 82.8312 16.4847 83.2523 16.1807 83.778C15.8767 84.3037 15.6582 84.88 15.5252 85.507C15.3922 86.1277 15.3257 86.742 15.3257 87.35C15.3257 88.034 15.4017 88.6927 15.5537 89.326C15.7057 89.9593 15.9401 90.5262 16.2567 91.0265C16.5734 91.5268 16.9787 91.9227 17.4727 92.214C17.9731 92.5053 18.5684 92.651 19.2587 92.651C19.8604 92.651 20.3829 92.5212 20.8262 92.2615C21.2759 92.0018 21.6242 91.644 21.8712 91.188C22.1182 90.7257 22.2417 90.1937 22.2417 89.592V89.06H19.8287V87.54H23.9707V89.136C23.9707 90.238 23.7617 91.169 23.3437 91.929C22.9321 92.6827 22.3684 93.2558 21.6527 93.6485C20.9434 94.0348 20.1454 94.228 19.2587 94.228ZM27.0768 94V81.061L28.7298 80.282V94H27.0768ZM35.3934 94.228C34.1964 94.228 33.3066 93.8733 32.7239 93.164C32.1476 92.4547 31.8594 91.3653 31.8594 89.896V84.291H33.5124V90.143C33.5124 90.9663 33.6929 91.5965 34.0539 92.0335C34.4149 92.4705 34.9311 92.689 35.6024 92.689C36.3434 92.689 36.9008 92.4768 37.2744 92.0525C37.6544 91.6282 37.8444 91.0043 37.8444 90.181V84.291H39.4974V94H37.8444V93.069C37.5341 93.468 37.1826 93.7625 36.7899 93.9525C36.4036 94.1362 35.9381 94.228 35.3934 94.228ZM45.3585 94.228C44.6935 94.228 44.1837 94.0285 43.829 93.6295C43.4807 93.2305 43.3065 92.6573 43.3065 91.91V85.735H41.7295V84.291H43.3065V81.08L44.9595 80.282V84.291H47.3535V85.735H44.9595V91.359C44.9595 91.8213 45.0387 92.1602 45.197 92.3755C45.3617 92.5845 45.6182 92.689 45.9665 92.689C46.4098 92.689 46.8912 92.518 47.4105 92.176L47.2205 93.791C46.9355 93.943 46.6378 94.0538 46.3275 94.1235C46.0235 94.1932 45.7005 94.228 45.3585 94.228ZM53.3986 94.228C52.5119 94.228 51.7456 94.0095 51.0996 93.5725C50.4536 93.1355 49.9564 92.5338 49.6081 91.7675C49.2598 91.0012 49.0856 90.124 49.0856 89.136C49.0856 88.0657 49.2661 87.1537 49.6271 86.4C49.9881 85.64 50.4916 85.0605 51.1376 84.6615C51.7836 84.2625 52.5373 84.063 53.3986 84.063C54.1269 84.063 54.7951 84.2277 55.4031 84.557C56.0111 84.88 56.4956 85.3835 56.8566 86.0675C57.2239 86.7452 57.4076 87.616 57.4076 88.68C57.4076 88.832 57.4013 89.0093 57.3886 89.212C57.3823 89.4083 57.3696 89.611 57.3506 89.82H50.7766C50.8399 90.409 50.9856 90.9252 51.2136 91.3685C51.4416 91.8118 51.7424 92.1602 52.1161 92.4135C52.4898 92.6605 52.9299 92.784 53.4366 92.784C53.8483 92.784 54.2283 92.7112 54.5766 92.5655C54.9313 92.4198 55.2606 92.195 55.5646 91.891L56.5336 92.974C56.1726 93.335 55.7229 93.6358 55.1846 93.8765C54.6526 94.1108 54.0573 94.228 53.3986 94.228ZM50.7576 88.376H55.7356C55.7356 87.825 55.6438 87.3342 55.4601 86.9035C55.2828 86.4665 55.0199 86.1245 54.6716 85.8775C54.3233 85.6305 53.8989 85.507 53.3986 85.507C52.6956 85.507 52.0908 85.735 51.5841 86.191C51.0838 86.647 50.8083 87.3753 50.7576 88.376ZM60.0648 94V84.291H61.7178V85.279C62.0155 84.8673 62.3733 84.5633 62.7913 84.367C63.2093 84.1643 63.6875 84.063 64.2258 84.063C65.4038 84.063 66.2778 84.4208 66.8478 85.1365C67.4178 85.8458 67.7028 86.9383 67.7028 88.414V94H66.0498V88.129C66.0498 87.312 65.8661 86.685 65.4988 86.248C65.1378 85.8047 64.6248 85.583 63.9598 85.583C63.2188 85.583 62.6583 85.7952 62.2783 86.2195C61.9046 86.6375 61.7178 87.2613 61.7178 88.091V94H60.0648ZM75.7935 94V85.735H74.2925V84.291H75.7935V82.676C75.7935 81.9793 75.9772 81.4378 76.3445 81.0515C76.7182 80.6652 77.2375 80.472 77.9025 80.472C78.2255 80.472 78.5359 80.51 78.8335 80.586C79.1312 80.662 79.4225 80.776 79.7075 80.928V82.315C79.4352 82.1883 79.1914 82.0965 78.976 82.0395C78.7607 81.9825 78.5422 81.954 78.3205 81.954C78.0102 81.954 77.7854 82.0332 77.646 82.1915C77.513 82.3435 77.4465 82.6 77.4465 82.961V84.291H79.7075V85.735H77.4465V94H75.7935ZM81.5697 94V84.291H83.2227V85.564C83.4443 85.07 83.7483 84.6963 84.1347 84.443C84.5273 84.1897 84.9897 84.063 85.5217 84.063C86.1107 84.063 86.611 84.2277 87.0227 84.557L86.7757 86.115C86.5667 85.9693 86.3482 85.8648 86.1202 85.8015C85.8985 85.7318 85.6547 85.697 85.3887 85.697C84.9517 85.697 84.5717 85.8142 84.2487 86.0485C83.9257 86.2828 83.6723 86.6122 83.4887 87.0365C83.3113 87.4608 83.2227 87.958 83.2227 88.528V94H81.5697ZM92.215 94.228C91.3284 94.228 90.562 94.0095 89.916 93.5725C89.27 93.1355 88.7729 92.5338 88.4245 91.7675C88.0762 91.0012 87.902 90.124 87.902 89.136C87.902 88.0657 88.0825 87.1537 88.4435 86.4C88.8045 85.64 89.308 85.0605 89.954 84.6615C90.6 84.2625 91.3537 84.063 92.215 84.063C92.9434 84.063 93.6115 84.2277 94.2195 84.557C94.8275 84.88 95.312 85.3835 95.673 86.0675C96.0404 86.7452 96.224 87.616 96.224 88.68C96.224 88.832 96.2177 89.0093 96.205 89.212C96.1987 89.4083 96.186 89.611 96.167 89.82H89.593C89.6564 90.409 89.802 90.9252 90.03 91.3685C90.258 91.8118 90.5589 92.1602 90.9325 92.4135C91.3062 92.6605 91.7464 92.784 92.253 92.784C92.6647 92.784 93.0447 92.7112 93.393 92.5655C93.7477 92.4198 94.077 92.195 94.381 91.891L95.35 92.974C94.989 93.335 94.5394 93.6358 94.001 93.8765C93.469 94.1108 92.8737 94.228 92.215 94.228ZM89.574 88.376H94.552C94.552 87.825 94.4602 87.3342 94.2765 86.9035C94.0992 86.4665 93.8364 86.1245 93.488 85.8775C93.1397 85.6305 92.7154 85.507 92.215 85.507C91.512 85.507 90.9072 85.735 90.4005 86.191C89.9002 86.647 89.6247 87.3753 89.574 88.376ZM102.773 94.228C101.886 94.228 101.12 94.0095 100.474 93.5725C99.8276 93.1355 99.3305 92.5338 98.9821 91.7675C98.6338 91.0012 98.4596 90.124 98.4596 89.136C98.4596 88.0657 98.6401 87.1537 99.0011 86.4C99.3621 85.64 99.8656 85.0605 100.512 84.6615C101.158 84.2625 101.911 84.063 102.773 84.063C103.501 84.063 104.169 84.2277 104.777 84.557C105.385 84.88 105.87 85.3835 106.231 86.0675C106.598 86.7452 106.782 87.616 106.782 88.68C106.782 88.832 106.775 89.0093 106.763 89.212C106.756 89.4083 106.744 89.611 106.725 89.82H100.151C100.214 90.409 100.36 90.9252 100.588 91.3685C100.816 91.8118 101.116 92.1602 101.49 92.4135C101.864 92.6605 102.304 92.784 102.811 92.784C103.222 92.784 103.602 92.7112 103.951 92.5655C104.305 92.4198 104.635 92.195 104.939 91.891L105.908 92.974C105.547 93.335 105.097 93.6358 104.559 93.8765C104.027 94.1108 103.431 94.228 102.773 94.228ZM100.132 88.376H105.11C105.11 87.825 105.018 87.3342 104.834 86.9035C104.657 86.4665 104.394 86.1245 104.046 85.8775C103.697 85.6305 103.273 85.507 102.773 85.507C102.07 85.507 101.465 85.735 100.958 86.191C100.458 86.647 100.182 87.3753 100.132 88.376Z" fill="#1D2E42"/>
</svg>
