<svg width="120" height="98" viewBox="0 0 120 98" fill="none" xmlns="http://www.w3.org/2000/svg">
<path fill-rule="evenodd" clip-rule="evenodd" d="M57.3365 0.0590218C53.5354 0.442236 49.8473 1.48831 46.6588 3.0876C38.8101 7.02444 33.0317 14.1958 30.9065 22.637C29.083 29.8804 30.0379 37.7331 33.5241 44.1618C33.9335 44.9169 34.1356 45.2097 34.2236 45.1761C34.2916 45.15 35.6529 44.2785 37.2488 43.2399C38.8447 42.201 42.0547 40.1151 44.3822 38.6043C46.7096 37.0935 49.3423 35.3844 50.2326 34.8063L51.8514 33.7554L51.8466 33.3228C51.8422 32.9163 51.82 32.874 51.4802 32.6274C51.1481 32.3862 51.1164 32.3292 51.0929 31.9302C51.0614 31.3947 51.2814 31.0638 51.7245 30.9807C52.0319 30.9228 52.1114 30.9582 52.8671 31.4883C53.1458 31.6839 53.3573 31.7454 53.9654 31.8081C54.6665 31.8807 54.7388 31.8729 55.0117 31.6959C55.173 31.5912 55.3054 31.4832 55.306 31.4556C55.3065 31.428 55.1029 31.3128 54.8536 31.1991C53.0306 30.3696 51.8525 28.756 51.8525 27.0887C51.8525 26.638 51.8002 26.4351 51.5589 25.9513C50.9931 24.817 50.9889 24.78 50.9889 21.0092C50.9889 17.7233 50.9954 17.5852 51.1652 17.3099C51.4951 16.7753 52.0904 16.7395 52.5434 17.227L52.7593 17.4593L52.8025 20.9783C52.8448 24.4251 52.8497 24.5064 53.0455 24.9397L53.2454 25.3821L53.9523 25.4311C54.3411 25.4581 54.8852 25.5414 55.1614 25.6164C56.7386 26.0442 58.2256 27.3181 58.7257 28.6701C58.8098 28.8972 58.889 29.0971 58.9017 29.1144C58.9579 29.1904 61.9995 27.1537 62.2401 26.8791C62.7483 26.2986 63.5097 25.8083 64.3788 25.5017C64.5957 25.4252 65.2848 25.0316 65.9106 24.6271L67.0482 23.8916L67.0503 20.7508C67.0524 17.2426 67.0596 17.1961 67.6284 16.958C68.0076 16.7993 68.3478 16.8667 68.6175 17.1541L68.8227 17.3727L68.8488 20.0049C68.8635 21.4526 68.8941 22.637 68.9172 22.637C68.94 22.637 69.6666 22.1754 70.5318 21.6113C73.8522 19.4455 80.3937 15.2 82.2519 14.0045C83.3208 13.3169 84.2505 12.7018 84.3183 12.6376C84.4236 12.5375 84.3534 12.4054 83.8296 11.7169C81.1869 8.24313 77.3925 5.11011 73.3956 3.10137C70.461 1.62666 67.1844 0.641757 63.6663 0.176781C62.4225 0.0123857 58.5191 -0.0602078 57.3365 0.0590218ZM60.399 15.078C60.858 15.3496 60.9204 15.5762 60.9204 16.9663V18.234L61.3575 18.7699C61.8138 19.33 62.3844 20.4142 62.5728 21.0796C62.7447 21.6877 62.7189 23.5229 62.5296 24.1512C62.1465 25.4211 61.1397 26.8505 60.4455 27.1093C59.9241 27.3038 59.7624 27.2628 59.2785 26.8132C58.2529 25.8607 57.6742 24.857 57.4169 23.5851C57.0865 21.9513 57.4927 20.379 58.6345 18.8717L59.0945 18.2645L59.1223 16.8688C59.1473 15.6177 59.168 15.4533 59.3229 15.2811C59.643 14.9251 60.0204 14.8539 60.399 15.078ZM56.0558 16.1663C56.4219 16.5016 56.4374 16.6621 56.4114 19.8452L56.3865 22.8854L56.1369 23.1464C55.8201 23.4776 55.4862 23.5548 55.1421 23.3765C54.626 23.1091 54.6161 23.0397 54.6161 19.6833C54.6161 16.6645 54.618 16.6315 54.8104 16.346C55.1234 15.8818 55.6606 15.8042 56.0558 16.1663ZM64.9365 16.2446L65.1954 16.4969L65.2215 19.4588C65.2359 21.0879 65.2251 22.5429 65.1978 22.6922C65.1387 23.0151 64.803 23.3763 64.488 23.4555C64.1706 23.5352 63.8025 23.3581 63.5985 23.0276C63.4332 22.7598 63.4251 22.5999 63.4251 19.6826C63.4251 16.9485 63.4407 16.5959 63.5709 16.405C63.8076 16.0583 64.1892 15.8722 64.5045 15.9498C64.5996 15.9731 64.794 16.1058 64.9365 16.2446ZM85.4907 16.661C84.9207 17.0352 83.2884 18.0983 81.8634 19.0235C80.4384 19.9487 78.7674 21.0349 78.1497 21.4373C74.7225 23.671 72.7701 24.9405 71.5155 25.7519C67.6938 28.2228 67.6962 28.2212 67.587 28.5859C67.4235 29.1321 66.8517 29.9342 66.3069 30.3807C65.3565 31.1598 63.888 31.7166 62.7735 31.7205C62.3607 31.722 62.238 31.7868 60.4173 32.9649C59.3611 33.6486 58.473 34.2318 58.4439 34.2609C58.4147 34.2903 58.4976 34.5525 58.6281 34.8435C59.0784 35.8488 59.2488 37.4976 58.9417 37.8771C58.782 38.0748 58.7353 38.0814 57.5384 38.0814C56.1455 38.0814 55.8161 38.0142 54.6954 37.5009L53.9541 37.1613L53.3777 37.5294L52.8013 37.8978L53.0222 38.1288C53.2079 38.3229 53.3421 38.3682 53.8648 38.4129C55.1413 38.5218 56.4765 38.9946 57.3107 39.6327C57.7475 39.9666 58.3652 40.8501 58.6663 41.5713C58.9063 42.1464 59.1069 43.1736 59.1069 43.8279C59.1069 44.25 59.0735 44.3556 58.8835 44.5341C58.6707 44.7339 58.6086 44.7435 57.5665 44.7384C56.2835 44.7318 55.6691 44.5971 54.6593 44.1C53.851 43.7022 53.1631 43.1406 52.6565 42.4653C52.153 41.7936 51.9301 41.1708 51.8757 40.2834C51.8355 39.6249 51.8034 39.5133 51.5837 39.2667C51.4479 39.1146 51.2916 38.9901 51.2365 38.9901C51.1813 38.9901 50.4715 39.4212 49.6591 39.948C47.0266 41.6559 38.8008 47.001 37.6243 47.7684C36.995 48.1788 36.48 48.5514 36.48 48.5961C36.48 48.6408 36.825 49.0773 37.2467 49.566C42.4812 55.6326 49.5561 59.2308 57.6388 59.9367C59.0848 60.063 62.3886 59.9907 63.7704 59.8026C67.7022 59.2671 71.3553 58.0584 74.604 56.2179C80.727 52.7487 85.3224 47.4945 87.8931 41.0232C90.7272 33.8904 90.7008 25.7918 87.8214 18.7435C87.4359 17.7997 86.5977 15.9725 86.5527 15.9776C86.5386 15.9792 86.0607 16.2868 85.4907 16.661ZM68.5221 30.8145C68.8548 30.9867 68.9523 31.1886 68.9523 31.707C68.9523 32.112 68.9235 32.166 68.4348 32.6859C67.9821 33.1671 67.917 33.2796 67.9152 33.5823C67.9077 34.7445 67.3356 36.0321 66.4761 36.8214C65.4105 37.7997 64.1919 38.2752 62.5365 38.3586C61.4004 38.4162 61.2351 38.3706 60.8787 37.9026C60.6738 37.6335 60.6699 37.6005 60.7515 36.8796C60.798 36.4698 60.9462 35.8329 61.0809 35.4642C61.8795 33.2766 63.5409 32.0442 66.0078 31.8096L66.8202 31.7325L67.26 31.3056C67.932 30.6534 68.0916 30.5913 68.5221 30.8145ZM68.6997 37.599C68.8971 37.7967 68.9523 37.9296 68.9523 38.2089C68.9523 38.6616 68.8071 38.9355 68.3115 39.4191C67.9539 39.7677 67.9158 39.8433 67.9158 40.2054C67.9158 40.7538 67.6245 41.8506 67.3347 42.3924C66.9795 43.0575 66.1452 43.8351 65.3337 44.2581C64.3605 44.7654 63.513 44.9709 62.3187 44.9886L61.3416 45.0033L60.9894 44.6259L60.6375 44.2488L60.6843 43.4148C60.7677 41.9265 61.3641 40.7805 62.5452 39.8382C63.6354 38.9685 64.7334 38.5317 66.1185 38.4159L66.795 38.3592L67.3101 37.8525C67.7457 37.4241 67.8732 37.3461 68.1363 37.3461C68.3649 37.3461 68.5143 37.413 68.6997 37.599Z" fill="#505050"/>
<path d="M11.527 87.272H13.495V91.736C12.919 92.1947 12.247 92.5467 11.479 92.792C10.711 93.0373 9.92167 93.16 9.111 93.16C7.96967 93.16 6.94033 92.9147 6.023 92.424C5.10567 91.9227 4.38567 91.2347 3.863 90.36C3.34033 89.4853 3.079 88.4987 3.079 87.4C3.079 86.3013 3.34033 85.3147 3.863 84.44C4.38567 83.5653 5.10567 82.8827 6.023 82.392C6.951 81.8907 7.991 81.64 9.143 81.64C10.0817 81.64 10.935 81.7947 11.703 82.104C12.471 82.4133 13.1163 82.8667 13.639 83.464L12.327 84.744C11.4737 83.8907 10.4443 83.464 9.239 83.464C8.44967 83.464 7.74567 83.6293 7.127 83.96C6.519 84.2907 6.039 84.7547 5.687 85.352C5.34567 85.9493 5.175 86.632 5.175 87.4C5.175 88.1467 5.34567 88.8187 5.687 89.416C6.039 90.0133 6.519 90.4827 7.127 90.824C7.74567 91.1653 8.44433 91.336 9.223 91.336C10.0977 91.336 10.8657 91.144 11.527 90.76V87.272ZM16.2384 81.8H18.3184V91.24H24.1744V93H16.2384V81.8ZM30.4763 93.16C28.9296 93.16 27.7243 92.728 26.8603 91.864C25.9963 90.9893 25.5643 89.7413 25.5643 88.12V81.8H27.6443V88.04C27.6443 90.2373 28.5936 91.336 30.4923 91.336C32.3803 91.336 33.3243 90.2373 33.3243 88.04V81.8H35.3723V88.12C35.3723 89.7413 34.9403 90.9893 34.0763 91.864C33.2229 92.728 32.0229 93.16 30.4763 93.16ZM40.3541 83.56H36.6421V81.8H46.1461V83.56H42.4341V93H40.3541V83.56ZM56.1071 91.256V93H47.7071V81.8H55.8831V83.544H49.7871V86.456H55.1951V88.168H49.7871V91.256H56.1071ZM68.3779 81.8V93H66.6659L60.4899 85.416V93H58.4259V81.8H60.1379L66.3139 89.384V81.8H68.3779ZM77.8809 83.544V86.952H83.2889V88.712H77.8809V93H75.8009V81.8H83.9769V83.544H77.8809ZM93.3164 93L91.0284 89.72C90.9324 89.7307 90.7884 89.736 90.5964 89.736H88.0684V93H85.9884V81.8H90.5964C91.567 81.8 92.4097 81.96 93.1244 82.28C93.8497 82.6 94.4044 83.0587 94.7884 83.656C95.1724 84.2533 95.3644 84.9627 95.3644 85.784C95.3644 86.6267 95.1564 87.352 94.7404 87.96C94.335 88.568 93.7484 89.0213 92.9804 89.32L95.5564 93H93.3164ZM93.2684 85.784C93.2684 85.0693 93.0337 84.52 92.5644 84.136C92.095 83.752 91.407 83.56 90.5004 83.56H88.0684V88.024H90.5004C91.407 88.024 92.095 87.832 92.5644 87.448C93.0337 87.0533 93.2684 86.4987 93.2684 85.784ZM106.092 91.256V93H97.6915V81.8H105.868V83.544H99.7715V86.456H105.18V88.168H99.7715V91.256H106.092ZM116.81 91.256V93H108.41V81.8H116.586V83.544H110.49V86.456H115.898V88.168H110.49V91.256H116.81Z" fill="#505050"/>
</svg>
