<svg width="60" height="60" viewBox="0 0 60 60" fill="none" xmlns="http://www.w3.org/2000/svg">
<path fill-rule="evenodd" clip-rule="evenodd" d="M27.3365 0.0590218C23.5354 0.442236 19.8473 1.48831 16.6588 3.0876C8.81007 7.02444 3.03165 14.1958 0.906546 22.637C-0.916995 29.8804 0.037914 37.7331 3.5241 44.1618C3.93354 44.9169 4.13562 45.2097 4.22355 45.1761C4.29159 45.15 5.65293 44.2785 7.24881 43.2399C8.84469 42.201 12.0547 40.1151 14.3822 38.6043C16.7096 37.0935 19.3423 35.3844 20.2326 34.8063L21.8514 33.7554L21.8466 33.3228C21.8422 32.9163 21.82 32.874 21.4802 32.6274C21.1481 32.3862 21.1164 32.3292 21.0929 31.9302C21.0614 31.3947 21.2814 31.0638 21.7245 30.9807C22.0319 30.9228 22.1114 30.9582 22.8671 31.4883C23.1458 31.6839 23.3573 31.7454 23.9654 31.8081C24.6665 31.8807 24.7388 31.8729 25.0117 31.6959C25.173 31.5912 25.3054 31.4832 25.306 31.4556C25.3065 31.428 25.1029 31.3128 24.8536 31.1991C23.0306 30.3696 21.8525 28.756 21.8525 27.0887C21.8525 26.638 21.8002 26.4351 21.5589 25.9513C20.9931 24.817 20.9889 24.78 20.9889 21.0092C20.9889 17.7233 20.9954 17.5852 21.1652 17.3099C21.4951 16.7753 22.0904 16.7395 22.5434 17.227L22.7593 17.4593L22.8025 20.9783C22.8448 24.4251 22.8497 24.5064 23.0455 24.9397L23.2454 25.3821L23.9523 25.4311C24.3411 25.4581 24.8852 25.5414 25.1614 25.6164C26.7386 26.0442 28.2256 27.3181 28.7257 28.6701C28.8098 28.8972 28.889 29.0971 28.9017 29.1144C28.9579 29.1904 31.9995 27.1537 32.2401 26.8791C32.7483 26.2986 33.5097 25.8083 34.3788 25.5017C34.5957 25.4252 35.2848 25.0316 35.9106 24.6271L37.0482 23.8916L37.0503 20.7508C37.0524 17.2426 37.0596 17.1961 37.6284 16.958C38.0076 16.7993 38.3478 16.8667 38.6175 17.1541L38.8227 17.3727L38.8488 20.0049C38.8635 21.4526 38.8941 22.637 38.9172 22.637C38.94 22.637 39.6666 22.1754 40.5318 21.6113C43.8522 19.4455 50.3937 15.2 52.2519 14.0045C53.3208 13.3169 54.2505 12.7018 54.3183 12.6376C54.4236 12.5375 54.3534 12.4054 53.8296 11.7169C51.1869 8.24313 47.3925 5.11011 43.3956 3.10137C40.461 1.62666 37.1844 0.641757 33.6663 0.176781C32.4225 0.0123857 28.5191 -0.0602078 27.3365 0.0590218ZM30.399 15.078C30.858 15.3496 30.9204 15.5762 30.9204 16.9663V18.234L31.3575 18.7699C31.8138 19.33 32.3844 20.4142 32.5728 21.0796C32.7447 21.6877 32.7189 23.5229 32.5296 24.1512C32.1465 25.4211 31.1397 26.8505 30.4455 27.1093C29.9241 27.3038 29.7624 27.2628 29.2785 26.8132C28.2529 25.8607 27.6742 24.857 27.4169 23.5851C27.0865 21.9513 27.4927 20.379 28.6345 18.8717L29.0945 18.2645L29.1223 16.8688C29.1473 15.6177 29.168 15.4533 29.3229 15.2811C29.643 14.9251 30.0204 14.8539 30.399 15.078ZM26.0558 16.1663C26.4219 16.5016 26.4374 16.6621 26.4114 19.8452L26.3865 22.8854L26.1369 23.1464C25.8201 23.4776 25.4862 23.5548 25.1421 23.3765C24.626 23.1091 24.6161 23.0397 24.6161 19.6833C24.6161 16.6645 24.618 16.6315 24.8104 16.346C25.1234 15.8818 25.6606 15.8042 26.0558 16.1663ZM34.9365 16.2446L35.1954 16.4969L35.2215 19.4588C35.2359 21.0879 35.2251 22.5429 35.1978 22.6922C35.1387 23.0151 34.803 23.3763 34.488 23.4555C34.1706 23.5352 33.8025 23.3581 33.5985 23.0276C33.4332 22.7598 33.4251 22.5999 33.4251 19.6826C33.4251 16.9485 33.4407 16.5959 33.5709 16.405C33.8076 16.0583 34.1892 15.8722 34.5045 15.9498C34.5996 15.9731 34.794 16.1058 34.9365 16.2446ZM55.4907 16.661C54.9207 17.0352 53.2884 18.0983 51.8634 19.0235C50.4384 19.9487 48.7674 21.0349 48.1497 21.4373C44.7225 23.671 42.7701 24.9405 41.5155 25.7519C37.6938 28.2228 37.6962 28.2212 37.587 28.5859C37.4235 29.1321 36.8517 29.9342 36.3069 30.3807C35.3565 31.1598 33.888 31.7166 32.7735 31.7205C32.3607 31.722 32.238 31.7868 30.4173 32.9649C29.3611 33.6486 28.473 34.2318 28.4439 34.2609C28.4147 34.2903 28.4976 34.5525 28.6281 34.8435C29.0784 35.8488 29.2488 37.4976 28.9417 37.8771C28.782 38.0748 28.7353 38.0814 27.5384 38.0814C26.1455 38.0814 25.8161 38.0142 24.6954 37.5009L23.9541 37.1613L23.3777 37.5294L22.8013 37.8978L23.0222 38.1288C23.2079 38.3229 23.3421 38.3682 23.8648 38.4129C25.1413 38.5218 26.4765 38.9946 27.3107 39.6327C27.7475 39.9666 28.3652 40.8501 28.6663 41.5713C28.9063 42.1464 29.1069 43.1736 29.1069 43.8279C29.1069 44.25 29.0735 44.3556 28.8835 44.5341C28.6707 44.7339 28.6086 44.7435 27.5665 44.7384C26.2835 44.7318 25.6691 44.5971 24.6593 44.1C23.851 43.7022 23.1631 43.1406 22.6565 42.4653C22.153 41.7936 21.9301 41.1708 21.8757 40.2834C21.8355 39.6249 21.8034 39.5133 21.5837 39.2667C21.4479 39.1146 21.2916 38.9901 21.2365 38.9901C21.1813 38.9901 20.4715 39.4212 19.6591 39.948C17.0266 41.6559 8.80083 47.001 7.62432 47.7684C6.99501 48.1788 6.48003 48.5514 6.48003 48.5961C6.48003 48.6408 6.82503 49.0773 7.24665 49.566C12.4812 55.6326 19.5561 59.2308 27.6388 59.9367C29.0848 60.063 32.3886 59.9907 33.7704 59.8026C37.7022 59.2671 41.3553 58.0584 44.604 56.2179C50.727 52.7487 55.3224 47.4945 57.8931 41.0232C60.7272 33.8904 60.7008 25.7918 57.8214 18.7435C57.4359 17.7997 56.5977 15.9725 56.5527 15.9776C56.5386 15.9792 56.0607 16.2868 55.4907 16.661ZM38.5221 30.8145C38.8548 30.9867 38.9523 31.1886 38.9523 31.707C38.9523 32.112 38.9235 32.166 38.4348 32.6859C37.9821 33.1671 37.917 33.2796 37.9152 33.5823C37.9077 34.7445 37.3356 36.0321 36.4761 36.8214C35.4105 37.7997 34.1919 38.2752 32.5365 38.3586C31.4004 38.4162 31.2351 38.3706 30.8787 37.9026C30.6738 37.6335 30.6699 37.6005 30.7515 36.8796C30.798 36.4698 30.9462 35.8329 31.0809 35.4642C31.8795 33.2766 33.5409 32.0442 36.0078 31.8096L36.8202 31.7325L37.26 31.3056C37.932 30.6534 38.0916 30.5913 38.5221 30.8145ZM38.6997 37.599C38.8971 37.7967 38.9523 37.9296 38.9523 38.2089C38.9523 38.6616 38.8071 38.9355 38.3115 39.4191C37.9539 39.7677 37.9158 39.8433 37.9158 40.2054C37.9158 40.7538 37.6245 41.8506 37.3347 42.3924C36.9795 43.0575 36.1452 43.8351 35.3337 44.2581C34.3605 44.7654 33.513 44.9709 32.3187 44.9886L31.3416 45.0033L30.9894 44.6259L30.6375 44.2488L30.6843 43.4148C30.7677 41.9265 31.3641 40.7805 32.5452 39.8382C33.6354 38.9685 34.7334 38.5317 36.1185 38.4159L36.795 38.3592L37.3101 37.8525C37.7457 37.4241 37.8732 37.3461 38.1363 37.3461C38.3649 37.3461 38.5143 37.413 38.6997 37.599Z" fill="white"/>
</svg>
