<svg width="68" height="68" viewBox="0 0 68 68" fill="none" xmlns="http://www.w3.org/2000/svg">
    <path fill-rule="evenodd" clip-rule="evenodd" d="M32.1356 0.0413152C29.4748 0.309565 26.8931 1.04182 24.6612 2.16132C19.1671 4.91711 15.1222 9.93706 13.6346 15.8459C12.3581 20.9163 13.0265 26.4132 15.4669 30.9133C15.7535 31.4418 15.8949 31.6468 15.9565 31.6233C16.0041 31.605 16.957 30.995 18.0742 30.2679C19.1913 29.5407 21.4383 28.0806 23.0676 27.023C24.6967 25.9655 26.5396 24.7691 27.1628 24.3644L28.296 23.6288L28.2926 23.326C28.2896 23.0414 28.274 23.0118 28.0362 22.8392C27.8037 22.6703 27.7815 22.6304 27.765 22.3511C27.743 21.9763 27.897 21.7447 28.2072 21.6865C28.4223 21.646 28.478 21.6707 29.007 22.0418C29.2021 22.1787 29.3501 22.2218 29.7758 22.2657C30.2666 22.3165 30.3172 22.311 30.5082 22.1871C30.6211 22.1138 30.7138 22.0382 30.7142 22.0189C30.7146 21.9996 30.572 21.919 30.3975 21.8394C29.1214 21.2587 28.2968 20.1292 28.2968 18.9621C28.2968 18.6466 28.2602 18.5046 28.0912 18.1659C27.6952 17.3719 27.6922 17.346 27.6922 14.7064C27.6922 12.4063 27.6968 12.3096 27.8157 12.1169C28.0466 11.7427 28.4633 11.7177 28.7804 12.0589L28.9315 12.2215L28.9618 14.6848C28.9914 17.0976 28.9948 17.1545 29.1319 17.4578L29.2718 17.7675L29.7666 17.8018C30.0388 17.8207 30.4197 17.879 30.613 17.9315C31.717 18.2309 32.7579 19.1227 33.108 20.0691C33.1669 20.228 33.2223 20.368 33.2312 20.3801C33.2705 20.4333 35.3997 19.0076 35.5681 18.8154C35.9238 18.409 36.4568 18.0658 37.0652 17.8512C37.217 17.7976 37.6994 17.5221 38.1374 17.239L38.9338 16.7241L38.9352 14.5256C38.9367 12.0698 38.9417 12.0373 39.3399 11.8706C39.6053 11.7595 39.8435 11.8067 40.0323 12.0079L40.1759 12.1609L40.1942 14.0034C40.2045 15.0168 40.2259 15.8459 40.2421 15.8459C40.258 15.8459 40.7666 15.5228 41.3723 15.1279C43.6966 13.6119 48.2756 10.64 49.5763 9.80315C50.3246 9.32183 50.9754 8.89126 51.0228 8.84632C51.0965 8.77625 51.0474 8.68378 50.6807 8.20183C48.8308 5.77019 46.1748 3.57708 43.3769 2.17096C41.3227 1.13866 39.0291 0.44923 36.5664 0.123747C35.6958 0.00866997 32.9634 -0.0421455 32.1356 0.0413152ZM34.2793 10.5546C34.6006 10.7447 34.6443 10.9033 34.6443 11.8764V12.7638L34.9503 13.1389C35.2697 13.531 35.6691 14.2899 35.801 14.7557C35.9213 15.1814 35.9032 16.466 35.7707 16.9058C35.5026 17.7948 34.7978 18.7954 34.3119 18.9765C33.9469 19.1127 33.8337 19.084 33.495 18.7692C32.777 18.1025 32.372 17.3999 32.1918 16.5096C31.9606 15.3659 32.2449 14.2653 33.0442 13.2102L33.3662 12.7852L33.3856 11.8082C33.4031 10.9324 33.4176 10.8173 33.526 10.6968C33.7501 10.4476 34.0143 10.3977 34.2793 10.5546ZM31.2391 11.3164C31.4953 11.5511 31.5062 11.6635 31.488 13.8916L31.4706 16.0198L31.2958 16.2025C31.0741 16.4343 30.8404 16.4884 30.5995 16.3636C30.2382 16.1764 30.2313 16.1278 30.2313 13.7783C30.2313 11.6652 30.2326 11.6421 30.3673 11.4422C30.5864 11.1173 30.9624 11.0629 31.2391 11.3164ZM37.4556 11.3712L37.6368 11.5478L37.6551 13.6212C37.6651 14.7615 37.6576 15.78 37.6385 15.8845C37.5971 16.1106 37.3621 16.3634 37.1416 16.4189C36.9194 16.4746 36.6618 16.3507 36.519 16.1193C36.4033 15.9319 36.3976 15.8199 36.3976 13.7778C36.3976 11.864 36.4085 11.6171 36.4996 11.4835C36.6653 11.2408 36.9325 11.1105 37.1532 11.1649C37.2197 11.1812 37.3558 11.2741 37.4556 11.3712ZM51.8435 11.6627C51.4445 11.9246 50.3019 12.6688 49.3044 13.3165C48.3069 13.9641 47.1372 14.7244 46.7048 15.0061C44.3058 16.5697 42.9391 17.4584 42.0609 18.0263C39.3857 19.756 39.3874 19.7548 39.3109 20.0101C39.1965 20.3925 38.7962 20.9539 38.4148 21.2665C37.7496 21.8119 36.7216 22.2016 35.9415 22.2044C35.6525 22.2054 35.5666 22.2508 34.2921 23.0754C33.5528 23.554 32.9311 23.9623 32.9107 23.9826C32.8903 24.0032 32.9483 24.1868 33.0397 24.3905C33.3549 25.0942 33.4742 26.2483 33.2592 26.514C33.1474 26.6524 33.1147 26.657 32.2769 26.657C31.3019 26.657 31.0713 26.6099 30.2868 26.2506L29.7679 26.0129L29.3644 26.2706L28.9609 26.5285L29.1156 26.6902C29.2455 26.826 29.3395 26.8577 29.7054 26.889C30.5989 26.9653 31.5336 27.2962 32.1175 27.7429C32.4233 27.9766 32.8557 28.5951 33.0664 29.0999C33.2344 29.5025 33.3748 30.2215 33.3748 30.6795C33.3748 30.975 33.3515 31.0489 33.2185 31.1739C33.0695 31.3137 33.026 31.3205 32.2966 31.3169C31.3985 31.3123 30.9684 31.218 30.2615 30.87C29.6957 30.5915 29.2142 30.1984 28.8596 29.7257C28.5071 29.2555 28.3511 28.8196 28.313 28.1984C28.2849 27.7374 28.2624 27.6593 28.1086 27.4867C28.0135 27.3802 27.9041 27.2931 27.8656 27.2931C27.8269 27.2931 27.3301 27.5948 26.7614 27.9636C24.9186 29.1591 19.1606 32.9007 18.337 33.4379C17.8965 33.7252 17.536 33.986 17.536 34.0173C17.536 34.0486 17.7775 34.3541 18.0727 34.6962C21.7369 38.9428 26.6893 41.4616 32.3472 41.9557C33.3594 42.0441 35.672 41.9935 36.6393 41.8618C39.3916 41.487 41.9487 40.6409 44.2228 39.3525C48.5089 36.9241 51.7257 33.2462 53.5252 28.7162C55.5091 23.7233 55.4906 18.0543 53.475 13.1205C53.2052 12.4598 52.6184 11.1808 52.5869 11.1843C52.577 11.1854 52.2425 11.4008 51.8435 11.6627ZM39.9655 21.5702C40.1984 21.6907 40.2666 21.832 40.2666 22.1949C40.2666 22.4784 40.2465 22.5162 39.9044 22.8801C39.5875 23.217 39.5419 23.2957 39.5407 23.5076C39.5354 24.3212 39.1349 25.2225 38.5333 25.775C37.7874 26.4598 36.9343 26.7926 35.7756 26.851C34.9803 26.8913 34.8646 26.8594 34.6151 26.5318C34.4717 26.3435 34.4689 26.3204 34.5261 25.8157C34.5586 25.5289 34.6624 25.083 34.7566 24.8249C35.3157 23.2936 36.4786 22.4309 38.2055 22.2667L38.7742 22.2128L39.082 21.9139C39.5524 21.4574 39.6641 21.4139 39.9655 21.5702ZM40.0898 26.3193C40.228 26.4577 40.2666 26.5507 40.2666 26.7462C40.2666 27.0631 40.165 27.2549 39.8181 27.5934C39.5677 27.8374 39.5411 27.8903 39.5411 28.1438C39.5411 28.5277 39.3372 29.2954 39.1343 29.6747C38.8857 30.1403 38.3017 30.6846 37.7336 30.9807C37.0524 31.3358 36.4591 31.4796 35.6231 31.492L34.9391 31.5023L34.6926 31.2381L34.4463 30.9742L34.479 30.3904C34.5374 29.3486 34.9549 28.5464 35.7817 27.8867C36.5448 27.278 37.3134 26.9722 38.283 26.8911L38.7565 26.8514L39.1171 26.4968C39.422 26.1969 39.5113 26.1423 39.6954 26.1423C39.8554 26.1423 39.96 26.1891 40.0898 26.3193Z" fill="#1D2E42"/>
    <path d="M6.12439 62.156C5.43539 62.156 4.84606 62.026 4.35639 61.766C3.86673 61.5017 3.46806 61.1463 3.16039 60.7C2.85273 60.2493 2.62523 59.7445 2.47789 59.1855C2.33489 58.6222 2.26339 58.0437 2.26339 57.45C2.26339 56.8607 2.33923 56.2865 2.49089 55.7275C2.64689 55.1685 2.88089 54.6658 3.19289 54.2195C3.50923 53.7688 3.91006 53.4113 4.39539 53.147C4.88073 52.8783 5.45706 52.744 6.12439 52.744C6.68773 52.744 7.15573 52.8198 7.52839 52.9715C7.90539 53.1232 8.21523 53.3225 8.4579 53.5695C8.70056 53.8122 8.90639 54.07 9.07539 54.343L8.06139 54.928C7.85339 54.629 7.60423 54.369 7.31389 54.148C7.02356 53.9227 6.62706 53.81 6.12439 53.81C5.61739 53.81 5.19056 53.9205 4.84389 54.1415C4.50156 54.3582 4.22639 54.6463 4.01839 55.006C3.81039 55.3657 3.66089 55.76 3.56989 56.189C3.47889 56.6137 3.43339 57.034 3.43339 57.45C3.43339 57.918 3.48539 58.3687 3.58939 58.802C3.69339 59.2353 3.85373 59.6232 4.07039 59.9655C4.28706 60.3078 4.56439 60.5787 4.90239 60.778C5.24473 60.9773 5.65206 61.077 6.12439 61.077C6.53606 61.077 6.89356 60.9882 7.19689 60.8105C7.50456 60.6328 7.74289 60.388 7.91189 60.076C8.08089 59.7597 8.16539 59.3957 8.16539 58.984V58.62H6.51439V57.58H9.34839V58.672C9.34839 59.426 9.2054 60.063 8.9194 60.583C8.63773 61.0987 8.25206 61.4908 7.76239 61.7595C7.27706 62.0238 6.73106 62.156 6.12439 62.156ZM11.4736 62V53.147L12.6046 52.614V62H11.4736ZM17.1639 62.156C16.3449 62.156 15.7361 61.9133 15.3374 61.428C14.9431 60.9427 14.7459 60.1973 14.7459 59.192V55.357H15.8769V59.361C15.8769 59.9243 16.0004 60.3555 16.2474 60.6545C16.4944 60.9535 16.8476 61.103 17.3069 61.103C17.8139 61.103 18.1953 60.9578 18.4509 60.6675C18.7109 60.3772 18.8409 59.9503 18.8409 59.387V55.357H19.9719V62H18.8409V61.363C18.6286 61.636 18.3881 61.8375 18.1194 61.9675C17.8551 62.0932 17.5366 62.156 17.1639 62.156ZM23.9821 62.156C23.5271 62.156 23.1783 62.0195 22.9356 61.7465C22.6973 61.4735 22.5781 61.0813 22.5781 60.57V56.345H21.4991V55.357H22.5781V53.16L23.7091 52.614V55.357H25.3471V56.345H23.7091V60.193C23.7091 60.5093 23.7633 60.7412 23.8716 60.8885C23.9843 61.0315 24.1598 61.103 24.3981 61.103C24.7015 61.103 25.0308 60.986 25.3861 60.752L25.2561 61.857C25.0611 61.961 24.8575 62.0368 24.6451 62.0845C24.4371 62.1322 24.2161 62.156 23.9821 62.156ZM29.4833 62.156C28.8766 62.156 28.3523 62.0065 27.9103 61.7075C27.4683 61.4085 27.1281 60.9968 26.8898 60.4725C26.6514 59.9482 26.5323 59.348 26.5323 58.672C26.5323 57.9397 26.6558 57.3157 26.9028 56.8C27.1498 56.28 27.4943 55.8835 27.9363 55.6105C28.3783 55.3375 28.8939 55.201 29.4833 55.201C29.9816 55.201 30.4388 55.3137 30.8548 55.539C31.2708 55.76 31.6023 56.1045 31.8493 56.5725C32.1006 57.0362 32.2263 57.632 32.2263 58.36C32.2263 58.464 32.2219 58.5853 32.2133 58.724C32.2089 58.8583 32.2003 58.997 32.1873 59.14H27.6893C27.7326 59.543 27.8323 59.8962 27.9883 60.1995C28.1443 60.5028 28.3501 60.7412 28.6058 60.9145C28.8614 61.0835 29.1626 61.168 29.5093 61.168C29.7909 61.168 30.0509 61.1182 30.2893 61.0185C30.5319 60.9188 30.7573 60.765 30.9653 60.557L31.6283 61.298C31.3813 61.545 31.0736 61.7508 30.7053 61.9155C30.3413 62.0758 29.9339 62.156 29.4833 62.156ZM27.6763 58.152H31.0823C31.0823 57.775 31.0194 57.4392 30.8938 57.1445C30.7724 56.8455 30.5926 56.6115 30.3543 56.4425C30.1159 56.2735 29.8256 56.189 29.4833 56.189C29.0023 56.189 28.5884 56.345 28.2418 56.657C27.8994 56.969 27.7109 57.4673 27.6763 58.152ZM34.0443 62V55.357H35.1753V56.033C35.379 55.7513 35.6238 55.5433 35.9098 55.409C36.1958 55.2703 36.523 55.201 36.8913 55.201C37.6973 55.201 38.2953 55.4458 38.6853 55.9355C39.0753 56.4208 39.2703 57.1683 39.2703 58.178V62H38.1393V57.983C38.1393 57.424 38.0137 56.995 37.7623 56.696C37.5153 56.3927 37.1643 56.241 36.7093 56.241C36.2023 56.241 35.8188 56.3862 35.5588 56.6765C35.3032 56.9625 35.1753 57.3893 35.1753 57.957V62H34.0443ZM44.8061 62V56.345H43.7791V55.357H44.8061V54.252C44.8061 53.7753 44.9318 53.4048 45.1831 53.1405C45.4388 52.8762 45.7941 52.744 46.2491 52.744C46.4701 52.744 46.6824 52.77 46.8861 52.822C47.0898 52.874 47.2891 52.952 47.4841 53.056V54.005C47.2978 53.9183 47.1309 53.8555 46.9836 53.8165C46.8363 53.7775 46.6868 53.758 46.5351 53.758C46.3228 53.758 46.1689 53.8122 46.0736 53.9205C45.9826 54.0245 45.9371 54.2 45.9371 54.447V55.357H47.4841V56.345H45.9371V62H44.8061ZM48.7582 62V55.357H49.8892V56.228C50.0409 55.89 50.2489 55.6343 50.5132 55.461C50.7819 55.2877 51.0982 55.201 51.4622 55.201C51.8652 55.201 52.2075 55.3137 52.4892 55.539L52.3202 56.605C52.1772 56.5053 52.0277 56.4338 51.8717 56.3905C51.72 56.3428 51.5532 56.319 51.3712 56.319C51.0722 56.319 50.8122 56.3992 50.5912 56.5595C50.3702 56.7198 50.1969 56.9452 50.0712 57.2355C49.9499 57.5258 49.8892 57.866 49.8892 58.256V62H48.7582ZM56.0419 62.156C55.4352 62.156 54.9109 62.0065 54.4689 61.7075C54.0269 61.4085 53.6867 60.9968 53.4484 60.4725C53.21 59.9482 53.0909 59.348 53.0909 58.672C53.0909 57.9397 53.2144 57.3157 53.4614 56.8C53.7084 56.28 54.0529 55.8835 54.4949 55.6105C54.9369 55.3375 55.4525 55.201 56.0419 55.201C56.5402 55.201 56.9974 55.3137 57.4134 55.539C57.8294 55.76 58.1609 56.1045 58.4079 56.5725C58.6592 57.0362 58.7849 57.632 58.7849 58.36C58.7849 58.464 58.7805 58.5853 58.7719 58.724C58.7675 58.8583 58.7589 58.997 58.7459 59.14H54.2479C54.2912 59.543 54.3909 59.8962 54.5469 60.1995C54.7029 60.5028 54.9087 60.7412 55.1644 60.9145C55.42 61.0835 55.7212 61.168 56.0679 61.168C56.3495 61.168 56.6095 61.1182 56.8479 61.0185C57.0905 60.9188 57.3159 60.765 57.5239 60.557L58.1869 61.298C57.9399 61.545 57.6322 61.7508 57.2639 61.9155C56.8999 62.0758 56.4925 62.156 56.0419 62.156ZM54.2349 58.152H57.6409C57.6409 57.775 57.578 57.4392 57.4524 57.1445C57.331 56.8455 57.1512 56.6115 56.9129 56.4425C56.6745 56.2735 56.3842 56.189 56.0419 56.189C55.5609 56.189 55.147 56.345 54.8004 56.657C54.458 56.969 54.2695 57.4673 54.2349 58.152ZM63.2655 62.156C62.6588 62.156 62.1345 62.0065 61.6925 61.7075C61.2505 61.4085 60.9103 60.9968 60.672 60.4725C60.4337 59.9482 60.3145 59.348 60.3145 58.672C60.3145 57.9397 60.438 57.3157 60.685 56.8C60.932 56.28 61.2765 55.8835 61.7185 55.6105C62.1605 55.3375 62.6762 55.201 63.2655 55.201C63.7638 55.201 64.221 55.3137 64.637 55.539C65.053 55.76 65.3845 56.1045 65.6315 56.5725C65.8828 57.0362 66.0085 57.632 66.0085 58.36C66.0085 58.464 66.0042 58.5853 65.9955 58.724C65.9912 58.8583 65.9825 58.997 65.9695 59.14H61.4715C61.5148 59.543 61.6145 59.8962 61.7705 60.1995C61.9265 60.5028 62.1323 60.7412 62.388 60.9145C62.6437 61.0835 62.9448 61.168 63.2915 61.168C63.5732 61.168 63.8332 61.1182 64.0715 61.0185C64.3142 60.9188 64.5395 60.765 64.7475 60.557L65.4105 61.298C65.1635 61.545 64.8558 61.7508 64.4875 61.9155C64.1235 62.0758 63.7162 62.156 63.2655 62.156ZM61.4585 58.152H64.8645C64.8645 57.775 64.8017 57.4392 64.676 57.1445C64.5547 56.8455 64.3748 56.6115 64.1365 56.4425C63.8982 56.2735 63.6078 56.189 63.2655 56.189C62.7845 56.189 62.3707 56.345 62.024 56.657C61.6817 56.969 61.4932 57.4673 61.4585 58.152Z" fill="#1D2E42"/>
</svg>
