<svg width="60" height="60" viewBox="0 0 60 60" fill="none" xmlns="http://www.w3.org/2000/svg">
<path fill-rule="evenodd" clip-rule="evenodd" d="M26.7906 0.117496C21.1422 0.773666 16.1157 2.7863 11.7094 6.156C9.49586 7.84877 7.15692 10.2753 5.54865 12.5476C2.58066 16.7408 0.886421 21.1023 0.162963 26.4118C-0.0314694 27.8385 -0.0581718 31.7316 0.116731 33.1605C0.461697 35.9796 1.08837 38.5263 2.02674 40.9224C2.53806 42.2283 3.82167 44.8944 4.04979 45.1245C4.13889 45.2145 5.51244 44.3562 11.3262 40.5789C15.2679 38.0181 19.0638 35.5554 19.7615 35.106L21.0301 34.2894L22.1379 32.2587C22.7472 31.1415 23.4037 29.9337 23.5969 29.5743C23.7901 29.2149 24.2956 28.2979 24.7203 27.5366L25.4925 26.1522L25.517 22.9422L25.5416 19.7322L25.1406 19.5789C23.2862 18.8698 23.1243 16.1212 24.8817 15.1795C25.228 14.9939 25.2996 14.9908 29.7569 14.9658C34.8675 14.9373 34.8852 14.939 35.5767 15.5486C36.9021 16.7165 36.5202 18.9662 34.8912 19.5891L34.5228 19.73V22.6218C34.5228 24.9125 34.5453 25.5 34.6308 25.448C34.9209 25.2718 40.6566 21.5542 43.5531 19.6649C43.9332 19.417 45.9165 18.1314 47.9601 16.8081C50.004 15.4848 51.8316 14.2953 52.0218 14.1648C52.2117 14.0341 52.8243 13.6312 53.3826 13.2692C53.9412 12.9072 54.3981 12.5781 54.3981 12.5378C54.3981 12.4253 53.5866 11.3667 52.7634 10.4055C47.802 4.61154 40.872 0.978806 33.1401 0.118707C31.722 -0.0390194 28.1437 -0.0397118 26.7906 0.117496ZM54.0093 17.6428C52.6308 18.5448 49.4421 20.6193 46.9233 22.2532C39.5748 27.0193 36.2961 29.1501 36.2691 29.1769C36.2553 29.1906 37.2051 30.9669 38.3793 33.1239C39.5934 35.3532 40.6107 37.3275 40.7373 37.6986C40.9548 38.3376 40.9596 38.4027 40.9602 40.731L40.9605 43.1103L40.704 43.5738C40.3848 44.1513 39.903 44.571 39.3009 44.7966C38.8476 44.9664 38.637 44.9703 30.036 44.9703C20.0411 44.9703 20.6984 45.0162 19.8754 44.2632C19.1624 43.6107 19.0229 43.2045 18.9844 41.6694L18.9526 40.4016L17.2537 41.5014C10.4699 45.8925 6.63642 48.3891 6.53238 48.4839C6.42957 48.5775 6.48978 48.6927 6.92109 49.2267C7.74435 50.2464 9.93443 52.3881 11.1477 53.3601C12.2835 54.27 14.2573 55.6167 15.2092 56.1315C15.4943 56.2857 15.9221 56.5209 16.1597 56.6544C17.3322 57.3126 19.8928 58.3314 21.5606 58.8036C28.8226 60.8583 36.3453 60.2544 42.9588 57.0855C46.3476 55.4616 49.1661 53.3997 51.8901 50.5509C55.7799 46.4835 58.5036 41.121 59.5368 35.4963C59.9184 33.4203 60.0402 31.7511 59.9889 29.3102C59.9106 25.6068 59.4021 22.8917 58.1418 19.4469C57.7365 18.3393 56.6598 15.9793 56.5671 15.9946C56.5386 15.9993 55.3875 16.7409 54.0093 17.6428ZM25.6787 17.0095C25.4911 17.2171 25.4972 17.4818 25.6937 17.6598C25.832 17.7851 26.1247 17.803 28.0355 17.803H30.2193L30.513 18.0972C31.0131 18.5976 30.8793 19.317 30.2367 19.5858C30.0273 19.6734 29.5335 19.7065 28.4333 19.7065H26.9183V23.2275V26.7485L26.0928 28.3027C25.466 29.4829 25.2945 29.8743 25.38 29.9296C25.7203 30.1497 26.6831 30.2619 27.0992 30.1296C27.2034 30.0966 27.4657 29.957 27.6821 29.8196C27.8985 29.6822 28.1252 29.5698 28.1859 29.5698C28.2466 29.5698 29.2792 28.9332 30.4806 28.1552L32.6649 26.7406L32.7081 22.5242L32.7513 18.3079L33.0336 18.0554C33.2838 17.8316 33.3792 17.803 33.876 17.803C34.3212 17.803 34.4718 17.7675 34.6092 17.63C34.8171 17.4217 34.8252 17.2977 34.6476 17.0436L34.5129 16.8513H30.1674C26.0671 16.8513 25.8137 16.8602 25.6787 17.0095Z" fill="white"/>
</svg>
