<svg width="55" height="55" viewBox="0 0 55 55" fill="none" xmlns="http://www.w3.org/2000/svg">
    <path fill-rule="evenodd" clip-rule="evenodd" d="M25.9954 0.026768C21.5972 0.293547 17.2246 1.59328 13.6805 3.68717C13.3546 3.87967 13.065 4.02739 13.037 4.01539C12.9512 3.97871 12.468 3.41321 12.0063 2.80904C11.0749 1.5903 10.7021 1.33667 10.2916 1.64288C9.74562 2.05027 9.74485 3.74112 10.2899 5.39308C10.3775 5.65848 10.437 5.88346 10.4222 5.89309C10.2913 5.97791 9.25582 6.87423 8.65552 7.42239C8.02279 8.00004 6.67093 9.43542 6.17294 10.0584L6.02856 10.2389L5.45893 10.12C4.07471 9.83105 3.1553 9.8746 2.72828 10.2493L2.46101 10.4837L2.50078 11.1361C2.54306 11.829 2.73669 12.4617 3.2063 13.4409L3.46271 13.9756L2.89445 15.0982C1.75151 17.3558 0.886842 19.8763 0.42526 22.2959C0.0531486 24.2464 -0.000228681 24.8982 7.33775e-07 27.4924C0.000153677 30.2143 0.0693607 30.9943 0.49569 33.0833C2.4425 42.6236 9.45648 50.5089 18.7688 53.6267C20.5438 54.2209 23.11 54.7519 25.0395 54.9243C26.1745 55.0257 28.8072 55.0251 29.9337 54.9233C38.1466 54.1812 45.6548 49.7585 50.2526 42.9543C52.9591 38.9491 54.5357 34.4363 54.9468 29.5175C55.0446 28.3476 55.0016 25.6909 54.8665 24.5503C54.3704 20.3647 52.9713 16.302 50.8906 13.0055C50.8019 12.8649 50.8301 12.7792 51.1425 12.2413C51.336 11.9081 51.7051 11.3947 51.9627 11.1005C52.6381 10.3292 52.8736 9.89111 52.8745 9.40447C52.875 9.09383 52.8349 8.96094 52.69 8.79312C52.5073 8.58159 52.4935 8.57876 51.6768 8.58686C50.8095 8.5955 50.1223 8.71257 48.8814 9.06334L48.1377 9.27357L46.8549 8.0073C46.1494 7.31082 45.2968 6.52232 44.9603 6.25509C44.6239 5.98792 44.3376 5.74094 44.3243 5.70632C44.3109 5.6717 44.4202 5.34096 44.5673 4.97132C45.0458 3.7684 45.109 3.43231 45.1098 2.08306C45.1105 0.995152 45.0925 0.821069 44.947 0.503929C44.6753 -0.0887014 44.3096 -0.158854 43.8558 0.294694C43.7254 0.424989 43.3918 0.914988 43.1145 1.38374C42.5646 2.313 42.2669 2.71703 41.6916 3.31463L41.3152 3.70559L40.5759 3.29621C37.7771 1.74605 34.016 0.56774 30.6219 0.177772C29.6051 0.0610039 26.8917 -0.027566 25.9954 0.026768ZM31.0807 1.34553C33.1484 1.65488 35.0488 2.13433 36.7652 2.77969C37.8192 3.176 40.2719 4.33505 40.2401 4.42179C40.2285 4.4532 39.8922 4.71065 39.4926 4.99379C38.6375 5.59987 37.7321 6.01307 36.7779 6.23254C35.4974 6.52714 35.4724 6.5266 34.668 6.18791C33.428 5.66582 32.7477 5.49433 30.6219 5.16779C28.9833 4.91607 26.3582 4.91355 25.1287 5.16244C23.5575 5.48058 21.6946 6.21176 20.5882 6.94454C20.3736 7.08668 20.0901 7.19856 19.8862 7.22148C19.4487 7.27077 18.1327 7.05428 17.3923 6.81126C16.5016 6.51888 15.329 5.91769 14.9068 5.5369C14.6966 5.3473 14.4105 5.09428 14.2709 4.97461L14.0172 4.75696L14.9592 4.24656C17.7124 2.75486 20.9369 1.71823 24.0454 1.32559C25.5063 1.14111 25.4694 1.14264 27.8307 1.16763C29.571 1.18597 30.2706 1.22426 31.0807 1.34553ZM43.966 2.21679C43.8175 3.54213 43.1122 4.78035 41.7774 6.05922C40.9746 6.82831 40.587 7.09509 39.7025 7.48742C38.5425 8.00203 37.8344 7.97543 37.1699 7.39243C36.7495 7.02356 36.8067 6.84848 37.3897 6.71956C38.7592 6.41679 40.096 5.85106 40.9228 5.22442C41.6117 4.70225 42.6548 3.56268 43.1687 2.77083C43.7805 1.82812 43.8469 1.73917 43.9391 1.73917C43.9924 1.73917 44.0015 1.8998 43.966 2.21679ZM11.1132 3.17203C12.2069 5.39568 14.5062 6.95081 18.5865 8.22693C19.943 8.65113 20.2233 8.88284 19.7912 9.22244C19.4826 9.465 19.0791 9.54027 18.0917 9.53958C17.3262 9.53905 17.0877 9.50772 16.5439 9.33623C13.4068 8.34698 10.6628 5.42747 10.6628 3.0788C10.6628 2.77526 10.7049 2.6562 10.8121 2.6562C10.8381 2.6562 10.9736 2.88828 11.1132 3.17203ZM30.3925 6.17431C32.0273 6.32073 33.0848 6.5616 33.9102 6.97549C35.2586 7.65165 36.5403 8.92533 37.6016 10.6437C37.8358 11.023 38.099 11.3979 38.1865 11.477C38.274 11.5562 38.3455 11.6524 38.3455 11.6909C38.3455 11.7293 38.4443 11.9045 38.5649 12.0802C38.6855 12.2559 38.9092 12.6481 39.0619 12.9518C39.4172 13.6581 39.4321 14.045 39.1207 14.4747C38.9231 14.7473 37.9367 15.5432 37.0519 16.1442C35.7187 17.0496 34.2671 18.9914 34.4898 19.5714C34.6047 19.8706 34.7804 19.7314 35.9883 18.384C37.0121 17.2419 38.1205 16.9828 38.5372 17.788C38.681 18.0661 38.6839 18.497 38.5435 18.7654C38.3489 19.1378 38.0134 19.3789 37.0833 19.8149C36.5788 20.0514 35.9795 20.3335 35.7516 20.4419C35.3219 20.646 34.8009 21.0672 34.6655 21.3201C34.433 21.754 34.4668 23.0427 34.7237 23.539C34.8122 23.7101 34.8811 23.7521 35.0425 23.7335C35.2169 23.7134 35.2588 23.66 35.3167 23.3849C35.3975 23.0003 35.4311 22.9949 36.1423 23.2512C36.4338 23.3563 36.792 23.4422 36.9384 23.4422C37.3123 23.4422 37.7704 23.1868 38.0008 22.8497C38.2162 22.5349 38.4983 21.7076 38.4988 21.39C38.4993 21.0712 38.7757 20.6764 38.9784 20.7052C39.2968 20.7504 39.4549 21.2319 39.4506 22.1431C39.4455 23.2337 39.2842 23.7581 38.3163 25.8294C36.9213 28.815 36.6765 29.5448 36.436 31.4341C36.358 32.0466 36.3665 32.244 36.5077 33.1154C36.5957 33.6584 36.7355 34.3891 36.8184 34.7392C36.9764 35.4067 37.0081 35.747 36.9117 35.7437C36.8801 35.7427 36.6651 35.621 36.4338 35.4733C36.2024 35.3256 35.7793 35.1335 35.4935 35.0464C34.8438 34.8485 34.3847 34.8877 32.8797 35.2695C31.9478 35.506 31.682 35.5424 30.8513 35.5482C30.2061 35.5525 29.6305 35.5061 29.08 35.4053C28.3443 35.2704 28.1648 35.2644 27.2447 35.3438C26.4353 35.4137 26.0201 35.4955 25.2331 35.7402C24.6877 35.9099 24.2157 36.023 24.1842 35.9915C24.1528 35.9601 24.0541 35.336 23.9651 34.6045C23.6766 32.2357 23.5265 31.8726 21.9657 29.7674C20.907 28.3394 20.334 27.3059 20.0689 26.3462C19.6833 24.95 19.5558 23.0091 19.8275 22.6737C19.9053 22.5777 20.0175 22.5185 20.0779 22.5416C20.138 22.5647 20.3584 22.9035 20.5677 23.2945C21.1624 24.4055 21.652 24.8203 22.363 24.8156C22.619 24.814 23.0991 24.5858 23.4633 24.2928C23.8442 23.9862 23.9902 23.9915 24.2417 24.321C24.6502 24.8562 24.8703 24.5951 24.7786 23.6842C24.697 22.8752 24.5978 22.6133 24.2189 22.2087C23.661 21.6125 22.9917 21.326 21.8277 21.1851C20.7584 21.0556 20.4772 20.9838 20.022 20.7238C19.6379 20.5044 19.4993 20.2063 19.5544 19.718C19.6811 18.5953 21.2106 18.737 22.911 20.0291C23.7957 20.7014 23.9421 20.7863 24.1198 20.73C24.5907 20.5806 23.8508 19.598 22.6689 18.8031C22.0376 18.3785 21.036 17.8778 19.8903 17.414C18.7442 16.9501 18.3309 16.7076 18.1084 16.3682C17.8599 15.9894 18.0075 13.6777 18.3543 12.5143C18.5525 11.8494 18.6499 11.7106 18.9898 11.6088C19.4335 11.476 20.3765 10.8215 20.8147 10.3423C21.4444 9.65391 21.4675 9.57168 21.5929 7.57676C21.5959 7.53006 21.7961 7.38716 22.038 7.25908C22.9924 6.75372 24.44 6.30476 25.5202 6.17905C26.3231 6.08566 29.3694 6.08268 30.3925 6.17431ZM44.5397 7.35285C44.8973 7.64805 45.5855 8.27989 46.0692 8.7569L46.9486 9.62418L46.1839 9.91343C45.7633 10.0725 44.8845 10.4096 44.231 10.6626C42.7111 11.251 42.0537 11.4449 41.5873 11.4423C41.1867 11.4401 40.463 11.1691 39.8941 10.8081C39.6156 10.6314 39.5691 10.5646 39.5691 10.3412C39.5691 9.98702 39.8393 9.68554 40.47 9.33631C41.5976 8.71196 42.3015 8.16373 42.9774 7.38364C43.5515 6.72117 43.6528 6.63558 43.7631 6.71956C43.8328 6.7726 44.1822 7.05756 44.5397 7.35285ZM11.4303 7.68076C11.7694 8.28531 12.014 8.5926 12.7276 9.3101C13.7235 10.3115 14.5884 10.9254 15.7291 11.4407C16.2517 11.6769 16.4747 11.8169 16.4747 11.9088C16.4747 12.2651 15.4334 12.8114 14.6273 12.878C14.2712 12.9074 14.0412 12.8631 13.3272 12.6275C11.511 12.0283 9.71641 11.3551 9.07022 11.0308C8.70102 10.8454 8.17703 10.6517 7.90587 10.6003C7.63462 10.5489 7.38571 10.4826 7.35267 10.4532C7.22183 10.3366 10.6763 6.94515 10.9332 6.93789C10.9768 6.93667 11.2005 7.27093 11.4303 7.68076ZM51.7792 9.80736C51.8514 9.99527 51.6794 10.1009 50.734 10.4494C50.2503 10.6276 49.6591 10.8763 49.4204 11.002C48.7936 11.3319 48.0659 11.9594 47.6101 12.5629C47.2147 13.0863 46.5075 14.4011 46.1154 15.3418C45.8467 15.9862 45.4719 16.4946 45.0534 16.7823C44.3577 17.2606 43.2133 17.4902 42.3262 17.3295C41.1817 17.122 40.6397 16.5242 40.6397 15.4691C40.6397 14.59 41.2728 13.6269 42.4368 12.7353C44.1838 11.3972 48.9685 9.70893 51.0613 9.69212C51.6057 9.68776 51.7416 9.70962 51.7792 9.80736ZM5.53922 11.1733C7.32996 11.4446 9.11389 11.9966 11.2728 12.9475C13.5378 13.9452 14.8626 14.9623 15.1403 15.9171C15.4854 17.1032 14.9264 18.4038 13.8187 18.9922C12.6746 19.5999 11.2699 19.4194 10.3176 18.5422C10.0167 18.2651 9.83066 17.9464 9.12827 16.5056C7.6298 13.4314 6.91196 12.5788 5.25765 11.9086C4.19585 11.4783 4.08626 11.4229 4.08626 11.3157C4.08626 11.1938 4.34481 11.074 4.62156 11.0676C4.72671 11.0652 5.13966 11.1127 5.53922 11.1733ZM51.1497 15.7621C52.563 18.6082 53.3615 21.3241 53.7582 24.6341C53.9106 25.9062 53.9327 28.8053 53.7995 30.0525C53.43 33.512 52.312 37.1501 50.7129 40.0969C50.1983 41.0455 48.9138 43.0463 48.8565 42.9889C48.8371 42.9695 48.75 42.5785 48.6631 42.1199C48.398 40.7227 48.549 37.8327 48.9841 35.975C49.2135 34.9956 49.2277 34.9051 49.1526 34.9051C49.0682 34.9051 48.587 35.7182 48.3612 36.2424C47.5357 38.1585 47.2173 39.8241 47.2151 42.2391C47.2133 44.1104 47.0704 44.1232 46.7632 42.2796C46.4964 40.6787 46.433 39.7394 46.4707 37.9501C46.5051 36.3201 46.7082 34.3117 46.9215 33.4913C47.1676 32.5448 47.0445 32.4323 46.6329 33.2276C45.9991 34.4522 45.5644 35.943 45.3042 37.7847C45.0283 39.7368 45.1131 41.5878 45.5778 43.7567C45.851 45.0321 45.8085 45.4746 45.4667 44.9129C45.269 44.588 45.0856 43.6757 44.9713 42.4486C44.9177 41.8738 44.8508 41.3805 44.8225 41.3522C44.7494 41.2791 44.5679 41.7562 44.5063 42.184C44.452 42.56 44.366 42.6445 44.2728 42.4133C44.2431 42.3398 44.1816 41.7512 44.1361 41.1054C44.0375 39.7057 44.1463 37.9295 44.3841 37.0547C44.5349 36.5 44.5312 36.3061 44.3716 36.4047C44.2148 36.5015 43.7105 37.703 43.4773 38.535C43.3478 38.9973 43.1884 39.8055 43.1231 40.3309C43.0578 40.8562 42.9888 41.3313 42.9696 41.3864C42.9116 41.5544 42.7809 41.4059 42.7809 41.1719C42.7809 41.051 42.7454 40.859 42.7021 40.7451C42.6588 40.6312 42.5377 40.0529 42.433 39.4601C42.2326 38.3248 42.1019 36.1779 42.0883 33.797C42.0845 33.1245 42.0566 32.4196 42.0264 32.2304C41.9744 31.905 41.9603 31.9439 41.7638 32.9564C41.4098 34.7795 41.3858 35.1302 41.4156 38.0451C41.4469 41.1132 41.4653 41.0199 40.9265 40.5254C40.7688 40.3807 40.6397 40.1964 40.6397 40.1161C40.6397 39.9398 40.2762 36.6747 40.2085 36.2424C40.1697 35.9949 40.1497 35.9662 40.1032 36.0914C40.0524 36.2278 39.923 37.8119 39.8522 39.1639C39.8384 39.4257 39.8053 39.6617 39.7786 39.6884C39.7105 39.7565 39.1228 39.4611 38.8142 39.2036C38.5322 38.9683 38.4105 38.6312 37.9515 36.8156C37.7232 35.9128 37.7082 35.7639 37.6764 34.1027C37.6563 33.0499 37.6759 32.1306 37.7251 31.8101C37.9753 30.1836 38.5908 27.6071 38.9338 26.7509C39.045 26.4732 39.4633 25.7613 39.8632 25.1689C40.2631 24.5765 40.7117 23.8339 40.8598 23.5186C41.1244 22.9555 41.1291 22.9282 41.1301 21.952C41.1309 21.2556 41.09 20.7872 40.9935 20.3855C40.7778 19.4866 40.754 19.1184 40.8977 18.8992C41.1454 18.5214 41.206 18.5132 43.7368 18.513C46.0243 18.5128 46.1249 18.5066 46.6045 18.3351C47.9412 17.8572 48.7768 16.8581 49.191 15.2424C49.315 14.7587 49.4102 14.5706 49.7061 14.2245L50.0691 13.7998L50.3248 14.2078C50.4655 14.4322 50.8367 15.1316 51.1497 15.7621ZM4.42304 15.4641C4.54524 15.6573 4.8158 15.9502 5.02442 16.115C5.23464 16.281 5.84327 16.9889 6.38959 17.7025C7.95504 19.7477 8.78399 20.4296 10.0656 20.7266C10.881 20.9156 12.729 21.0365 14.4482 21.0135C15.3314 21.0016 16.1277 21.0099 16.2176 21.0319C16.4364 21.0854 16.4534 21.1809 16.55 22.9073C16.6564 24.8075 16.739 25.3761 16.9778 25.8494C17.0851 26.0622 17.5967 26.6887 18.132 27.2632C19.3053 28.5221 19.8752 29.3694 20.8843 31.3557C21.7764 33.1116 22.1184 33.9828 22.4508 35.3458C22.6856 36.3092 22.6876 36.3341 22.6486 37.8472C22.627 38.6879 22.5659 39.6251 22.5131 39.93C22.3926 40.6247 22.4892 41.2904 22.8077 41.9607C23.0599 42.4915 23.368 42.8312 23.9297 43.1978C24.1405 43.3354 24.6546 43.7612 25.0721 44.1438C25.4895 44.5265 25.8724 44.8396 25.923 44.8396C25.9735 44.8396 26.0601 44.894 26.1153 44.9605C26.3547 45.2487 27.5717 45.7242 28.8859 46.0429C29.58 46.2112 31.6765 46.2278 32.5446 46.072C33.1158 45.9695 33.1383 45.9714 33.5489 46.1592C34.069 46.3972 35.4178 47.2446 35.9553 47.671C36.2797 47.9284 36.3782 48.0631 36.4715 48.3769C36.5349 48.5902 36.5867 48.8614 36.5867 48.9796C36.5867 49.4695 36.9879 51.2327 37.1796 51.5857C37.2992 51.8057 37.3499 51.9772 37.3073 52.0176C37.1713 52.1465 34.9325 52.8762 33.872 53.1373C31.541 53.7113 29.9797 53.8947 27.4483 53.8916C25.2563 53.889 24.1535 53.7842 22.2022 53.3931C15.6274 52.0755 9.68024 48.1808 5.8016 42.6529C3.23184 38.9905 1.65026 34.7534 1.16948 30.2435C1.02273 28.8665 1.04323 25.885 1.20894 24.5121C1.49984 22.1028 2.03369 19.962 2.87656 17.8254C3.21999 16.9549 4.08917 15.1125 4.15631 15.1127C4.18086 15.1128 4.30092 15.2709 4.42304 15.4641ZM4.69765 28.9712C4.29113 29.0808 3.6987 29.4702 3.48825 29.7661C3.28109 30.0574 3.16944 30.5055 3.16944 31.0459C3.16944 31.6665 3.27222 31.9925 3.5817 32.3538C3.84209 32.6578 3.84224 32.6585 3.6984 32.8455C3.52634 33.0693 3.51479 33.2217 3.65527 33.4136C3.75682 33.5525 3.78573 33.5517 4.74407 33.3844C5.28557 33.2898 5.77621 33.1729 5.83448 33.1246C6.04569 32.9494 5.75166 31.2844 5.49196 31.1847C5.42849 31.1604 5.29268 31.1787 5.19021 31.2253C5.02052 31.3025 5.00392 31.3545 5.00392 31.8085C5.00392 32.2899 4.99734 32.3068 4.8116 32.3068C4.51764 32.3068 4.08274 31.8661 4.01744 31.5022C3.90181 30.8571 4.13872 30.3944 4.74025 30.0907C5.0508 29.9339 5.22936 29.8996 5.73637 29.8996C6.29927 29.8996 6.37972 29.9192 6.64301 30.1199C7.0932 30.463 7.28232 31.1131 7.04839 31.5132C6.65502 32.186 6.607 32.3115 6.68591 32.459C6.92986 32.9145 7.4387 32.7508 7.75476 32.1152C8.3062 31.0066 7.61069 29.2331 6.51645 28.9578C6.06367 28.8438 5.14494 28.8506 4.69765 28.9712ZM6.53335 34.078C5.83937 34.3747 5.09079 34.6942 4.86979 34.7879C4.21451 35.066 4.04328 35.3035 4.23722 35.6655C4.37127 35.9159 4.66171 35.9171 5.36961 35.6703C6.13486 35.4034 6.09448 35.3866 6.43471 36.1125C6.71475 36.71 6.5488 37.105 5.88235 37.4274C5.48715 37.6186 5.30981 37.8331 5.30981 38.1199C5.30981 38.3506 5.52087 38.5732 5.73966 38.5732C5.94383 38.5732 7.09764 37.8552 7.29371 37.6061C7.44245 37.4172 7.47931 37.4081 7.91137 37.4532C8.46908 37.5115 8.887 37.3689 9.18065 37.0202C9.36785 36.7979 9.3781 36.7447 9.34544 36.1688C9.31501 35.6334 9.2601 35.4428 8.9169 34.6827C8.70033 34.2031 8.46587 33.7475 8.39582 33.6702C8.18636 33.4388 7.86258 33.5098 6.53335 34.078ZM8.44514 35.9832C8.44514 36.3768 8.36133 36.4846 7.99901 36.5571C7.65611 36.6256 7.40567 36.4317 7.18092 35.9238C6.97352 35.4553 6.94003 35.1199 7.08838 34.9969C7.1413 34.9529 7.35642 34.8485 7.56633 34.7646L7.94808 34.6122L8.19661 35.1201C8.36844 35.4713 8.44514 35.7377 8.44514 35.9832ZM35.3098 36.1617C36.0115 36.4119 36.6047 37.0723 36.9791 38.0203C37.1188 38.3741 37.1529 38.614 37.1562 39.265C37.1601 40.0448 37.1509 40.0901 36.8768 40.6445C36.2867 41.8376 35.4209 42.3675 33.776 42.5421C32.6663 42.6599 30.6231 42.7755 29.6439 42.7759C26.8297 42.7771 25.1211 42.1542 24.4412 40.8794C24.1387 40.3124 24.08 39.8873 24.1854 39.0279C24.3428 37.7442 24.806 37.0078 25.7277 36.5763C26.5959 36.1699 27.1882 36.1325 29.2454 36.3539C30.4182 36.4801 31.9466 36.4498 32.6379 36.2866C32.9801 36.2058 33.329 36.1238 33.4131 36.1044C33.7591 36.0246 35.033 36.0631 35.3098 36.1617ZM10.1896 38.5366C10.1677 38.5585 9.37504 38.7463 8.42801 38.954C7.48107 39.1616 6.61495 39.3732 6.5033 39.424C6.22701 39.5499 6.1666 39.8312 6.36068 40.0891C6.51951 40.3004 6.61564 40.3158 7.33631 40.2459L7.64219 40.2162L8.04367 40.8233C8.26444 41.1572 8.44453 41.4839 8.44377 41.5493C8.443 41.6147 8.33831 41.8217 8.21114 42.0093C7.9399 42.4093 7.94594 42.5879 8.23837 42.8052C8.59289 43.0688 8.66745 43.0029 10.1658 41.0983C10.3761 40.8309 10.5997 40.5359 10.6628 40.4427C10.7259 40.3494 10.9066 40.0849 11.0643 39.8547C11.2221 39.6245 11.3511 39.3499 11.3511 39.2443C11.3511 39.0676 11.1213 38.6889 10.9331 38.5553C10.8428 38.4912 10.25 38.4763 10.1896 38.5366ZM34.4837 38.8756C33.6786 39.3332 33.5731 39.4319 33.6332 39.6714C33.6977 39.9281 34.2468 40.3309 34.5322 40.3309C34.8531 40.3309 35.1866 39.984 35.3683 39.4613C35.6911 38.5322 35.4126 38.3478 34.4837 38.8756ZM27.1233 38.7766C26.8079 38.9039 27.4117 39.9365 27.9728 40.2293C28.2648 40.3816 28.4907 40.3121 28.7824 39.9801C28.9639 39.7735 29.0187 39.6451 29.0012 39.4676C28.9796 39.2489 28.9305 39.2114 28.366 38.9819C27.8028 38.753 27.3625 38.6802 27.1233 38.7766ZM10.051 39.6079C10.051 39.7734 9.15732 40.7894 9.0118 40.7894C8.96247 40.7894 8.83202 40.6713 8.7219 40.527C8.51336 40.2538 8.45906 39.92 8.60818 39.828C8.82941 39.6912 10.051 39.505 10.051 39.6079ZM39.2112 40.7057C39.387 40.8277 39.6396 41.0427 39.7725 41.1833C39.9977 41.4215 40.0206 41.4978 40.1077 42.3012C40.1591 42.7754 40.1842 43.1805 40.1634 43.2013C40.1147 43.2499 39.3542 42.6725 38.7787 42.1499L38.3324 41.7446L38.4867 41.1917C38.7176 40.3648 38.719 40.3639 39.2112 40.7057ZM11.9651 41.1037C11.5956 41.251 11.2871 41.554 11.1554 41.8987C10.9855 42.3431 11.0394 42.5321 11.6602 43.669C12.1812 44.6235 12.1854 44.7543 11.6995 44.9146C11.3895 45.0168 11.2718 44.9684 10.9051 44.5873C10.6926 44.3666 10.64 44.2405 10.5889 43.8284C10.5552 43.5566 10.4879 43.2602 10.4395 43.1698C10.3189 42.9445 10.0136 42.9596 9.77002 43.203C9.59367 43.3792 9.57731 43.4417 9.61791 43.7839C9.69859 44.4652 10.4026 45.3811 11.0834 45.6906C11.4658 45.8645 12.123 45.873 12.4695 45.7087C12.9997 45.4573 13.2688 44.8516 13.0859 44.3211C12.9774 44.0063 12.2886 42.7976 12.1793 42.73C12.0869 42.673 12.1014 42.1828 12.1973 42.1236C12.3483 42.0304 12.806 42.0722 12.9959 42.1966C13.2728 42.3779 13.4146 42.6337 13.4851 43.0794C13.5567 43.532 13.6984 43.7124 13.9823 43.7124C14.2827 43.7124 14.41 43.5614 14.4092 43.2064C14.4075 42.4845 13.7714 41.6388 12.9317 41.2418C12.4321 41.0056 12.2693 40.9823 11.9651 41.1037ZM41.7073 42.8497C41.9258 43.0681 42.0439 43.2756 42.1311 43.5948C42.1977 43.8381 42.3711 44.4159 42.5165 44.8787C42.6619 45.3416 42.7795 45.823 42.7778 45.9486L42.7749 46.1769L42.4346 45.8074C42.0202 45.3576 41.6627 44.6313 41.5155 43.9409C41.4551 43.6576 41.3539 43.257 41.2904 43.0507C41.2269 42.8444 41.175 42.6467 41.175 42.6113C41.175 42.4572 41.4278 42.5704 41.7073 42.8497ZM38.2019 43.7506C38.9569 44.536 40.0129 45.8402 40.5989 46.7113C41.3548 47.8349 41.2683 47.8637 40.1756 46.8522C39.4108 46.1443 38.2731 45.1676 37.741 44.7622C37.5021 44.5802 37.4855 44.5349 37.4205 43.8948C37.3542 43.2411 37.3694 43.082 37.4979 43.082C37.5316 43.082 37.8483 43.3829 38.2019 43.7506ZM36.3227 43.8106C36.3828 44.2917 36.3376 46.1075 36.2635 46.1814C36.2367 46.2083 35.8939 46.0806 35.5018 45.8979C34.3696 45.3702 34.4224 45.4618 34.9475 44.937C35.1971 44.6875 35.501 44.297 35.6228 44.0692C36.0608 43.2501 36.2441 43.1823 36.3227 43.8106ZM33.6448 43.8498C33.7135 43.9609 33.2226 44.4066 32.8134 44.6045C32.5065 44.753 32.4255 44.761 31.9704 44.6884C31.6935 44.6442 31.3778 44.5742 31.2689 44.5328C31.0121 44.4352 30.6219 44.4359 30.6219 44.5339C30.6219 44.576 30.6477 44.6105 30.6793 44.6106C30.7109 44.6108 30.8542 44.6826 30.998 44.7701C31.3515 44.9855 31.2071 45.0665 30.469 45.0667C29.765 45.0669 28.7287 44.8565 27.8835 44.5417C27.148 44.2679 26.9513 44.1711 26.9513 44.0832C26.9513 44.0484 28.0783 43.9975 29.4557 43.97C30.8331 43.9426 32.1494 43.8911 32.3808 43.8557C32.9986 43.761 33.5882 43.7583 33.6448 43.8498ZM15.0206 44.0945C14.5298 44.4278 14.326 45.1517 14.5841 45.6448C14.6494 45.7693 14.9292 46.1215 15.206 46.4274C15.4828 46.7333 15.7648 47.0683 15.8327 47.1719C16.2363 47.7874 15.249 48.1249 14.6581 47.5734C14.4201 47.3513 14.257 47.0377 14.257 46.8024C14.257 46.544 13.9779 46.2151 13.7587 46.2151C13.3563 46.2151 13.2088 46.8826 13.4897 47.4327C13.6801 47.8057 14.161 48.2186 14.7443 48.5099C15.5744 48.9244 16.3169 48.788 16.7532 48.1411C17.1915 47.4911 17.0519 47.0289 16.091 45.9498C15.4522 45.2322 15.3536 44.9893 15.6392 44.8365C15.865 44.7157 16.3616 44.8187 16.6262 45.0412C16.7487 45.1441 16.9156 45.4072 16.9972 45.6258C17.0788 45.8444 17.2335 46.0887 17.341 46.169C17.5256 46.3068 17.5474 46.3078 17.7321 46.1868C18.3673 45.7708 17.357 44.228 16.3011 44.0017C15.7034 43.8737 15.3031 43.9026 15.0206 44.0945ZM38.1408 46.3489C38.5059 46.7377 39.3356 47.8232 39.4843 48.1065C39.6284 48.3812 39.4616 48.3211 38.816 47.8655C38.0362 47.3152 37.9152 47.1723 37.7758 46.6376C37.5711 45.8524 37.6304 45.8055 38.1408 46.3489ZM20.738 46.6104C20.5582 46.7468 19.4497 49.9058 19.4324 50.3312C19.4211 50.6077 19.4521 50.6896 19.6142 50.8126C20.0194 51.1198 20.2995 50.8116 20.7536 49.5585C20.8488 49.2957 20.9454 49.2947 21.8262 49.5472C22.6471 49.7825 22.8983 49.7563 22.8983 49.4351C22.8983 49.1626 22.7319 49.015 22.2483 48.8583C21.2691 48.541 21.2159 48.5106 21.2159 48.2697C21.2159 47.981 21.4098 47.5143 21.5297 47.5143C21.5804 47.5143 21.9945 47.6346 22.4498 47.7817C23.4025 48.0895 23.6986 48.1155 23.8133 47.9014C24.0248 47.5065 23.8207 47.3542 22.4815 46.9072C21.3948 46.5445 20.9292 46.4653 20.738 46.6104ZM24.6154 47.6255C24.5122 47.7286 24.4267 47.8747 24.4254 47.9502C24.4242 48.0257 24.3733 48.5689 24.3123 49.1573C24.2514 49.7457 24.2007 50.5788 24.1999 51.0087C24.1984 51.737 24.21 51.7976 24.3704 51.8985C24.4698 51.9611 25.0429 52.0588 25.7277 52.1301C27.1981 52.283 27.4447 52.2832 27.5959 52.1322C27.7329 51.9952 27.7572 51.5989 27.6332 51.5224C27.5877 51.4943 27.0689 51.4256 26.4804 51.3697C25.892 51.3138 25.3614 51.2275 25.3015 51.1777C25.185 51.0811 25.163 50.8138 25.2398 50.4297L25.2873 50.1929L26.406 50.1718L27.5248 50.1507L27.5487 49.9023C27.5794 49.5848 27.4584 49.5355 26.3439 49.4117C25.4135 49.3083 25.4249 49.3174 25.4229 48.6797L25.4218 48.3549H26.6822H27.9425L27.9937 48.1509C28.0642 47.8702 27.8065 47.6671 27.3796 47.6671C27.2039 47.6671 26.6485 47.6158 26.1454 47.5531C24.9236 47.4008 24.8361 47.4049 24.6154 47.6255ZM29.8954 47.5606C29.1472 47.7007 28.9395 47.8226 28.9395 48.1216C28.9395 48.5008 29.3272 51.645 29.3965 51.8268C29.5176 52.1454 29.8296 52.2037 30.7152 52.0731C32.041 51.8778 32.671 51.5491 33.0478 50.8564C33.2554 50.4747 33.2295 49.2089 33.0037 48.703C32.5958 47.7892 32.1611 47.498 31.1572 47.4664C30.7997 47.4552 30.2319 47.4975 29.8954 47.5606ZM31.5396 48.3751C31.6453 48.4273 31.8248 48.6551 31.941 48.8844C32.1096 49.217 32.1513 49.4033 32.1513 49.823C32.1513 50.5613 32.0148 50.8442 31.5613 51.0451C31.1408 51.2315 30.5876 51.2581 30.4317 51.0996C30.3684 51.0352 30.2614 50.5284 30.1677 49.8483C29.9727 48.4335 29.9726 48.4415 30.1822 48.3573C30.437 48.2549 31.3196 48.2665 31.5396 48.3751ZM39.0044 49.8522C39.1047 49.9823 39.1867 50.1231 39.1867 50.1652C39.1867 50.3017 38.8899 50.5144 38.7658 50.4669C38.612 50.4079 38.3494 49.8352 38.3472 49.5541L38.3455 49.3397L38.5838 49.4777C38.7149 49.5537 38.9042 49.7222 39.0044 49.8522Z" fill="#1D2E42"/>
</svg>
