<svg width="40" height="74" viewBox="0 0 40 74" fill="none" xmlns="http://www.w3.org/2000/svg">
    <path d="M3.07133 73V59H4.81133V64.92H11.4113V59H13.1513V73H11.4113V66.56H4.81133V73H3.07133ZM19.1298 73.24C18.0231 73.24 17.1531 72.9333 16.5198 72.32C15.8864 71.7067 15.5698 70.8667 15.5698 69.8C15.5698 69.1133 15.7264 68.5167 16.0398 68.01C16.3531 67.5033 16.7964 67.1133 17.3698 66.84C17.9431 66.56 18.6164 66.42 19.3898 66.42C19.8898 66.42 20.3564 66.4767 20.7898 66.59C21.2298 66.6967 21.6431 66.86 22.0298 67.08V66.36C22.0298 65.5667 21.8498 64.9867 21.4898 64.62C21.1298 64.2467 20.5698 64.06 19.8098 64.06C19.3231 64.06 18.8164 64.15 18.2898 64.33C17.7698 64.51 17.2831 64.76 16.8298 65.08L16.3298 63.62C16.8431 63.28 17.4264 63.0167 18.0798 62.83C18.7398 62.6367 19.3898 62.54 20.0298 62.54C21.2431 62.54 22.1531 62.85 22.7598 63.47C23.3664 64.0833 23.6698 65 23.6698 66.22V73H22.0298V72.06C21.6298 72.44 21.1798 72.7333 20.6798 72.94C20.1798 73.14 19.6631 73.24 19.1298 73.24ZM19.3898 71.72C19.8631 71.72 20.3298 71.6033 20.7898 71.37C21.2564 71.1367 21.6698 70.8067 22.0298 70.38V68.62C21.6898 68.4067 21.3031 68.24 20.8698 68.12C20.4364 68 20.0231 67.94 19.6298 67.94C18.8831 67.94 18.2931 68.11 17.8598 68.45C17.4264 68.7833 17.2098 69.24 17.2098 69.82C17.2098 70.4067 17.4031 70.87 17.7898 71.21C18.1764 71.55 18.7098 71.72 19.3898 71.72ZM26.7171 73V62.78H28.4571V73H26.7171ZM27.5771 60.92C27.2771 60.92 27.0204 60.8167 26.8071 60.61C26.6004 60.3967 26.4971 60.14 26.4971 59.84C26.4971 59.5267 26.6004 59.2633 26.8071 59.05C27.0204 58.83 27.2771 58.72 27.5771 58.72C27.8904 58.72 28.1504 58.83 28.3571 59.05C28.5704 59.2633 28.6771 59.5267 28.6771 59.84C28.6771 60.14 28.5704 60.3967 28.3571 60.61C28.1504 60.8167 27.8904 60.92 27.5771 60.92ZM31.7752 73V62.78H33.5152V64.12C33.7486 63.6 34.0686 63.2067 34.4752 62.94C34.8886 62.6733 35.3752 62.54 35.9352 62.54C36.5552 62.54 37.0819 62.7133 37.5152 63.06L37.2552 64.7C37.0352 64.5467 36.8052 64.4367 36.5652 64.37C36.3319 64.2967 36.0752 64.26 35.7952 64.26C35.3352 64.26 34.9352 64.3833 34.5952 64.63C34.2552 64.8767 33.9886 65.2233 33.7952 65.67C33.6086 66.1167 33.5152 66.64 33.5152 67.24V73H31.7752Z" fill="white"/>
    <g clip-path="url(#clip0_1_14)">
        <path fill-rule="evenodd" clip-rule="evenodd" d="M23.8197 0.0548324C23.5961 0.191076 23.289 0.591381 22.8619 1.30323C22.4659 1.96313 21.8965 2.9454 21.8965 2.96855C21.8965 2.98479 21.8176 3.1309 21.7212 3.29337C21.4493 3.75153 20.7064 5.25573 20.2803 6.21094C20.2529 6.27231 20.1449 6.51082 20.0401 6.74096C19.9353 6.9711 19.8306 7.22216 19.8073 7.29887C19.784 7.37559 19.745 7.46368 19.7204 7.49459C19.696 7.5255 19.6396 7.65103 19.5951 7.77355C19.5507 7.89607 19.3633 8.37286 19.1788 8.83315C18.9943 9.29343 18.8261 9.75131 18.805 9.85073C18.784 9.95009 18.7437 10.0457 18.7154 10.0632C18.6871 10.0807 18.6631 10.1375 18.662 10.1894C18.661 10.2413 18.6117 10.3842 18.5525 10.5069C18.4932 10.6296 18.4439 10.7639 18.4429 10.8053C18.4418 10.8467 18.4074 10.9597 18.3662 11.0564C18.3252 11.1531 18.2339 11.4205 18.1635 11.6506C18.0932 11.8808 18.0038 12.1569 17.9649 12.2643C17.8519 12.5765 17.607 13.3942 17.3884 14.1891C17.3293 14.4039 17.2049 14.8559 17.1119 15.1934C16.9433 15.8057 16.8264 16.277 16.6794 16.9369C16.6367 17.1287 16.5662 17.4425 16.5228 17.6343C16.4794 17.8261 16.4049 18.1713 16.3572 18.4014C16.3095 18.6316 16.2448 18.9328 16.2133 19.0709C16.1818 19.209 16.1316 19.4852 16.1017 19.6846C16.0718 19.8841 15.9965 20.3234 15.9343 20.661C15.7221 21.8138 15.4206 23.9742 15.3503 24.8453C15.3355 25.0295 15.2848 25.5818 15.2379 26.0728C15.1278 27.2234 14.9844 30.1309 14.985 31.2C14.986 33.0166 15.4809 34.2865 16.5875 35.3121C18.6063 37.183 21.7171 37.1017 23.601 35.1286C24.4965 34.1907 24.9301 33.1653 25.0003 31.8193C25.02 31.4422 24.9968 31.1717 24.907 30.7327C24.8413 30.4113 24.7692 30.1226 24.7468 30.0911C24.7244 30.0597 24.6461 29.8833 24.5729 29.6992C24.4043 29.2752 24.059 28.7385 23.665 28.2877C23.4961 28.0944 23.332 27.8434 23.3005 27.7298C23.2689 27.6162 23.1749 27.335 23.0915 27.1049C22.7458 26.1506 22.3558 24.7063 22.1424 23.59C22.0984 23.3599 22.0478 23.1255 22.0299 23.0692C21.9758 22.8986 21.8497 22.0112 21.6956 20.7168C21.5625 19.5988 21.5494 19.3029 21.5488 17.3972C21.5481 15.7032 21.5707 15.0554 21.667 13.9939C21.7325 13.2728 21.8095 12.5698 21.8382 12.4317C21.867 12.2936 21.9062 12.0049 21.9252 11.7901C21.9443 11.5753 21.9822 11.3117 22.0095 11.2043C22.0367 11.0969 22.0972 10.7705 22.1439 10.479C22.3123 9.42878 22.5499 8.35105 22.9065 7.01992C22.9681 6.78978 23.0427 6.50105 23.0721 6.37831C23.1016 6.25557 23.1657 6.02962 23.2147 5.87619C23.2637 5.72276 23.336 5.49681 23.3753 5.37406C23.4146 5.25132 23.5157 4.92494 23.5998 4.64877C23.684 4.3726 23.7712 4.12154 23.7936 4.09086C23.816 4.06017 23.8532 3.9473 23.8761 3.84002C23.8991 3.73273 23.9504 3.56954 23.9902 3.47737C24.0565 3.32394 24.2923 2.71933 24.5889 1.94288C24.6533 1.77411 24.7238 1.61092 24.7455 1.58023C24.8228 1.47077 25.0176 0.908724 25.0176 0.795188C25.0177 0.614813 24.8388 0.291724 24.6618 0.152468C24.4737 0.00456417 23.9936 -0.0511159 23.8197 0.0548324ZM0.570848 30.0662C0.33537 30.1352 0.0576438 30.4308 0.015174 30.6576C-0.0660313 31.0907 0.185945 31.5082 0.597546 31.6226C0.728578 31.6591 2.72761 31.6793 6.21387 31.6795L11.6268 31.6798L11.6613 31.889C11.6803 32.0041 11.6965 32.1987 11.6972 32.3214C11.7014 33.0097 12.0836 34.4473 12.4725 35.2374C12.5672 35.4297 12.6446 35.6002 12.6446 35.6163C12.6446 35.6324 12.692 35.7136 12.7498 35.7967C12.8077 35.8799 12.9517 36.0985 13.0698 36.2826C13.1879 36.4667 13.3381 36.6801 13.4035 36.7569C13.4689 36.8336 13.6411 37.0344 13.7861 37.2032C15.0303 38.6509 16.9005 39.6581 18.859 39.9354C19.3685 40.0075 20.7113 40.0073 21.172 39.9351C23.2279 39.6129 25.0443 38.6062 26.3634 37.0578C27.0999 36.1933 27.7206 35.0401 28.0004 34.0165C28.1589 33.4368 28.305 32.6534 28.3061 32.3772C28.3067 32.2238 28.3227 32.0046 28.3416 31.8903L28.376 31.6823L33.0645 31.6671C37.3535 31.6532 37.7678 31.6438 37.9259 31.5571C38.1873 31.4138 38.3001 31.2012 38.3036 30.8451C38.3069 30.5052 38.2103 30.3068 37.9582 30.1355C37.8167 30.0394 37.5303 30.0332 32.5914 30.0189C28.4897 30.0071 27.3289 30.019 27.1627 30.0747C27.0436 30.1146 26.88 30.2341 26.7882 30.3482L26.6251 30.5508L26.6138 31.7151C26.602 32.9325 26.5991 32.9511 26.285 33.8836C25.5387 36.0986 23.4609 37.861 21.1542 38.2355C18.9489 38.5935 16.7943 37.8986 15.2495 36.3311C14.4036 35.4727 13.8676 34.5208 13.5258 33.2699C13.4216 32.8887 13.4024 32.6626 13.3943 31.7199C13.3838 30.4939 13.3469 30.3414 13.0117 30.1382C12.8467 30.0383 12.5909 30.0336 6.79245 30.0245C3.26473 30.0191 0.67262 30.0364 0.570848 30.0662ZM1.76507 33.4613C1.08584 33.6787 0.541532 34.144 0.268376 34.7408C0.203278 34.883 0.120903 35.0597 0.0853441 35.1334C0.00313549 35.3037 0.000516159 36.3606 0.0818887 36.5391C0.360673 37.1504 0.485128 37.356 0.717096 37.5882C1.01232 37.8836 1.45201 38.1491 1.82538 38.2572C2.18548 38.3614 2.86327 38.3439 3.23084 38.2209C4.23401 37.8851 4.78478 37.1968 4.98275 36.0316C5.02772 35.7668 4.87011 35.0372 4.69064 34.6795C4.18234 33.6665 2.85313 33.1131 1.76507 33.4613ZM30.1453 33.4588C29.668 33.6132 29.4032 33.7707 29.0893 34.0866C28.2325 34.9487 28.1122 36.2206 28.7906 37.2438C29.0868 37.6903 29.6055 38.0764 30.1254 38.2371C30.4679 38.3429 31.2093 38.345 31.5453 38.2411C32.3799 37.9827 32.9725 37.3685 33.2642 36.4591C33.4247 35.9588 33.3113 35.1541 33.0024 34.6008C32.463 33.6348 31.1827 33.123 30.1453 33.4588ZM8.56225 35.0843C7.9553 35.2377 7.20973 35.8222 6.95815 36.3418C6.46986 37.3503 6.61516 38.4343 7.34171 39.2037C8.64747 40.5864 10.8913 40.0965 11.5255 38.2902C11.8534 37.3563 11.503 36.1708 10.7254 35.5831C10.2274 35.2067 9.85406 35.0691 9.27749 35.0491C8.99893 35.0394 8.67706 35.0553 8.56225 35.0843ZM36.9195 35.0867C36.4986 35.1921 36.0826 35.4386 35.738 35.7867C35.5494 35.9773 35.3771 36.1919 35.3552 36.2637C35.3333 36.3355 35.2846 36.4319 35.2469 36.4779C35.2092 36.5239 35.1347 36.769 35.0815 37.0225C34.8468 38.139 35.3842 39.2267 36.4285 39.7486C36.8558 39.9621 36.8694 39.9649 37.5022 39.9649C38.1229 39.9649 38.1564 39.9585 38.5612 39.7648C39.433 39.3473 39.9287 38.6241 39.9938 37.6745C40.0643 36.6467 39.5306 35.74 38.5767 35.2672C38.2176 35.0892 38.1185 35.0658 37.6571 35.0496C37.3727 35.0397 37.0408 35.0564 36.9195 35.0867Z" fill="white"/>
    </g>
    <defs>
        <clipPath id="clip0_1_14">
            <rect width="40" height="40" fill="white"/>
        </clipPath>
    </defs>
</svg>
