<svg width="50" height="69" viewBox="0 0 50 69" fill="none" xmlns="http://www.w3.org/2000/svg">
    <path d="M0.903359 68V54H2.64336V59.92H9.24336V54H10.9834V68H9.24336V61.56H2.64336V68H0.903359ZM18.5863 68.24C17.653 68.24 16.8463 68.01 16.1663 67.55C15.4863 67.09 14.963 66.4567 14.5963 65.65C14.2297 64.8433 14.0463 63.92 14.0463 62.88C14.0463 61.7533 14.2363 60.7933 14.6163 60C14.9963 59.2 15.5263 58.59 16.2063 58.17C16.8863 57.75 17.6797 57.54 18.5863 57.54C19.353 57.54 20.0563 57.7133 20.6963 58.06C21.3363 58.4 21.8463 58.93 22.2263 59.65C22.613 60.3633 22.8063 61.28 22.8063 62.4C22.8063 62.56 22.7997 62.7467 22.7863 62.96C22.7797 63.1667 22.7663 63.38 22.7463 63.6H15.8263C15.893 64.22 16.0463 64.7633 16.2863 65.23C16.5263 65.6967 16.843 66.0633 17.2363 66.33C17.6297 66.59 18.093 66.72 18.6263 66.72C19.0597 66.72 19.4597 66.6433 19.8263 66.49C20.1997 66.3367 20.5463 66.1 20.8663 65.78L21.8863 66.92C21.5063 67.3 21.033 67.6167 20.4663 67.87C19.9063 68.1167 19.2797 68.24 18.5863 68.24ZM15.8063 62.08H21.0463C21.0463 61.5 20.9497 60.9833 20.7563 60.53C20.5697 60.07 20.293 59.71 19.9263 59.45C19.5597 59.19 19.113 59.06 18.5863 59.06C17.8463 59.06 17.2097 59.3 16.6763 59.78C16.1497 60.26 15.8597 61.0267 15.8063 62.08ZM28.2704 68.24C27.1637 68.24 26.2937 67.9333 25.6604 67.32C25.0271 66.7067 24.7104 65.8667 24.7104 64.8C24.7104 64.1133 24.8671 63.5167 25.1804 63.01C25.4937 62.5033 25.9371 62.1133 26.5104 61.84C27.0837 61.56 27.7571 61.42 28.5304 61.42C29.0304 61.42 29.4971 61.4767 29.9304 61.59C30.3704 61.6967 30.7837 61.86 31.1704 62.08V61.36C31.1704 60.5667 30.9904 59.9867 30.6304 59.62C30.2704 59.2467 29.7104 59.06 28.9504 59.06C28.4637 59.06 27.9571 59.15 27.4304 59.33C26.9104 59.51 26.4237 59.76 25.9704 60.08L25.4704 58.62C25.9837 58.28 26.5671 58.0167 27.2204 57.83C27.8804 57.6367 28.5304 57.54 29.1704 57.54C30.3837 57.54 31.2937 57.85 31.9004 58.47C32.5071 59.0833 32.8104 60 32.8104 61.22V68H31.1704V67.06C30.7704 67.44 30.3204 67.7333 29.8204 67.94C29.3204 68.14 28.8037 68.24 28.2704 68.24ZM28.5304 66.72C29.0037 66.72 29.4704 66.6033 29.9304 66.37C30.3971 66.1367 30.8104 65.8067 31.1704 65.38V63.62C30.8304 63.4067 30.4437 63.24 30.0104 63.12C29.5771 63 29.1637 62.94 28.7704 62.94C28.0237 62.94 27.4337 63.11 27.0004 63.45C26.5671 63.7833 26.3504 64.24 26.3504 64.82C26.3504 65.4067 26.5437 65.87 26.9304 66.21C27.3171 66.55 27.8504 66.72 28.5304 66.72ZM36.0916 68V57.78H37.8316V59.12C38.065 58.6 38.385 58.2067 38.7916 57.94C39.205 57.6733 39.6916 57.54 40.2516 57.54C40.8716 57.54 41.3983 57.7133 41.8316 58.06L41.5716 59.7C41.3516 59.5467 41.1216 59.4367 40.8816 59.37C40.6483 59.2967 40.3916 59.26 40.1116 59.26C39.6516 59.26 39.2516 59.3833 38.9116 59.63C38.5716 59.8767 38.305 60.2233 38.1116 60.67C37.925 61.1167 37.8316 61.64 37.8316 62.24V68H36.0916ZM46.998 68.24C46.298 68.24 45.7614 68.03 45.388 67.61C45.0214 67.19 44.838 66.5867 44.838 65.8V59.3H43.178V57.78H44.838V54.4L46.578 53.56V57.78H49.098V59.3H46.578V65.22C46.578 65.7067 46.6614 66.0633 46.828 66.29C47.0014 66.51 47.2714 66.62 47.638 66.62C48.1047 66.62 48.6114 66.44 49.158 66.08L48.958 67.78C48.658 67.94 48.3447 68.0567 48.018 68.13C47.698 68.2033 47.358 68.24 46.998 68.24Z" fill="white"/>
    <g clip-path="url(#clip0_1_14)">
        <path fill-rule="evenodd" clip-rule="evenodd" d="M14.7006 0.818915C10.6002 1.33455 7.20526 4.80122 6.2775 9.41997C5.99722 10.8153 5.93185 12.1077 6.06963 13.5262C6.13829 14.2327 6.38595 15.61 6.54603 16.1748L6.61878 16.4317L11.6585 16.431L16.6982 16.4304L18.0942 12.7641C19.3244 9.53304 19.5171 9.07411 19.7173 8.8981C20.2089 8.46581 20.8729 8.49019 21.3069 8.95645C21.5046 9.16897 21.9044 10.1663 23.9818 15.6295C25.3252 19.1622 26.4387 22.067 26.4564 22.0847C26.474 22.1024 26.9276 20.9636 27.4645 19.5541C28.4918 16.8568 28.5813 16.6859 29.062 16.5043C29.192 16.4553 31.0617 16.4317 34.8197 16.4317H40.3849L40.4576 16.1748C40.6177 15.61 40.8654 14.2327 40.934 13.5262C41.3839 8.89536 39.5065 4.50611 36.1169 2.26385C33.0755 0.251981 29.4539 0.280814 26.3737 2.34151C25.6324 2.83743 25.2788 3.13658 24.343 4.05971L23.5089 4.88244L22.5276 3.92822C21.9878 3.4034 21.2955 2.7949 20.9891 2.57595C19.8891 1.79013 18.5118 1.1782 17.2794 0.927672C16.6204 0.793712 15.3328 0.73947 14.7006 0.818915ZM19.5359 15.5197C19.0282 16.8578 18.5511 18.065 18.4757 18.2023C18.3892 18.3601 18.2264 18.5088 18.0339 18.6061L17.729 18.7602H12.6152C8.94385 18.7602 7.50127 18.7814 7.50127 18.8355C7.50127 18.8769 7.7512 19.4014 8.05671 20.0012C10.2597 24.3263 14.2182 28.4311 19.7068 32.0823C21.3005 33.1424 23.3413 34.3752 23.5026 34.3752C23.6636 34.3752 26.0389 32.938 27.4717 31.9736C31.97 28.946 35.3162 25.7355 37.6555 22.2031C38.3064 21.2202 39.5024 19.0391 39.5024 18.835C39.5024 18.7802 38.2216 18.7641 34.8771 18.7768L30.2518 18.7945L29.6235 20.4381C29.2778 21.3422 28.6615 22.9565 28.2536 24.0256C27.8458 25.0946 27.437 26.0588 27.3451 26.1683C26.8626 26.7426 25.9148 26.7179 25.5241 26.1208C25.4628 26.027 24.3189 23.0766 22.9821 19.5644C21.6453 16.0522 20.5307 13.1579 20.5053 13.1326C20.4798 13.1074 20.0436 14.1816 19.5359 15.5197Z" fill="white"/>
    </g>
    <defs>
        <clipPath id="clip0_1_14">
            <rect width="35" height="35" fill="white" transform="translate(6)"/>
        </clipPath>
    </defs>
</svg>
