<svg width="156" height="123" viewBox="0 0 156 123" fill="none" xmlns="http://www.w3.org/2000/svg">
    <path fill-rule="evenodd" clip-rule="evenodd" d="M154.909 1.36C154.412 0.872926 149.791 0.271282 145.669 0.15697C139.957 -0.00145394 135.138 0.47763 129.184 1.7959C125.657 2.57694 123.322 3.3024 119.669 4.75321C117.011 5.80867 115.727 6.39504 113.029 7.78631C111.892 8.37217 108.573 10.4501 106.919 11.6109C105.196 12.8204 101.673 15.7297 99.5366 17.707C97.4851 19.6062 94.3013 23.1636 92.5978 25.4599C91.1623 27.395 88.4406 31.7088 87.197 34.0206C86.5651 35.1947 86.2885 35.5875 86.0824 35.6026C85.8751 35.6177 85.7903 35.5186 85.7345 35.1965C85.6441 34.674 85.9861 32.1535 86.6655 28.3361C86.9474 26.752 87.3295 24.3675 87.5147 23.0371C87.6998 21.7067 87.9546 20.0151 88.0808 19.2779C88.4769 16.9644 88.4027 16.6635 87.3431 16.2825C86.6879 16.0468 85.5658 16.1993 85.11 16.5858C84.8318 16.8216 84.7603 17.0575 84.5828 18.3235C83.2876 27.5621 81.1635 39.4795 80.3662 41.9811C80.0852 42.8628 80.1868 43.3602 80.7255 43.741C80.9793 43.9202 81.2408 44.2665 81.3298 44.541C81.4616 44.9476 81.5958 45.0672 82.1695 45.2904C83.2992 45.7298 83.76 45.7048 84.5794 45.1601C84.9756 44.8968 86.3051 43.8589 87.534 42.8536C92.3979 38.8751 93.4001 38.1 95.0939 37.0069C97.2716 35.6015 98.7341 34.8099 101.141 33.7336C102.169 33.2737 103.017 32.8185 103.025 32.7218C103.044 32.4904 102.424 32.1101 101.761 31.9475C100.344 31.5995 96.9995 33.0211 92.3169 35.9621C91.3364 36.5779 90.4854 37.0779 90.4261 37.073C90.1333 37.0489 89.9084 36.554 90.008 36.1526C90.2953 34.9942 94.1496 28.5209 95.7928 26.4374C96.0142 26.1567 96.6009 25.41 97.0965 24.778C101.206 19.5387 106.901 14.3826 112.373 10.9467C117.871 7.49452 124.287 4.73431 130.161 3.29444C137.007 1.61634 143.17 1.18479 151.036 1.83271C153.163 2.00791 154.601 2.07214 154.769 1.9995C155.083 1.86311 155.143 1.58928 154.909 1.36Z" fill="#1D2E42"/>
    <path d="M8.14453 110.527C7.83203 110.527 7.5 110.43 7.14844 110.234C6.46484 109.824 6.19141 109.463 6.32812 109.15C6.5625 108.74 6.86523 107.92 7.23633 106.689L8.02734 104.053C8.30078 103.213 8.57422 102.285 8.84766 101.27L1.02539 93.3008C0.888672 93.125 0.820312 92.9688 0.820312 92.832C0.820312 92.6953 0.898438 92.5879 1.05469 92.5098C1.30859 92.3926 1.61133 92.334 1.96289 92.334C2.33398 92.334 2.70508 92.3926 3.07617 92.5098C3.4668 92.627 3.94531 92.9199 4.51172 93.3887C5.625 94.3262 7.45117 96.3086 9.99023 99.3359C11.1426 95.9766 11.9727 93.8184 12.4805 92.8613C12.9883 91.8848 13.3887 91.2598 13.6816 90.9863C13.9941 90.6934 14.2676 90.5371 14.502 90.5176C14.7559 90.498 14.9707 90.5078 15.1465 90.5469C15.3223 90.5859 15.4492 90.7227 15.5273 90.957C14.9219 92.2461 14.3359 93.7109 13.7695 95.3516C13.2227 96.9727 12.6562 98.6523 12.0703 100.391C10.5273 105 9.21875 108.379 8.14453 110.527ZM16.6699 106.104C16.6699 105.791 16.6406 105.361 16.582 104.814C16.543 104.248 16.5039 103.633 16.4648 102.969C16.4258 102.305 16.4062 101.631 16.4062 100.947C16.4062 100.264 16.4648 99.6387 16.582 99.0723C16.8359 97.8027 17.3633 97.168 18.1641 97.168C18.7109 97.3242 19.0723 97.5195 19.248 97.7539C19.4434 97.9883 19.541 98.2812 19.541 98.6328C19.541 98.9648 19.4531 99.3848 19.2773 99.8926C18.6328 101.592 18.3105 103.125 18.3105 104.492C18.3105 104.941 18.3398 105.42 18.3984 105.928C18.7109 107.236 19.7852 107.891 21.6211 107.891C22.5781 107.891 23.4863 107.725 24.3457 107.393C25.9863 106.787 27.0996 106.074 27.6855 105.254C27.8613 104.355 27.9492 103.574 27.9492 102.91C27.9492 102.227 27.9199 101.621 27.8613 101.094C27.8223 100.566 27.7637 99.9902 27.6855 99.3652C27.627 98.7207 27.5879 98.0176 27.5684 97.2559C27.8223 97.1387 28.0664 97.0801 28.3008 97.0801C28.5547 97.0801 28.8086 97.207 29.0625 97.4609C29.3359 97.7148 29.5605 98.1934 29.7363 98.8965C29.9316 99.5996 30.0586 100.43 30.1172 101.387C30.1758 102.324 30.2051 103.301 30.2051 104.316C30.2246 105.332 30.2344 106.318 30.2344 107.275C30.2344 108.213 30.2734 109.023 30.3516 109.707C30.1172 109.922 29.8926 110.029 29.6777 110.029C28.8965 110.029 28.3203 109.248 27.9492 107.686C27.6953 107.9 27.2656 108.164 26.6602 108.477C25.3711 109.18 23.8477 109.648 22.0898 109.883C21.7578 109.922 21.3867 109.941 20.9766 109.941C20.5664 109.941 20.0488 109.863 19.4238 109.707C18.8184 109.551 18.2422 109.189 17.6953 108.623C17.1484 108.057 16.8066 107.217 16.6699 106.104ZM34.4824 109.531C33.6816 109.863 33.1445 110.029 32.8711 110.029C32.6172 110.029 32.4414 110 32.3438 109.941C32.2461 109.883 32.1387 109.746 32.0215 109.531C32.0215 108.887 32.041 108.076 32.0801 107.1C32.1387 106.123 32.1875 105.078 32.2266 103.965C32.2656 102.852 32.2852 101.729 32.2852 100.596C32.2852 99.4629 32.2266 98.4277 32.1094 97.4902C32.1094 96.8652 32.5293 96.5527 33.3691 96.5527C33.5645 96.5527 33.7109 96.9043 33.8086 97.6074C33.9258 98.3105 34.0039 98.8574 34.043 99.248C34.1016 99.6387 34.1504 99.9219 34.1895 100.098C34.6973 99.1797 35.7031 98.457 37.207 97.9297C38.0078 97.6758 38.7598 97.5488 39.4629 97.5488C40.166 97.5488 40.7812 97.6367 41.3086 97.8125C41.8555 97.9688 42.3145 98.2715 42.6855 98.7207C43.0762 99.1504 43.2715 99.7266 43.2715 100.449C43.7793 99.4922 44.9219 98.6328 46.6992 97.8711C48.3203 97.1484 49.7754 96.7871 51.0645 96.7871C52.9199 96.7871 53.8281 97.4902 53.7891 98.8965L54.4043 109.795C54.4043 109.893 54.1211 109.961 53.5547 110C52.4609 110.078 51.9141 109.98 51.9141 109.707C51.8945 109.316 51.8848 108.926 51.8848 108.535L52.0312 103.818C52.0312 101.611 51.8164 99.8633 51.3867 98.5742C50.0977 98.6719 49.1016 98.8867 48.3984 99.2188C47.7148 99.5312 47.1094 99.9316 46.582 100.42C46.0547 100.889 45.5859 101.523 45.1758 102.324C44.2578 104.121 43.7988 106.504 43.7988 109.473C43.6816 109.883 43.3008 110.088 42.6562 110.088C42.2266 110.088 41.875 110.02 41.6016 109.883C41.3281 109.727 41.2207 109.59 41.2793 109.473C41.6504 107.402 41.8359 105.791 41.8359 104.639C41.8359 103.721 41.7383 102.852 41.543 102.031C41.3672 101.191 41.1426 100.234 40.8691 99.1602C38.0566 99.1602 36.1621 100.283 35.1855 102.529C34.7559 103.525 34.5117 104.463 34.4531 105.342C34.4141 106.201 34.3945 106.943 34.3945 107.568C34.3945 108.174 34.4238 108.828 34.4824 109.531ZM57.832 109.531C57.0312 109.863 56.4941 110.029 56.2207 110.029C55.9668 110.029 55.791 110 55.6934 109.941C55.5957 109.883 55.4883 109.746 55.3711 109.531C55.3711 108.887 55.3906 108.076 55.4297 107.1C55.4883 106.123 55.5371 105.078 55.5762 103.965C55.6152 102.852 55.6348 101.729 55.6348 100.596C55.6348 99.4629 55.5762 98.4277 55.459 97.4902C55.459 96.8652 55.8789 96.5527 56.7188 96.5527C56.9141 96.5527 57.0605 96.9043 57.1582 97.6074C57.2754 98.3105 57.3535 98.8574 57.3926 99.248C57.4512 99.6387 57.5 99.9219 57.5391 100.098C58.0469 99.1797 59.0527 98.457 60.5566 97.9297C61.3574 97.6758 62.1094 97.5488 62.8125 97.5488C63.5156 97.5488 64.1309 97.6367 64.6582 97.8125C65.2051 97.9688 65.6641 98.2715 66.0352 98.7207C66.4258 99.1504 66.6211 99.7266 66.6211 100.449C67.1289 99.4922 68.2715 98.6328 70.0488 97.8711C71.6699 97.1484 73.125 96.7871 74.4141 96.7871C76.2695 96.7871 77.1777 97.4902 77.1387 98.8965L77.7539 109.795C77.7539 109.893 77.4707 109.961 76.9043 110C75.8105 110.078 75.2637 109.98 75.2637 109.707C75.2441 109.316 75.2344 108.926 75.2344 108.535L75.3809 103.818C75.3809 101.611 75.166 99.8633 74.7363 98.5742C73.4473 98.6719 72.4512 98.8867 71.748 99.2188C71.0645 99.5312 70.459 99.9316 69.9316 100.42C69.4043 100.889 68.9355 101.523 68.5254 102.324C67.6074 104.121 67.1484 106.504 67.1484 109.473C67.0312 109.883 66.6504 110.088 66.0059 110.088C65.5762 110.088 65.2246 110.02 64.9512 109.883C64.6777 109.727 64.5703 109.59 64.6289 109.473C65 107.402 65.1855 105.791 65.1855 104.639C65.1855 103.721 65.0879 102.852 64.8926 102.031C64.7168 101.191 64.4922 100.234 64.2188 99.1602C61.4062 99.1602 59.5117 100.283 58.5352 102.529C58.1055 103.525 57.8613 104.463 57.8027 105.342C57.7637 106.201 57.7441 106.943 57.7441 107.568C57.7441 108.174 57.7734 108.828 57.832 109.531ZM84.9316 121.045C84.5215 121.963 84.0332 122.422 83.4668 122.422C83.1934 122.422 82.9883 122.295 82.8516 122.041C82.7344 121.807 82.7344 121.523 82.8516 121.191C83.2812 119.375 83.8965 117.305 84.6973 114.98C85.5176 112.656 86.0645 111.094 86.3379 110.293C85.6543 109.609 84.5801 108.242 83.1152 106.191C80.1074 101.973 78.6035 99.6582 78.6035 99.248C78.6035 99.2285 78.6133 99.209 78.6328 99.1895L79.7461 98.0762C81.2891 99.502 83.3008 101.924 85.7812 105.342C86.4062 106.201 86.9043 106.924 87.2754 107.51C87.6855 106.689 88.0078 105.986 88.2422 105.4C88.4766 104.795 88.6621 104.316 88.7988 103.965C88.9551 103.594 89.1602 103.105 89.4141 102.5C90.0781 100.879 90.9961 98.8184 92.168 96.3184C92.3438 96.2402 92.5293 96.2012 92.7246 96.2012C93.2129 96.2012 93.5645 96.3281 93.7793 96.582C93.8574 96.6797 93.8965 96.7969 93.8965 96.9336C93.8965 97.0508 93.877 97.168 93.8379 97.2852L84.9316 121.045ZM96.2695 108.037C97.0898 108.037 97.5879 108.115 97.7637 108.271C97.959 108.428 98.0566 108.594 98.0566 108.77C97.8418 109.551 97.373 110.02 96.6504 110.176C96.5332 110.195 96.4062 110.205 96.2695 110.205C96.1328 110.205 95.957 110.166 95.7422 110.088C95.5469 110.01 95.4004 109.873 95.3027 109.678C95.0879 109.189 95.4102 108.643 96.2695 108.037ZM97.6465 83.6035C97.5293 84.1113 97.4707 87.2852 97.4707 93.125C97.4707 98.9453 97.3242 102.295 97.0312 103.174H95.0684C95.0684 101.162 95.1465 98.6426 95.3027 95.6152C95.5762 89.7363 95.7129 85.7715 95.7129 83.7207L97.6465 83.6035Z" fill="#1D2E42"/>
</svg>
