<svg width="217" height="96" viewBox="0 0 217 96" fill="none" xmlns="http://www.w3.org/2000/svg">
<path d="M11.1006 67.2158C11.1006 66.9704 11.1641 66.6361 11.291 66.2129C11.4264 65.7812 11.5957 65.3242 11.7988 64.8418C12.002 64.3509 12.222 63.86 12.459 63.3691C12.696 62.8783 12.9202 62.4508 13.1318 62.0869C13.2757 61.8499 13.4027 61.6299 13.5127 61.4268C13.6227 61.2236 13.6777 61.0628 13.6777 60.9443C13.6777 60.8005 13.6396 60.6396 13.5635 60.4619C13.4958 60.2842 13.4281 60.1403 13.3604 60.0303C13.2334 59.8187 13.0133 59.5013 12.7002 59.0781C12.3955 58.6549 12.0443 58.1725 11.6465 57.6309C11.2572 57.0892 10.8509 56.5179 10.4277 55.917C10.0046 55.3076 9.61523 54.7194 9.25977 54.1523C8.91276 53.5853 8.625 53.0648 8.39648 52.5908C8.17643 52.1084 8.06641 51.7233 8.06641 51.4355C8.06641 51.3086 8.0918 51.1901 8.14258 51.0801C8.20182 50.9616 8.27376 50.86 8.3584 50.7754C8.4515 50.6823 8.55729 50.6104 8.67578 50.5596C8.79427 50.5088 8.91276 50.4834 9.03125 50.4834C9.26823 50.4834 9.45443 50.5215 9.58984 50.5977C9.72526 50.6654 9.86491 50.8177 10.0088 51.0547C10.1019 51.2155 10.2712 51.4863 10.5166 51.8672C10.762 52.2396 11.0456 52.6712 11.3672 53.1621C11.6888 53.6445 12.0316 54.1608 12.3955 54.7109C12.7679 55.2611 13.1276 55.79 13.4746 56.2979C13.8301 56.7972 14.1517 57.25 14.4395 57.6562C14.7357 58.054 14.9727 58.3503 15.1504 58.5449C15.1927 58.4857 15.2435 58.4137 15.3027 58.3291C15.3704 58.236 15.4339 58.1429 15.4932 58.0498C15.5524 57.9567 15.6074 57.8721 15.6582 57.7959C15.709 57.7197 15.7471 57.6605 15.7725 57.6182C16.0856 57.0765 16.4242 56.4756 16.7881 55.8154C17.152 55.1553 17.5202 54.5036 17.8926 53.8604C18.265 53.2087 18.6289 52.5993 18.9844 52.0322C19.3398 51.4652 19.6657 50.9997 19.9619 50.6357C20.1058 50.458 20.237 50.2972 20.3555 50.1533C20.4824 50.0094 20.6051 49.8867 20.7236 49.7852C20.8506 49.6836 20.9818 49.6074 21.1172 49.5566C21.2526 49.4974 21.4049 49.4678 21.5742 49.4678C21.8197 49.4678 22.0228 49.5566 22.1836 49.7344C22.3444 49.9036 22.4248 50.1068 22.4248 50.3437C22.4248 50.3861 22.4121 50.4368 22.3867 50.4961C22.3698 50.5469 22.319 50.6527 22.2344 50.8135C22.1497 50.9743 22.0228 51.2028 21.8535 51.499C21.6927 51.7868 21.4684 52.1846 21.1807 52.6924C20.7913 53.3525 20.3724 54.0719 19.9238 54.8506C19.4837 55.6208 19.0309 56.4248 18.5654 57.2627C18.0999 58.1006 17.6344 58.9596 17.1689 59.8398C16.7035 60.7116 16.2549 61.5791 15.8232 62.4424C15.3916 63.3057 14.9854 64.1562 14.6045 64.9941C14.2236 65.8236 13.8893 66.6107 13.6016 67.3555C13.5762 67.4232 13.5339 67.5163 13.4746 67.6348C13.4154 67.7533 13.3434 67.8675 13.2588 67.9775C13.1742 68.096 13.0768 68.1976 12.9668 68.2822C12.8568 68.3669 12.7425 68.4092 12.624 68.4092C12.5309 68.4092 12.3997 68.3753 12.2305 68.3076C12.0612 68.2399 11.8919 68.1468 11.7227 68.0283C11.5534 67.9183 11.4053 67.7913 11.2783 67.6475C11.1598 67.5036 11.1006 67.3597 11.1006 67.2158ZM29.9277 67.3936C29.166 67.3936 28.4974 67.2539 27.9219 66.9746C27.3464 66.6868 26.8512 66.306 26.4365 65.832C26.0218 65.3496 25.679 64.791 25.4082 64.1562C25.1374 63.5215 24.9215 62.8529 24.7607 62.1504C24.5999 61.4479 24.4857 60.7327 24.418 60.0049C24.3587 59.277 24.3291 58.5788 24.3291 57.9102C24.3291 57.4193 24.346 56.8776 24.3799 56.2852C24.4137 55.6842 24.4603 55.0791 24.5195 54.4697C24.5788 53.8604 24.6465 53.2637 24.7227 52.6797C24.8073 52.0957 24.9004 51.571 25.002 51.1055C25.0527 50.8685 25.1924 50.6527 25.4209 50.458C25.6494 50.2633 25.9329 50.166 26.2715 50.166C26.4746 50.166 26.6396 50.1956 26.7666 50.2549C26.8936 50.3141 26.9951 50.3945 27.0713 50.4961C27.1475 50.5977 27.1982 50.7161 27.2236 50.8516C27.2575 50.9785 27.2744 51.1182 27.2744 51.2705C27.2744 51.3636 27.2702 51.4652 27.2617 51.5752C27.2533 51.6852 27.2406 51.791 27.2236 51.8926C27.1559 52.2734 27.0882 52.6966 27.0205 53.1621C26.9613 53.6191 26.9063 54.0889 26.8555 54.5713C26.8047 55.0452 26.7624 55.515 26.7285 55.9805C26.7031 56.4375 26.6904 56.8564 26.6904 57.2373C26.6904 57.7874 26.7031 58.3672 26.7285 58.9766C26.7624 59.5859 26.8216 60.1911 26.9063 60.792C26.9993 61.3844 27.1263 61.9515 27.2871 62.4932C27.4479 63.0348 27.6637 63.513 27.9346 63.9277C28.2054 64.3424 28.5355 64.6725 28.9248 64.918C29.3226 65.1634 29.7923 65.2861 30.334 65.2861C30.9772 65.2861 31.5654 65.2015 32.0986 65.0322C32.6403 64.863 33.1058 64.6175 33.4951 64.2959C33.8844 63.9658 34.1891 63.568 34.4092 63.1025C34.6377 62.637 34.7646 62.1081 34.79 61.5156L35.0947 54.5078C35.137 53.6191 35.209 52.8701 35.3105 52.2607C35.4121 51.6429 35.5433 51.1478 35.7041 50.7754C35.8649 50.403 36.0553 50.1364 36.2754 49.9756C36.4954 49.8063 36.7409 49.7217 37.0117 49.7217C37.291 49.7217 37.5153 49.874 37.6846 50.1787C37.8538 50.4749 37.9385 50.8389 37.9385 51.2705C37.9385 51.3721 37.9004 51.6344 37.8242 52.0576C37.748 52.4808 37.6592 53.0225 37.5576 53.6826C37.4645 54.3343 37.3799 55.0791 37.3037 55.917C37.2275 56.7464 37.1895 57.6182 37.1895 58.5322C37.1895 58.9977 37.1937 59.4844 37.2021 59.9922C37.2106 60.5 37.2191 61.0163 37.2275 61.541C37.2445 62.0573 37.2572 62.5778 37.2656 63.1025C37.2826 63.6273 37.291 64.1351 37.291 64.626C37.291 64.8799 37.2445 65.0999 37.1514 65.2861C37.0583 65.4723 36.9398 65.6289 36.7959 65.7559C36.652 65.8828 36.487 65.9801 36.3008 66.0479C36.123 66.1071 35.9411 66.1367 35.7549 66.1367C35.6618 66.1367 35.5771 66.1029 35.501 66.0352C35.4248 65.959 35.3529 65.8743 35.2852 65.7812C35.2259 65.6797 35.1709 65.5781 35.1201 65.4766C35.0778 65.375 35.0397 65.2904 35.0059 65.2227C34.7012 65.5358 34.3753 65.8236 34.0283 66.0859C33.6813 66.3483 33.3005 66.5768 32.8857 66.7715C32.471 66.9661 32.0182 67.1185 31.5273 67.2285C31.0449 67.3385 30.5117 67.3936 29.9277 67.3936ZM42.2168 64.7529C42.2168 64.5583 42.238 64.3594 42.2803 64.1562C42.3226 63.9531 42.3438 63.7585 42.3438 63.5723C42.3438 61.7187 42.3522 60.1572 42.3691 58.8877C42.3861 57.6097 42.403 56.5475 42.4199 55.7012C42.4453 54.8548 42.4665 54.182 42.4834 53.6826C42.5003 53.1748 42.5088 52.7643 42.5088 52.4512C42.5088 52.0703 42.5426 51.7064 42.6104 51.3594C42.6865 51.0124 42.7881 50.7077 42.915 50.4453C43.042 50.1745 43.1943 49.9629 43.3721 49.8105C43.5498 49.6497 43.7487 49.5693 43.9688 49.5693C44.1549 49.5693 44.3158 49.6159 44.4512 49.709C44.5866 49.7936 44.7008 49.9036 44.7939 50.0391C44.887 50.1745 44.9548 50.3268 44.9971 50.4961C45.0479 50.6654 45.0732 50.8304 45.0732 50.9912L45.0732 51.0547C45.1071 51.1647 45.1367 51.3001 45.1621 51.4609C45.1875 51.6302 45.2637 51.8799 45.3906 52.21C45.526 52.5316 45.6911 52.8955 45.8857 53.3018C46.0804 53.708 46.292 54.1354 46.5205 54.584C46.7575 55.0326 46.986 55.4684 47.2061 55.8916C47.4261 56.3148 47.6292 56.7041 47.8154 57.0596C48.0101 57.415 48.1624 57.7028 48.2725 57.9229C48.3402 58.0667 48.4248 58.2487 48.5264 58.4687C48.6364 58.6803 48.7507 58.9046 48.8691 59.1416C48.9876 59.3786 49.1061 59.6156 49.2246 59.8525C49.3516 60.0895 49.4658 60.3011 49.5674 60.4873C49.6689 60.6735 49.7536 60.8258 49.8213 60.9443C49.8975 61.0628 49.9482 61.1221 49.9736 61.1221C50.0583 61.1221 50.1556 61.084 50.2656 61.0078C50.3757 60.9232 50.4814 60.8258 50.583 60.7158C50.693 60.6058 50.7861 60.5 50.8623 60.3984C50.9469 60.2969 51.0062 60.2207 51.04 60.1699C51.1077 60.0599 51.1882 59.9372 51.2813 59.8018C51.3743 59.6579 51.4844 59.4844 51.6113 59.2812C51.7467 59.0697 51.9033 58.82 52.0811 58.5322C52.2588 58.236 52.4746 57.8763 52.7285 57.4531C52.9909 57.013 53.2829 56.5433 53.6045 56.0439C53.9346 55.5446 54.2646 55.041 54.5947 54.5332C54.9248 54.0169 55.238 53.5091 55.5342 53.0098C55.8389 52.5104 56.0928 52.0449 56.2959 51.6133C56.3636 51.4609 56.4313 51.2959 56.499 51.1182C56.5667 50.9404 56.6471 50.7669 56.7402 50.5977C56.791 50.4538 56.846 50.3184 56.9053 50.1914C56.973 50.056 57.0492 49.9417 57.1338 49.8486C57.2269 49.7471 57.3285 49.6667 57.4385 49.6074C57.557 49.5482 57.6966 49.5186 57.8574 49.5186C58.2891 49.5186 58.6276 49.6455 58.873 49.8994C59.127 50.1449 59.2539 50.4834 59.2539 50.915C59.2539 53.4626 59.2116 56.0482 59.127 58.6719C59.0508 61.2956 59.0127 63.9447 59.0127 66.6191C59.0127 66.7884 58.9704 66.9238 58.8857 67.0254C58.8096 67.1354 58.7165 67.2201 58.6064 67.2793C58.5049 67.3385 58.4033 67.3809 58.3018 67.4062C58.2002 67.4316 58.124 67.4443 58.0732 67.4443C58.0479 67.4443 57.9421 67.4232 57.7559 67.3809C57.5781 67.347 57.3792 67.2793 57.1592 67.1777C56.9476 67.0762 56.7529 66.9365 56.5752 66.7588C56.4059 66.5726 56.3213 66.3314 56.3213 66.0352C56.3213 65.832 56.3467 65.6247 56.3975 65.4131C56.4482 65.193 56.5033 64.9772 56.5625 64.7656C56.6302 64.554 56.6937 64.3467 56.7529 64.1436C56.8122 63.932 56.8503 63.7246 56.8672 63.5215L56.8672 57.123C56.8672 56.8099 56.863 56.484 56.8545 56.1455C56.8545 55.7985 56.846 55.4515 56.8291 55.1045C56.499 55.5361 56.1774 56.0101 55.8643 56.5264C55.5596 57.0342 55.2507 57.5589 54.9375 58.1006C54.6328 58.6423 54.3281 59.1839 54.0234 59.7256C53.7188 60.2673 53.4098 60.7878 53.0967 61.2871C52.7835 61.778 52.4577 62.235 52.1191 62.6582C51.7891 63.0729 51.4463 63.4284 51.0908 63.7246C51.0485 63.7585 51.002 63.8008 50.9512 63.8516C50.9089 63.8939 50.8454 63.9362 50.7607 63.9785C50.6761 64.0208 50.5661 64.0589 50.4307 64.0928C50.2952 64.1182 50.1175 64.1309 49.8975 64.1309C49.7113 64.1309 49.5039 64.0378 49.2754 63.8516C49.0553 63.6654 48.8268 63.4242 48.5898 63.1279C48.3529 62.8317 48.1159 62.5016 47.8789 62.1377C47.6419 61.7738 47.4219 61.4183 47.2188 61.0713C47.0156 60.7158 46.8337 60.39 46.6729 60.0937C46.512 59.7891 46.3893 59.5479 46.3047 59.3701L44.6416 55.9678C44.6247 56.391 44.612 56.8776 44.6035 57.4277C44.5951 57.9694 44.5908 58.5872 44.5908 59.2812L44.5908 63.8643C44.6162 64.0335 44.6628 64.224 44.7305 64.4355C44.7982 64.6471 44.832 64.8503 44.832 65.0449C44.832 65.6035 44.7559 66.0563 44.6035 66.4033C44.4596 66.7419 44.1973 66.9111 43.8164 66.9111C43.4355 66.9111 43.1351 66.8561 42.915 66.7461C42.7035 66.6361 42.5469 66.4837 42.4453 66.2891C42.3438 66.0944 42.2803 65.8659 42.2549 65.6035C42.2295 65.3411 42.2168 65.0576 42.2168 64.7529ZM63.748 64.7529C63.748 64.5583 63.7692 64.3594 63.8115 64.1562C63.8538 63.9531 63.875 63.7585 63.875 63.5723C63.875 61.7187 63.8835 60.1572 63.9004 58.8877C63.9173 57.6097 63.9342 56.5475 63.9512 55.7012C63.9766 54.8548 63.9977 54.182 64.0146 53.6826C64.0316 53.1748 64.04 52.7643 64.04 52.4512C64.04 52.0703 64.0739 51.7064 64.1416 51.3594C64.2178 51.0124 64.3193 50.7077 64.4463 50.4453C64.5732 50.1745 64.7256 49.9629 64.9033 49.8105C65.0811 49.6497 65.2799 49.5693 65.5 49.5693C65.6862 49.5693 65.847 49.6159 65.9824 49.709C66.1178 49.7936 66.2321 49.9036 66.3252 50.0391C66.4183 50.1745 66.486 50.3268 66.5283 50.4961C66.5791 50.6654 66.6045 50.8304 66.6045 50.9912L66.6045 51.0547C66.6383 51.1647 66.668 51.3001 66.6934 51.4609C66.7188 51.6302 66.7949 51.8799 66.9219 52.21C67.0573 52.5316 67.2223 52.8955 67.417 53.3018C67.6117 53.708 67.8232 54.1354 68.0518 54.584C68.2887 55.0326 68.5173 55.4684 68.7373 55.8916C68.9574 56.3148 69.1605 56.7041 69.3467 57.0596C69.5413 57.415 69.6937 57.7028 69.8037 57.9229C69.8714 58.0667 69.9561 58.2487 70.0576 58.4687C70.1676 58.6803 70.2819 58.9046 70.4004 59.1416C70.5189 59.3786 70.6374 59.6156 70.7559 59.8525C70.8828 60.0895 70.9971 60.3011 71.0986 60.4873C71.2002 60.6735 71.2848 60.8258 71.3525 60.9443C71.4287 61.0628 71.4795 61.1221 71.5049 61.1221C71.5895 61.1221 71.6868 61.084 71.7969 61.0078C71.9069 60.9232 72.0127 60.8258 72.1143 60.7158C72.2243 60.6058 72.3174 60.5 72.3936 60.3984C72.4782 60.2969 72.5374 60.2207 72.5713 60.1699C72.639 60.0599 72.7194 59.9372 72.8125 59.8018C72.9056 59.6579 73.0156 59.4844 73.1426 59.2812C73.278 59.0697 73.4346 58.82 73.6123 58.5322C73.79 58.236 74.0059 57.8763 74.2598 57.4531C74.5221 57.013 74.8141 56.5433 75.1357 56.0439C75.4658 55.5446 75.7959 55.041 76.126 54.5332C76.4561 54.0169 76.7692 53.5091 77.0654 53.0098C77.3701 52.5104 77.624 52.0449 77.8271 51.6133C77.8949 51.4609 77.9626 51.2959 78.0303 51.1182C78.098 50.9404 78.1784 50.7669 78.2715 50.5977C78.3223 50.4538 78.3773 50.3184 78.4365 50.1914C78.5042 50.056 78.5804 49.9417 78.665 49.8486C78.7581 49.7471 78.8597 49.6667 78.9697 49.6074C79.0882 49.5482 79.2279 49.5186 79.3887 49.5186C79.8203 49.5186 80.1589 49.6455 80.4043 49.8994C80.6582 50.1449 80.7852 50.4834 80.7852 50.915C80.7852 53.4626 80.7428 56.0482 80.6582 58.6719C80.582 61.2956 80.5439 63.9447 80.5439 66.6191C80.5439 66.7884 80.5016 66.9238 80.417 67.0254C80.3408 67.1354 80.2477 67.2201 80.1377 67.2793C80.0361 67.3385 79.9346 67.3809 79.833 67.4062C79.7314 67.4316 79.6553 67.4443 79.6045 67.4443C79.5791 67.4443 79.4733 67.4232 79.2871 67.3809C79.1094 67.347 78.9105 67.2793 78.6904 67.1777C78.4788 67.0762 78.2842 66.9365 78.1064 66.7588C77.9372 66.5726 77.8525 66.3314 77.8525 66.0352C77.8525 65.832 77.8779 65.6247 77.9287 65.4131C77.9795 65.193 78.0345 64.9772 78.0938 64.7656C78.1615 64.554 78.2249 64.3467 78.2842 64.1436C78.3434 63.932 78.3815 63.7246 78.3984 63.5215L78.3984 57.123C78.3984 56.8099 78.3942 56.484 78.3857 56.1455C78.3857 55.7985 78.3773 55.4515 78.3604 55.1045C78.0303 55.5361 77.7087 56.0101 77.3955 56.5264C77.0908 57.0342 76.7819 57.5589 76.4688 58.1006C76.1641 58.6423 75.8594 59.1839 75.5547 59.7256C75.25 60.2673 74.9411 60.7878 74.6279 61.2871C74.3148 61.778 73.9889 62.235 73.6504 62.6582C73.3203 63.0729 72.9775 63.4284 72.6221 63.7246C72.5798 63.7585 72.5332 63.8008 72.4824 63.8516C72.4401 63.8939 72.3766 63.9362 72.292 63.9785C72.2074 64.0208 72.0973 64.0589 71.9619 64.0928C71.8265 64.1182 71.6488 64.1309 71.4287 64.1309C71.2425 64.1309 71.0352 64.0378 70.8066 63.8516C70.5866 63.6654 70.3581 63.4242 70.1211 63.1279C69.8841 62.8317 69.6471 62.5016 69.4102 62.1377C69.1732 61.7738 68.9531 61.4183 68.75 61.0713C68.5469 60.7158 68.3649 60.39 68.2041 60.0937C68.0433 59.7891 67.9206 59.5479 67.8359 59.3701L66.1729 55.9678C66.1559 56.391 66.1432 56.8776 66.1348 57.4277C66.1263 57.9694 66.1221 58.5872 66.1221 59.2812L66.1221 63.8643C66.1475 64.0335 66.194 64.224 66.2617 64.4355C66.3294 64.6471 66.3633 64.8503 66.3633 65.0449C66.3633 65.6035 66.2871 66.0563 66.1348 66.4033C65.9909 66.7419 65.7285 66.9111 65.3477 66.9111C64.9668 66.9111 64.6663 66.8561 64.4463 66.7461C64.2347 66.6361 64.0781 66.4837 63.9766 66.2891C63.875 66.0944 63.8115 65.8659 63.7861 65.6035C63.7607 65.3411 63.748 65.0576 63.748 64.7529ZM86.6631 67.2158C86.6631 66.9704 86.7266 66.6361 86.8535 66.2129C86.9889 65.7812 87.1582 65.3242 87.3613 64.8418C87.5645 64.3509 87.7845 63.86 88.0215 63.3691C88.2585 62.8783 88.4827 62.4508 88.6943 62.0869C88.8382 61.8499 88.9652 61.6299 89.0752 61.4268C89.1852 61.2236 89.2402 61.0628 89.2402 60.9443C89.2402 60.8005 89.2021 60.6396 89.126 60.4619C89.0583 60.2842 88.9906 60.1403 88.9229 60.0303C88.7959 59.8187 88.5758 59.5013 88.2627 59.0781C87.958 58.6549 87.6068 58.1725 87.209 57.6309C86.8197 57.0892 86.4134 56.5179 85.9902 55.917C85.5671 55.3076 85.1777 54.7194 84.8223 54.1523C84.4753 53.5853 84.1875 53.0648 83.959 52.5908C83.7389 52.1084 83.6289 51.7233 83.6289 51.4355C83.6289 51.3086 83.6543 51.1901 83.7051 51.0801C83.7643 50.9616 83.8363 50.86 83.9209 50.7754C84.014 50.6823 84.1198 50.6104 84.2383 50.5596C84.3568 50.5088 84.4753 50.4834 84.5938 50.4834C84.8307 50.4834 85.0169 50.5215 85.1523 50.5977C85.2878 50.6654 85.4274 50.8177 85.5713 51.0547C85.6644 51.2155 85.8337 51.4863 86.0791 51.8672C86.3245 52.2396 86.6081 52.6712 86.9297 53.1621C87.2513 53.6445 87.5941 54.1608 87.958 54.7109C88.3304 55.2611 88.6901 55.79 89.0371 56.2979C89.3926 56.7972 89.7142 57.25 90.002 57.6562C90.2982 58.054 90.5352 58.3503 90.7129 58.5449C90.7552 58.4857 90.806 58.4137 90.8652 58.3291C90.9329 58.236 90.9964 58.1429 91.0557 58.0498C91.1149 57.9567 91.1699 57.8721 91.2207 57.7959C91.2715 57.7197 91.3096 57.6605 91.335 57.6182C91.6481 57.0765 91.9867 56.4756 92.3506 55.8154C92.7145 55.1553 93.0827 54.5036 93.4551 53.8604C93.8275 53.2087 94.1914 52.5993 94.5469 52.0322C94.9023 51.4652 95.2282 50.9997 95.5244 50.6357C95.6683 50.458 95.7995 50.2972 95.918 50.1533C96.0449 50.0094 96.1676 49.8867 96.2861 49.7852C96.4131 49.6836 96.5443 49.6074 96.6797 49.5566C96.8151 49.4974 96.9674 49.4678 97.1367 49.4678C97.3822 49.4678 97.5853 49.5566 97.7461 49.7344C97.9069 49.9036 97.9873 50.1068 97.9873 50.3437C97.9873 50.3861 97.9746 50.4368 97.9492 50.4961C97.9323 50.5469 97.8815 50.6527 97.7969 50.8135C97.7122 50.9743 97.5853 51.2028 97.416 51.499C97.2552 51.7868 97.0309 52.1846 96.7432 52.6924C96.3538 53.3525 95.9349 54.0719 95.4863 54.8506C95.0462 55.6208 94.5934 56.4248 94.1279 57.2627C93.6624 58.1006 93.1969 58.9596 92.7314 59.8398C92.266 60.7116 91.8174 61.5791 91.3857 62.4424C90.9541 63.3057 90.5479 64.1562 90.167 64.9941C89.7861 65.8236 89.4518 66.6107 89.1641 67.3555C89.1387 67.4232 89.0964 67.5163 89.0371 67.6348C88.9779 67.7533 88.9059 67.8675 88.8213 67.9775C88.7367 68.096 88.6393 68.1976 88.5293 68.2822C88.4193 68.3669 88.305 68.4092 88.1865 68.4092C88.0934 68.4092 87.9622 68.3753 87.793 68.3076C87.6237 68.2399 87.4544 68.1468 87.2852 68.0283C87.1159 67.9183 86.9678 67.7913 86.8408 67.6475C86.7223 67.5036 86.6631 67.3597 86.6631 67.2158Z" fill="white"/>
<g clip-path="url(#clip0_5714_31)">
<path fill-rule="evenodd" clip-rule="evenodd" d="M205.258 63.7998C204.964 62.9574 203.176 60.2278 201.681 58.3369C197.031 52.4563 192.021 48.1805 185.243 44.306C182.911 42.9731 175.085 39.7007 172.041 38.7855C161.632 35.6565 151.218 34.6289 139.248 35.55C136.426 35.7671 133.326 36.2447 129.635 37.0308C127.495 37.4867 125.652 37.8231 125.539 37.7782C125.15 37.6234 125.178 37.1154 125.616 36.4125C126.028 35.7506 128.052 32.6913 128.69 31.7662C129.004 31.3112 129.027 31.2021 128.886 30.848C128.764 30.539 128.648 30.4591 128.385 30.5022C128.111 30.5473 127.673 31.0835 126.177 33.2067C125.151 34.6633 123.651 36.7443 122.846 37.8308C121.616 39.4892 121.394 39.8525 121.465 40.0922C121.516 40.2655 122.397 40.8727 123.705 41.6377C124.891 42.3305 126.47 43.3061 127.214 43.8054C128.923 44.9527 129.306 45.1108 129.608 44.7945C129.94 44.4474 129.893 43.9753 129.488 43.5752C129.301 43.3911 128.431 42.736 127.554 42.1195C125.613 40.7547 125.591 40.7345 125.587 40.2723C125.58 39.6814 125.971 39.405 127.356 39.02C132.979 37.4583 141.194 36.5542 148.577 36.685C165.472 36.9843 180.612 41.7743 191.571 50.2877C195.886 53.6399 199.413 57.4321 202.717 62.2741C203.597 63.5645 204.451 64.673 204.613 64.7372C204.778 64.8028 205.023 64.7331 205.17 64.5787C205.387 64.3525 205.402 64.2137 205.258 63.7998Z" fill="white"/>
</g>
<defs>
<clipPath id="clip0_5714_31">
<rect width="87" height="57" fill="white" transform="translate(185 96) rotate(-146)"/>
</clipPath>
</defs>
</svg>
