<svg width="72" height="108" viewBox="0 0 72 108" fill="none" xmlns="http://www.w3.org/2000/svg">
    <path d="M5.97266 20.3867C5.74349 20.3867 5.5 20.3151 5.24219 20.1719C4.74089 19.8711 4.54036 19.6061 4.64062 19.377C4.8125 19.0762 5.03451 18.4746 5.30664 17.5723L5.88672 15.6387C6.08724 15.0228 6.28776 14.3424 6.48828 13.5977L0.751953 7.75391C0.651693 7.625 0.601562 7.51042 0.601562 7.41016C0.601562 7.3099 0.658854 7.23112 0.773438 7.17383C0.959635 7.08789 1.18164 7.04492 1.43945 7.04492C1.71159 7.04492 1.98372 7.08789 2.25586 7.17383C2.54232 7.25977 2.89323 7.47461 3.30859 7.81836C4.125 8.50586 5.46419 9.95964 7.32617 12.1797C8.17122 9.71615 8.77995 8.13346 9.15234 7.43164C9.52474 6.71549 9.81836 6.25716 10.0332 6.05664C10.2624 5.8418 10.4629 5.72721 10.6348 5.71289C10.821 5.69857 10.9785 5.70573 11.1074 5.73438C11.2363 5.76302 11.3294 5.86328 11.3867 6.03516C10.9427 6.98047 10.513 8.05469 10.0977 9.25781C9.69661 10.4466 9.28125 11.6784 8.85156 12.9531C7.72005 16.3333 6.76042 18.8112 5.97266 20.3867ZM12.2246 17.1426C12.2246 16.9134 12.2031 16.5983 12.1602 16.1973C12.1315 15.7819 12.1029 15.3307 12.0742 14.8438C12.0456 14.3568 12.0312 13.8626 12.0312 13.3613C12.0312 12.86 12.0742 12.4017 12.1602 11.9863C12.3464 11.0553 12.7331 10.5898 13.3203 10.5898C13.7214 10.7044 13.9863 10.8477 14.1152 11.0195C14.2585 11.1914 14.3301 11.4062 14.3301 11.6641C14.3301 11.9076 14.2656 12.2155 14.1367 12.5879C13.6641 13.834 13.4277 14.9583 13.4277 15.9609C13.4277 16.2904 13.4492 16.6413 13.4922 17.0137C13.7214 17.9733 14.5091 18.4531 15.8555 18.4531C16.5573 18.4531 17.2233 18.3314 17.8535 18.0879C19.0566 17.6439 19.873 17.1211 20.3027 16.5195C20.4316 15.8607 20.4961 15.2878 20.4961 14.8008C20.4961 14.2995 20.4746 13.8555 20.4316 13.4688C20.403 13.082 20.36 12.6595 20.3027 12.2012C20.2598 11.7285 20.2311 11.2129 20.2168 10.6543C20.403 10.5684 20.582 10.5254 20.7539 10.5254C20.9401 10.5254 21.1263 10.6185 21.3125 10.8047C21.513 10.9909 21.6777 11.3418 21.8066 11.8574C21.9499 12.373 22.043 12.9818 22.0859 13.6836C22.1289 14.3711 22.1504 15.0872 22.1504 15.832C22.1647 16.5768 22.1719 17.3001 22.1719 18.002C22.1719 18.6895 22.2005 19.2839 22.2578 19.7852C22.0859 19.9427 21.9212 20.0215 21.7637 20.0215C21.1908 20.0215 20.7682 19.4486 20.4961 18.3027C20.3099 18.4603 19.9948 18.6536 19.5508 18.8828C18.6055 19.3984 17.4883 19.7422 16.1992 19.9141C15.9557 19.9427 15.6836 19.957 15.3828 19.957C15.082 19.957 14.7025 19.8997 14.2441 19.7852C13.8001 19.6706 13.3776 19.4056 12.9766 18.9902C12.5755 18.5749 12.3249 17.959 12.2246 17.1426ZM25.2871 19.6562C24.6999 19.8997 24.306 20.0215 24.1055 20.0215C23.9193 20.0215 23.7904 20 23.7188 19.957C23.6471 19.9141 23.5684 19.8138 23.4824 19.6562C23.4824 19.1836 23.4967 18.5892 23.5254 17.873C23.5684 17.1569 23.6042 16.3906 23.6328 15.5742C23.6615 14.7578 23.6758 13.9342 23.6758 13.1035C23.6758 12.2728 23.6328 11.5137 23.5469 10.8262C23.5469 10.3678 23.8548 10.1387 24.4707 10.1387C24.6139 10.1387 24.7214 10.3965 24.793 10.9121C24.8789 11.4277 24.9362 11.8288 24.9648 12.1152C25.0078 12.4017 25.0436 12.6094 25.0723 12.7383C25.4447 12.0651 26.1823 11.5352 27.2852 11.1484C27.8724 10.9622 28.4238 10.8691 28.9395 10.8691C29.4551 10.8691 29.9062 10.9336 30.293 11.0625C30.694 11.1771 31.0306 11.3991 31.3027 11.7285C31.5892 12.0436 31.7324 12.4661 31.7324 12.9961C32.1048 12.2943 32.9427 11.6641 34.2461 11.1055C35.4349 10.5755 36.502 10.3105 37.4473 10.3105C38.8079 10.3105 39.474 10.8262 39.4453 11.8574L39.8965 19.8496C39.8965 19.9212 39.6888 19.9714 39.2734 20C38.4714 20.0573 38.0703 19.9857 38.0703 19.7852C38.056 19.4987 38.0488 19.2122 38.0488 18.9258L38.1562 15.4668C38.1562 13.8483 37.9987 12.5664 37.6836 11.6211C36.7383 11.6927 36.0078 11.8503 35.4922 12.0938C34.9909 12.3229 34.5469 12.6165 34.1602 12.9746C33.7734 13.3184 33.4297 13.7839 33.1289 14.3711C32.4557 15.6888 32.1191 17.4362 32.1191 19.6133C32.0332 19.9141 31.7539 20.0645 31.2812 20.0645C30.9661 20.0645 30.7083 20.0143 30.5078 19.9141C30.3073 19.7995 30.2285 19.6992 30.2715 19.6133C30.5436 18.0951 30.6797 16.9134 30.6797 16.0684C30.6797 15.3952 30.6081 14.7578 30.4648 14.1562C30.3359 13.5404 30.1712 12.8385 29.9707 12.0508C27.9082 12.0508 26.5189 12.8743 25.8027 14.5215C25.4876 15.252 25.3086 15.9395 25.2656 16.584C25.237 17.2142 25.2227 17.7585 25.2227 18.2168C25.2227 18.6608 25.2441 19.1406 25.2871 19.6562ZM42.4102 19.6562C41.8229 19.8997 41.429 20.0215 41.2285 20.0215C41.0423 20.0215 40.9134 20 40.8418 19.957C40.7702 19.9141 40.6914 19.8138 40.6055 19.6562C40.6055 19.1836 40.6198 18.5892 40.6484 17.873C40.6914 17.1569 40.7272 16.3906 40.7559 15.5742C40.7845 14.7578 40.7988 13.9342 40.7988 13.1035C40.7988 12.2728 40.7559 11.5137 40.6699 10.8262C40.6699 10.3678 40.9779 10.1387 41.5938 10.1387C41.737 10.1387 41.8444 10.3965 41.916 10.9121C42.002 11.4277 42.0592 11.8288 42.0879 12.1152C42.1309 12.4017 42.1667 12.6094 42.1953 12.7383C42.5677 12.0651 43.3053 11.5352 44.4082 11.1484C44.9954 10.9622 45.5469 10.8691 46.0625 10.8691C46.5781 10.8691 47.0293 10.9336 47.416 11.0625C47.8171 11.1771 48.1536 11.3991 48.4258 11.7285C48.7122 12.0436 48.8555 12.4661 48.8555 12.9961C49.2279 12.2943 50.0658 11.6641 51.3691 11.1055C52.5579 10.5755 53.625 10.3105 54.5703 10.3105C55.931 10.3105 56.597 10.8262 56.5684 11.8574L57.0195 19.8496C57.0195 19.9212 56.8118 19.9714 56.3965 20C55.5944 20.0573 55.1934 19.9857 55.1934 19.7852C55.179 19.4987 55.1719 19.2122 55.1719 18.9258L55.2793 15.4668C55.2793 13.8483 55.1217 12.5664 54.8066 11.6211C53.8613 11.6927 53.1309 11.8503 52.6152 12.0938C52.1139 12.3229 51.6699 12.6165 51.2832 12.9746C50.8965 13.3184 50.5527 13.7839 50.252 14.3711C49.5788 15.6888 49.2422 17.4362 49.2422 19.6133C49.1562 19.9141 48.877 20.0645 48.4043 20.0645C48.0892 20.0645 47.8314 20.0143 47.6309 19.9141C47.4303 19.7995 47.3516 19.6992 47.3945 19.6133C47.6667 18.0951 47.8027 16.9134 47.8027 16.0684C47.8027 15.3952 47.7311 14.7578 47.5879 14.1562C47.459 13.5404 47.2943 12.8385 47.0938 12.0508C45.0312 12.0508 43.6419 12.8743 42.9258 14.5215C42.6107 15.252 42.4316 15.9395 42.3887 16.584C42.36 17.2142 42.3457 17.7585 42.3457 18.2168C42.3457 18.6608 42.3672 19.1406 42.4102 19.6562ZM62.2832 28.0996C61.9824 28.7728 61.6243 29.1094 61.209 29.1094C61.0085 29.1094 60.8581 29.0163 60.7578 28.8301C60.6719 28.6582 60.6719 28.4505 60.7578 28.207C61.0729 26.875 61.5241 25.3568 62.1113 23.6523C62.7129 21.9479 63.1139 20.8021 63.3145 20.2148C62.8132 19.7135 62.0254 18.7109 60.9512 17.207C58.7454 14.1133 57.6426 12.416 57.6426 12.1152C57.6426 12.1009 57.6497 12.0866 57.6641 12.0723L58.4805 11.2559C59.612 12.3014 61.0872 14.0775 62.9062 16.584C63.3646 17.2142 63.7298 17.7441 64.002 18.1738C64.3027 17.5723 64.5391 17.0566 64.7109 16.627C64.8828 16.1829 65.0189 15.832 65.1191 15.5742C65.2337 15.3021 65.3841 14.944 65.5703 14.5C66.0573 13.3112 66.7305 11.8001 67.5898 9.9668C67.7188 9.90951 67.8548 9.88086 67.998 9.88086C68.3561 9.88086 68.6139 9.97396 68.7715 10.1602C68.8288 10.2318 68.8574 10.3177 68.8574 10.418C68.8574 10.5039 68.8431 10.5898 68.8145 10.6758L62.2832 28.0996ZM70.5977 18.5605C71.1992 18.5605 71.5645 18.6178 71.6934 18.7324C71.8366 18.847 71.9082 18.9688 71.9082 19.0977C71.7507 19.6706 71.4069 20.0143 70.877 20.1289C70.791 20.1432 70.6979 20.1504 70.5977 20.1504C70.4974 20.1504 70.3685 20.1217 70.2109 20.0645C70.0677 20.0072 69.9603 19.9069 69.8887 19.7637C69.7311 19.4056 69.9674 19.0046 70.5977 18.5605ZM71.6074 0.642578C71.5215 1.01497 71.4785 3.34245 71.4785 7.625C71.4785 11.8932 71.3711 14.3496 71.1562 14.9941H69.7168C69.7168 13.5189 69.7741 11.6712 69.8887 9.45117C70.0892 5.13997 70.1895 2.23242 70.1895 0.728516L71.6074 0.642578Z" fill="#1D2E42"/>
    <path fill-rule="evenodd" clip-rule="evenodd" d="M51.7774 107.329C51.2561 107.372 48.2981 105.499 45.8625 103.585C42.4873 100.933 39.9343 98.341 37.1287 94.7193C35.4665 92.5735 34.4667 91.0331 33.0536 88.44C32.0254 86.5534 31.5656 85.5981 30.6756 83.4983C30.3006 82.6139 29.3817 79.8191 28.9841 78.3541C28.5697 76.8275 27.9324 73.4547 27.6487 71.2865C27.3762 69.204 27.2463 65.6198 27.3655 63.4752C27.466 61.6679 27.9664 57.8688 28.3587 55.9361C28.5578 54.9544 28.5867 54.5947 28.475 54.487C28.3625 54.3787 28.2659 54.3952 28.0789 54.5544C27.7757 54.8127 26.7624 56.4328 25.3209 58.9641C24.7227 60.0144 23.7979 61.5752 23.2657 62.4326C22.7335 63.2899 22.068 64.3894 21.7867 64.8758C20.9041 66.4023 20.7167 66.5405 19.9216 66.2515C19.43 66.0729 18.8551 65.4457 18.7776 65.0035C18.7301 64.7337 18.8022 64.5631 19.3078 63.7466C22.9981 57.7883 27.4964 49.8847 28.2376 48.0568C28.4989 47.4126 28.7966 47.1741 29.2906 47.2129C29.5233 47.2313 29.8407 47.157 30.024 47.0412C30.2954 46.8697 30.4304 46.865 30.869 47.0118C31.7326 47.3007 31.9867 47.5365 32.1983 48.2447C32.3006 48.5871 32.57 49.8253 32.7968 50.9964C33.6947 55.6309 33.9013 56.56 34.3545 58.005C34.9371 59.863 35.4015 61.0228 36.2746 62.8006C36.6476 63.5604 36.9186 64.2306 36.8768 64.2903C36.7767 64.4331 36.2354 64.3546 35.7747 64.1303C34.7889 63.6503 33.5403 61.2226 32.2486 57.2744C31.9781 56.4477 31.7267 55.7501 31.6902 55.7244C31.5094 55.5977 31.1418 55.7755 31.0065 56.0551C30.616 56.8623 29.7323 62.4528 29.6805 64.4455C29.6735 64.714 29.6536 65.4271 29.6362 66.0302C29.4927 71.0305 30.3049 76.7443 31.8148 81.3576C33.3319 85.9928 35.712 90.6696 38.4128 94.323C41.5608 98.5812 44.9132 101.791 49.7675 105.196C51.0801 106.116 51.9416 106.77 52.0035 106.893C52.1195 107.122 52.0227 107.309 51.7774 107.329Z" fill="#1D2E42"/>
</svg>
