<svg width="100" height="100" viewBox="0 0 100 100" fill="none" xmlns="http://www.w3.org/2000/svg">
<path fill-rule="evenodd" clip-rule="evenodd" d="M43.915 0.276514C35.8829 1.31069 27.4191 4.59282 20.9256 9.19117C17.5622 11.573 11.4808 17.6029 9.24467 20.7729C4.3558 27.7036 1.27348 35.5681 0.254381 43.7111C-0.25866 47.8088 0.0410749 56.3285 0.824168 59.9201C3.20226 70.8239 8.80002 80.4715 16.8157 87.4811C32.1045 100.851 53.4448 103.77 71.7059 94.9904C96.9758 82.8411 107.269 52.3289 94.5346 27.3171C85.8807 10.32 68.6442 -0.155435 49.5895 0.00174432C47.5089 0.0189176 44.9553 0.142621 43.915 0.276514ZM54.5875 42.6522C62.2421 47.2427 68.591 51.1274 68.696 51.2851C68.8014 51.4429 68.8232 51.7392 68.7446 51.9441C68.5238 52.5201 40.7616 68.9951 40.1956 68.8862C39.7306 68.7966 39.6902 67.6052 39.6197 51.9115C39.5784 42.6286 39.6069 34.8698 39.6835 34.6696C39.76 34.4696 40.0135 34.3057 40.2466 34.3057C40.4794 34.3057 46.933 38.0617 54.5875 42.6522Z" fill="white"/>
</svg>
