<svg width="200" height="200" viewBox="0 0 200 200" fill="none" xmlns="http://www.w3.org/2000/svg">
<g clip-path="url(#clip0_26602_8303)">
<path fill-rule="evenodd" clip-rule="evenodd" d="M45.8715 0.316697C33.6459 1.36149 23.0083 6.40625 14.3134 15.2829C8.33234 21.3886 4.38683 28.1688 1.97957 36.4768C-0.063894 43.5306 -0.00416299 41.6148 0.00123444 99.9903C0.00663187 156.628 0.0109495 156.797 1.60859 162.433C4.1864 171.53 8.45469 178.923 14.7819 185.252C21.7633 192.234 29.8584 196.595 40.6539 199.188C43.1796 199.795 46.8592 199.845 98.0466 199.963C138.36 200.056 153.58 199.979 155.932 199.669C162.239 198.838 168.956 196.597 174.36 193.521C185.933 186.936 194.938 175.448 198.107 163.228C199.871 156.424 199.792 158.934 199.95 104.567C200.101 52.689 199.964 45.0997 198.778 39.5266C196.333 28.0371 189.038 16.8744 179.311 9.74326C171.802 4.23783 163.209 1.09157 153.46 0.278907C148.726 -0.115547 50.5284 -0.0813554 45.8715 0.316697ZM159.091 34.9105C161.673 36.1097 163.885 38.3188 165.101 40.913C165.898 42.6121 166.054 43.4478 166.054 46.0049C166.054 48.6221 165.91 49.3585 165.054 51.1026C163.78 53.6953 161.689 55.7874 159.097 57.0607C157.351 57.9177 156.619 58.0613 154 58.0598C151.393 58.058 150.642 57.9112 148.917 57.0654C146.529 55.8947 143.827 53.1403 142.733 50.7617C141.62 48.3399 141.629 43.6508 142.752 41.2067C144.178 38.1011 146.661 35.7739 149.962 34.4481C152.43 33.4565 156.392 33.6574 159.091 34.9105ZM106.862 59.372C114.658 60.4755 123.201 64.8659 129.172 70.8382C142.446 84.1153 145.046 105.046 135.43 121.216C128.064 133.601 114.327 141.379 99.8195 141.379C77.3158 141.379 58.6454 122.611 58.6454 99.9903C58.6454 87.2886 64.8139 74.8374 74.8564 67.2687C84.3634 60.1034 94.4498 57.615 106.862 59.372Z" fill="white"/>
</g>
<defs>
<clipPath id="clip0_26602_8303">
<rect width="200" height="200" fill="white"/>
</clipPath>
</defs>
</svg>
