<svg width="84" height="74" viewBox="0 0 84 74" fill="none" xmlns="http://www.w3.org/2000/svg">
    <g clip-path="url(#clip0_1_14)">
        <path fill-rule="evenodd" clip-rule="evenodd" d="M41.2156 0.216856C39.4194 0.844678 38.925 3.06896 40.2879 4.3903C40.4638 4.56086 40.6388 4.70045 40.6767 4.70045C40.7145 4.70045 40.7455 5.22833 40.7455 5.87351V7.04658H40.5538C40.1655 7.04658 38.6663 7.37667 37.8677 7.63803C36.5489 8.06956 35.2501 8.76933 33.7925 9.83369C33.613 9.96476 33.6036 9.95843 32.839 9.1975L32.0667 8.42891L32.0715 7.78654C32.0773 6.99324 31.8546 6.44331 31.3153 5.91973C30.8119 5.43096 30.2373 5.22583 29.4724 5.2618C28.7734 5.29473 28.3259 5.48719 27.8469 5.96087C27.3703 6.43228 27.1709 6.8915 27.1378 7.594C27.1018 8.35806 27.3071 8.93207 27.7964 9.43493C28.3205 9.97367 28.871 10.1962 29.6652 10.1904L30.3082 10.1856L31.0772 10.9567C31.8377 11.7193 31.8448 11.7298 31.7147 11.9093C30.587 13.4657 29.9613 14.624 29.5186 15.9741C29.2553 16.7772 28.9244 18.2747 28.9244 18.6639V18.8554H27.7501C27.1043 18.8554 26.5759 18.8244 26.5759 18.7866C26.5759 18.6396 25.9345 18.0681 25.5412 17.8647C25.1873 17.6816 25.0315 17.6503 24.4622 17.6483C23.6791 17.6456 23.216 17.8286 22.6989 18.3452C22.1845 18.859 22 19.324 22 20.1067C22 20.8893 22.1845 21.3543 22.6989 21.8681C23.216 22.3847 23.6791 22.5677 24.4622 22.565C25.0315 22.563 25.1873 22.5317 25.5412 22.3486C25.9345 22.1452 26.5759 21.5737 26.5759 21.4267C26.5759 21.3889 27.1043 21.3579 27.7501 21.3579H28.9244V21.5494C28.9244 21.9376 29.2549 23.4352 29.5169 24.234C29.9405 25.526 30.8139 27.1486 31.6844 28.2611L31.8539 28.4777L31.0811 29.2527L30.3082 30.0277L29.6544 30.0229C29.0713 30.0186 28.9456 30.0452 28.4895 30.2695C27.5633 30.725 27.0805 31.5728 27.1369 32.6448C27.1724 33.3205 27.3801 33.7906 27.8469 34.2524C28.3259 34.7261 28.7734 34.9186 29.4724 34.9515C30.2373 34.9875 30.8119 34.7824 31.3153 34.2936C31.8546 33.77 32.0773 33.2201 32.0715 32.4268L32.0667 31.7844L32.839 31.0158C33.5528 30.3054 33.6226 30.2557 33.7624 30.358C35.9568 31.9655 38.0696 32.8621 40.2954 33.1305L40.7455 33.1847L40.7425 34.3292L40.7394 35.4738L40.4062 35.7183C40.1947 35.8736 39.975 36.1449 39.8046 36.4612C39.5593 36.9166 39.5362 37.017 39.5355 37.6244C39.5348 38.4066 39.7189 38.8705 40.2348 39.3858C40.7478 39.8982 41.2146 40.0836 41.9981 40.0858C42.6089 40.0876 42.704 40.0659 43.1568 39.8206C43.705 39.5236 43.9411 39.2797 44.2526 38.6885C44.4342 38.3438 44.4626 38.1981 44.4599 37.6244C44.4574 37.0841 44.4226 36.8937 44.2739 36.6077C44.0258 36.1305 43.6975 35.7253 43.4531 35.5947L43.2506 35.4864V34.3356V33.1847L43.7008 33.1308C45.8891 32.8684 48.3278 31.8412 50.161 30.4097L50.3778 30.2403L51.1536 31.0123L51.9294 31.7844L51.9246 32.4375C51.9203 33.02 51.947 33.1456 52.1715 33.6012C52.6274 34.5265 53.4761 35.0088 54.5493 34.9524C55.2257 34.9169 55.6963 34.7095 56.1586 34.2431C56.623 33.7745 56.824 33.3162 56.8593 32.6448C56.9157 31.5728 56.4329 30.725 55.5067 30.2695C55.0506 30.0452 54.9249 30.0186 54.3417 30.0229L53.688 30.0277L52.9186 29.2562C52.2074 28.5432 52.1576 28.4734 52.26 28.3338C53.878 26.1297 54.7678 24.0379 55.0357 21.8076L55.0897 21.3579H56.255C56.896 21.3579 57.4203 21.3889 57.4203 21.4267C57.4203 21.5737 58.0616 22.1452 58.4549 22.3486C58.8082 22.5314 58.9657 22.563 59.534 22.5658C60.1085 22.5686 60.2541 22.5403 60.5992 22.3589C61.1911 22.0477 61.4352 21.8118 61.7325 21.2642C61.9773 20.8132 62 20.715 62 20.1067C62 19.491 61.9793 19.4044 61.7198 18.9336C61.0329 17.6873 59.6021 17.2617 58.3464 17.9304C58.0488 18.0888 57.7792 18.3081 57.626 18.5165L57.3812 18.8493L56.2355 18.8523L55.0897 18.8554L55.0357 18.4057C54.7731 16.2197 53.7448 13.7835 52.3118 11.9522L52.1422 11.7356L52.9151 10.9606L53.688 10.1856L54.331 10.1904C55.1251 10.1962 55.6756 9.97367 56.1998 9.43493C56.689 8.93207 56.8944 8.35806 56.8584 7.594C56.7959 6.26891 55.8667 5.33007 54.5493 5.26086C53.4761 5.20456 52.6274 5.68684 52.1715 6.61207C51.947 7.06769 51.9203 7.19329 51.9246 7.77583L51.9294 8.42891L51.1536 9.20102L50.3778 9.97305L50.161 9.80296C49.0333 8.91839 47.4547 8.07199 46.1146 7.63342C45.3275 7.37589 43.8281 7.04658 43.4424 7.04658H43.2506V5.88673V4.72689L43.4531 4.61865C43.6975 4.48797 44.0258 4.0828 44.2739 3.6056C44.4224 3.31999 44.4576 3.12847 44.4605 2.58894C44.4638 1.96996 44.4448 1.88917 44.1839 1.41588C43.5872 0.333302 42.3326 -0.173539 41.2156 0.216856ZM48.2127 14.5711C48.8855 14.7696 49.5135 15.6299 49.5135 16.3529C49.5135 17.3219 48.6047 18.2298 47.6346 18.2298C46.6646 18.2298 45.7558 17.3219 45.7558 16.3529C45.7558 15.8613 45.9349 15.4648 46.3403 15.059C46.8894 14.5092 47.481 14.3551 48.2127 14.5711ZM38.7907 15.3344C39.2643 15.5718 39.5463 15.8476 39.7918 16.3138C40.0864 16.8728 40.0864 17.7099 39.7918 18.2689C39.3757 19.0587 38.7451 19.4383 37.849 19.4383C36.954 19.4383 36.3129 19.0532 35.9169 18.2777C35.4754 17.4132 35.6293 16.4513 36.3189 15.7633C36.9881 15.0956 37.9731 14.9247 38.7907 15.3344ZM44.429 22.3049C44.9584 22.5867 45.1975 22.8355 45.5025 23.422C45.6791 23.7614 45.7105 23.9212 45.712 24.4861C45.7136 25.0948 45.6913 25.1923 45.4477 25.6436C45.1515 26.1924 44.9058 26.4294 44.3159 26.7356C43.9749 26.9126 43.8181 26.9432 43.2506 26.9432C42.6832 26.9432 42.5264 26.9126 42.1854 26.7356C41.5955 26.4294 41.3498 26.1924 41.0536 25.6436C40.81 25.1923 40.7877 25.0948 40.7893 24.4861C40.7908 23.9212 40.8222 23.7614 40.9988 23.422C41.2945 22.8534 41.535 22.5948 42.0063 22.3385C42.5587 22.0382 42.8015 21.984 43.4269 22.0212C43.8322 22.0453 44.0658 22.1114 44.429 22.3049Z" fill="white"/>
    </g>
    <path d="M0.80375 70V56H2.54375V70H0.80375ZM6.14828 70V59.78H7.88828V60.74C8.18161 60.3467 8.55828 60.05 9.01828 59.85C9.48495 59.6433 10.0016 59.54 10.5683 59.54C11.1616 59.54 11.6983 59.6733 12.1783 59.94C12.6649 60.2 13.0416 60.5667 13.3083 61.04C13.6216 60.56 14.0349 60.19 14.5483 59.93C15.0683 59.67 15.6416 59.54 16.2683 59.54C17.3683 59.54 18.2416 59.88 18.8883 60.56C19.5416 61.2333 19.8683 62.1467 19.8683 63.3V70H18.1283V63.8C18.1283 62.9467 17.9483 62.29 17.5883 61.83C17.2349 61.37 16.7283 61.14 16.0683 61.14C15.6283 61.14 15.2416 61.2533 14.9083 61.48C14.5816 61.7067 14.3249 62.0267 14.1383 62.44C13.9583 62.8467 13.8683 63.32 13.8683 63.86V70H12.1283V63.8C12.1283 62.9267 11.9549 62.2667 11.6083 61.82C11.2683 61.3667 10.7616 61.14 10.0883 61.14C9.40828 61.14 8.87161 61.3767 8.47828 61.85C8.08495 62.3233 7.88828 62.9667 7.88828 63.78V70H6.14828ZM23.3358 70V59.78H25.0758V60.74C25.3691 60.3467 25.7458 60.05 26.2058 59.85C26.6724 59.6433 27.1891 59.54 27.7558 59.54C28.3491 59.54 28.8858 59.6733 29.3658 59.94C29.8524 60.2 30.2291 60.5667 30.4958 61.04C30.8091 60.56 31.2224 60.19 31.7358 59.93C32.2558 59.67 32.8291 59.54 33.4558 59.54C34.5558 59.54 35.4291 59.88 36.0758 60.56C36.7291 61.2333 37.0558 62.1467 37.0558 63.3V70H35.3158V63.8C35.3158 62.9467 35.1358 62.29 34.7758 61.83C34.4224 61.37 33.9158 61.14 33.2558 61.14C32.8158 61.14 32.4291 61.2533 32.0958 61.48C31.7691 61.7067 31.5124 62.0267 31.3258 62.44C31.1458 62.8467 31.0558 63.32 31.0558 63.86V70H29.3158V63.8C29.3158 62.9267 29.1424 62.2667 28.7958 61.82C28.4558 61.3667 27.9491 61.14 27.2758 61.14C26.5958 61.14 26.0591 61.3767 25.6658 61.85C25.2724 62.3233 25.0758 62.9667 25.0758 63.78V70H23.3358ZM43.8894 70.24C42.6294 70.24 41.6927 69.8667 41.0794 69.12C40.4727 68.3733 40.1694 67.2267 40.1694 65.68V59.78H41.9094V65.94C41.9094 66.8067 42.0994 67.47 42.4794 67.93C42.8594 68.39 43.4027 68.62 44.1094 68.62C44.8894 68.62 45.476 68.3967 45.8694 67.95C46.2694 67.5033 46.4694 66.8467 46.4694 65.98V59.78H48.2094V70H46.4694V69.02C46.1427 69.44 45.7727 69.75 45.3594 69.95C44.9527 70.1433 44.4627 70.24 43.8894 70.24ZM51.6756 70V59.78H53.4156V60.82C53.729 60.3867 54.1056 60.0667 54.5456 59.86C54.9856 59.6467 55.489 59.54 56.0556 59.54C57.2956 59.54 58.2156 59.9167 58.8156 60.67C59.4156 61.4167 59.7156 62.5667 59.7156 64.12V70H57.9756V63.82C57.9756 62.96 57.7823 62.3 57.3956 61.84C57.0156 61.3733 56.4756 61.14 55.7756 61.14C54.9956 61.14 54.4056 61.3633 54.0056 61.81C53.6123 62.25 53.4156 62.9067 53.4156 63.78V70H51.6756ZM62.9652 70V59.78H64.7052V70H62.9652ZM63.8252 57.92C63.5252 57.92 63.2685 57.8167 63.0552 57.61C62.8485 57.3967 62.7452 57.14 62.7452 56.84C62.7452 56.5267 62.8485 56.2633 63.0552 56.05C63.2685 55.83 63.5252 55.72 63.8252 55.72C64.1385 55.72 64.3985 55.83 64.6052 56.05C64.8185 56.2633 64.9252 56.5267 64.9252 56.84C64.9252 57.14 64.8185 57.3967 64.6052 57.61C64.3985 57.8167 64.1385 57.92 63.8252 57.92ZM70.8633 70.24C70.1633 70.24 69.6266 70.03 69.2533 69.61C68.8866 69.19 68.7033 68.5867 68.7033 67.8V61.3H67.0433V59.78H68.7033V56.4L70.4433 55.56V59.78H72.9633V61.3H70.4433V67.22C70.4433 67.7067 70.5266 68.0633 70.6933 68.29C70.8666 68.51 71.1366 68.62 71.5033 68.62C71.9699 68.62 72.4766 68.44 73.0233 68.08L72.8233 69.78C72.5233 69.94 72.2099 70.0567 71.8833 70.13C71.5633 70.2033 71.2233 70.24 70.8633 70.24ZM76.4403 73.88L78.0003 69.74L74.2203 59.78H75.9603L78.5003 66.74C78.5736 66.92 78.6336 67.0833 78.6803 67.23C78.727 67.3767 78.7736 67.54 78.8203 67.72C78.8736 67.54 78.9236 67.3767 78.9703 67.23C79.017 67.0833 79.0736 66.92 79.1403 66.74L81.7203 59.78H83.5003L78.2003 73.88H76.4403Z" fill="white"/>
    <defs>
        <clipPath id="clip0_1_14">
            <rect width="40" height="40" fill="white" transform="translate(22)"/>
        </clipPath>
    </defs>
</svg>
