<svg width="45" height="45" viewBox="0 0 45 45" fill="none" xmlns="http://www.w3.org/2000/svg">
<rect width="45" height="45" rx="3" fill="white" fill-opacity="0.18"/>
<path d="M23 18.125C20.2859 18.125 18.0781 20.3328 18.0781 23.0469C18.0781 25.7609 20.2859 27.9688 23 27.9688C25.7141 27.9688 27.9219 25.7609 27.9219 23.0469C27.9219 20.3328 25.7141 18.125 23 18.125ZM23 18.125C20.2859 18.125 18.0781 20.3328 18.0781 23.0469C18.0781 25.7609 20.2859 27.9688 23 27.9688C25.7141 27.9688 27.9219 25.7609 27.9219 23.0469C27.9219 20.3328 25.7141 18.125 23 18.125ZM31.4844 11H14.5156C12.575 11 11 12.575 11 14.5156V31.4844C11 33.425 12.575 35 14.5156 35H31.4844C33.425 35 35 33.425 35 31.4844V14.5156C35 12.575 33.425 11 31.4844 11ZM23 29.375C19.5125 29.375 16.6719 26.5343 16.6719 23.0469C16.6719 19.5593 19.5125 16.7188 23 16.7188C26.4875 16.7188 29.3281 19.5593 29.3281 23.0469C29.3281 26.5343 26.4875 29.375 23 29.375ZM30.7344 16.7188C29.9609 16.7188 29.3281 16.0859 29.3281 15.3125C29.3281 14.5391 29.9609 13.9062 30.7344 13.9062C31.5078 13.9062 32.1406 14.5391 32.1406 15.3125C32.1406 16.0859 31.5078 16.7188 30.7344 16.7188ZM23 18.125C20.2859 18.125 18.0781 20.3328 18.0781 23.0469C18.0781 25.7609 20.2859 27.9688 23 27.9688C25.7141 27.9688 27.9219 25.7609 27.9219 23.0469C27.9219 20.3328 25.7141 18.125 23 18.125ZM23 18.125C20.2859 18.125 18.0781 20.3328 18.0781 23.0469C18.0781 25.7609 20.2859 27.9688 23 27.9688C25.7141 27.9688 27.9219 25.7609 27.9219 23.0469C27.9219 20.3328 25.7141 18.125 23 18.125ZM23 18.125C20.2859 18.125 18.0781 20.3328 18.0781 23.0469C18.0781 25.7609 20.2859 27.9688 23 27.9688C25.7141 27.9688 27.9219 25.7609 27.9219 23.0469C27.9219 20.3328 25.7141 18.125 23 18.125Z" fill="#F8F8F8"/>
</svg>
