<svg width="16" height="16" viewBox="0 0 16 16" fill="none" xmlns="http://www.w3.org/2000/svg">
<g clip-path="url(#clip0_4322_1099)">
<path d="M7.99974 4.77731C6.20544 4.77731 4.74583 6.23692 4.74583 8.03122C4.74583 9.82551 6.20544 11.2851 7.99974 11.2851C9.79404 11.2851 11.2536 9.82551 11.2536 8.03122C11.2536 6.23692 9.79404 4.77731 7.99974 4.77731ZM7.99974 4.77731C6.20544 4.77731 4.74583 6.23692 4.74583 8.03122C4.74583 9.82551 6.20544 11.2851 7.99974 11.2851C9.79404 11.2851 11.2536 9.82551 11.2536 8.03122C11.2536 6.23692 9.79404 4.77731 7.99974 4.77731ZM13.6089 0.0668945H2.39062C1.10766 0.0668945 0.0664062 1.10814 0.0664062 2.39111V13.6093C0.0664062 14.8923 1.10766 15.9336 2.39062 15.9336H13.6089C14.8918 15.9336 15.9331 14.8923 15.9331 13.6093V2.39111C15.9331 1.10814 14.8918 0.0668945 13.6089 0.0668945ZM7.99974 12.2148C5.69415 12.2148 3.81615 10.3368 3.81615 8.03122C3.81615 5.72556 5.69415 3.84762 7.99974 3.84762C10.3053 3.84762 12.1833 5.72556 12.1833 8.03122C12.1833 10.3368 10.3053 12.2148 7.99974 12.2148ZM13.113 3.84762C12.6017 3.84762 12.1833 3.42926 12.1833 2.91794C12.1833 2.40661 12.6017 1.98825 13.113 1.98825C13.6243 1.98825 14.0427 2.40661 14.0427 2.91794C14.0427 3.42926 13.6243 3.84762 13.113 3.84762ZM7.99974 4.77731C6.20544 4.77731 4.74583 6.23692 4.74583 8.03122C4.74583 9.82551 6.20544 11.2851 7.99974 11.2851C9.79404 11.2851 11.2536 9.82551 11.2536 8.03122C11.2536 6.23692 9.79404 4.77731 7.99974 4.77731ZM7.99974 4.77731C6.20544 4.77731 4.74583 6.23692 4.74583 8.03122C4.74583 9.82551 6.20544 11.2851 7.99974 11.2851C9.79404 11.2851 11.2536 9.82551 11.2536 8.03122C11.2536 6.23692 9.79404 4.77731 7.99974 4.77731ZM7.99974 4.77731C6.20544 4.77731 4.74583 6.23692 4.74583 8.03122C4.74583 9.82551 6.20544 11.2851 7.99974 11.2851C9.79404 11.2851 11.2536 9.82551 11.2536 8.03122C11.2536 6.23692 9.79404 4.77731 7.99974 4.77731Z" fill="#505050"/>
</g>
<defs>
<clipPath id="clip0_4322_1099">
<rect width="15.8667" height="15.8667" fill="white" transform="translate(0.0664062 0.0668945)"/>
</clipPath>
</defs>
</svg>
