<svg width="60" height="60" viewBox="0 0 60 60" fill="none" xmlns="http://www.w3.org/2000/svg">
<path fill-rule="evenodd" clip-rule="evenodd" d="M27.5938 0.0328238C21.6986 0.499266 16.0869 2.71935 11.3294 6.46739C10.0201 7.49891 7.70571 9.78596 6.64193 11.0995C3.00929 15.5849 0.730812 21.0875 0.0838976 26.9366C-0.0823177 28.4395 0.0125937 32.7842 0.244332 34.2831C0.51943 36.0618 1.20429 38.7633 1.78134 40.3458C2.74153 42.9786 4.02476 45.4287 4.39285 45.3318C4.50052 45.3034 5.212 44.8747 5.97382 44.3792C6.73564 43.8837 8.74106 42.5808 10.4303 41.484C12.1196 40.3872 14.1103 39.0906 14.8543 38.6028C15.5982 38.1148 16.6957 37.4001 17.2933 37.0145L18.3797 36.3134L18.3843 30.9325L18.3888 25.5517L21.1524 21.9988L23.9159 18.446L23.9181 16.3667L23.9202 14.2876L24.3117 14.0489C24.6885 13.8192 24.9342 13.8102 30.8459 13.8102C36.7576 13.8102 37.0033 13.8192 37.3801 14.0489L37.7715 14.2876V16.3372V18.387L38.6278 19.922C39.0987 20.7662 39.5884 21.6291 39.7162 21.8396L39.9485 22.2224L40.757 21.7512C41.2017 21.4921 42.6767 20.5523 44.0347 19.6629C45.3927 18.7735 48.3286 16.8644 50.5588 15.4204L54.6138 12.7949L54.454 12.4892C53.8956 11.4206 50.086 7.48554 48.3105 6.14342C44.2218 3.05247 39.4102 1.01834 34.399 0.26201C33.1787 0.0777458 28.8625 -0.0676184 27.5938 0.0328238ZM55.6577 17.6732C54.929 18.1388 53.3843 19.1397 52.225 19.8973C49.611 21.6056 47.0679 23.2603 44.0949 25.187L41.8065 26.6701L41.7756 36.1601L41.7448 45.6502L41.4825 45.9294L41.2202 46.2085L30.3118 46.1952C24.2526 46.1878 19.2353 46.1336 19.025 46.0734C18.8167 46.0138 18.6067 45.8702 18.5581 45.7544C18.5096 45.6385 18.4361 44.7579 18.3947 43.7975C18.3401 42.5281 18.2796 42.059 18.1738 42.0797C17.8447 42.144 7.25934 49.1088 7.10083 49.3652C6.98002 49.5607 10.5463 53.0098 11.9312 54.037C15.97 57.0328 20.5487 58.9451 25.6667 59.7737C27.5357 60.0762 32.4424 60.0752 34.3746 59.772C42.961 58.4241 50.2993 53.7597 55.054 46.6277C57.4913 42.9719 58.999 39.0446 59.7705 34.3434C60.0745 32.4907 60.077 27.7073 59.775 25.7323C59.4714 23.7468 58.945 21.6567 58.2997 19.8741C57.7672 18.4034 57.1017 16.8164 57.0203 16.8233C56.9996 16.8251 56.3864 17.2075 55.6577 17.6732ZM24.5564 21.0083C22.3791 23.8253 21.6021 24.8999 21.6834 24.9812C21.7322 25.0299 23.0458 25.0892 24.6023 25.1129L27.4323 25.1558L27.6624 25.534C27.9184 25.9551 27.8757 26.2539 27.5005 26.6639C27.2582 26.9286 27.1991 26.9335 23.8709 26.965L20.4875 26.9969L20.463 30.9411C20.4495 33.1104 20.4708 34.8853 20.5102 34.8853C20.6301 34.8853 21.2791 34.4656 29.3221 29.1867C30.491 28.4196 31.2108 27.8683 31.2794 27.688C31.3391 27.5311 31.3879 26.9676 31.3879 26.4356V25.4687L33.0139 22.7882C33.9082 21.3139 34.6399 20.0726 34.6399 20.0296C34.6399 19.9866 32.5549 19.9515 30.0066 19.9515H25.3732L24.5564 21.0083ZM30.292 34.1617C29.7886 34.4746 27.3625 36.044 24.9007 37.6492L20.4244 40.5678L20.456 42.4535L20.4875 44.3394L25.8474 44.2941C28.7953 44.2692 31.2163 44.2421 31.2272 44.2339C31.3021 44.1781 31.3667 34.8087 31.2959 34.2693L31.2072 33.5929L30.292 34.1617Z" fill="white"/>
</svg>
