<svg width="127" height="98" viewBox="0 0 127 98" fill="none" xmlns="http://www.w3.org/2000/svg">
<path fill-rule="evenodd" clip-rule="evenodd" d="M61.8741 0.0879707C52.4684 0.621662 43.3565 6.18059 38.3673 14.429C33.2387 22.908 32.5919 33.1755 36.613 42.2792C37.1776 43.5575 38.1909 45.4298 38.3181 45.4298C38.398 45.4298 38.995 45.0536 41.6498 43.3304C42.2134 42.9644 43.1969 42.3275 43.8354 41.915C44.4739 41.5025 45.7389 40.679 46.6466 40.0854C47.5541 39.4916 49.228 38.4036 50.3664 37.6674L52.4361 36.3291V30.9708V25.6128L55.1866 22.0618L57.9371 18.5109V16.4916V14.4721L58.2214 14.1874C58.4453 13.9635 58.6119 13.9021 59.0034 13.9C59.6459 13.8964 68.4076 13.8964 69.976 13.9C71.1256 13.9027 71.1865 13.9144 71.4592 14.1874L71.7436 14.4721V16.4748V18.4777L72.7789 20.3201C73.3483 21.3333 73.8511 22.2018 73.8964 22.2501C73.9417 22.2983 74.8714 21.7555 75.9622 21.0439C79.837 18.5162 80.4712 18.1042 84.4714 15.5177C86.6959 14.0792 88.5322 12.8886 88.552 12.8719C88.7233 12.7264 86.7973 10.3819 85.1818 8.76884C83.5747 7.1645 82.4515 6.23822 80.7502 5.1146C76.1401 2.06975 71.1904 0.388881 65.9251 0.0798734C64.0828 -0.0280962 63.9138 -0.0277726 61.8741 0.0879707ZM88.2952 18.5242C86.8687 19.4563 83.4589 21.6766 80.7184 23.4581L75.7354 26.6971L75.7348 36.1257L75.7345 45.5543L75.4192 45.8699L75.1039 46.1855H64.1962C52.5468 46.1855 52.8355 46.1981 52.5855 45.6767C52.5346 45.5705 52.468 44.6675 52.4376 43.6697L52.3822 41.8556L46.6994 45.5522C41.5227 48.9197 41.0266 49.2677 41.1293 49.4597C41.3569 49.8854 44.3262 52.7438 45.4342 53.6039C49.8955 57.0671 55.0692 59.1965 60.5941 59.8433C62.3813 60.0527 65.6866 60.0521 67.4791 59.8421C80.4712 58.3208 91.0066 48.5522 93.4624 35.7504C93.877 33.5898 94.0075 32.1621 93.9997 29.8822C93.9886 26.6935 93.5404 23.8212 92.5966 20.8863C92.1055 19.3599 91.0762 16.8131 90.9547 16.8237C90.9187 16.8268 89.722 17.592 88.2952 18.5242ZM57.5022 22.4006C56.4659 23.7489 55.6024 24.915 55.5832 24.9919C55.5553 25.1035 56.1245 25.1316 58.4195 25.1316H61.2907L61.5553 25.3966C61.9452 25.7869 61.9171 26.3263 61.4883 26.6875L61.1565 26.9671H57.8209H54.4855V30.9708V34.9746L54.89 34.7274C55.254 34.5048 56.8608 33.4596 59.7708 31.5525C60.3344 31.1832 61.7905 30.2376 63.0067 29.4511C64.2229 28.6648 65.2537 27.9663 65.2972 27.8991C65.3407 27.8319 65.377 27.2713 65.3779 26.6535L65.3797 25.5302L67.0516 22.8017C67.9711 21.3009 68.7235 20.0453 68.7235 20.0111C68.7235 19.977 66.6226 19.949 64.0549 19.949H59.3864L57.5022 22.4006ZM59.7977 37.0401L54.4855 40.5078V42.4298V44.3522L59.9056 44.324L65.3257 44.2961L65.3536 38.9246C65.3758 34.6593 65.3536 33.5553 65.2459 33.5631C65.1712 33.5685 62.7194 35.1333 59.7977 37.0401Z" fill="#505050"/>
<path d="M2.77744 81.8H4.85744V91.24H10.7134V93H2.77744V81.8ZM19.6977 90.408H14.0977L12.9937 93H10.8497L15.8897 81.8H17.9377L22.9937 93H20.8177L19.6977 90.408ZM19.0097 88.776L16.8977 83.88L14.8017 88.776H19.0097ZM29.4458 93.16C28.3151 93.16 27.2911 92.9147 26.3738 92.424C25.4671 91.9227 24.7525 91.2347 24.2298 90.36C23.7178 89.4853 23.4618 88.4987 23.4618 87.4C23.4618 86.3013 23.7231 85.3147 24.2458 84.44C24.7685 83.5653 25.4831 82.8827 26.3898 82.392C27.3071 81.8907 28.3311 81.64 29.4618 81.64C30.3791 81.64 31.2165 81.8 31.9738 82.12C32.7311 82.44 33.3711 82.904 33.8938 83.512L32.5498 84.776C31.7391 83.9013 30.7418 83.464 29.5578 83.464C28.7898 83.464 28.1018 83.6347 27.4938 83.976C26.8858 84.3067 26.4111 84.7707 26.0698 85.368C25.7285 85.9653 25.5578 86.6427 25.5578 87.4C25.5578 88.1573 25.7285 88.8347 26.0698 89.432C26.4111 90.0293 26.8858 90.4987 27.4938 90.84C28.1018 91.1707 28.7898 91.336 29.5578 91.336C30.7418 91.336 31.7391 90.8933 32.5498 90.008L33.8938 91.288C33.3711 91.896 32.7258 92.36 31.9578 92.68C31.2005 93 30.3631 93.16 29.4458 93.16ZM38.0338 83.56H34.3218V81.8H43.8258V83.56H40.1138V93H38.0338V83.56ZM50.4626 93.16C49.3212 93.16 48.2919 92.9147 47.3746 92.424C46.4572 91.9227 45.7372 91.2347 45.2146 90.36C44.6919 89.4747 44.4306 88.488 44.4306 87.4C44.4306 86.312 44.6919 85.3307 45.2146 84.456C45.7372 83.5707 46.4572 82.8827 47.3746 82.392C48.2919 81.8907 49.3212 81.64 50.4626 81.64C51.6039 81.64 52.6332 81.8907 53.5506 82.392C54.4679 82.8827 55.1879 83.5653 55.7106 84.44C56.2332 85.3147 56.4946 86.3013 56.4946 87.4C56.4946 88.4987 56.2332 89.4853 55.7106 90.36C55.1879 91.2347 54.4679 91.9227 53.5506 92.424C52.6332 92.9147 51.6039 93.16 50.4626 93.16ZM50.4626 91.336C51.2092 91.336 51.8812 91.1707 52.4786 90.84C53.0759 90.4987 53.5452 90.0293 53.8866 89.432C54.2279 88.824 54.3986 88.1467 54.3986 87.4C54.3986 86.6533 54.2279 85.9813 53.8866 85.384C53.5452 84.776 53.0759 84.3067 52.4786 83.976C51.8812 83.6347 51.2092 83.464 50.4626 83.464C49.7159 83.464 49.0439 83.6347 48.4466 83.976C47.8492 84.3067 47.3799 84.776 47.0386 85.384C46.6972 85.9813 46.5266 86.6533 46.5266 87.4C46.5266 88.1467 46.6972 88.824 47.0386 89.432C47.3799 90.0293 47.8492 90.4987 48.4466 90.84C49.0439 91.1707 49.7159 91.336 50.4626 91.336ZM62.1713 93.16C61.3073 93.16 60.47 93.0373 59.6593 92.792C58.8593 92.5467 58.2246 92.2213 57.7553 91.816L58.4753 90.2C58.934 90.5627 59.494 90.8613 60.1553 91.096C60.8273 91.32 61.4993 91.432 62.1713 91.432C63.0033 91.432 63.622 91.2987 64.0273 91.032C64.4433 90.7653 64.6513 90.4133 64.6513 89.976C64.6513 89.656 64.534 89.3947 64.2993 89.192C64.0753 88.9787 63.7873 88.8133 63.4353 88.696C63.0833 88.5787 62.6033 88.4453 61.9953 88.296C61.142 88.0933 60.4486 87.8907 59.9153 87.688C59.3926 87.4853 58.9393 87.1707 58.5553 86.744C58.182 86.3067 57.9953 85.72 57.9953 84.984C57.9953 84.3653 58.1606 83.8053 58.4913 83.304C58.8326 82.792 59.3393 82.3867 60.0113 82.088C60.694 81.7893 61.526 81.64 62.5073 81.64C63.19 81.64 63.862 81.7253 64.5233 81.896C65.1846 82.0667 65.7553 82.312 66.2353 82.632L65.5793 84.248C65.0886 83.96 64.5766 83.7413 64.0433 83.592C63.51 83.4427 62.9926 83.368 62.4913 83.368C61.67 83.368 61.0566 83.5067 60.6513 83.784C60.2566 84.0613 60.0593 84.4293 60.0593 84.888C60.0593 85.208 60.1713 85.4693 60.3953 85.672C60.63 85.8747 60.9233 86.0347 61.2753 86.152C61.6273 86.2693 62.1073 86.4027 62.7153 86.552C63.5473 86.744 64.23 86.9467 64.7633 87.16C65.2966 87.3627 65.75 87.6773 66.1233 88.104C66.5073 88.5307 66.6993 89.1067 66.6993 89.832C66.6993 90.4507 66.5286 91.0107 66.1873 91.512C65.8566 92.0133 65.35 92.4133 64.6673 92.712C63.9846 93.0107 63.1526 93.16 62.1713 93.16ZM77.1618 91.256V93H68.7618V81.8H76.9378V83.544H70.8418V86.456H76.2498V88.168H70.8418V91.256H77.1618ZM85.9824 83.544V86.952H91.3904V88.712H85.9824V93H83.9024V81.8H92.0784V83.544H85.9824ZM101.418 93L99.1299 89.72C99.0339 89.7307 98.8899 89.736 98.6979 89.736H96.1699V93H94.0899V81.8H98.6979C99.6686 81.8 100.511 81.96 101.226 82.28C101.951 82.6 102.506 83.0587 102.89 83.656C103.274 84.2533 103.466 84.9627 103.466 85.784C103.466 86.6267 103.258 87.352 102.842 87.96C102.437 88.568 101.85 89.0213 101.082 89.32L103.658 93H101.418ZM101.37 85.784C101.37 85.0693 101.135 84.52 100.666 84.136C100.197 83.752 99.5086 83.56 98.6019 83.56H96.1699V88.024H98.6019C99.5086 88.024 100.197 87.832 100.666 87.448C101.135 87.0533 101.37 86.4987 101.37 85.784ZM114.193 91.256V93H105.793V81.8H113.969V83.544H107.873V86.456H113.281V88.168H107.873V91.256H114.193ZM124.912 91.256V93H116.512V81.8H124.688V83.544H118.592V86.456H124V88.168H118.592V91.256H124.912Z" fill="#505050"/>
</svg>
