<svg width="71" height="68" viewBox="0 0 71 68" fill="none" xmlns="http://www.w3.org/2000/svg">
    <g clip-path="url(#clip0_111_30)">
        <path fill-rule="evenodd" clip-rule="evenodd" d="M33.0854 0.0615795C26.5014 0.435164 20.1231 4.32641 16.6307 10.1003C13.0406 16.0356 12.5879 23.2229 15.4027 29.5955C15.7979 30.4903 16.5072 31.8009 16.5962 31.8009C16.6522 31.8009 17.0701 31.5375 18.9284 30.3313C19.3229 30.0751 20.0114 29.6293 20.4583 29.3405C20.9053 29.0518 21.7908 28.4753 22.4262 28.0598C23.0614 27.6441 24.2331 26.8825 25.03 26.3672L26.4788 25.4304V21.6796V17.929L28.4042 15.4433L30.3295 12.9576V11.5441V10.1305L30.5285 9.93118C30.6853 9.77445 30.8019 9.73147 31.0759 9.73C31.5257 9.72748 37.6589 9.72748 38.7567 9.73C39.5615 9.73189 39.6041 9.74008 39.795 9.93118L39.9941 10.1305V11.5324V12.9344L40.7188 14.2241C41.1173 14.9333 41.4693 15.5413 41.501 15.5751C41.5327 15.6088 42.1835 15.2289 42.9471 14.7307C45.6594 12.9613 46.1034 12.6729 48.9035 10.8624C50.4607 9.85544 51.7461 9.02202 51.7599 9.01033C51.8798 8.90848 50.5316 7.26733 49.4008 6.13819C48.2758 5.01515 47.4896 4.36676 46.2987 3.58022C43.0716 1.44883 39.6068 0.272217 35.9211 0.0559114C34.6315 -0.0196673 34.5132 -0.0194408 33.0854 0.0615795ZM51.5802 12.9669C50.5816 13.6194 48.1948 15.1736 46.2764 16.4207L42.7883 18.688L42.7879 25.288L42.7877 31.888L42.567 32.1089L42.3463 32.3299H34.7109C26.5563 32.3299 26.7584 32.3387 26.5834 31.9737C26.5478 31.8994 26.5011 31.2673 26.4799 30.5688L26.4411 29.2989L22.4631 31.8866C18.8394 34.2438 18.4922 34.4874 18.5641 34.6218C18.7234 34.9198 20.8019 36.9207 21.5775 37.5227C24.7004 39.947 28.322 41.4376 32.1894 41.8903C33.4405 42.0369 35.7542 42.0365 37.0089 41.8895C46.1034 40.8246 53.4781 33.9866 55.1972 25.0253C55.4874 23.5129 55.5788 22.5135 55.5733 20.9175C55.5655 18.6855 55.2518 16.6748 54.5911 14.6204C54.2474 13.5519 53.5269 11.7692 53.4418 11.7766C53.4166 11.7788 52.5789 12.3144 51.5802 12.9669ZM30.0251 15.6804C29.2997 16.6242 28.6952 17.4405 28.6818 17.4943C28.6623 17.5725 29.0607 17.5921 30.6672 17.5921H32.677L32.8623 17.7776C33.1352 18.0508 33.1155 18.4284 32.8154 18.6813L32.5831 18.877H30.2482H27.9134V21.6796V24.4822L28.1965 24.3092C28.4513 24.1534 29.5761 23.4217 31.6131 22.0868C32.0076 21.8282 33.0269 21.1663 33.8782 20.6158C34.7296 20.0654 35.4511 19.5764 35.4816 19.5294C35.512 19.4823 35.5374 19.0899 35.5381 18.6575L35.5393 17.8711L36.7097 15.9612C37.3533 14.9106 37.88 14.0317 37.88 14.0078C37.88 13.9839 36.4094 13.9643 34.612 13.9643H31.344L30.0251 15.6804ZM31.6319 25.9281L27.9134 28.3555V29.7009V31.0466L31.7075 31.0268L35.5015 31.0073L35.5211 27.2472C35.5366 24.2615 35.5211 23.4887 35.4457 23.4942C35.3934 23.498 33.6771 24.5933 31.6319 25.9281Z" fill="#1D2E42"/>
        <path d="M-0.145796 62V52.9H0.985204V60.908H5.4572V62H-0.145796ZM8.84492 62.156C8.12559 62.156 7.56009 61.9567 7.14842 61.558C6.73676 61.1593 6.53092 60.6133 6.53092 59.92C6.53092 59.4737 6.63276 59.0858 6.83642 58.7565C7.04009 58.4272 7.32826 58.1737 7.70092 57.996C8.07359 57.814 8.51126 57.723 9.01392 57.723C9.33892 57.723 9.64226 57.7598 9.92392 57.8335C10.2099 57.9028 10.4786 58.009 10.7299 58.152V57.684C10.7299 57.1683 10.6129 56.7913 10.3789 56.553C10.1449 56.3103 9.78092 56.189 9.28692 56.189C8.97059 56.189 8.64126 56.2475 8.29892 56.3645C7.96092 56.4815 7.64459 56.644 7.34992 56.852L7.02492 55.903C7.35859 55.682 7.73776 55.5108 8.16242 55.3895C8.59142 55.2638 9.01392 55.201 9.42992 55.201C10.2186 55.201 10.8101 55.4025 11.2044 55.8055C11.5988 56.2042 11.7959 56.8 11.7959 57.593V62H10.7299V61.389C10.4699 61.636 10.1774 61.8267 9.85242 61.961C9.52742 62.091 9.19159 62.156 8.84492 62.156ZM9.01392 61.168C9.32159 61.168 9.62492 61.0922 9.92392 60.9405C10.2273 60.7888 10.4959 60.5743 10.7299 60.297V59.153C10.5089 59.0143 10.2576 58.906 9.97592 58.828C9.69426 58.75 9.42559 58.711 9.16992 58.711C8.68459 58.711 8.30109 58.8215 8.01942 59.0425C7.73776 59.2592 7.59692 59.556 7.59692 59.933C7.59692 60.3143 7.72259 60.6155 7.97392 60.8365C8.22526 61.0575 8.57192 61.168 9.01392 61.168ZM16.3201 62.156C15.7481 62.156 15.2563 62.0173 14.8446 61.74C14.433 61.4583 14.1166 61.0597 13.8956 60.544C13.6746 60.024 13.5641 59.4043 13.5641 58.685C13.5641 57.9613 13.6768 57.3395 13.9021 56.8195C14.1275 56.2995 14.4481 55.9008 14.8641 55.6235C15.2845 55.3418 15.7871 55.201 16.3721 55.201C16.9441 55.201 17.4295 55.3332 17.8281 55.5975C18.2268 55.8618 18.5171 56.2453 18.6991 56.748L17.6331 57.138C17.5248 56.852 17.3623 56.6332 17.1456 56.4815C16.9333 56.3298 16.6798 56.254 16.3851 56.254C15.8478 56.254 15.4361 56.462 15.1501 56.878C14.8641 57.294 14.7211 57.8963 14.7211 58.685C14.7211 59.4563 14.862 60.05 15.1436 60.466C15.4253 60.882 15.8261 61.09 16.3461 61.09C16.6798 61.09 16.9636 61.0033 17.1976 60.83C17.436 60.6567 17.6028 60.414 17.6981 60.102L18.7511 60.453C18.5908 60.999 18.2983 61.4193 17.8736 61.714C17.449 62.0087 16.9311 62.156 16.3201 62.156ZM22.1732 62.156C21.7182 62.156 21.3693 62.0195 21.1267 61.7465C20.8883 61.4735 20.7692 61.0813 20.7692 60.57V56.345H19.6902V55.357H20.7692V53.16L21.9002 52.614V55.357H23.5382V56.345H21.9002V60.193C21.9002 60.5093 21.9543 60.7412 22.0627 60.8885C22.1753 61.0315 22.3508 61.103 22.5892 61.103C22.8925 61.103 23.2218 60.986 23.5772 60.752L23.4472 61.857C23.2522 61.961 23.0485 62.0368 22.8362 62.0845C22.6282 62.1322 22.4072 62.156 22.1732 62.156ZM27.6613 62.156C26.7513 62.156 26.0341 61.8462 25.5098 61.2265C24.9855 60.6025 24.7233 59.7553 24.7233 58.685C24.7233 57.97 24.8425 57.3525 25.0808 56.8325C25.3191 56.3125 25.6571 55.9117 26.0948 55.63C26.5368 55.344 27.059 55.201 27.6613 55.201C28.268 55.201 28.7901 55.3418 29.2278 55.6235C29.6698 55.9008 30.0078 56.2995 30.2418 56.8195C30.4801 57.3395 30.5993 57.957 30.5993 58.672C30.5993 59.387 30.4801 60.0067 30.2418 60.531C30.0035 61.051 29.6633 61.4518 29.2213 61.7335C28.7836 62.0152 28.2636 62.156 27.6613 62.156ZM27.6613 61.103C28.2203 61.103 28.658 60.8885 28.9743 60.4595C29.295 60.0262 29.4553 59.4303 29.4553 58.672C29.4553 57.9093 29.295 57.3135 28.9743 56.8845C28.658 56.4555 28.2203 56.241 27.6613 56.241C27.098 56.241 26.6581 56.4555 26.3418 56.8845C26.0255 57.3092 25.8673 57.9093 25.8673 58.685C25.8673 59.4433 26.0255 60.037 26.3418 60.466C26.6581 60.8907 27.098 61.103 27.6613 61.103ZM34.1984 62.156C33.7304 62.156 33.2797 62.0563 32.8464 61.857C32.4174 61.6533 32.0664 61.3803 31.7934 61.038L32.5994 60.349C32.8334 60.6003 33.0934 60.7953 33.3794 60.934C33.6654 61.0727 33.947 61.142 34.2244 61.142C34.6144 61.142 34.9177 61.0683 35.1344 60.921C35.351 60.7693 35.4594 60.5613 35.4594 60.297C35.4594 60.1237 35.4095 59.9677 35.3099 59.829C35.2145 59.6903 35.0542 59.5582 34.8289 59.4325C34.6079 59.3068 34.311 59.1747 33.9384 59.036C33.206 58.763 32.6795 58.4662 32.3589 58.1455C32.0425 57.8248 31.8844 57.4283 31.8844 56.956C31.8844 56.436 32.0902 56.0135 32.5019 55.6885C32.9179 55.3635 33.4574 55.201 34.1204 55.201C34.5754 55.201 34.9935 55.2877 35.3749 55.461C35.7562 55.63 36.0834 55.877 36.3564 56.202L35.5764 56.852C35.1777 56.4273 34.688 56.215 34.1074 56.215C33.765 56.215 33.4942 56.2822 33.2949 56.4165C33.0999 56.5465 33.0024 56.7263 33.0024 56.956C33.0024 57.177 33.1129 57.372 33.3339 57.541C33.5592 57.7057 33.9644 57.8963 34.5494 58.113C35.026 58.2863 35.4117 58.4748 35.7064 58.6785C36.0054 58.8822 36.222 59.114 36.3564 59.374C36.495 59.634 36.5644 59.933 36.5644 60.271C36.5644 60.856 36.3542 61.3175 35.9339 61.6555C35.5135 61.9892 34.935 62.156 34.1984 62.156ZM40.7632 62.156C40.1565 62.156 39.6322 62.0065 39.1902 61.7075C38.7482 61.4085 38.408 60.9968 38.1697 60.4725C37.9313 59.9482 37.8122 59.348 37.8122 58.672C37.8122 57.9397 37.9357 57.3157 38.1827 56.8C38.4297 56.28 38.7742 55.8835 39.2162 55.6105C39.6582 55.3375 40.1738 55.201 40.7632 55.201C41.2615 55.201 41.7187 55.3137 42.1347 55.539C42.5507 55.76 42.8822 56.1045 43.1292 56.5725C43.3805 57.0362 43.5062 57.632 43.5062 58.36C43.5062 58.464 43.5018 58.5853 43.4932 58.724C43.4888 58.8583 43.4802 58.997 43.4672 59.14H38.9692C39.0125 59.543 39.1122 59.8962 39.2682 60.1995C39.4242 60.5028 39.63 60.7412 39.8857 60.9145C40.1413 61.0835 40.4425 61.168 40.7892 61.168C41.0708 61.168 41.3308 61.1182 41.5692 61.0185C41.8118 60.9188 42.0372 60.765 42.2452 60.557L42.9082 61.298C42.6612 61.545 42.3535 61.7508 41.9852 61.9155C41.6212 62.0758 41.2138 62.156 40.7632 62.156ZM38.9562 58.152H42.3622C42.3622 57.775 42.2993 57.4392 42.1737 57.1445C42.0523 56.8455 41.8725 56.6115 41.6342 56.4425C41.3958 56.2735 41.1055 56.189 40.7632 56.189C40.2822 56.189 39.8683 56.345 39.5217 56.657C39.1793 56.969 38.9908 57.4673 38.9562 58.152ZM48.6339 62V56.345H47.6069V55.357H48.6339V54.252C48.6339 53.7753 48.7595 53.4048 49.0109 53.1405C49.2665 52.8762 49.6219 52.744 50.0769 52.744C50.2979 52.744 50.5102 52.77 50.7139 52.822C50.9175 52.874 51.1169 52.952 51.3119 53.056V54.005C51.1255 53.9183 50.9587 53.8555 50.8114 53.8165C50.664 53.7775 50.5145 53.758 50.3629 53.758C50.1505 53.758 49.9967 53.8122 49.9014 53.9205C49.8104 54.0245 49.7649 54.2 49.7649 54.447V55.357H51.3119V56.345H49.7649V62H48.6339ZM52.586 62V55.357H53.717V56.228C53.8686 55.89 54.0766 55.6343 54.341 55.461C54.6096 55.2877 54.926 55.201 55.29 55.201C55.693 55.201 56.0353 55.3137 56.317 55.539L56.148 56.605C56.005 56.5053 55.8555 56.4338 55.6995 56.3905C55.5478 56.3428 55.381 56.319 55.199 56.319C54.9 56.319 54.64 56.3992 54.419 56.5595C54.198 56.7198 54.0246 56.9452 53.899 57.2355C53.7776 57.5258 53.717 57.866 53.717 58.256V62H52.586ZM59.8696 62.156C59.263 62.156 58.7386 62.0065 58.2966 61.7075C57.8546 61.4085 57.5145 60.9968 57.2761 60.4725C57.0378 59.9482 56.9186 59.348 56.9186 58.672C56.9186 57.9397 57.0421 57.3157 57.2891 56.8C57.5361 56.28 57.8806 55.8835 58.3226 55.6105C58.7646 55.3375 59.2803 55.201 59.8696 55.201C60.368 55.201 60.8251 55.3137 61.2411 55.539C61.6571 55.76 61.9886 56.1045 62.2356 56.5725C62.487 57.0362 62.6126 57.632 62.6126 58.36C62.6126 58.464 62.6083 58.5853 62.5996 58.724C62.5953 58.8583 62.5866 58.997 62.5736 59.14H58.0756C58.119 59.543 58.2186 59.8962 58.3746 60.1995C58.5306 60.5028 58.7365 60.7412 58.9921 60.9145C59.2478 61.0835 59.549 61.168 59.8956 61.168C60.1773 61.168 60.4373 61.1182 60.6756 61.0185C60.9183 60.9188 61.1436 60.765 61.3516 60.557L62.0146 61.298C61.7676 61.545 61.46 61.7508 61.0916 61.9155C60.7276 62.0758 60.3203 62.156 59.8696 62.156ZM58.0626 58.152H61.4686C61.4686 57.775 61.4058 57.4392 61.2801 57.1445C61.1588 56.8455 60.979 56.6115 60.7406 56.4425C60.5023 56.2735 60.212 56.189 59.8696 56.189C59.3886 56.189 58.9748 56.345 58.6281 56.657C58.2858 56.969 58.0973 57.4673 58.0626 58.152ZM67.0932 62.156C66.4866 62.156 65.9622 62.0065 65.5202 61.7075C65.0782 61.4085 64.7381 60.9968 64.4997 60.4725C64.2614 59.9482 64.1422 59.348 64.1422 58.672C64.1422 57.9397 64.2657 57.3157 64.5127 56.8C64.7597 56.28 65.1042 55.8835 65.5462 55.6105C65.9882 55.3375 66.5039 55.201 67.0932 55.201C67.5916 55.201 68.0487 55.3137 68.4647 55.539C68.8807 55.76 69.2122 56.1045 69.4592 56.5725C69.7106 57.0362 69.8362 57.632 69.8362 58.36C69.8362 58.464 69.8319 58.5853 69.8232 58.724C69.8189 58.8583 69.8102 58.997 69.7972 59.14H65.2992C65.3426 59.543 65.4422 59.8962 65.5982 60.1995C65.7542 60.5028 65.9601 60.7412 66.2157 60.9145C66.4714 61.0835 66.7726 61.168 67.1192 61.168C67.4009 61.168 67.6609 61.1182 67.8992 61.0185C68.1419 60.9188 68.3672 60.765 68.5752 60.557L69.2382 61.298C68.9912 61.545 68.6836 61.7508 68.3152 61.9155C67.9512 62.0758 67.5439 62.156 67.0932 62.156ZM65.2862 58.152H68.6922C68.6922 57.775 68.6294 57.4392 68.5037 57.1445C68.3824 56.8455 68.2026 56.6115 67.9642 56.4425C67.7259 56.2735 67.4356 56.189 67.0932 56.189C66.6122 56.189 66.1984 56.345 65.8517 56.657C65.5094 56.969 65.3209 57.4673 65.2862 58.152Z" fill="#1D2E42"/>
    </g>
    <defs>
        <clipPath id="clip0_111_30">
            <rect width="71" height="68" fill="white"/>
        </clipPath>
    </defs>
</svg>
