<svg width="127" height="98" viewBox="0 0 127 98" fill="none" xmlns="http://www.w3.org/2000/svg">
    <g clip-path="url(#clip0_102_30)">
        <path fill-rule="evenodd" clip-rule="evenodd" d="M61.8741 0.0879707C52.4684 0.621662 43.3565 6.18059 38.3673 14.429C33.2387 22.908 32.5919 33.1755 36.613 42.2792C37.1776 43.5575 38.1909 45.4298 38.3181 45.4298C38.398 45.4298 38.995 45.0536 41.6498 43.3304C42.2134 42.9644 43.1969 42.3275 43.8354 41.915C44.4739 41.5025 45.7389 40.679 46.6466 40.0854C47.5541 39.4916 49.228 38.4036 50.3664 37.6674L52.4361 36.3291V30.9708V25.6128L55.1866 22.0618L57.9371 18.5109V16.4916V14.4721L58.2214 14.1874C58.4453 13.9635 58.6119 13.9021 59.0034 13.9C59.6459 13.8964 68.4076 13.8964 69.976 13.9C71.1256 13.9027 71.1865 13.9144 71.4592 14.1874L71.7436 14.4721V16.4748V18.4777L72.7789 20.3201C73.3483 21.3333 73.8511 22.2018 73.8964 22.2501C73.9417 22.2983 74.8714 21.7555 75.9622 21.0439C79.837 18.5162 80.4712 18.1042 84.4714 15.5177C86.6959 14.0792 88.5322 12.8886 88.552 12.8719C88.7233 12.7264 86.7973 10.3819 85.1818 8.76884C83.5747 7.1645 82.4515 6.23822 80.7502 5.1146C76.1401 2.06975 71.1904 0.388881 65.9251 0.0798734C64.0828 -0.0280962 63.9138 -0.0277726 61.8741 0.0879707ZM88.2952 18.5242C86.8687 19.4563 83.4589 21.6766 80.7184 23.4581L75.7354 26.6971L75.7348 36.1257L75.7345 45.5543L75.4192 45.8699L75.1039 46.1855H64.1962C52.5468 46.1855 52.8355 46.1981 52.5855 45.6767C52.5346 45.5705 52.468 44.6675 52.4376 43.6697L52.3822 41.8556L46.6994 45.5522C41.5227 48.9197 41.0266 49.2677 41.1293 49.4597C41.3569 49.8854 44.3262 52.7438 45.4342 53.6039C49.8955 57.0671 55.0692 59.1965 60.5941 59.8433C62.3813 60.0527 65.6866 60.0521 67.4791 59.8421C80.4712 58.3208 91.0066 48.5522 93.4624 35.7504C93.877 33.5898 94.0075 32.1621 93.9997 29.8822C93.9886 26.6935 93.5404 23.8212 92.5966 20.8863C92.1055 19.3599 91.0762 16.8131 90.9547 16.8237C90.9187 16.8268 89.722 17.592 88.2952 18.5242ZM57.5022 22.4006C56.4659 23.7489 55.6024 24.915 55.5832 24.9919C55.5553 25.1035 56.1245 25.1316 58.4195 25.1316H61.2907L61.5553 25.3966C61.9452 25.7869 61.9171 26.3263 61.4883 26.6875L61.1565 26.9671H57.8209H54.4855V30.9708V34.9746L54.89 34.7274C55.254 34.5048 56.8608 33.4596 59.7708 31.5525C60.3344 31.1832 61.7905 30.2376 63.0067 29.4511C64.2229 28.6648 65.2537 27.9663 65.2972 27.8991C65.3407 27.8319 65.377 27.2713 65.3779 26.6535L65.3797 25.5302L67.0516 22.8017C67.9711 21.3009 68.7235 20.0453 68.7235 20.0111C68.7235 19.977 66.6226 19.949 64.0549 19.949H59.3864L57.5022 22.4006ZM59.7977 37.0401L54.4855 40.5078V42.4298V44.3522L59.9056 44.324L65.3257 44.2961L65.3536 38.9246C65.3758 34.6593 65.3536 33.5553 65.2459 33.5631C65.1712 33.5685 62.7194 35.1333 59.7977 37.0401Z" fill="#1D2E42"/>
        <path d="M12.843 94V80.7H14.496V92.404H21.032V94H12.843ZM25.9832 94.228C24.9319 94.228 24.1054 93.9367 23.5037 93.354C22.9021 92.7713 22.6012 91.9733 22.6012 90.96C22.6012 90.3077 22.7501 89.7408 23.0477 89.2595C23.3454 88.7782 23.7666 88.4077 24.3112 88.148C24.8559 87.882 25.4956 87.749 26.2302 87.749C26.7052 87.749 27.1486 87.8028 27.5602 87.9105C27.9782 88.0118 28.3709 88.167 28.7382 88.376V87.692C28.7382 86.9383 28.5672 86.3873 28.2252 86.039C27.8832 85.6843 27.3512 85.507 26.6292 85.507C26.1669 85.507 25.6856 85.5925 25.1852 85.7635C24.6912 85.9345 24.2289 86.172 23.7982 86.476L23.3232 85.089C23.8109 84.766 24.3651 84.5158 24.9857 84.3385C25.6127 84.1548 26.2302 84.063 26.8382 84.063C27.9909 84.063 28.8554 84.3575 29.4317 84.9465C30.0081 85.5292 30.2962 86.4 30.2962 87.559V94H28.7382V93.107C28.3582 93.468 27.9307 93.7467 27.4557 93.943C26.9807 94.133 26.4899 94.228 25.9832 94.228ZM26.2302 92.784C26.6799 92.784 27.1232 92.6732 27.5602 92.4515C28.0036 92.2298 28.3962 91.9163 28.7382 91.511V89.839C28.4152 89.6363 28.0479 89.478 27.6362 89.364C27.2246 89.25 26.8319 89.193 26.4582 89.193C25.7489 89.193 25.1884 89.3545 24.7767 89.6775C24.3651 89.9942 24.1592 90.428 24.1592 90.979C24.1592 91.5363 24.3429 91.9765 24.7102 92.2995C25.0776 92.6225 25.5842 92.784 26.2302 92.784ZM36.9085 94.228C36.0725 94.228 35.3537 94.0253 34.752 93.62C34.1504 93.2083 33.688 92.6257 33.365 91.872C33.042 91.112 32.8805 90.2063 32.8805 89.155C32.8805 88.0973 33.0452 87.1885 33.3745 86.4285C33.7039 85.6685 34.1725 85.0858 34.7805 84.6805C35.3949 84.2688 36.1295 84.063 36.9845 84.063C37.8205 84.063 38.5299 84.2562 39.1125 84.6425C39.6952 85.0288 40.1195 85.5893 40.3855 86.324L38.8275 86.894C38.6692 86.476 38.4317 86.1562 38.115 85.9345C37.8047 85.7128 37.4342 85.602 37.0035 85.602C36.2182 85.602 35.6165 85.906 35.1985 86.514C34.7805 87.122 34.5715 88.0023 34.5715 89.155C34.5715 90.2823 34.7774 91.15 35.189 91.758C35.6007 92.366 36.1865 92.67 36.9465 92.67C37.4342 92.67 37.849 92.5433 38.191 92.29C38.5394 92.0367 38.7832 91.682 38.9225 91.226L40.4615 91.739C40.2272 92.537 39.7997 93.1513 39.179 93.582C38.5584 94.0127 37.8015 94.228 36.9085 94.228ZM45.463 94.228C44.798 94.228 44.2882 94.0285 43.9335 93.6295C43.5852 93.2305 43.411 92.6573 43.411 91.91V85.735H41.834V84.291H43.411V81.08L45.064 80.282V84.291H47.458V85.735H45.064V91.359C45.064 91.8213 45.1432 92.1602 45.3015 92.3755C45.4662 92.5845 45.7227 92.689 46.071 92.689C46.5143 92.689 46.9957 92.518 47.515 92.176L47.325 93.791C47.04 93.943 46.7423 94.0538 46.432 94.1235C46.128 94.1932 45.805 94.228 45.463 94.228ZM53.4841 94.228C52.1541 94.228 51.1059 93.7752 50.3396 92.8695C49.5733 91.9575 49.1901 90.7193 49.1901 89.155C49.1901 88.11 49.3643 87.2075 49.7126 86.4475C50.0609 85.6875 50.5549 85.1017 51.1946 84.69C51.8406 84.272 52.6038 84.063 53.4841 84.063C54.3708 84.063 55.1339 84.2688 55.7736 84.6805C56.4196 85.0858 56.9136 85.6685 57.2556 86.4285C57.6039 87.1885 57.7781 88.091 57.7781 89.136C57.7781 90.181 57.6039 91.0867 57.2556 91.853C56.9073 92.613 56.4101 93.1988 55.7641 93.6105C55.1244 94.0222 54.3644 94.228 53.4841 94.228ZM53.4841 92.689C54.3011 92.689 54.9408 92.3755 55.4031 91.7485C55.8718 91.1152 56.1061 90.2443 56.1061 89.136C56.1061 88.0213 55.8718 87.1505 55.4031 86.5235C54.9408 85.8965 54.3011 85.583 53.4841 85.583C52.6608 85.583 52.0179 85.8965 51.5556 86.5235C51.0933 87.1442 50.8621 88.0213 50.8621 89.155C50.8621 90.2633 51.0933 91.131 51.5556 91.758C52.0179 92.3787 52.6608 92.689 53.4841 92.689ZM63.0383 94.228C62.3543 94.228 61.6956 94.0823 61.0623 93.791C60.4353 93.4933 59.9223 93.0943 59.5233 92.594L60.7013 91.587C61.0433 91.9543 61.4233 92.2393 61.8413 92.442C62.2593 92.6447 62.671 92.746 63.0763 92.746C63.6463 92.746 64.0896 92.6383 64.4063 92.423C64.723 92.2013 64.8813 91.8973 64.8813 91.511C64.8813 91.2577 64.8085 91.0297 64.6628 90.827C64.5235 90.6243 64.2891 90.4312 63.9598 90.2475C63.6368 90.0638 63.203 89.8707 62.6583 89.668C61.588 89.269 60.8185 88.8352 60.3498 88.3665C59.8875 87.8978 59.6563 87.3183 59.6563 86.628C59.6563 85.868 59.9571 85.2505 60.5588 84.7755C61.1668 84.3005 61.9553 84.063 62.9243 84.063C63.5893 84.063 64.2005 84.1897 64.7578 84.443C65.3151 84.69 65.7933 85.051 66.1923 85.526L65.0523 86.476C64.4696 85.8553 63.754 85.545 62.9053 85.545C62.405 85.545 62.0091 85.6432 61.7178 85.8395C61.4328 86.0295 61.2903 86.2923 61.2903 86.628C61.2903 86.951 61.4518 87.236 61.7748 87.483C62.1041 87.7237 62.6963 88.0023 63.5513 88.319C64.248 88.5723 64.8116 88.8478 65.2423 89.1455C65.6793 89.4432 65.996 89.782 66.1923 90.162C66.395 90.542 66.4963 90.979 66.4963 91.473C66.4963 92.328 66.1891 93.0025 65.5748 93.4965C64.9605 93.9842 64.115 94.228 63.0383 94.228ZM72.633 94.228C71.7463 94.228 70.98 94.0095 70.334 93.5725C69.688 93.1355 69.1908 92.5338 68.8425 91.7675C68.4942 91.0012 68.32 90.124 68.32 89.136C68.32 88.0657 68.5005 87.1537 68.8615 86.4C69.2225 85.64 69.726 85.0605 70.372 84.6615C71.018 84.2625 71.7717 84.063 72.633 84.063C73.3613 84.063 74.0295 84.2277 74.6375 84.557C75.2455 84.88 75.73 85.3835 76.091 86.0675C76.4583 86.7452 76.642 87.616 76.642 88.68C76.642 88.832 76.6357 89.0093 76.623 89.212C76.6167 89.4083 76.604 89.611 76.585 89.82H70.011C70.0743 90.409 70.22 90.9252 70.448 91.3685C70.676 91.8118 70.9768 92.1602 71.3505 92.4135C71.7242 92.6605 72.1643 92.784 72.671 92.784C73.0827 92.784 73.4627 92.7112 73.811 92.5655C74.1657 92.4198 74.495 92.195 74.799 91.891L75.768 92.974C75.407 93.335 74.9573 93.6358 74.419 93.8765C73.887 94.1108 73.2917 94.228 72.633 94.228ZM69.992 88.376H74.97C74.97 87.825 74.8782 87.3342 74.6945 86.9035C74.5172 86.4665 74.2543 86.1245 73.906 85.8775C73.5577 85.6305 73.1333 85.507 72.633 85.507C71.93 85.507 71.3252 85.735 70.8185 86.191C70.3182 86.647 70.0427 87.3753 69.992 88.376ZM84.1363 94V85.735H82.6353V84.291H84.1363V82.676C84.1363 81.9793 84.32 81.4378 84.6873 81.0515C85.061 80.6652 85.5803 80.472 86.2453 80.472C86.5683 80.472 86.8786 80.51 87.1763 80.586C87.474 80.662 87.7653 80.776 88.0503 80.928V82.315C87.778 82.1883 87.5341 82.0965 87.3188 82.0395C87.1035 81.9825 86.885 81.954 86.6633 81.954C86.353 81.954 86.1281 82.0332 85.9888 82.1915C85.8558 82.3435 85.7893 82.6 85.7893 82.961V84.291H88.0503V85.735H85.7893V94H84.1363ZM89.9124 94V84.291H91.5654V85.564C91.7871 85.07 92.0911 84.6963 92.4774 84.443C92.8701 84.1897 93.3324 84.063 93.8644 84.063C94.4534 84.063 94.9538 84.2277 95.3654 84.557L95.1184 86.115C94.9094 85.9693 94.6909 85.8648 94.4629 85.8015C94.2413 85.7318 93.9974 85.697 93.7314 85.697C93.2944 85.697 92.9144 85.8142 92.5914 86.0485C92.2684 86.2828 92.0151 86.6122 91.8314 87.0365C91.6541 87.4608 91.5654 87.958 91.5654 88.528V94H89.9124ZM100.558 94.228C99.6711 94.228 98.9048 94.0095 98.2588 93.5725C97.6128 93.1355 97.1156 92.5338 96.7673 91.7675C96.419 91.0012 96.2448 90.124 96.2448 89.136C96.2448 88.0657 96.4253 87.1537 96.7863 86.4C97.1473 85.64 97.6508 85.0605 98.2968 84.6615C98.9428 84.2625 99.6965 84.063 100.558 84.063C101.286 84.063 101.954 84.2277 102.562 84.557C103.17 84.88 103.655 85.3835 104.016 86.0675C104.383 86.7452 104.567 87.616 104.567 88.68C104.567 88.832 104.56 89.0093 104.548 89.212C104.541 89.4083 104.529 89.611 104.51 89.82H97.9358C97.9991 90.409 98.1448 90.9252 98.3728 91.3685C98.6008 91.8118 98.9016 92.1602 99.2753 92.4135C99.649 92.6605 100.089 92.784 100.596 92.784C101.007 92.784 101.387 92.7112 101.736 92.5655C102.09 92.4198 102.42 92.195 102.724 91.891L103.693 92.974C103.332 93.335 102.882 93.6358 102.344 93.8765C101.812 94.1108 101.216 94.228 100.558 94.228ZM97.9168 88.376H102.895C102.895 87.825 102.803 87.3342 102.619 86.9035C102.442 86.4665 102.179 86.1245 101.831 85.8775C101.482 85.6305 101.058 85.507 100.558 85.507C99.8548 85.507 99.25 85.735 98.7433 86.191C98.243 86.647 97.9675 87.3753 97.9168 88.376ZM111.115 94.228C110.229 94.228 109.462 94.0095 108.816 93.5725C108.17 93.1355 107.673 92.5338 107.325 91.7675C106.977 91.0012 106.802 90.124 106.802 89.136C106.802 88.0657 106.983 87.1537 107.344 86.4C107.705 85.64 108.208 85.0605 108.854 84.6615C109.5 84.2625 110.254 84.063 111.115 84.063C111.844 84.063 112.512 84.2277 113.12 84.557C113.728 84.88 114.212 85.3835 114.573 86.0675C114.941 86.7452 115.124 87.616 115.124 88.68C115.124 88.832 115.118 89.0093 115.105 89.212C115.099 89.4083 115.086 89.611 115.067 89.82H108.493C108.557 90.409 108.702 90.9252 108.93 91.3685C109.158 91.8118 109.459 92.1602 109.833 92.4135C110.207 92.6605 110.647 92.784 111.153 92.784C111.565 92.784 111.945 92.7112 112.293 92.5655C112.648 92.4198 112.977 92.195 113.281 91.891L114.25 92.974C113.889 93.335 113.44 93.6358 112.901 93.8765C112.369 94.1108 111.774 94.228 111.115 94.228ZM108.474 88.376H113.452C113.452 87.825 113.361 87.3342 113.177 86.9035C113 86.4665 112.737 86.1245 112.388 85.8775C112.04 85.6305 111.616 85.507 111.115 85.507C110.412 85.507 109.808 85.735 109.301 86.191C108.801 86.647 108.525 87.3753 108.474 88.376Z" fill="#1D2E42"/>
    </g>
    <defs>
        <clipPath id="clip0_102_30">
            <rect width="127" height="98" fill="white"/>
        </clipPath>
    </defs>
</svg>
