<svg width="72" height="68" viewBox="0 0 72 68" fill="none" xmlns="http://www.w3.org/2000/svg">
    <path fill-rule="evenodd" clip-rule="evenodd" d="M34.5119 0.0615795C27.9279 0.435164 21.5496 4.32641 18.0571 10.1003C14.4671 16.0356 14.0143 23.2229 16.8291 29.5955C17.2243 30.4903 17.9336 31.8009 18.0227 31.8009C18.0786 31.8009 18.4965 31.5375 20.3549 30.3313C20.7494 30.0751 21.4378 29.6293 21.8848 29.3405C22.3317 29.0518 23.2172 28.4753 23.8526 28.0598C24.4879 27.6441 25.6596 26.8825 26.4565 26.3672L27.9053 25.4304V21.6796V17.929L29.8306 15.4433L31.756 12.9576V11.5441V10.1305L31.955 9.93118C32.1117 9.77445 32.2283 9.73147 32.5024 9.73C32.9521 9.72748 39.0853 9.72748 40.1832 9.73C40.9879 9.73189 41.0305 9.74008 41.2214 9.93118L41.4205 10.1305V11.5324V12.9344L42.1452 14.2241C42.5438 14.9333 42.8958 15.5413 42.9275 15.5751C42.9592 15.6088 43.61 15.2289 44.3735 14.7307C47.0859 12.9613 47.5298 12.6729 50.33 10.8624C51.8871 9.85544 53.1725 9.02202 53.1864 9.01033C53.3063 8.90848 51.9581 7.26733 50.8272 6.13819C49.7023 5.01515 48.916 4.36676 47.7251 3.58022C44.4981 1.44883 41.0333 0.272217 37.3476 0.0559114C36.058 -0.0196673 35.9397 -0.0194408 34.5119 0.0615795ZM53.0066 12.9669C52.0081 13.6194 49.6212 15.1736 47.7029 16.4207L44.2148 18.688L44.2143 25.288L44.2141 31.888L43.9934 32.1089L43.7727 32.3299H36.1373C27.9828 32.3299 28.1848 32.3387 28.0098 31.9737C27.9742 31.8994 27.9276 31.2673 27.9063 30.5688L27.8675 29.2989L23.8896 31.8866C20.2659 34.2438 19.9186 34.4874 19.9905 34.6218C20.1498 34.9198 22.2283 36.9207 23.0039 37.5227C26.1268 39.947 29.7484 41.4376 33.6159 41.8903C34.8669 42.0369 37.1806 42.0365 38.4354 41.8895C47.5298 40.8246 54.9046 33.9866 56.6237 25.0253C56.9139 23.5129 57.0052 22.5135 56.9998 20.9175C56.992 18.6855 56.6783 16.6748 56.0176 14.6204C55.6738 13.5519 54.9533 11.7692 54.8683 11.7766C54.8431 11.7788 54.0054 12.3144 53.0066 12.9669ZM31.4515 15.6804C30.7261 16.6242 30.1217 17.4405 30.1082 17.4943C30.0887 17.5725 30.4871 17.5921 32.0936 17.5921H34.1035L34.2887 17.7776C34.5616 18.0508 34.542 18.4284 34.2418 18.6813L34.0095 18.877H31.6746H29.3398V21.6796V24.4822L29.623 24.3092C29.8778 24.1534 31.0026 23.4217 33.0396 22.0868C33.4341 21.8282 34.4533 21.1663 35.3047 20.6158C36.156 20.0654 36.8776 19.5764 36.908 19.5294C36.9385 19.4823 36.9639 19.0899 36.9645 18.6575L36.9658 17.8711L38.1361 15.9612C38.7798 14.9106 39.3064 14.0317 39.3064 14.0078C39.3064 13.9839 37.8358 13.9643 36.0384 13.9643H32.7705L31.4515 15.6804ZM33.0584 25.9281L29.3398 28.3555V29.7009V31.0466L33.1339 31.0268L36.928 31.0073L36.9475 27.2472C36.9631 24.2615 36.9475 23.4887 36.8721 23.4942C36.8198 23.498 35.1036 24.5933 33.0584 25.9281Z" fill="#1D2E42"/>
    <path d="M1.33992 62V52.9H2.47092V60.908H6.94292V62H1.33992ZM10.3306 62.156C9.6113 62.156 9.0458 61.9567 8.63414 61.558C8.22247 61.1593 8.01664 60.6133 8.01664 59.92C8.01664 59.4737 8.11847 59.0858 8.32214 58.7565C8.5258 58.4272 8.81397 58.1737 9.18664 57.996C9.5593 57.814 9.99697 57.723 10.4996 57.723C10.8246 57.723 11.128 57.7598 11.4096 57.8335C11.6956 57.9028 11.9643 58.009 12.2156 58.152V57.684C12.2156 57.1683 12.0986 56.7913 11.8646 56.553C11.6306 56.3103 11.2666 56.189 10.7726 56.189C10.4563 56.189 10.127 56.2475 9.78464 56.3645C9.44664 56.4815 9.1303 56.644 8.83564 56.852L8.51064 55.903C8.8443 55.682 9.22347 55.5108 9.64814 55.3895C10.0771 55.2638 10.4996 55.201 10.9156 55.201C11.7043 55.201 12.2958 55.4025 12.6901 55.8055C13.0845 56.2042 13.2816 56.8 13.2816 57.593V62H12.2156V61.389C11.9556 61.636 11.6631 61.8267 11.3381 61.961C11.0131 62.091 10.6773 62.156 10.3306 62.156ZM10.4996 61.168C10.8073 61.168 11.1106 61.0922 11.4096 60.9405C11.713 60.7888 11.9816 60.5743 12.2156 60.297V59.153C11.9946 59.0143 11.7433 58.906 11.4616 58.828C11.18 58.75 10.9113 58.711 10.6556 58.711C10.1703 58.711 9.7868 58.8215 9.50514 59.0425C9.22347 59.2592 9.08264 59.556 9.08264 59.933C9.08264 60.3143 9.2083 60.6155 9.45964 60.8365C9.71097 61.0575 10.0576 61.168 10.4996 61.168ZM17.8058 62.156C17.2338 62.156 16.742 62.0173 16.3303 61.74C15.9187 61.4583 15.6023 61.0597 15.3813 60.544C15.1603 60.024 15.0498 59.4043 15.0498 58.685C15.0498 57.9613 15.1625 57.3395 15.3878 56.8195C15.6132 56.2995 15.9338 55.9008 16.3498 55.6235C16.7702 55.3418 17.2728 55.201 17.8578 55.201C18.4298 55.201 18.9152 55.3332 19.3138 55.5975C19.7125 55.8618 20.0028 56.2453 20.1848 56.748L19.1188 57.138C19.0105 56.852 18.848 56.6332 18.6313 56.4815C18.419 56.3298 18.1655 56.254 17.8708 56.254C17.3335 56.254 16.9218 56.462 16.6358 56.878C16.3498 57.294 16.2068 57.8963 16.2068 58.685C16.2068 59.4563 16.3477 60.05 16.6293 60.466C16.911 60.882 17.3118 61.09 17.8318 61.09C18.1655 61.09 18.4493 61.0033 18.6833 60.83C18.9217 60.6567 19.0885 60.414 19.1838 60.102L20.2368 60.453C20.0765 60.999 19.784 61.4193 19.3593 61.714C18.9347 62.0087 18.4168 62.156 17.8058 62.156ZM23.6589 62.156C23.2039 62.156 22.8551 62.0195 22.6124 61.7465C22.3741 61.4735 22.2549 61.0813 22.2549 60.57V56.345H21.1759V55.357H22.2549V53.16L23.3859 52.614V55.357H25.0239V56.345H23.3859V60.193C23.3859 60.5093 23.4401 60.7412 23.5484 60.8885C23.6611 61.0315 23.8366 61.103 24.0749 61.103C24.3782 61.103 24.7076 60.986 25.0629 60.752L24.9329 61.857C24.7379 61.961 24.5342 62.0368 24.3219 62.0845C24.1139 62.1322 23.8929 62.156 23.6589 62.156ZM29.147 62.156C28.237 62.156 27.5199 61.8462 26.9955 61.2265C26.4712 60.6025 26.209 59.7553 26.209 58.685C26.209 57.97 26.3282 57.3525 26.5665 56.8325C26.8049 56.3125 27.1429 55.9117 27.5805 55.63C28.0225 55.344 28.5447 55.201 29.147 55.201C29.7537 55.201 30.2759 55.3418 30.7135 55.6235C31.1555 55.9008 31.4935 56.2995 31.7275 56.8195C31.9659 57.3395 32.085 57.957 32.085 58.672C32.085 59.387 31.9659 60.0067 31.7275 60.531C31.4892 61.051 31.149 61.4518 30.707 61.7335C30.2694 62.0152 29.7494 62.156 29.147 62.156ZM29.147 61.103C29.706 61.103 30.1437 60.8885 30.46 60.4595C30.7807 60.0262 30.941 59.4303 30.941 58.672C30.941 57.9093 30.7807 57.3135 30.46 56.8845C30.1437 56.4555 29.706 56.241 29.147 56.241C28.5837 56.241 28.1439 56.4555 27.8275 56.8845C27.5112 57.3092 27.353 57.9093 27.353 58.685C27.353 59.4433 27.5112 60.037 27.8275 60.466C28.1439 60.8907 28.5837 61.103 29.147 61.103ZM35.6841 62.156C35.2161 62.156 34.7654 62.0563 34.3321 61.857C33.9031 61.6533 33.5521 61.3803 33.2791 61.038L34.0851 60.349C34.3191 60.6003 34.5791 60.7953 34.8651 60.934C35.1511 61.0727 35.4328 61.142 35.7101 61.142C36.1001 61.142 36.4034 61.0683 36.6201 60.921C36.8368 60.7693 36.9451 60.5613 36.9451 60.297C36.9451 60.1237 36.8953 59.9677 36.7956 59.829C36.7003 59.6903 36.5399 59.5582 36.3146 59.4325C36.0936 59.3068 35.7968 59.1747 35.4241 59.036C34.6918 58.763 34.1653 58.4662 33.8446 58.1455C33.5283 57.8248 33.3701 57.4283 33.3701 56.956C33.3701 56.436 33.5759 56.0135 33.9876 55.6885C34.4036 55.3635 34.9431 55.201 35.6061 55.201C36.0611 55.201 36.4793 55.2877 36.8606 55.461C37.2419 55.63 37.5691 55.877 37.8421 56.202L37.0621 56.852C36.6634 56.4273 36.1738 56.215 35.5931 56.215C35.2508 56.215 34.9799 56.2822 34.7806 56.4165C34.5856 56.5465 34.4881 56.7263 34.4881 56.956C34.4881 57.177 34.5986 57.372 34.8196 57.541C35.0449 57.7057 35.4501 57.8963 36.0351 58.113C36.5118 58.2863 36.8974 58.4748 37.1921 58.6785C37.4911 58.8822 37.7078 59.114 37.8421 59.374C37.9808 59.634 38.0501 59.933 38.0501 60.271C38.0501 60.856 37.8399 61.3175 37.4196 61.6555C36.9993 61.9892 36.4208 62.156 35.6841 62.156ZM42.2489 62.156C41.6422 62.156 41.1179 62.0065 40.6759 61.7075C40.2339 61.4085 39.8937 60.9968 39.6554 60.4725C39.4171 59.9482 39.2979 59.348 39.2979 58.672C39.2979 57.9397 39.4214 57.3157 39.6684 56.8C39.9154 56.28 40.2599 55.8835 40.7019 55.6105C41.1439 55.3375 41.6596 55.201 42.2489 55.201C42.7472 55.201 43.2044 55.3137 43.6204 55.539C44.0364 55.76 44.3679 56.1045 44.6149 56.5725C44.8662 57.0362 44.9919 57.632 44.9919 58.36C44.9919 58.464 44.9876 58.5853 44.9789 58.724C44.9746 58.8583 44.9659 58.997 44.9529 59.14H40.4549C40.4982 59.543 40.5979 59.8962 40.7539 60.1995C40.9099 60.5028 41.1157 60.7412 41.3714 60.9145C41.6271 61.0835 41.9282 61.168 42.2749 61.168C42.5566 61.168 42.8166 61.1182 43.0549 61.0185C43.2976 60.9188 43.5229 60.765 43.7309 60.557L44.3939 61.298C44.1469 61.545 43.8392 61.7508 43.4709 61.9155C43.1069 62.0758 42.6996 62.156 42.2489 62.156ZM40.4419 58.152H43.8479C43.8479 57.775 43.7851 57.4392 43.6594 57.1445C43.5381 56.8455 43.3582 56.6115 43.1199 56.4425C42.8816 56.2735 42.5912 56.189 42.2489 56.189C41.7679 56.189 41.3541 56.345 41.0074 56.657C40.6651 56.969 40.4766 57.4673 40.4419 58.152ZM50.1196 62V56.345H49.0926V55.357H50.1196V54.252C50.1196 53.7753 50.2452 53.4048 50.4966 53.1405C50.7522 52.8762 51.1076 52.744 51.5626 52.744C51.7836 52.744 51.9959 52.77 52.1996 52.822C52.4032 52.874 52.6026 52.952 52.7976 53.056V54.005C52.6112 53.9183 52.4444 53.8555 52.2971 53.8165C52.1497 53.7775 52.0002 53.758 51.8486 53.758C51.6362 53.758 51.4824 53.8122 51.3871 53.9205C51.2961 54.0245 51.2506 54.2 51.2506 54.447V55.357H52.7976V56.345H51.2506V62H50.1196ZM54.0717 62V55.357H55.2027V56.228C55.3543 55.89 55.5623 55.6343 55.8267 55.461C56.0953 55.2877 56.4117 55.201 56.7757 55.201C57.1787 55.201 57.521 55.3137 57.8027 55.539L57.6337 56.605C57.4907 56.5053 57.3412 56.4338 57.1852 56.3905C57.0335 56.3428 56.8667 56.319 56.6847 56.319C56.3857 56.319 56.1257 56.3992 55.9047 56.5595C55.6837 56.7198 55.5103 56.9452 55.3847 57.2355C55.2633 57.5258 55.2027 57.866 55.2027 58.256V62H54.0717ZM61.3553 62.156C60.7487 62.156 60.2243 62.0065 59.7823 61.7075C59.3403 61.4085 59.0002 60.9968 58.7618 60.4725C58.5235 59.9482 58.4043 59.348 58.4043 58.672C58.4043 57.9397 58.5278 57.3157 58.7748 56.8C59.0218 56.28 59.3663 55.8835 59.8083 55.6105C60.2503 55.3375 60.766 55.201 61.3553 55.201C61.8537 55.201 62.3108 55.3137 62.7268 55.539C63.1428 55.76 63.4743 56.1045 63.7213 56.5725C63.9727 57.0362 64.0983 57.632 64.0983 58.36C64.0983 58.464 64.094 58.5853 64.0853 58.724C64.081 58.8583 64.0723 58.997 64.0593 59.14H59.5613C59.6047 59.543 59.7043 59.8962 59.8603 60.1995C60.0163 60.5028 60.2222 60.7412 60.4778 60.9145C60.7335 61.0835 61.0347 61.168 61.3813 61.168C61.663 61.168 61.923 61.1182 62.1613 61.0185C62.404 60.9188 62.6293 60.765 62.8373 60.557L63.5003 61.298C63.2533 61.545 62.9457 61.7508 62.5773 61.9155C62.2133 62.0758 61.806 62.156 61.3553 62.156ZM59.5483 58.152H62.9543C62.9543 57.775 62.8915 57.4392 62.7658 57.1445C62.6445 56.8455 62.4647 56.6115 62.2263 56.4425C61.988 56.2735 61.6977 56.189 61.3553 56.189C60.8743 56.189 60.4605 56.345 60.1138 56.657C59.7715 56.969 59.583 57.4673 59.5483 58.152ZM68.579 62.156C67.9723 62.156 67.448 62.0065 67.006 61.7075C66.564 61.4085 66.2238 60.9968 65.9855 60.4725C65.7471 59.9482 65.628 59.348 65.628 58.672C65.628 57.9397 65.7515 57.3157 65.9985 56.8C66.2455 56.28 66.59 55.8835 67.032 55.6105C67.474 55.3375 67.9896 55.201 68.579 55.201C69.0773 55.201 69.5345 55.3137 69.9505 55.539C70.3665 55.76 70.698 56.1045 70.945 56.5725C71.1963 57.0362 71.322 57.632 71.322 58.36C71.322 58.464 71.3176 58.5853 71.309 58.724C71.3046 58.8583 71.296 58.997 71.283 59.14H66.785C66.8283 59.543 66.928 59.8962 67.084 60.1995C67.24 60.5028 67.4458 60.7412 67.7015 60.9145C67.9571 61.0835 68.2583 61.168 68.605 61.168C68.8866 61.168 69.1466 61.1182 69.385 61.0185C69.6276 60.9188 69.853 60.765 70.061 60.557L70.724 61.298C70.477 61.545 70.1693 61.7508 69.801 61.9155C69.437 62.0758 69.0296 62.156 68.579 62.156ZM66.772 58.152H70.178C70.178 57.775 70.1151 57.4392 69.9895 57.1445C69.8681 56.8455 69.6883 56.6115 69.45 56.4425C69.2116 56.2735 68.9213 56.189 68.579 56.189C68.098 56.189 67.6841 56.345 67.3375 56.657C66.9951 56.969 66.8066 57.4673 66.772 58.152Z" fill="#1D2E42"/>
</svg>
