<svg width="60" height="60" viewBox="0 0 60 60" fill="none" xmlns="http://www.w3.org/2000/svg">
<path fill-rule="evenodd" clip-rule="evenodd" d="M26.4875 0.133402C17.3624 1.41142 9.86157 6.05355 4.99107 13.4372C0.0904995 20.8662 -1.2821 30.0286 1.23232 38.5274C2.07317 41.3698 3.29403 44.0202 4.87274 46.4309C6.08881 48.288 6.8523 49.2368 8.45448 50.8823C13.0897 55.643 18.2468 58.3731 25.0504 59.6679C26.6734 59.9769 31.4732 60.1088 33.3283 59.8956C35.7774 59.6141 38.8798 58.8511 40.9157 58.0296C44.9737 56.392 47.8478 54.5263 50.9299 51.529C53.5559 48.9751 55.1236 46.8364 56.7931 43.5299C59.1154 38.9306 60.1464 34.2607 59.9833 29.0812C59.7704 22.3171 57.6543 16.5275 53.4328 11.1583C52.4485 9.90642 49.6635 7.14468 48.5238 6.29031C44.1945 3.04487 39.4732 1.01318 34.5044 0.257234C32.6798 -0.0202827 28.0911 -0.0912489 26.4875 0.133402ZM36.2309 15.3653C39.3853 16.1794 41.5475 19.3712 41.1044 22.5598C40.7237 25.3004 38.8311 27.4884 36.2385 28.1853C35.2229 28.4584 33.5633 28.434 32.5954 28.1318C30.766 27.5607 29.3259 26.3015 28.4753 24.5292L27.9845 23.5069L27.9861 21.8286C27.9879 19.906 28.1461 19.3398 29.0528 18.0117C29.8801 16.7999 31.5529 15.6274 32.9089 15.3087C33.6735 15.1291 35.4316 15.159 36.2309 15.3653ZM34.1763 17.9566C34.0972 18.0357 34.0326 18.2192 34.0326 18.3643C34.0326 18.5387 33.8907 18.7119 33.6145 18.875C32.4205 19.5802 32.4199 21.3032 33.6134 21.9746C33.8769 22.1229 34.2334 22.2452 34.4056 22.2462C35.2588 22.2515 35.6795 23.2899 35.0344 23.7978C34.4492 24.2586 33.8861 24.0399 33.6134 23.2458C33.4806 22.8592 33.4028 22.7876 33.1155 22.7876C32.807 22.7876 32.7715 22.8309 32.7372 23.2482C32.6913 23.8066 33.0653 24.4181 33.6433 24.73C33.9011 24.869 34.0326 25.0292 34.0326 25.2039C34.0326 25.46 34.314 25.8445 34.5015 25.8445C34.6824 25.8445 34.9907 25.4021 34.9907 25.1428C34.9907 24.9772 35.0945 24.84 35.2708 24.7729C35.6782 24.6179 36.1665 23.9848 36.2589 23.4918C36.4466 22.4904 35.7226 21.4976 34.692 21.343C33.9764 21.2356 33.6619 20.9729 33.6476 20.4709C33.6328 19.9486 34.006 19.5702 34.5217 19.5848C34.9727 19.5977 35.2271 19.8174 35.4029 20.3459C35.5664 20.8371 35.8612 21.0316 36.1183 20.818C36.5789 20.4354 36.1741 19.3271 35.4087 18.875C35.1747 18.7368 34.9907 18.5321 34.9907 18.41C34.9907 17.8548 34.5327 17.5998 34.1763 17.9566ZM42.7501 28.231C43.9485 28.8481 44.5073 30.1805 44.0387 31.3032C43.9431 31.5321 42.6369 33.4589 41.1359 35.585C37.1689 41.2042 36.7597 41.55 33.9727 41.6387C31.8288 41.7069 24.2378 41.3594 24.0258 41.1833C23.8803 41.0625 23.8527 40.2967 23.8527 36.3826V31.7256L24.7809 30.9314C25.9534 29.9282 26.5238 29.5931 27.3136 29.4431C28.413 29.2344 28.5303 29.2792 33.0706 31.6389C34.0237 32.1342 34.9742 32.6758 35.1831 32.8427C36.5229 33.9127 36.286 36.1875 34.7541 36.9631C33.8121 37.4401 33.1923 37.3537 30.6182 36.387C28.6353 35.6422 28.3448 35.5621 28.1897 35.7175C28.0823 35.8249 28.0412 36.0033 28.0845 36.1737C28.1448 36.4103 28.495 36.5836 30.3457 37.2928C32.471 38.1072 32.5673 38.1319 33.6134 38.1319C34.5735 38.1319 34.7524 38.096 35.2513 37.8024C36.6592 36.974 37.3285 35.2784 36.8613 33.7242C36.7703 33.4218 36.5817 33.0138 36.4422 32.8175C36.3025 32.6213 36.1883 32.3809 36.1883 32.2835C36.1883 31.9961 40.1318 28.4577 40.7527 28.188C41.3265 27.9386 42.2195 27.9579 42.7501 28.231ZM21.8369 30.7487C22.0683 30.9075 22.3874 31.2272 22.5461 31.4592L22.8347 31.8807V36.7533V41.6259L22.5053 42.1242C21.9533 42.959 21.5074 43.1069 19.5401 43.1069C17.4368 43.1069 16.9388 42.9109 16.4108 41.8752C16.1926 41.4474 16.1819 41.1629 16.2139 36.6516L16.2478 31.8804L16.5851 31.3705C17.1412 30.5297 17.5975 30.3902 19.6704 30.428C21.2915 30.4575 21.4463 30.4804 21.8369 30.7487Z" fill="white"/>
</svg>
