<svg width="60" height="60" viewBox="0 0 60 60" fill="none" xmlns="http://www.w3.org/2000/svg">
    <path fill-rule="evenodd" clip-rule="evenodd" d="M26.6454 0.112437C22.4246 0.622739 18.7342 1.83057 15.1438 3.87689C12.7557 5.23789 11.0308 6.53749 9.09079 8.43742C4.06591 13.3585 1.00382 19.5399 0.152951 26.4798C0.00891581 27.6547 -0.0517694 31.2348 0.0520326 32.4316C0.41943 36.6672 1.39093 40.0699 3.30128 43.8123C4.83242 46.8119 6.59317 49.2057 8.98497 51.5395C13.603 56.0455 19.1713 58.7845 25.8743 59.8471C26.7861 59.9916 27.0383 60.0011 29.9311 59.9999C33.2438 59.9985 33.4647 59.9823 35.4967 59.5923C41.8258 58.3772 47.7611 55.0802 52.0517 50.396C54.909 47.2765 57.0304 43.7053 58.3858 39.733C59.6928 35.9024 60.2416 31.5734 59.9015 27.7762C59.5791 24.177 58.863 21.25 57.5394 18.1216C53.931 9.59238 46.3551 3.12198 37.3145 0.847994C34.7008 0.1905 33.4654 0.044249 30.2329 0.00965112C28.0505 -0.0137276 27.5765 -0.000157215 26.6454 0.112437ZM32.5708 15.2784C33.1741 15.765 33.4179 16.4587 33.2225 17.1322C33.0998 17.5548 32.8403 17.8879 32.3935 18.1958L32.094 18.4023L27.4251 18.343L22.7562 18.2838L22.4966 18.1221C21.9635 17.7901 21.6366 16.9607 21.7781 16.2995C21.9347 15.5679 22.3918 15.1625 23.148 15.0844C23.4119 15.0572 25.5852 15.0455 27.9775 15.0584L32.3272 15.0818L32.5708 15.2784ZM31.641 22.2138L31.6746 24.33L32.1026 25.3041C32.338 25.8399 32.6031 26.4706 32.6917 26.7058C32.845 27.113 32.847 27.1376 32.733 27.2222C32.5315 27.3719 31.604 27.6525 31.0548 27.7301C30.0412 27.8731 29.2247 27.7071 27.8859 27.0859C26.479 26.4331 25.9675 26.3142 24.5667 26.3142C23.9336 26.3142 23.3869 26.351 23.0915 26.4137C22.8334 26.4685 22.5811 26.5134 22.531 26.5134C22.3952 26.5134 22.4714 26.2764 22.9618 25.1734L23.3932 24.203V22.133V20.063L27.5004 20.0803L31.6075 20.0976L31.641 22.2138ZM25.215 27.9916C25.4611 28.0273 25.8081 28.1047 25.9862 28.1636C26.2705 28.2576 27.6738 28.8517 27.745 28.9083C27.7598 28.92 27.5456 29.1668 27.2691 29.4567C26.5777 30.1817 26.5342 30.3195 26.5018 31.8878C26.4693 33.4645 26.5592 34.4403 26.8425 35.5827C27.2201 37.1061 27.868 38.4182 29.0883 40.1307C29.7491 41.058 29.789 41.1329 29.8115 41.4881C29.8246 41.6949 29.8832 42.3264 29.9417 42.8915C30.0003 43.4566 30.0268 43.9403 30.0008 43.9664C29.9747 43.9925 27.8346 44.0095 25.2448 44.0043C20.0819 43.9939 20.134 43.9976 19.3178 43.5847C18.4634 43.1526 17.8104 42.4685 17.3483 41.5212C17.0284 40.8654 16.929 40.2898 16.9901 39.4456C17.0438 38.7047 17.1904 38.3131 18.6496 35.0117C19.2212 33.7184 19.893 32.1918 20.1423 31.6191C20.6861 30.3705 21.1199 29.4744 21.31 29.2069C21.6041 28.7931 22.7544 28.2095 23.5608 28.065C24.4212 27.9108 24.6021 27.9028 25.215 27.9916ZM32.211 30.6416C32.9479 30.8011 34.196 31.223 34.2355 31.3259C34.2567 31.3814 34.0309 31.6777 33.677 32.0585C32.2676 33.5747 31.6485 34.4254 31.0389 35.6835C30.68 36.4239 30.2479 37.5877 30.1348 38.118C30.0284 38.617 29.8255 38.4258 29.2623 37.2958C28.5044 35.7752 28.2633 34.7183 28.155 32.4412L28.0919 31.1154L28.2683 30.8605C28.3652 30.7203 28.4924 30.575 28.5508 30.5377C28.7134 30.4339 31.6343 30.5168 32.211 30.6416ZM44.7165 30.7233C44.984 31.0234 45.0208 31.5119 44.9251 33.4892C44.8346 35.3562 44.7486 35.9394 44.4197 36.9147C43.1805 40.5901 40.4684 43.0193 36.7627 43.773C35.9821 43.9317 34.6649 44.0474 33.6373 44.0474H32.9038L33.1031 43.7955C33.2128 43.657 33.9985 42.8267 34.8492 41.9506C35.6999 41.0744 36.4426 40.2672 36.4995 40.1568C36.5565 40.0464 36.6031 39.8368 36.6031 39.691C36.6031 39.4719 36.5622 39.3899 36.3672 39.2184C36.0477 38.9373 35.8681 38.9034 35.5529 39.0645C35.4092 39.1379 34.4825 39.9944 33.4935 40.9677C32.5045 41.941 31.6724 42.746 31.6445 42.7565C31.5052 42.8089 31.4617 40.8985 31.5777 39.8292C31.9559 36.3476 34.0903 33.2383 37.2119 31.6219C38.3789 31.0175 39.4635 30.6836 40.7941 30.519C40.9048 30.5053 41.7899 30.4978 42.7611 30.5023L44.5269 30.5106L44.7165 30.7233Z" fill="white"/>
</svg>
