<svg width="70" height="72" viewBox="0 0 70 72" fill="none" xmlns="http://www.w3.org/2000/svg">
    <g clip-path="url(#clip0_1_14)">
        <path fill-rule="evenodd" clip-rule="evenodd" d="M30.5566 0.199617C30.2254 0.343758 29.5966 0.867519 27.4292 2.80416C25.6849 4.3629 25.5217 4.54297 25.1214 5.35041C24.2629 7.08217 19.7478 17.4995 19.0766 19.2969C17.8042 22.7046 17.5292 24.9189 17.8331 29.3097C17.9137 30.474 18.0265 31.5833 18.0838 31.7745C18.2486 32.3249 18.8145 32.89 19.5899 33.2787C22.0418 34.5079 25.9128 35.4332 30.1874 35.8115C33.0283 36.063 40.6484 36.1618 44.1051 35.992C45.9848 35.8996 46.9033 35.7273 47.8835 35.2828C49.8748 34.3799 51.3285 32.5979 51.8244 30.4519C52.2112 28.778 51.9434 26.5885 51.1758 25.1482C50.323 23.5483 48.5916 22.2226 46.6958 21.718C45.6878 21.4496 44.0689 21.4561 43.2025 21.732C42.0826 22.0886 41.2607 22.5733 40.3383 23.4212C40.0529 23.6836 39.7363 23.8982 39.6346 23.8982C39.5329 23.8982 39.2794 23.8114 39.0714 23.7053C38.6299 23.4801 37.6015 23.1192 37.0199 22.9855C34.3529 22.3723 31.2528 23.1117 29.3874 24.806C28.7664 25.3701 28.4043 25.6019 28.3026 25.5004C28.2246 25.4223 28.09 24.1054 28.0873 23.393C28.0857 22.991 28.0193 21.8131 27.9397 20.7755C27.6719 17.2869 27.9279 15.0851 28.9135 12.3979C29.7043 10.2416 29.7053 10.2407 31.3203 10.1715L32.5522 10.1187L33.5492 9.66045C34.2494 9.33869 34.7832 9.16142 35.3421 9.06494C36.2323 8.91132 36.4813 8.75021 36.7591 8.14838C36.9968 7.63328 36.9774 7.13226 36.704 6.72999C36.4323 6.33006 36.4262 6.21263 36.6546 5.76514C37.1272 4.83865 37.0929 4.15739 36.542 3.52739C36.1478 3.07665 32.7511 0.543316 32.1912 0.282382C31.6775 0.0430208 30.9956 0.00854326 30.5566 0.199617Z" fill="white"/>
    </g>
    <path d="M6.69051 71.24L2.89051 62.4C2.79051 62.1667 2.68385 61.9133 2.57051 61.64C2.46385 61.36 2.37051 61.1067 2.29051 60.88C2.31051 61.06 2.32385 61.3 2.33051 61.6C2.34385 61.8933 2.35051 62.16 2.35051 62.4V71H0.610513V57H2.25051L6.33051 66.42C6.39051 66.5667 6.45051 66.72 6.51051 66.88C6.57051 67.04 6.63051 67.2 6.69051 67.36C6.74385 67.2067 6.80051 67.0533 6.86051 66.9C6.92051 66.74 6.98385 66.58 7.05051 66.42L11.1105 57H12.7705V71H11.0305V62.4C11.0305 62.16 11.0338 61.89 11.0405 61.59C11.0538 61.2833 11.0638 61.04 11.0705 60.86C10.9905 61.0867 10.8905 61.3467 10.7705 61.64C10.6572 61.9333 10.5505 62.2 10.4505 62.44L6.69051 71.24ZM20.0047 71.24C18.7447 71.24 17.8081 70.8667 17.1947 70.12C16.5881 69.3733 16.2847 68.2267 16.2847 66.68V60.78H18.0247V66.94C18.0247 67.8067 18.2147 68.47 18.5947 68.93C18.9747 69.39 19.5181 69.62 20.2247 69.62C21.0047 69.62 21.5914 69.3967 21.9847 68.95C22.3847 68.5033 22.5847 67.8467 22.5847 66.98V60.78H24.3247V71H22.5847V70.02C22.2581 70.44 21.8881 70.75 21.4747 70.95C21.0681 71.1433 20.5781 71.24 20.0047 71.24ZM30.6743 71.24C29.9543 71.24 29.2609 71.0867 28.5943 70.78C27.9343 70.4667 27.3943 70.0467 26.9743 69.52L28.2143 68.46C28.5743 68.8467 28.9743 69.1467 29.4143 69.36C29.8543 69.5733 30.2876 69.68 30.7143 69.68C31.3143 69.68 31.7809 69.5667 32.1143 69.34C32.4476 69.1067 32.6143 68.7867 32.6143 68.38C32.6143 68.1133 32.5376 67.8733 32.3843 67.66C32.2376 67.4467 31.9909 67.2433 31.6443 67.05C31.3043 66.8567 30.8476 66.6533 30.2743 66.44C29.1476 66.02 28.3376 65.5633 27.8443 65.07C27.3576 64.5767 27.1143 63.9667 27.1143 63.24C27.1143 62.44 27.4309 61.79 28.0643 61.29C28.7043 60.79 29.5343 60.54 30.5543 60.54C31.2543 60.54 31.8976 60.6733 32.4843 60.94C33.0709 61.2 33.5743 61.58 33.9943 62.08L32.7943 63.08C32.1809 62.4267 31.4276 62.1 30.5343 62.1C30.0076 62.1 29.5909 62.2033 29.2843 62.41C28.9843 62.61 28.8343 62.8867 28.8343 63.24C28.8343 63.58 29.0043 63.88 29.3443 64.14C29.6909 64.3933 30.3143 64.6867 31.2143 65.02C31.9476 65.2867 32.5409 65.5767 32.9943 65.89C33.4543 66.2033 33.7876 66.56 33.9943 66.96C34.2076 67.36 34.3143 67.82 34.3143 68.34C34.3143 69.24 33.9909 69.95 33.3443 70.47C32.6976 70.9833 31.8076 71.24 30.6743 71.24ZM40.474 71.24C39.594 71.24 38.8373 71.0267 38.204 70.6C37.5706 70.1667 37.084 69.5533 36.744 68.76C36.404 67.96 36.234 67.0067 36.234 65.9C36.234 64.7867 36.4073 63.83 36.754 63.03C37.1006 62.23 37.594 61.6167 38.234 61.19C38.8806 60.7567 39.654 60.54 40.554 60.54C41.434 60.54 42.1806 60.7433 42.794 61.15C43.4073 61.5567 43.854 62.1467 44.134 62.92L42.494 63.52C42.3273 63.08 42.0773 62.7433 41.744 62.51C41.4173 62.2767 41.0273 62.16 40.574 62.16C39.7473 62.16 39.114 62.48 38.674 63.12C38.234 63.76 38.014 64.6867 38.014 65.9C38.014 67.0867 38.2306 68 38.664 68.64C39.0973 69.28 39.714 69.6 40.514 69.6C41.0273 69.6 41.464 69.4667 41.824 69.2C42.1906 68.9333 42.4473 68.56 42.594 68.08L44.214 68.62C43.9673 69.46 43.5173 70.1067 42.864 70.56C42.2106 71.0133 41.414 71.24 40.474 71.24ZM46.934 71V57.38L48.674 56.56V71H46.934ZM56.0083 71.24C55.075 71.24 54.2683 71.01 53.5883 70.55C52.9083 70.09 52.385 69.4567 52.0183 68.65C51.6517 67.8433 51.4683 66.92 51.4683 65.88C51.4683 64.7533 51.6583 63.7933 52.0383 63C52.4183 62.2 52.9483 61.59 53.6283 61.17C54.3083 60.75 55.1017 60.54 56.0083 60.54C56.775 60.54 57.4783 60.7133 58.1183 61.06C58.7583 61.4 59.2683 61.93 59.6483 62.65C60.035 63.3633 60.2283 64.28 60.2283 65.4C60.2283 65.56 60.2217 65.7467 60.2083 65.96C60.2017 66.1667 60.1883 66.38 60.1683 66.6H53.2483C53.315 67.22 53.4683 67.7633 53.7083 68.23C53.9483 68.6967 54.265 69.0633 54.6583 69.33C55.0517 69.59 55.515 69.72 56.0483 69.72C56.4817 69.72 56.8817 69.6433 57.2483 69.49C57.6217 69.3367 57.9683 69.1 58.2883 68.78L59.3083 69.92C58.9283 70.3 58.455 70.6167 57.8883 70.87C57.3283 71.1167 56.7017 71.24 56.0083 71.24ZM53.2283 65.08H58.4683C58.4683 64.5 58.3717 63.9833 58.1783 63.53C57.9917 63.07 57.715 62.71 57.3483 62.45C56.9817 62.19 56.535 62.06 56.0083 62.06C55.2683 62.06 54.6317 62.3 54.0983 62.78C53.5717 63.26 53.2817 64.0267 53.2283 65.08ZM65.6547 71.24C64.9347 71.24 64.2414 71.0867 63.5747 70.78C62.9147 70.4667 62.3747 70.0467 61.9547 69.52L63.1947 68.46C63.5547 68.8467 63.9547 69.1467 64.3947 69.36C64.8347 69.5733 65.2681 69.68 65.6947 69.68C66.2947 69.68 66.7614 69.5667 67.0947 69.34C67.4281 69.1067 67.5947 68.7867 67.5947 68.38C67.5947 68.1133 67.5181 67.8733 67.3647 67.66C67.2181 67.4467 66.9714 67.2433 66.6247 67.05C66.2847 66.8567 65.8281 66.6533 65.2547 66.44C64.1281 66.02 63.3181 65.5633 62.8247 65.07C62.3381 64.5767 62.0947 63.9667 62.0947 63.24C62.0947 62.44 62.4114 61.79 63.0447 61.29C63.6847 60.79 64.5147 60.54 65.5347 60.54C66.2347 60.54 66.8781 60.6733 67.4647 60.94C68.0514 61.2 68.5547 61.58 68.9747 62.08L67.7747 63.08C67.1614 62.4267 66.4081 62.1 65.5147 62.1C64.9881 62.1 64.5714 62.2033 64.2647 62.41C63.9647 62.61 63.8147 62.8867 63.8147 63.24C63.8147 63.58 63.9847 63.88 64.3247 64.14C64.6714 64.3933 65.2947 64.6867 66.1947 65.02C66.9281 65.2867 67.5214 65.5767 67.9747 65.89C68.4347 66.2033 68.7681 66.56 68.9747 66.96C69.1881 67.36 69.2947 67.82 69.2947 68.34C69.2947 69.24 68.9714 69.95 68.3247 70.47C67.6781 70.9833 66.7881 71.24 65.6547 71.24Z" fill="white"/>
    <defs>
        <clipPath id="clip0_1_14">
            <rect width="36" height="36" fill="white" transform="translate(17.0001)"/>
        </clipPath>
    </defs>
</svg>
