<svg width="41" height="68" viewBox="0 0 41 68" fill="none" xmlns="http://www.w3.org/2000/svg">
    <path fill-rule="evenodd" clip-rule="evenodd" d="M21.7636 0.0984915C19.1547 0.56139 16.9929 2.3821 16.1276 4.84511C15.6945 6.07791 15.7074 5.69545 15.7289 16.6637L15.7483 26.5939L15.8991 26.8928C15.9821 27.0572 16.1095 27.2664 16.1822 27.3577L16.3144 27.5238L16.4932 27.2913C16.5915 27.1635 16.9453 26.7878 17.2795 26.4565C19.6242 24.1319 23.0683 23.47 26.1749 24.7468C27.2269 25.1792 28.4037 26.0379 29.1593 26.9243C29.4248 27.2358 29.6633 27.4906 29.6894 27.4906C29.7741 27.4906 30.1377 26.8668 30.2122 26.5939C30.2628 26.4086 30.2848 23.3514 30.285 16.4898C30.2854 5.88509 30.2922 6.10986 29.9388 5.03979C29.2164 2.85224 27.5487 1.14651 25.4063 0.403637C24.2714 0.0100833 22.9062 -0.10423 21.7636 0.0984915ZM13.3496 9.03012C11.3626 11.2223 10.2184 13.9546 10.0328 16.9507C9.99841 17.5052 9.96947 21.5682 9.96853 25.9795L9.9668 34H23.0001H36.0335L36.0317 25.9795C36.0308 21.5682 36.0021 17.5106 35.9678 16.9626C35.8642 15.2999 35.5024 13.8254 34.8352 12.3463C34.313 11.1884 33.4608 9.90132 32.6305 9.01657L32.2956 8.65982L32.292 17.5604C32.2888 25.0882 32.2732 26.5315 32.191 26.9174C31.8837 28.3587 30.684 29.5947 29.216 29.9824C28.6679 30.1272 17.3324 30.1272 16.7842 29.9824C16.103 29.8025 15.4621 29.434 14.9477 28.9266C14.4301 28.4161 14.1444 27.9704 13.8991 27.2913L13.7431 26.8596L13.7097 17.7647L13.6763 8.66972L13.3496 9.03012ZM21.7302 26.2202C20.653 26.4541 19.6017 26.9992 18.7894 27.7449L18.4218 28.0824L22.9642 28.0854L27.5067 28.0884L27.1749 27.7528C26.5587 27.1291 25.5229 26.5524 24.5388 26.2852C23.8081 26.0868 22.4856 26.0561 21.7302 26.2202Z" fill="white"/>
    <path d="M0.0752345 67V53H1.83523L8.03523 62.96C8.13524 63.1267 8.2319 63.2933 8.32523 63.46C8.41857 63.6267 8.51524 63.8067 8.61524 64C8.60857 63.8267 8.59857 63.6533 8.58523 63.48C8.57857 63.3067 8.57523 63.14 8.57523 62.98V53H10.3152V67H8.63523L2.33523 57C2.24857 56.8467 2.15523 56.6867 2.05523 56.52C1.9619 56.3533 1.86857 56.1867 1.77523 56.02C1.78857 56.1667 1.79857 56.3267 1.80523 56.5C1.8119 56.6733 1.81523 56.84 1.81523 57V67H0.0752345ZM16.2899 67.24C15.1833 67.24 14.3133 66.9333 13.6799 66.32C13.0466 65.7067 12.7299 64.8667 12.7299 63.8C12.7299 63.1133 12.8866 62.5167 13.1999 62.01C13.5133 61.5033 13.9566 61.1133 14.5299 60.84C15.1033 60.56 15.7766 60.42 16.5499 60.42C17.0499 60.42 17.5166 60.4767 17.9499 60.59C18.3899 60.6967 18.8033 60.86 19.1899 61.08V60.36C19.1899 59.5667 19.0099 58.9867 18.6499 58.62C18.2899 58.2467 17.7299 58.06 16.9699 58.06C16.4833 58.06 15.9766 58.15 15.4499 58.33C14.9299 58.51 14.4433 58.76 13.9899 59.08L13.4899 57.62C14.0033 57.28 14.5866 57.0167 15.2399 56.83C15.8999 56.6367 16.5499 56.54 17.1899 56.54C18.4033 56.54 19.3133 56.85 19.9199 57.47C20.5266 58.0833 20.8299 59 20.8299 60.22V67H19.1899V66.06C18.7899 66.44 18.3399 66.7333 17.8399 66.94C17.3399 67.14 16.8233 67.24 16.2899 67.24ZM16.5499 65.72C17.0233 65.72 17.4899 65.6033 17.9499 65.37C18.4166 65.1367 18.8299 64.8067 19.1899 64.38V62.62C18.8499 62.4067 18.4633 62.24 18.0299 62.12C17.5966 62 17.1833 61.94 16.7899 61.94C16.0433 61.94 15.4533 62.11 15.0199 62.45C14.5866 62.7833 14.3699 63.24 14.3699 63.82C14.3699 64.4067 14.5633 64.87 14.9499 65.21C15.3366 65.55 15.8699 65.72 16.5499 65.72ZM23.8773 67V56.78H25.6173V67H23.8773ZM24.7373 54.92C24.4373 54.92 24.1806 54.8167 23.9673 54.61C23.7606 54.3967 23.6573 54.14 23.6573 53.84C23.6573 53.5267 23.7606 53.2633 23.9673 53.05C24.1806 52.83 24.4373 52.72 24.7373 52.72C25.0506 52.72 25.3106 52.83 25.5173 53.05C25.7306 53.2633 25.8373 53.5267 25.8373 53.84C25.8373 54.14 25.7306 54.3967 25.5173 54.61C25.3106 54.8167 25.0506 54.92 24.7373 54.92ZM29.0354 67V53.38L30.7754 52.56V67H29.0354ZM37.1898 67.24C36.4698 67.24 35.7764 67.0867 35.1098 66.78C34.4498 66.4667 33.9098 66.0467 33.4898 65.52L34.7298 64.46C35.0898 64.8467 35.4898 65.1467 35.9298 65.36C36.3698 65.5733 36.8031 65.68 37.2298 65.68C37.8298 65.68 38.2964 65.5667 38.6298 65.34C38.9631 65.1067 39.1298 64.7867 39.1298 64.38C39.1298 64.1133 39.0531 63.8733 38.8998 63.66C38.7531 63.4467 38.5064 63.2433 38.1598 63.05C37.8198 62.8567 37.3631 62.6533 36.7898 62.44C35.6631 62.02 34.8531 61.5633 34.3598 61.07C33.8731 60.5767 33.6298 59.9667 33.6298 59.24C33.6298 58.44 33.9464 57.79 34.5798 57.29C35.2198 56.79 36.0498 56.54 37.0698 56.54C37.7698 56.54 38.4131 56.6733 38.9998 56.94C39.5864 57.2 40.0898 57.58 40.5098 58.08L39.3098 59.08C38.6964 58.4267 37.9431 58.1 37.0498 58.1C36.5231 58.1 36.1064 58.2033 35.7998 58.41C35.4998 58.61 35.3498 58.8867 35.3498 59.24C35.3498 59.58 35.5198 59.88 35.8598 60.14C36.2064 60.3933 36.8298 60.6867 37.7298 61.02C38.4631 61.2867 39.0564 61.5767 39.5098 61.89C39.9698 62.2033 40.3031 62.56 40.5098 62.96C40.7231 63.36 40.8298 63.82 40.8298 64.34C40.8298 65.24 40.5064 65.95 39.8598 66.47C39.2131 66.9833 38.3231 67.24 37.1898 67.24Z" fill="white"/>
</svg>
