<svg width="41" height="70" viewBox="0 0 41 70" fill="none" xmlns="http://www.w3.org/2000/svg">
    <path fill-rule="evenodd" clip-rule="evenodd" d="M18.7636 0.0984915C16.1547 0.56139 13.9929 2.3821 13.1276 4.84511C12.6945 6.07791 12.7074 5.69545 12.7289 16.6637L12.7483 26.5939L12.8991 26.8928C12.9821 27.0572 13.1095 27.2664 13.1822 27.3577L13.3144 27.5238L13.4932 27.2913C13.5915 27.1635 13.9453 26.7878 14.2795 26.4565C16.6242 24.1319 20.0683 23.47 23.1749 24.7468C24.2269 25.1792 25.4037 26.0379 26.1593 26.9243C26.4248 27.2358 26.6633 27.4906 26.6894 27.4906C26.7741 27.4906 27.1377 26.8668 27.2122 26.5939C27.2628 26.4086 27.2848 23.3514 27.285 16.4898C27.2854 5.88509 27.2922 6.10986 26.9388 5.03979C26.2164 2.85224 24.5487 1.14651 22.4063 0.403637C21.2714 0.0100833 19.9062 -0.10423 18.7636 0.0984915ZM10.3496 9.03012C8.36257 11.2223 7.21837 13.9546 7.03277 16.9507C6.99841 17.5052 6.96947 21.5682 6.96853 25.9795L6.9668 34H20.0001H33.0335L33.0317 25.9795C33.0308 21.5682 33.0021 17.5106 32.9678 16.9626C32.8642 15.2999 32.5024 13.8254 31.8352 12.3463C31.313 11.1884 30.4608 9.90132 29.6305 9.01657L29.2956 8.65982L29.292 17.5604C29.2888 25.0882 29.2732 26.5315 29.191 26.9174C28.8837 28.3587 27.684 29.5947 26.216 29.9824C25.6679 30.1272 14.3324 30.1272 13.7842 29.9824C13.103 29.8025 12.4621 29.434 11.9477 28.9266C11.4301 28.4161 11.1444 27.9704 10.8991 27.2913L10.7431 26.8596L10.7097 17.7647L10.6763 8.66972L10.3496 9.03012ZM18.7302 26.2202C17.653 26.4541 16.6017 26.9992 15.7894 27.7449L15.4218 28.0824L19.9642 28.0854L24.5067 28.0884L24.1749 27.7528C23.5587 27.1291 22.5229 26.5524 21.5388 26.2852C20.8081 26.0868 19.4856 26.0561 18.7302 26.2202Z" fill="white"/>
    <path d="M0.0752345 69V55H1.83523L8.03523 64.96C8.13524 65.1267 8.2319 65.2933 8.32523 65.46C8.41857 65.6267 8.51524 65.8067 8.61524 66C8.60857 65.8267 8.59857 65.6533 8.58523 65.48C8.57857 65.3067 8.57523 65.14 8.57523 64.98V55H10.3152V69H8.63523L2.33523 59C2.24857 58.8467 2.15523 58.6867 2.05523 58.52C1.9619 58.3533 1.86857 58.1867 1.77523 58.02C1.78857 58.1667 1.79857 58.3267 1.80523 58.5C1.8119 58.6733 1.81523 58.84 1.81523 59V69H0.0752345ZM16.2899 69.24C15.1833 69.24 14.3133 68.9333 13.6799 68.32C13.0466 67.7067 12.7299 66.8667 12.7299 65.8C12.7299 65.1133 12.8866 64.5167 13.1999 64.01C13.5133 63.5033 13.9566 63.1133 14.5299 62.84C15.1033 62.56 15.7766 62.42 16.5499 62.42C17.0499 62.42 17.5166 62.4767 17.9499 62.59C18.3899 62.6967 18.8033 62.86 19.1899 63.08V62.36C19.1899 61.5667 19.0099 60.9867 18.6499 60.62C18.2899 60.2467 17.7299 60.06 16.9699 60.06C16.4833 60.06 15.9766 60.15 15.4499 60.33C14.9299 60.51 14.4433 60.76 13.9899 61.08L13.4899 59.62C14.0033 59.28 14.5866 59.0167 15.2399 58.83C15.8999 58.6367 16.5499 58.54 17.1899 58.54C18.4033 58.54 19.3133 58.85 19.9199 59.47C20.5266 60.0833 20.8299 61 20.8299 62.22V69H19.1899V68.06C18.7899 68.44 18.3399 68.7333 17.8399 68.94C17.3399 69.14 16.8233 69.24 16.2899 69.24ZM16.5499 67.72C17.0233 67.72 17.4899 67.6033 17.9499 67.37C18.4166 67.1367 18.8299 66.8067 19.1899 66.38V64.62C18.8499 64.4067 18.4633 64.24 18.0299 64.12C17.5966 64 17.1833 63.94 16.7899 63.94C16.0433 63.94 15.4533 64.11 15.0199 64.45C14.5866 64.7833 14.3699 65.24 14.3699 65.82C14.3699 66.4067 14.5633 66.87 14.9499 67.21C15.3366 67.55 15.8699 67.72 16.5499 67.72ZM23.8773 69V58.78H25.6173V69H23.8773ZM24.7373 56.92C24.4373 56.92 24.1806 56.8167 23.9673 56.61C23.7606 56.3967 23.6573 56.14 23.6573 55.84C23.6573 55.5267 23.7606 55.2633 23.9673 55.05C24.1806 54.83 24.4373 54.72 24.7373 54.72C25.0506 54.72 25.3106 54.83 25.5173 55.05C25.7306 55.2633 25.8373 55.5267 25.8373 55.84C25.8373 56.14 25.7306 56.3967 25.5173 56.61C25.3106 56.8167 25.0506 56.92 24.7373 56.92ZM29.0354 69V55.38L30.7754 54.56V69H29.0354ZM37.1898 69.24C36.4698 69.24 35.7764 69.0867 35.1098 68.78C34.4498 68.4667 33.9098 68.0467 33.4898 67.52L34.7298 66.46C35.0898 66.8467 35.4898 67.1467 35.9298 67.36C36.3698 67.5733 36.8031 67.68 37.2298 67.68C37.8298 67.68 38.2964 67.5667 38.6298 67.34C38.9631 67.1067 39.1298 66.7867 39.1298 66.38C39.1298 66.1133 39.0531 65.8733 38.8998 65.66C38.7531 65.4467 38.5064 65.2433 38.1598 65.05C37.8198 64.8567 37.3631 64.6533 36.7898 64.44C35.6631 64.02 34.8531 63.5633 34.3598 63.07C33.8731 62.5767 33.6298 61.9667 33.6298 61.24C33.6298 60.44 33.9464 59.79 34.5798 59.29C35.2198 58.79 36.0498 58.54 37.0698 58.54C37.7698 58.54 38.4131 58.6733 38.9998 58.94C39.5864 59.2 40.0898 59.58 40.5098 60.08L39.3098 61.08C38.6964 60.4267 37.9431 60.1 37.0498 60.1C36.5231 60.1 36.1064 60.2033 35.7998 60.41C35.4998 60.61 35.3498 60.8867 35.3498 61.24C35.3498 61.58 35.5198 61.88 35.8598 62.14C36.2064 62.3933 36.8298 62.6867 37.7298 63.02C38.4631 63.2867 39.0564 63.5767 39.5098 63.89C39.9698 64.2033 40.3031 64.56 40.5098 64.96C40.7231 65.36 40.8298 65.82 40.8298 66.34C40.8298 67.24 40.5064 67.95 39.8598 68.47C39.2131 68.9833 38.3231 69.24 37.1898 69.24Z" fill="white"/>
</svg>
