<svg width="60" height="60" viewBox="0 0 60 60" fill="none" xmlns="http://www.w3.org/2000/svg">
<path fill-rule="evenodd" clip-rule="evenodd" d="M27.9024 0.0453351C17.4474 0.831278 8.20111 6.87574 3.46788 16.0186C0.139812 22.4471 -0.801501 29.322 0.681393 36.3695C1.18808 38.7779 1.89997 40.7881 3.12499 43.2699C6.00302 49.1008 10.5685 53.745 16.2929 56.6653C23.7377 60.4632 31.9923 61.0319 39.9462 58.2951C43.0257 57.2353 46.0733 55.5642 48.6801 53.5058C49.9359 52.5142 52.4796 49.9713 53.4852 48.7023C56.8092 44.5075 58.9012 39.6908 59.7414 34.2977C59.9871 32.7199 60.0833 28.8276 59.9169 27.1902C59.1622 19.7633 55.7175 12.7843 50.4496 8.00954C49.3005 6.96794 49.1244 6.81896 48.2541 6.15196C44.0093 2.89869 39.0019 0.858015 33.6346 0.194229C32.2362 0.0212438 29.2537 -0.0562262 27.9024 0.0453351ZM42.7448 15.1082C43.2253 15.3088 43.3047 15.5373 43.2375 16.5278C43.0475 19.334 41.326 21.901 38.7457 23.226C37.5536 23.8381 36.8153 24.0331 35.2076 24.1604L33.8128 24.271V25.19V26.1092L34.3565 26.2184C36.1841 26.5852 37.4316 27.1933 38.7052 28.338C39.2668 28.8427 40.3379 30.218 40.3379 30.4344C40.3379 30.5675 37.8089 33.3027 37.6857 33.3027C37.6552 33.3027 37.5745 33.0235 37.5066 32.6821C37.2669 31.4772 36.2405 30.3614 35.0237 29.9831C34.6359 29.8625 34.0068 29.7786 33.2018 29.7402L31.9721 29.6814L31.3558 29.2571C30.658 28.7768 29.5335 28.2353 28.5839 27.9223C27.8189 27.6702 27.8353 27.6176 28.8311 27.126C29.7019 26.6962 30.4805 26.4236 31.2595 26.2757L31.8742 26.1591L31.9009 25.2102L31.9278 24.2613L30.9184 24.1961C30.3633 24.1602 29.6916 24.0869 29.4259 24.0331C28.7678 23.8999 27.3468 23.1911 26.7529 22.6997C25.4144 21.5923 24.5677 20.0128 24.3998 18.3096C24.3181 17.4819 24.4726 17.1228 24.9826 16.9546C25.4793 16.7908 28.2884 16.8916 29.0321 17.0999C30.1695 17.4186 31.364 18.1794 32.2546 19.1526C32.5531 19.4787 32.8132 19.7022 32.8327 19.6494C32.945 19.345 33.7094 18.306 34.251 17.7216C35.5246 16.3473 37.4055 15.3348 39.1587 15.0796C40.1278 14.9387 42.3814 14.9565 42.7448 15.1082ZM26.2337 29.2442C27.7721 29.4369 29.1983 30.0159 30.5502 30.9967L31.3068 31.5455L32.8198 31.6118C33.652 31.6483 34.418 31.7099 34.522 31.7486C34.9132 31.8943 35.3524 32.302 35.5232 32.6777C35.842 33.379 35.7361 34.143 35.2489 34.6574C34.6898 35.2478 34.7837 35.2352 30.5883 35.2867C26.388 35.3384 26.5328 35.3174 26.2846 35.9107C26.1243 36.2939 26.232 36.6839 26.5671 36.9336C26.8237 37.1249 26.9266 37.129 31.4322 37.129C35.0948 37.129 36.1124 37.1025 36.4134 36.9989C36.7067 36.898 37.4389 36.2271 39.6759 34.0095C41.2622 32.437 42.6963 31.0819 42.8628 30.9984C43.2604 30.7987 43.7925 30.809 44.2698 31.0255C45.3889 31.5333 45.5539 32.9266 44.6454 34.1986C44.1067 34.9528 40.2458 39.9437 39.0436 41.4399C38.3187 42.3422 38.0897 42.5664 37.8476 42.6113C37.6829 42.6419 34.7395 42.6508 31.3068 42.631C24.198 42.5901 24.7679 42.6466 21.992 41.7082C21.0818 41.4005 20.1456 41.1036 19.9115 41.0482C19.6775 40.993 18.1462 40.9078 16.5086 40.8588C13.1928 40.76 13.1496 40.7506 12.9796 40.0979C12.8461 39.5857 12.9402 32.3562 13.0837 32.1004C13.2971 31.7198 13.5365 31.6746 15.6963 31.6062L17.7838 31.5402L19.6751 30.635C20.7154 30.1372 21.8669 29.6393 22.2342 29.5285C23.4286 29.1684 24.8323 29.0686 26.2337 29.2442Z" fill="white"/>
</svg>
