<svg width="89" height="98" viewBox="0 0 89 98" fill="none" xmlns="http://www.w3.org/2000/svg">
    <g clip-path="url(#clip0_102_25)">
        <path fill-rule="evenodd" clip-rule="evenodd" d="M41.7906 0.117496C36.1422 0.773666 31.1157 2.7863 26.7094 6.156C24.4959 7.84877 22.1569 10.2753 20.5486 12.5476C17.5807 16.7408 15.8864 21.1023 15.163 26.4118C14.9685 27.8385 14.9418 31.7316 15.1167 33.1605C15.4617 35.9796 16.0884 38.5263 17.0267 40.9224C17.5381 42.2283 18.8217 44.8944 19.0498 45.1245C19.1389 45.2145 20.5124 44.3562 26.3262 40.5789C30.2679 38.0181 34.0638 35.5554 34.7615 35.106L36.0301 34.2894L37.1379 32.2587C37.7472 31.1415 38.4037 29.9337 38.5969 29.5743C38.7901 29.2149 39.2956 28.2979 39.7203 27.5366L40.4925 26.1522L40.517 22.9422L40.5416 19.7322L40.1406 19.5789C38.2862 18.8698 38.1243 16.1212 39.8817 15.1795C40.228 14.9939 40.2996 14.9908 44.7569 14.9658C49.8675 14.9373 49.8852 14.939 50.5767 15.5486C51.9021 16.7165 51.5202 18.9662 49.8912 19.5891L49.5228 19.73V22.6218C49.5228 24.9125 49.5453 25.5 49.6308 25.448C49.9209 25.2718 55.6566 21.5542 58.5531 19.6649C58.9332 19.417 60.9165 18.1314 62.9601 16.8081C65.004 15.4848 66.8316 14.2953 67.0218 14.1648C67.2117 14.0341 67.8243 13.6312 68.3826 13.2692C68.9412 12.9072 69.3981 12.5781 69.3981 12.5378C69.3981 12.4253 68.5866 11.3667 67.7634 10.4055C62.802 4.61154 55.872 0.978806 48.1401 0.118707C46.722 -0.0390195 43.1437 -0.0397119 41.7906 0.117496ZM69.0093 17.6428C67.6308 18.5448 64.4421 20.6193 61.9233 22.2532C54.5748 27.0193 51.2961 29.1501 51.2691 29.1769C51.2553 29.1906 52.2051 30.9669 53.3793 33.1239C54.5934 35.3532 55.6107 37.3275 55.7373 37.6986C55.9548 38.3376 55.9596 38.4027 55.9602 40.731L55.9605 43.1103L55.704 43.5738C55.3848 44.1513 54.903 44.571 54.3009 44.7966C53.8476 44.9664 53.637 44.9703 45.036 44.9703C35.0411 44.9703 35.6984 45.0162 34.8754 44.2632C34.1624 43.6107 34.0229 43.2045 33.9844 41.6694L33.9526 40.4016L32.2537 41.5014C25.4699 45.8925 21.6364 48.3891 21.5324 48.4839C21.4296 48.5775 21.4898 48.6927 21.9211 49.2267C22.7443 50.2464 24.9344 52.3881 26.1477 53.3601C27.2835 54.27 29.2573 55.6167 30.2092 56.1315C30.4943 56.2857 30.9221 56.5209 31.1597 56.6544C32.3322 57.3126 34.8928 58.3314 36.5606 58.8036C43.8226 60.8583 51.3453 60.2544 57.9588 57.0855C61.3476 55.4616 64.1661 53.3997 66.8901 50.5509C70.7799 46.4835 73.5036 41.121 74.5368 35.4963C74.9184 33.4203 75.0402 31.7511 74.9889 29.3102C74.9106 25.6068 74.4021 22.8917 73.1418 19.4469C72.7365 18.3393 71.6598 15.9793 71.5671 15.9946C71.5386 15.9993 70.3875 16.7409 69.0093 17.6428ZM40.6787 17.0095C40.4911 17.2171 40.4972 17.4818 40.6937 17.6598C40.832 17.7851 41.1247 17.803 43.0355 17.803H45.2193L45.513 18.0972C46.0131 18.5976 45.8793 19.317 45.2367 19.5858C45.0273 19.6734 44.5335 19.7065 43.4333 19.7065H41.9183V23.2275V26.7485L41.0928 28.3027C40.466 29.4829 40.2945 29.8743 40.38 29.9296C40.7203 30.1497 41.6831 30.2619 42.0992 30.1296C42.2034 30.0966 42.4657 29.957 42.6821 29.8196C42.8985 29.6822 43.1252 29.5698 43.1859 29.5698C43.2466 29.5698 44.2792 28.9332 45.4806 28.1552L47.6649 26.7406L47.7081 22.5242L47.7513 18.3079L48.0336 18.0554C48.2838 17.8316 48.3792 17.803 48.876 17.803C49.3212 17.803 49.4718 17.7675 49.6092 17.63C49.8171 17.4217 49.8252 17.2977 49.6476 17.0436L49.5129 16.8513H45.1674C41.0671 16.8513 40.8137 16.8602 40.6787 17.0095Z" fill="#1D2E42"/>
        <path d="M5.6994 94V80.7H7.3714L13.2614 90.162C13.3564 90.3203 13.4482 90.4787 13.5369 90.637C13.6256 90.7953 13.7174 90.9663 13.8124 91.15C13.8061 90.9853 13.7966 90.8207 13.7839 90.656C13.7776 90.4913 13.7744 90.333 13.7744 90.181V80.7H15.4274V94H13.8314L7.8464 84.5C7.76407 84.3543 7.6754 84.2023 7.5804 84.044C7.49174 83.8857 7.40307 83.7273 7.3144 83.569C7.32707 83.7083 7.33657 83.8603 7.3429 84.025C7.34924 84.1897 7.3524 84.348 7.3524 84.5V94H5.6994ZM22.6277 94.228C21.2977 94.228 20.2495 93.7752 19.4832 92.8695C18.7168 91.9575 18.3337 90.7193 18.3337 89.155C18.3337 88.11 18.5078 87.2075 18.8562 86.4475C19.2045 85.6875 19.6985 85.1017 20.3382 84.69C20.9842 84.272 21.7473 84.063 22.6277 84.063C23.5143 84.063 24.2775 84.2688 24.9172 84.6805C25.5632 85.0858 26.0572 85.6685 26.3992 86.4285C26.7475 87.1885 26.9217 88.091 26.9217 89.136C26.9217 90.181 26.7475 91.0867 26.3992 91.853C26.0508 92.613 25.5537 93.1988 24.9077 93.6105C24.268 94.0222 23.508 94.228 22.6277 94.228ZM22.6277 92.689C23.4447 92.689 24.0843 92.3755 24.5467 91.7485C25.0153 91.1152 25.2497 90.2443 25.2497 89.136C25.2497 88.0213 25.0153 87.1505 24.5467 86.5235C24.0843 85.8965 23.4447 85.583 22.6277 85.583C21.8043 85.583 21.1615 85.8965 20.6992 86.5235C20.2368 87.1442 20.0057 88.0213 20.0057 89.155C20.0057 90.2633 20.2368 91.131 20.6992 91.758C21.1615 92.3787 21.8043 92.689 22.6277 92.689ZM29.4056 94V84.291H31.0586V85.279C31.3563 84.8673 31.7141 84.5633 32.1321 84.367C32.5501 84.1643 33.0283 84.063 33.5666 84.063C34.7446 84.063 35.6186 84.4208 36.1886 85.1365C36.7586 85.8458 37.0436 86.9383 37.0436 88.414V94H35.3906V88.129C35.3906 87.312 35.2069 86.685 34.8396 86.248C34.4786 85.8047 33.9656 85.583 33.3006 85.583C32.5596 85.583 31.9991 85.7952 31.6191 86.2195C31.2454 86.6375 31.0586 87.2613 31.0586 88.091V94H29.4056ZM49.9413 94.228C48.9343 94.228 48.073 94.038 47.3573 93.658C46.6417 93.2717 46.059 92.7523 45.6093 92.1C45.1597 91.4413 44.8272 90.7035 44.6118 89.8865C44.4028 89.0632 44.2983 88.2177 44.2983 87.35C44.2983 86.4887 44.4092 85.6495 44.6308 84.8325C44.8588 84.0155 45.2008 83.2808 45.6568 82.6285C46.1192 81.9698 46.705 81.4473 47.4143 81.061C48.1237 80.6683 48.966 80.472 49.9413 80.472C50.7647 80.472 51.4487 80.5828 51.9933 80.8045C52.5443 81.0262 52.9972 81.3175 53.3518 81.6785C53.7065 82.0332 54.0073 82.41 54.2543 82.809L52.7723 83.664C52.4683 83.227 52.1042 82.847 51.6798 82.524C51.2555 82.1947 50.676 82.03 49.9413 82.03C49.2003 82.03 48.5765 82.1915 48.0698 82.5145C47.5695 82.8312 47.1673 83.2523 46.8633 83.778C46.5593 84.3037 46.3408 84.88 46.2078 85.507C46.0748 86.1277 46.0083 86.742 46.0083 87.35C46.0083 88.034 46.0843 88.6927 46.2363 89.326C46.3883 89.9593 46.6227 90.5262 46.9393 91.0265C47.256 91.5268 47.6613 91.9227 48.1553 92.214C48.6557 92.5053 49.251 92.651 49.9413 92.651C50.543 92.651 51.0655 92.5212 51.5088 92.2615C51.9585 92.0018 52.3068 91.644 52.5538 91.188C52.8008 90.7257 52.9243 90.1937 52.9243 89.592V89.06H50.5113V87.54H54.6533V89.136C54.6533 90.238 54.4443 91.169 54.0263 91.929C53.6147 92.6827 53.051 93.2558 52.3353 93.6485C51.626 94.0348 50.828 94.228 49.9413 94.228ZM63.7254 94.228L60.1154 85.83C60.0204 85.6083 59.9191 85.3677 59.8114 85.108C59.7101 84.842 59.6214 84.6013 59.5454 84.386C59.5644 84.557 59.5771 84.785 59.5834 85.07C59.5961 85.3487 59.6024 85.602 59.6024 85.83V94H57.9494V80.7H59.5074L63.3834 89.649C63.4404 89.7883 63.4974 89.934 63.5544 90.086C63.6114 90.238 63.6684 90.39 63.7254 90.542C63.7761 90.3963 63.8299 90.2507 63.8869 90.105C63.9439 89.953 64.0041 89.801 64.0674 89.649L67.9244 80.7H69.5014V94H67.8484V85.83C67.8484 85.602 67.8516 85.3455 67.8579 85.0605C67.8706 84.7692 67.8801 84.538 67.8864 84.367C67.8104 84.5823 67.7154 84.8293 67.6014 85.108C67.4937 85.3867 67.3924 85.64 67.2974 85.868L63.7254 94.228ZM78.2187 94.228C77.1737 94.228 76.2902 94.0285 75.5682 93.6295C74.8462 93.2242 74.2667 92.689 73.8297 92.024C73.3927 91.3527 73.0729 90.6117 72.8702 89.801C72.6739 88.9903 72.5757 88.1733 72.5757 87.35C72.5757 86.5267 72.6739 85.7097 72.8702 84.899C73.0729 84.0883 73.3927 83.3505 73.8297 82.6855C74.2667 82.0142 74.8462 81.479 75.5682 81.08C76.2902 80.6747 77.1737 80.472 78.2187 80.472C79.27 80.472 80.1567 80.6747 80.8787 81.08C81.6007 81.479 82.1802 82.0142 82.6172 82.6855C83.0542 83.3505 83.3709 84.0883 83.5672 84.899C83.7635 85.7097 83.8617 86.5267 83.8617 87.35C83.8617 88.1733 83.7635 88.9903 83.5672 89.801C83.3709 90.6117 83.0542 91.3527 82.6172 92.024C82.1802 92.689 81.6007 93.2242 80.8787 93.6295C80.1567 94.0285 79.27 94.228 78.2187 94.228ZM78.2187 92.67C78.9534 92.67 79.5709 92.5085 80.0712 92.1855C80.5715 91.8625 80.9737 91.4382 81.2777 90.9125C81.588 90.3805 81.8097 89.8042 81.9427 89.1835C82.082 88.5565 82.1517 87.9453 82.1517 87.35C82.1517 86.6977 82.082 86.058 81.9427 85.431C81.8097 84.7977 81.588 84.2245 81.2777 83.7115C80.9737 83.1922 80.5715 82.7805 80.0712 82.4765C79.5709 82.1662 78.9534 82.011 78.2187 82.011C77.4904 82.011 76.876 82.1725 76.3757 82.4955C75.8754 82.8185 75.47 83.246 75.1597 83.778C74.8557 84.3037 74.634 84.88 74.4947 85.507C74.3554 86.134 74.2857 86.7483 74.2857 87.35C74.2857 88.0023 74.3554 88.6452 74.4947 89.2785C74.634 89.9055 74.8557 90.4755 75.1597 90.9885C75.47 91.5015 75.8754 91.91 76.3757 92.214C76.876 92.518 77.4904 92.67 78.2187 92.67Z" fill="#1D2E42"/>
    </g>
    <defs>
        <clipPath id="clip0_102_25">
            <rect width="89" height="98" fill="white"/>
        </clipPath>
    </defs>
</svg>
