<svg width="68" height="68" viewBox="0 0 68 68" fill="none" xmlns="http://www.w3.org/2000/svg">
    <path fill-rule="evenodd" clip-rule="evenodd" d="M31.7534 0.0822471C27.7995 0.541566 24.281 1.95041 21.1966 4.3092C19.6471 5.49414 18.0098 7.19271 16.884 8.78331C14.8065 11.7186 13.6205 14.7716 13.1141 18.4882C12.978 19.4869 12.9593 22.2121 13.0817 23.2123C13.3232 25.1857 13.7619 26.9684 14.4187 28.6457C14.7767 29.5598 15.6752 31.4261 15.8349 31.5871C15.8972 31.6501 16.8587 31.0493 20.9283 28.4052C23.6875 26.6127 26.3447 24.8888 26.8331 24.5742L27.7211 24.0026L28.4965 22.5811C28.923 21.799 29.3826 20.9536 29.5178 20.702C29.6531 20.4504 30.0069 19.8085 30.3042 19.2756L30.8447 18.3065L30.8619 16.0595L30.8791 13.8125L30.5984 13.7052C29.3003 13.2089 29.187 11.2848 30.4172 10.6256C30.6596 10.4957 30.7097 10.4936 33.8298 10.4761C37.4072 10.4561 37.4196 10.4573 37.9037 10.884C38.8315 11.7015 38.5641 13.2763 37.4238 13.7124L37.166 13.811V15.8352C37.166 17.4387 37.1817 17.85 37.2416 17.8136C37.4446 17.6902 41.4596 15.0879 43.4872 13.7654C43.7532 13.5919 45.1415 12.692 46.5721 11.7657C48.0028 10.8394 49.2821 10.0067 49.4152 9.91535C49.5482 9.82386 49.977 9.54183 50.3678 9.28843C50.7588 9.03503 51.0787 8.80466 51.0787 8.77645C51.0787 8.6977 50.5106 7.95669 49.9344 7.28385C46.4614 3.22808 41.6104 0.685164 36.1981 0.0830948C35.2054 -0.0273136 32.7006 -0.0277983 31.7534 0.0822471ZM50.8065 12.35C49.8415 12.9814 47.6095 14.4335 45.8463 15.5772C40.7024 18.9135 38.4073 20.4051 38.3884 20.4238C38.3787 20.4334 39.0436 21.6768 39.8655 23.1867C40.7154 24.7472 41.4275 26.1292 41.5161 26.389C41.6683 26.8363 41.6717 26.8819 41.6721 28.5117L41.6723 30.1772L41.4928 30.5016C41.2693 30.9059 40.9321 31.1997 40.5106 31.3576C40.1933 31.4765 40.0459 31.4792 34.0252 31.4792C27.0288 31.4792 27.4889 31.5113 26.9128 30.9842C26.4137 30.5275 26.316 30.2431 26.2891 29.1686L26.2668 28.2811L25.0776 29.051C20.3289 32.1247 17.6455 33.8723 17.5727 33.9387C17.5007 34.0042 17.5429 34.0849 17.8448 34.4587C18.421 35.1725 19.9541 36.6716 20.8034 37.352C21.5985 37.989 22.9801 38.9317 23.6464 39.292C23.846 39.4 24.1455 39.5646 24.3118 39.6581C25.1325 40.1188 26.925 40.832 28.0924 41.1625C33.1758 42.6008 38.4417 42.1781 43.0711 39.9598C45.4433 38.8231 47.4163 37.3798 49.3231 35.3856C52.0459 32.5384 53.9525 28.7847 54.6757 24.8474C54.9429 23.3942 55.0281 22.2258 54.9922 20.5171C54.9374 17.9247 54.5814 16.0242 53.6992 13.6128C53.4155 12.8375 52.6618 11.1855 52.5969 11.1962C52.577 11.1995 51.7712 11.7186 50.8065 12.35ZM30.9751 11.9066C30.8438 12.052 30.848 12.2373 30.9856 12.3619C31.0824 12.4496 31.2873 12.4621 32.6248 12.4621H34.1535L34.3591 12.668C34.7092 13.0183 34.6155 13.5219 34.1657 13.7101C34.0191 13.7714 33.6734 13.7945 32.9033 13.7945H31.8428V16.2592V18.7239L31.265 19.8119C30.8262 20.638 30.7061 20.912 30.766 20.9507C31.0042 21.1048 31.6782 21.1833 31.9694 21.0907C32.0424 21.0676 32.226 20.9699 32.3775 20.8737C32.5289 20.7775 32.6876 20.6988 32.7301 20.6988C32.7726 20.6988 33.4954 20.2532 34.3364 19.7086L35.8654 18.7184L35.8957 15.7669L35.9259 12.8155L36.1235 12.6388C36.2987 12.4821 36.3654 12.4621 36.7132 12.4621C37.0248 12.4621 37.1303 12.4372 37.2264 12.341C37.372 12.1952 37.3776 12.1084 37.2533 11.9305L37.159 11.7959H34.1172C31.247 11.7959 31.0696 11.8021 30.9751 11.9066Z" fill="#1D2E42"/>
    <path d="M6.95222 62V52.9H8.09622L12.1262 59.374C12.1912 59.4823 12.2541 59.5907 12.3147 59.699C12.3754 59.8073 12.4382 59.9243 12.5032 60.05C12.4989 59.9373 12.4924 59.8247 12.4837 59.712C12.4794 59.5993 12.4772 59.491 12.4772 59.387V52.9H13.6082V62H12.5162L8.42122 55.5C8.36489 55.4003 8.30422 55.2963 8.23922 55.188C8.17856 55.0797 8.11789 54.9713 8.05722 54.863C8.06589 54.9583 8.07239 55.0623 8.07672 55.175C8.08106 55.2877 8.08322 55.396 8.08322 55.5V62H6.95222ZM18.5347 62.156C17.6247 62.156 16.9075 61.8462 16.3832 61.2265C15.8589 60.6025 15.5967 59.7553 15.5967 58.685C15.5967 57.97 15.7159 57.3525 15.9542 56.8325C16.1925 56.3125 16.5305 55.9117 16.9682 55.63C17.4102 55.344 17.9324 55.201 18.5347 55.201C19.1414 55.201 19.6635 55.3418 20.1012 55.6235C20.5432 55.9008 20.8812 56.2995 21.1152 56.8195C21.3535 57.3395 21.4727 57.957 21.4727 58.672C21.4727 59.387 21.3535 60.0067 21.1152 60.531C20.8769 61.051 20.5367 61.4518 20.0947 61.7335C19.657 62.0152 19.137 62.156 18.5347 62.156ZM18.5347 61.103C19.0937 61.103 19.5314 60.8885 19.8477 60.4595C20.1684 60.0262 20.3287 59.4303 20.3287 58.672C20.3287 57.9093 20.1684 57.3135 19.8477 56.8845C19.5314 56.4555 19.0937 56.241 18.5347 56.241C17.9714 56.241 17.5315 56.4555 17.2152 56.8845C16.8989 57.3092 16.7407 57.9093 16.7407 58.685C16.7407 59.4433 16.8989 60.037 17.2152 60.466C17.5315 60.8907 17.9714 61.103 18.5347 61.103ZM23.1723 62V55.357H24.3033V56.033C24.5069 55.7513 24.7518 55.5433 25.0378 55.409C25.3238 55.2703 25.6509 55.201 26.0193 55.201C26.8253 55.201 27.4233 55.4458 27.8133 55.9355C28.2033 56.4208 28.3983 57.1683 28.3983 58.178V62H27.2673V57.983C27.2673 57.424 27.1416 56.995 26.8903 56.696C26.6433 56.3927 26.2923 56.241 25.8373 56.241C25.3303 56.241 24.9468 56.3862 24.6868 56.6765C24.4311 56.9625 24.3033 57.3893 24.3033 57.957V62H23.1723ZM37.223 62.156C36.534 62.156 35.9447 62.026 35.455 61.766C34.9654 61.5017 34.5667 61.1463 34.259 60.7C33.9514 60.2493 33.7239 59.7445 33.5765 59.1855C33.4335 58.6222 33.362 58.0437 33.362 57.45C33.362 56.8607 33.4379 56.2865 33.5895 55.7275C33.7455 55.1685 33.9795 54.6658 34.2915 54.2195C34.6079 53.7688 35.0087 53.4113 35.494 53.147C35.9794 52.8783 36.5557 52.744 37.223 52.744C37.7864 52.744 38.2544 52.8198 38.627 52.9715C39.004 53.1232 39.3139 53.3225 39.5565 53.5695C39.7992 53.8122 40.005 54.07 40.174 54.343L39.16 54.928C38.952 54.629 38.7029 54.369 38.4125 54.148C38.1222 53.9227 37.7257 53.81 37.223 53.81C36.716 53.81 36.2892 53.9205 35.9425 54.1415C35.6002 54.3582 35.325 54.6463 35.117 55.006C34.909 55.3657 34.7595 55.76 34.6685 56.189C34.5775 56.6137 34.532 57.034 34.532 57.45C34.532 57.918 34.584 58.3687 34.688 58.802C34.792 59.2353 34.9524 59.6232 35.169 59.9655C35.3857 60.3078 35.663 60.5787 36.001 60.778C36.3434 60.9773 36.7507 61.077 37.223 61.077C37.6347 61.077 37.9922 60.9882 38.2955 60.8105C38.6032 60.6328 38.8415 60.388 39.0105 60.076C39.1795 59.7597 39.264 59.3957 39.264 58.984V58.62H37.613V57.58H40.447V58.672C40.447 59.426 40.304 60.063 40.018 60.583C39.7364 61.0987 39.3507 61.4908 38.861 61.7595C38.3757 62.0238 37.8297 62.156 37.223 62.156ZM46.6542 62.156L44.1842 56.41C44.1192 56.2583 44.0499 56.0937 43.9762 55.916C43.9069 55.734 43.8462 55.5693 43.7942 55.422C43.8072 55.539 43.8159 55.695 43.8202 55.89C43.8289 56.0807 43.8332 56.254 43.8332 56.41V62H42.7022V52.9H43.7682L46.4202 59.023C46.4592 59.1183 46.4982 59.218 46.5372 59.322C46.5762 59.426 46.6152 59.53 46.6542 59.634C46.6889 59.5343 46.7257 59.4347 46.7647 59.335C46.8037 59.231 46.8449 59.127 46.8882 59.023L49.5272 52.9H50.6062V62H49.4752V56.41C49.4752 56.254 49.4774 56.0785 49.4817 55.8835C49.4904 55.6842 49.4969 55.526 49.5012 55.409C49.4492 55.5563 49.3842 55.7253 49.3062 55.916C49.2326 56.1067 49.1632 56.28 49.0982 56.436L46.6542 62.156ZM56.5707 62.156C55.8557 62.156 55.2512 62.0195 54.7572 61.7465C54.2632 61.4692 53.8667 61.103 53.5677 60.648C53.2687 60.1887 53.0499 59.6817 52.9112 59.127C52.7769 58.5723 52.7097 58.0133 52.7097 57.45C52.7097 56.8867 52.7769 56.3277 52.9112 55.773C53.0499 55.2183 53.2687 54.7135 53.5677 54.2585C53.8667 53.7992 54.2632 53.433 54.7572 53.16C55.2512 52.8827 55.8557 52.744 56.5707 52.744C57.29 52.744 57.8967 52.8827 58.3907 53.16C58.8847 53.433 59.2812 53.7992 59.5802 54.2585C59.8792 54.7135 60.0959 55.2183 60.2302 55.773C60.3645 56.3277 60.4317 56.8867 60.4317 57.45C60.4317 58.0133 60.3645 58.5723 60.2302 59.127C60.0959 59.6817 59.8792 60.1887 59.5802 60.648C59.2812 61.103 58.8847 61.4692 58.3907 61.7465C57.8967 62.0195 57.29 62.156 56.5707 62.156ZM56.5707 61.09C57.0734 61.09 57.4959 60.9795 57.8382 60.7585C58.1805 60.5375 58.4557 60.2472 58.6637 59.8875C58.876 59.5235 59.0277 59.1292 59.1187 58.7045C59.214 58.2755 59.2617 57.8573 59.2617 57.45C59.2617 57.0037 59.214 56.566 59.1187 56.137C59.0277 55.7037 58.876 55.3115 58.6637 54.9605C58.4557 54.6052 58.1805 54.3235 57.8382 54.1155C57.4959 53.9032 57.0734 53.797 56.5707 53.797C56.0724 53.797 55.652 53.9075 55.3097 54.1285C54.9674 54.3495 54.69 54.642 54.4777 55.006C54.2697 55.3657 54.118 55.76 54.0227 56.189C53.9274 56.618 53.8797 57.0383 53.8797 57.45C53.8797 57.8963 53.9274 58.3362 54.0227 58.7695C54.118 59.1985 54.2697 59.5885 54.4777 59.9395C54.69 60.2905 54.9674 60.57 55.3097 60.778C55.652 60.986 56.0724 61.09 56.5707 61.09Z" fill="#1D2E42"/>
</svg>
