<svg width="89" height="98" viewBox="0 0 89 98" fill="none" xmlns="http://www.w3.org/2000/svg">
<path fill-rule="evenodd" clip-rule="evenodd" d="M41.7906 0.117496C36.1422 0.773666 31.1157 2.7863 26.7094 6.156C24.4959 7.84877 22.1569 10.2753 20.5486 12.5476C17.5807 16.7408 15.8864 21.1023 15.163 26.4118C14.9685 27.8385 14.9418 31.7316 15.1167 33.1605C15.4617 35.9796 16.0884 38.5263 17.0267 40.9224C17.5381 42.2283 18.8217 44.8944 19.0498 45.1245C19.1389 45.2145 20.5124 44.3562 26.3262 40.5789C30.2679 38.0181 34.0638 35.5554 34.7615 35.106L36.0301 34.2894L37.1379 32.2587C37.7472 31.1415 38.4037 29.9337 38.5969 29.5743C38.7901 29.2149 39.2956 28.2979 39.7203 27.5366L40.4925 26.1522L40.517 22.9422L40.5416 19.7322L40.1406 19.5789C38.2862 18.8698 38.1243 16.1212 39.8817 15.1795C40.228 14.9939 40.2996 14.9908 44.7569 14.9658C49.8675 14.9373 49.8852 14.939 50.5767 15.5486C51.9021 16.7165 51.5202 18.9662 49.8912 19.5891L49.5228 19.73V22.6218C49.5228 24.9125 49.5453 25.5 49.6308 25.448C49.9209 25.2718 55.6566 21.5542 58.5531 19.6649C58.9332 19.417 60.9165 18.1314 62.9601 16.8081C65.004 15.4848 66.8316 14.2953 67.0218 14.1648C67.2117 14.0341 67.8243 13.6312 68.3826 13.2692C68.9412 12.9072 69.3981 12.5781 69.3981 12.5378C69.3981 12.4253 68.5866 11.3667 67.7634 10.4055C62.802 4.61154 55.872 0.978806 48.1401 0.118707C46.722 -0.0390194 43.1437 -0.0397118 41.7906 0.117496ZM69.0093 17.6428C67.6308 18.5448 64.4421 20.6193 61.9233 22.2532C54.5748 27.0193 51.2961 29.1501 51.2691 29.1769C51.2553 29.1906 52.2051 30.9669 53.3793 33.1239C54.5934 35.3532 55.6107 37.3275 55.7373 37.6986C55.9548 38.3376 55.9596 38.4027 55.9602 40.731L55.9605 43.1103L55.704 43.5738C55.3848 44.1513 54.903 44.571 54.3009 44.7966C53.8476 44.9664 53.637 44.9703 45.036 44.9703C35.0411 44.9703 35.6984 45.0162 34.8754 44.2632C34.1624 43.6107 34.0229 43.2045 33.9844 41.6694L33.9526 40.4016L32.2537 41.5014C25.4699 45.8925 21.6364 48.3891 21.5324 48.4839C21.4296 48.5775 21.4898 48.6927 21.9211 49.2267C22.7443 50.2464 24.9344 52.3881 26.1477 53.3601C27.2835 54.27 29.2573 55.6167 30.2092 56.1315C30.4943 56.2857 30.9221 56.5209 31.1597 56.6544C32.3322 57.3126 34.8928 58.3314 36.5606 58.8036C43.8226 60.8583 51.3453 60.2544 57.9588 57.0855C61.3476 55.4616 64.1661 53.3997 66.8901 50.5509C70.7799 46.4835 73.5036 41.121 74.5368 35.4963C74.9184 33.4203 75.0402 31.7511 74.9889 29.3102C74.9106 25.6068 74.4021 22.8917 73.1418 19.4469C72.7365 18.3393 71.6598 15.9793 71.5671 15.9946C71.5386 15.9993 70.3875 16.7409 69.0093 17.6428ZM40.6787 17.0095C40.4911 17.2171 40.4972 17.4818 40.6937 17.6598C40.832 17.7851 41.1247 17.803 43.0355 17.803H45.2193L45.513 18.0972C46.0131 18.5976 45.8793 19.317 45.2367 19.5858C45.0273 19.6734 44.5335 19.7065 43.4333 19.7065H41.9183V23.2275V26.7485L41.0928 28.3027C40.466 29.4829 40.2945 29.8743 40.38 29.9296C40.7203 30.1497 41.6831 30.2619 42.0992 30.1296C42.2034 30.0966 42.4657 29.957 42.6821 29.8196C42.8985 29.6822 43.1252 29.5698 43.1859 29.5698C43.2466 29.5698 44.2792 28.9332 45.4806 28.1552L47.6649 26.7406L47.7081 22.5242L47.7513 18.3079L48.0336 18.0554C48.2838 17.8316 48.3792 17.803 48.876 17.803C49.3212 17.803 49.4718 17.7675 49.6092 17.63C49.8171 17.4217 49.8252 17.2977 49.6476 17.0436L49.5129 16.8513H45.1674C41.0671 16.8513 40.8137 16.8602 40.6787 17.0095Z" fill="#505050"/>
<path d="M13.5029 81.8V93H11.7909L5.61488 85.416V93H3.55088V81.8H5.26288L11.4389 89.384V81.8H13.5029ZM21.736 93.16C20.5947 93.16 19.5653 92.9147 18.648 92.424C17.7307 91.9227 17.0107 91.2347 16.488 90.36C15.9653 89.4747 15.704 88.488 15.704 87.4C15.704 86.312 15.9653 85.3307 16.488 84.456C17.0107 83.5707 17.7307 82.8827 18.648 82.392C19.5653 81.8907 20.5947 81.64 21.736 81.64C22.8773 81.64 23.9067 81.8907 24.824 82.392C25.7413 82.8827 26.4613 83.5653 26.984 84.44C27.5067 85.3147 27.768 86.3013 27.768 87.4C27.768 88.4987 27.5067 89.4853 26.984 90.36C26.4613 91.2347 25.7413 91.9227 24.824 92.424C23.9067 92.9147 22.8773 93.16 21.736 93.16ZM21.736 91.336C22.4827 91.336 23.1547 91.1707 23.752 90.84C24.3493 90.4987 24.8187 90.0293 25.16 89.432C25.5013 88.824 25.672 88.1467 25.672 87.4C25.672 86.6533 25.5013 85.9813 25.16 85.384C24.8187 84.776 24.3493 84.3067 23.752 83.976C23.1547 83.6347 22.4827 83.464 21.736 83.464C20.9893 83.464 20.3173 83.6347 19.72 83.976C19.1227 84.3067 18.6533 84.776 18.312 85.384C17.9707 85.9813 17.8 86.6533 17.8 87.4C17.8 88.1467 17.9707 88.824 18.312 89.432C18.6533 90.0293 19.1227 90.4987 19.72 90.84C20.3173 91.1707 20.9893 91.336 21.736 91.336ZM39.9248 81.8V93H38.2128L32.0368 85.416V93H29.9728V81.8H31.6848L37.8608 89.384V81.8H39.9248ZM54.9958 87.272H56.9638V91.736C56.3878 92.1947 55.7158 92.5467 54.9478 92.792C54.1798 93.0373 53.3904 93.16 52.5798 93.16C51.4384 93.16 50.4091 92.9147 49.4918 92.424C48.5744 91.9227 47.8544 91.2347 47.3318 90.36C46.8091 89.4853 46.5478 88.4987 46.5478 87.4C46.5478 86.3013 46.8091 85.3147 47.3318 84.44C47.8544 83.5653 48.5744 82.8827 49.4918 82.392C50.4198 81.8907 51.4598 81.64 52.6118 81.64C53.5504 81.64 54.4038 81.7947 55.1718 82.104C55.9398 82.4133 56.5851 82.8667 57.1078 83.464L55.7958 84.744C54.9424 83.8907 53.9131 83.464 52.7078 83.464C51.9184 83.464 51.2144 83.6293 50.5958 83.96C49.9878 84.2907 49.5078 84.7547 49.1558 85.352C48.8144 85.9493 48.6438 86.632 48.6438 87.4C48.6438 88.1467 48.8144 88.8187 49.1558 89.416C49.5078 90.0133 49.9878 90.4827 50.5958 90.824C51.2144 91.1653 51.9131 91.336 52.6918 91.336C53.5664 91.336 54.3344 91.144 54.9958 90.76V87.272ZM69.9951 93L69.9791 85.576L66.2991 91.72H65.3711L61.6911 85.672V93H59.7071V81.8H61.4191L65.8671 89.224L70.2351 81.8H71.9471L71.9631 93H69.9951ZM80.2204 93.16C79.079 93.16 78.0497 92.9147 77.1324 92.424C76.215 91.9227 75.495 91.2347 74.9724 90.36C74.4497 89.4747 74.1884 88.488 74.1884 87.4C74.1884 86.312 74.4497 85.3307 74.9724 84.456C75.495 83.5707 76.215 82.8827 77.1324 82.392C78.0497 81.8907 79.079 81.64 80.2204 81.64C81.3617 81.64 82.391 81.8907 83.3084 82.392C84.2257 82.8827 84.9457 83.5653 85.4684 84.44C85.991 85.3147 86.2524 86.3013 86.2524 87.4C86.2524 88.4987 85.991 89.4853 85.4684 90.36C84.9457 91.2347 84.2257 91.9227 83.3084 92.424C82.391 92.9147 81.3617 93.16 80.2204 93.16ZM80.2204 91.336C80.967 91.336 81.639 91.1707 82.2364 90.84C82.8337 90.4987 83.303 90.0293 83.6444 89.432C83.9857 88.824 84.1564 88.1467 84.1564 87.4C84.1564 86.6533 83.9857 85.9813 83.6444 85.384C83.303 84.776 82.8337 84.3067 82.2364 83.976C81.639 83.6347 80.967 83.464 80.2204 83.464C79.4737 83.464 78.8017 83.6347 78.2044 83.976C77.607 84.3067 77.1377 84.776 76.7964 85.384C76.455 85.9813 76.2844 86.6533 76.2844 87.4C76.2844 88.1467 76.455 88.824 76.7964 89.432C77.1377 90.0293 77.607 90.4987 78.2044 90.84C78.8017 91.1707 79.4737 91.336 80.2204 91.336Z" fill="#505050"/>
</svg>
