<svg  viewBox="0 0 31 31" fill="none" xmlns="http://www.w3.org/2000/svg">
    <path fill-rule="evenodd" clip-rule="evenodd" d="M15.0925 2.059C14.8681 2.15982 14.6964 2.33696 14.5762 2.59153L14.4712 2.81418L14.4708 8.63577L14.4703 14.4573L8.59267 14.4691L2.71502 14.4809L2.50294 14.6058C1.80135 15.019 1.84207 16.0574 2.57325 16.3985L2.80391 16.5061L8.63712 16.5065L14.4703 16.507V22.276C14.4703 26.5629 14.4838 28.0988 14.5228 28.2539C14.5967 28.5481 14.9448 28.894 15.2423 28.9691C15.6686 29.0766 16.1215 28.8977 16.3681 28.5244L16.4925 28.336L16.5041 22.4222L16.5157 16.5082L22.4224 16.4964L28.329 16.4847L28.5205 16.3499C29.2067 15.8666 29.1456 14.9095 28.4065 14.5646L28.1811 14.4595L22.3479 14.4591L16.5147 14.4586V8.60807V2.75754L16.3905 2.51939C16.2167 2.18605 15.9438 2.0196 15.5423 2.00201C15.3461 1.99341 15.1963 2.01243 15.0925 2.059Z" fill="#1D2E42"/>
</svg>
