<svg width="28" height="28" viewBox="0 0 28 28" fill="none" xmlns="http://www.w3.org/2000/svg">
<path d="M26.0909 11.4546H16.5454V1.9091C16.5454 0.855271 15.6902 0 14.6363 0H13.3637C12.3098 0 11.4546 0.855271 11.4546 1.9091V11.4546H1.9091C0.855271 11.4546 0 12.3098 0 13.3637V14.6363C0 15.6902 0.855271 16.5454 1.9091 16.5454H11.4546V26.0909C11.4546 27.1447 12.3098 28 13.3637 28H14.6363C15.6902 28 16.5454 27.1447 16.5454 26.0909V16.5454H26.0909C27.1447 16.5454 28 15.6902 28 14.6363V13.3637C28 12.3098 27.1447 11.4546 26.0909 11.4546Z" fill="#B2B2B2"/>
</svg>
