<svg width="134" height="22" viewBox="0 0 134 22" fill="none" xmlns="http://www.w3.org/2000/svg">
<g clip-path="url(#clip0_2_4395)">
<path d="M21.9684 8.47527C21.8926 8.2419 21.691 8.07183 21.4482 8.0366L14.6281 7.04553L11.578 0.865486C11.4694 0.645487 11.2453 0.506226 11 0.506226C10.7547 0.506226 10.5306 0.645487 10.4221 0.865486L7.37181 7.04553L0.55184 8.0366C0.30911 8.07183 0.107373 8.2419 0.0315762 8.47522C-0.0442633 8.70859 0.0189864 8.96472 0.194685 9.13595L5.12954 13.9465L3.96475 20.7391C3.92324 20.9809 4.02267 21.2252 4.22114 21.3695C4.33342 21.451 4.46641 21.4925 4.60004 21.4925C4.70265 21.4925 4.8056 21.4681 4.89987 21.4185L11 18.2114L17.0999 21.4184C17.3171 21.5326 17.5802 21.5136 17.7786 21.3694C17.9771 21.2252 18.0766 20.9808 18.0351 20.739L16.8699 13.9465L21.8053 9.13591C21.981 8.96472 22.0443 8.70859 21.9684 8.47527Z" fill="#65D36E"/>
</g>
<g clip-path="url(#clip1_2_4395)">
<path d="M49.9684 8.47527C49.8926 8.2419 49.691 8.07183 49.4482 8.0366L42.6281 7.04553L39.578 0.865486C39.4694 0.645487 39.2453 0.506226 39 0.506226C38.7547 0.506226 38.5306 0.645487 38.4221 0.865486L35.3718 7.04553L28.5518 8.0366C28.3091 8.07183 28.1074 8.2419 28.0316 8.47522C27.9557 8.70859 28.019 8.96472 28.1947 9.13595L33.1295 13.9465L31.9647 20.7391C31.9232 20.9809 32.0227 21.2252 32.2211 21.3695C32.3334 21.451 32.4664 21.4925 32.6 21.4925C32.7026 21.4925 32.8056 21.4681 32.8999 21.4185L39 18.2114L45.0999 21.4184C45.3171 21.5326 45.5802 21.5136 45.7786 21.3694C45.9771 21.2252 46.0766 20.9808 46.0351 20.739L44.8699 13.9465L49.8053 9.13591C49.981 8.96472 50.0443 8.70859 49.9684 8.47527Z" fill="#65D36E"/>
</g>
<g clip-path="url(#clip2_2_4395)">
<path d="M77.9684 8.47527C77.8926 8.2419 77.691 8.07183 77.4482 8.0366L70.6281 7.04553L67.578 0.865486C67.4694 0.645487 67.2453 0.506226 67 0.506226C66.7547 0.506226 66.5306 0.645487 66.4221 0.865486L63.3718 7.04553L56.5518 8.0366C56.3091 8.07183 56.1074 8.2419 56.0316 8.47522C55.9557 8.70859 56.019 8.96472 56.1947 9.13595L61.1295 13.9465L59.9647 20.7391C59.9232 20.9809 60.0227 21.2252 60.2211 21.3695C60.3334 21.451 60.4664 21.4925 60.6 21.4925C60.7026 21.4925 60.8056 21.4681 60.8999 21.4185L67 18.2114L73.0999 21.4184C73.3171 21.5326 73.5802 21.5136 73.7786 21.3694C73.9771 21.2252 74.0766 20.9808 74.0351 20.739L72.8699 13.9465L77.8053 9.13591C77.981 8.96472 78.0443 8.70859 77.9684 8.47527Z" fill="#65D36E"/>
</g>
<g clip-path="url(#clip3_2_4395)">
<path d="M105.968 8.47527C105.893 8.2419 105.691 8.07183 105.448 8.0366L98.6281 7.04553L95.578 0.865486C95.4694 0.645487 95.2453 0.506226 95 0.506226C94.7547 0.506226 94.5306 0.645487 94.4221 0.865486L91.3718 7.04553L84.5518 8.0366C84.3091 8.07183 84.1074 8.2419 84.0316 8.47522C83.9557 8.70859 84.019 8.96472 84.1947 9.13595L89.1295 13.9465L87.9647 20.7391C87.9232 20.9809 88.0227 21.2252 88.2211 21.3695C88.3334 21.451 88.4664 21.4925 88.6 21.4925C88.7026 21.4925 88.8056 21.4681 88.8999 21.4185L95 18.2114L101.1 21.4184C101.317 21.5326 101.58 21.5136 101.779 21.3694C101.977 21.2252 102.077 20.9808 102.035 20.739L100.87 13.9465L105.805 9.13591C105.981 8.96472 106.044 8.70859 105.968 8.47527Z" fill="#65D36E"/>
</g>
<g clip-path="url(#clip4_2_4395)">
<path d="M133.968 8.47527C133.893 8.2419 133.691 8.07183 133.448 8.0366L126.628 7.04553L123.578 0.865486C123.469 0.645487 123.245 0.506226 123 0.506226C122.755 0.506226 122.531 0.645487 122.422 0.865486L119.372 7.04553L112.552 8.0366C112.309 8.07183 112.107 8.2419 112.032 8.47522C111.956 8.70859 112.019 8.96472 112.195 9.13595L117.13 13.9465L115.965 20.7391C115.923 20.9809 116.023 21.2252 116.221 21.3695C116.333 21.451 116.466 21.4925 116.6 21.4925C116.703 21.4925 116.806 21.4681 116.9 21.4185L123 18.2114L129.1 21.4184C129.317 21.5326 129.58 21.5136 129.779 21.3694C129.977 21.2252 130.077 20.9808 130.035 20.739L128.87 13.9465L133.805 9.13591C133.981 8.96472 134.044 8.70859 133.968 8.47527Z" fill="#F0F0F0"/>
</g>
<g clip-path="url(#clip5_2_4395)">
<path fill-rule="evenodd" clip-rule="evenodd" d="M123 18.2114L123 0.506226C122.755 0.506226 122.531 0.645487 122.422 0.865486L119.372 7.04553L112.552 8.0366C112.309 8.07183 112.107 8.2419 112.032 8.47522C111.956 8.70859 112.019 8.96472 112.195 9.13595L117.13 13.9465L115.965 20.7391C115.923 20.9809 116.023 21.2252 116.221 21.3695C116.333 21.451 116.466 21.4925 116.6 21.4925C116.703 21.4925 116.806 21.4681 116.9 21.4185L123 18.2114Z" fill="#65D36E"/>
</g>
<defs>
<clipPath id="clip0_2_4395">
<rect width="22" height="22" fill="white" transform="translate(0 -0.000610352)"/>
</clipPath>
<clipPath id="clip1_2_4395">
<rect width="22" height="22" fill="white" transform="translate(28 -0.000610352)"/>
</clipPath>
<clipPath id="clip2_2_4395">
<rect width="22" height="22" fill="white" transform="translate(56 -0.000610352)"/>
</clipPath>
<clipPath id="clip3_2_4395">
<rect width="22" height="22" fill="white" transform="translate(84 -0.000610352)"/>
</clipPath>
<clipPath id="clip4_2_4395">
<rect width="22" height="22" fill="white" transform="translate(112 -0.000610352)"/>
</clipPath>
<clipPath id="clip5_2_4395">
<rect width="22" height="22" fill="white" transform="translate(112 -0.000610352)"/>
</clipPath>
</defs>
</svg>
