<svg width="134" height="23" viewBox="0 0 134 23" fill="none" xmlns="http://www.w3.org/2000/svg">
<g clip-path="url(#clip0_2_4373)">
<path d="M21.9684 8.47759C21.8926 8.24422 21.691 8.07415 21.4482 8.03892L14.6281 7.04785L11.578 0.867805C11.4694 0.647806 11.2453 0.508545 11 0.508545C10.7547 0.508545 10.5306 0.647806 10.4221 0.867805L7.37181 7.04785L0.55184 8.03892C0.30911 8.07415 0.107373 8.24422 0.0315762 8.47754C-0.0442633 8.71091 0.0189864 8.96704 0.194685 9.13827L5.12954 13.9488L3.96475 20.7414C3.92324 20.9832 4.02267 21.2275 4.22114 21.3718C4.33342 21.4533 4.46641 21.4948 4.60004 21.4948C4.70265 21.4948 4.8056 21.4704 4.89987 21.4208L11 18.2137L17.0999 21.4208C17.3171 21.5349 17.5802 21.5159 17.7786 21.3717C17.9771 21.2275 18.0766 20.9831 18.0351 20.7413L16.8699 13.9488L21.8053 9.13823C21.981 8.96704 22.0443 8.71091 21.9684 8.47759Z" fill="#65D36E"/>
</g>
<g clip-path="url(#clip1_2_4373)">
<path d="M49.9684 8.47759C49.8926 8.24422 49.691 8.07415 49.4482 8.03892L42.6281 7.04785L39.578 0.867805C39.4694 0.647806 39.2453 0.508545 39 0.508545C38.7547 0.508545 38.5306 0.647806 38.4221 0.867805L35.3718 7.04785L28.5518 8.03892C28.3091 8.07415 28.1074 8.24422 28.0316 8.47754C27.9557 8.71091 28.019 8.96704 28.1947 9.13827L33.1295 13.9488L31.9647 20.7414C31.9232 20.9832 32.0227 21.2275 32.2211 21.3718C32.3334 21.4533 32.4664 21.4948 32.6 21.4948C32.7026 21.4948 32.8056 21.4704 32.8999 21.4208L39 18.2137L45.0999 21.4208C45.3171 21.5349 45.5802 21.5159 45.7786 21.3717C45.9771 21.2275 46.0766 20.9831 46.0351 20.7413L44.8699 13.9488L49.8053 9.13823C49.981 8.96704 50.0443 8.71091 49.9684 8.47759Z" fill="#65D36E"/>
</g>
<g clip-path="url(#clip2_2_4373)">
<path d="M77.9684 8.47759C77.8926 8.24422 77.691 8.07415 77.4482 8.03892L70.6281 7.04785L67.578 0.867805C67.4694 0.647806 67.2453 0.508545 67 0.508545C66.7547 0.508545 66.5306 0.647806 66.4221 0.867805L63.3718 7.04785L56.5518 8.03892C56.3091 8.07415 56.1074 8.24422 56.0316 8.47754C55.9557 8.71091 56.019 8.96704 56.1947 9.13827L61.1295 13.9488L59.9647 20.7414C59.9232 20.9832 60.0227 21.2275 60.2211 21.3718C60.3334 21.4533 60.4664 21.4948 60.6 21.4948C60.7026 21.4948 60.8056 21.4704 60.8999 21.4208L67 18.2137L73.0999 21.4208C73.3171 21.5349 73.5802 21.5159 73.7786 21.3717C73.9771 21.2275 74.0766 20.9831 74.0351 20.7413L72.8699 13.9488L77.8053 9.13823C77.981 8.96704 78.0443 8.71091 77.9684 8.47759Z" fill="#65D36E"/>
</g>
<g clip-path="url(#clip3_2_4373)">
<path d="M105.968 8.47759C105.893 8.24422 105.691 8.07415 105.448 8.03892L98.6281 7.04785L95.578 0.867805C95.4694 0.647806 95.2453 0.508545 95 0.508545C94.7547 0.508545 94.5306 0.647806 94.4221 0.867805L91.3718 7.04785L84.5518 8.03892C84.3091 8.07415 84.1074 8.24422 84.0316 8.47754C83.9557 8.71091 84.019 8.96704 84.1947 9.13827L89.1295 13.9488L87.9647 20.7414C87.9232 20.9832 88.0227 21.2275 88.2211 21.3718C88.3334 21.4533 88.4664 21.4948 88.6 21.4948C88.7026 21.4948 88.8056 21.4704 88.8999 21.4208L95 18.2137L101.1 21.4208C101.317 21.5349 101.58 21.5159 101.779 21.3717C101.977 21.2275 102.077 20.9831 102.035 20.7413L100.87 13.9488L105.805 9.13823C105.981 8.96704 106.044 8.71091 105.968 8.47759Z" fill="#65D36E"/>
</g>
<g clip-path="url(#clip4_2_4373)">
<path d="M133.968 8.47759C133.893 8.24422 133.691 8.07415 133.448 8.03892L126.628 7.04785L123.578 0.867805C123.469 0.647806 123.245 0.508545 123 0.508545C122.755 0.508545 122.531 0.647806 122.422 0.867805L119.372 7.04785L112.552 8.03892C112.309 8.07415 112.107 8.24422 112.032 8.47754C111.956 8.71091 112.019 8.96704 112.195 9.13827L117.13 13.9488L115.965 20.7414C115.923 20.9832 116.023 21.2275 116.221 21.3718C116.333 21.4533 116.466 21.4948 116.6 21.4948C116.703 21.4948 116.806 21.4704 116.9 21.4208L123 18.2137L129.1 21.4208C129.317 21.5349 129.58 21.5159 129.779 21.3717C129.977 21.2275 130.077 20.9831 130.035 20.7413L128.87 13.9488L133.805 9.13823C133.981 8.96704 134.044 8.71091 133.968 8.47759Z" fill="#65D36E"/>
</g>
<defs>
<clipPath id="clip0_2_4373">
<rect width="22" height="22" fill="white" transform="translate(0 0.00170898)"/>
</clipPath>
<clipPath id="clip1_2_4373">
<rect width="22" height="22" fill="white" transform="translate(28 0.00170898)"/>
</clipPath>
<clipPath id="clip2_2_4373">
<rect width="22" height="22" fill="white" transform="translate(56 0.00170898)"/>
</clipPath>
<clipPath id="clip3_2_4373">
<rect width="22" height="22" fill="white" transform="translate(84 0.00170898)"/>
</clipPath>
<clipPath id="clip4_2_4373">
<rect width="22" height="22" fill="white" transform="translate(112 0.00170898)"/>
</clipPath>
</defs>
</svg>
