<svg width="60" height="60" viewBox="0 0 60 60" fill="none" xmlns="http://www.w3.org/2000/svg">
<path fill-rule="evenodd" clip-rule="evenodd" d="M25.7982 0.217117C13.9462 1.99056 4.29842 10.439 1.12267 21.8255C-0.63587 28.1305 -0.323615 34.6795 2.0251 40.755C3.915 45.6433 6.833 49.7001 10.9088 53.1056C14.5172 56.1206 19.1032 58.3151 24.0448 59.3919C25.6667 59.7453 26.258 59.7971 29.3252 59.8546C33.0581 59.9246 34.3746 59.7972 37.34 59.0792C40.2821 58.3667 43.8022 56.8247 46.401 55.11C57.239 47.9587 62.2524 34.9886 59.0408 22.4099C57.6771 17.069 54.9888 12.4473 50.9379 8.48014C46.3207 3.9582 40.3382 1.02676 34.0428 0.201483C31.9438 -0.073659 27.6875 -0.0656232 25.7982 0.217117ZM35.5882 23.2866C35.5882 26.2828 35.612 26.5981 35.8567 26.8429C36.1018 27.0879 36.5388 27.1204 40.8413 27.2136C45.2072 27.3081 45.6021 27.3382 46.1618 27.6191C46.9537 28.0164 47.3897 28.4251 47.7302 29.089C47.9821 29.5801 48.0083 29.9821 48.0083 33.363C48.0083 37.8227 48.0959 37.6006 46.2711 37.7599C45.1047 37.8616 45.0952 37.8657 44.9377 38.343C44.7187 39.0068 43.7105 40.1137 42.9902 40.4812C41.0185 41.4869 38.4392 40.5877 37.4914 38.5638L37.1455 37.8255L31.8006 37.8261L26.4557 37.8265L26.1875 38.4788C25.8621 39.2704 25.0393 40.1466 24.2577 40.5342C23.4138 40.9526 21.4205 40.9349 20.611 40.5018C19.8266 40.082 19.1551 39.3572 18.7949 38.5415L18.498 37.8693L17.2258 37.7794C15.4197 37.652 15.3644 37.5819 15.3019 35.3378L15.2532 33.588H13.9665C12.9339 33.588 12.6142 33.5348 12.3471 33.3186C11.9438 32.992 11.9014 32.2553 12.2631 31.8556C12.4954 31.5989 12.8529 31.5764 17.6573 31.5143C21.2814 31.4677 22.8995 31.396 23.1298 31.2718C23.6077 31.0143 23.7072 30.4322 23.3542 29.9589L23.064 29.5698L17.8923 29.4862C15.0478 29.4402 12.6005 29.349 12.4536 29.2835C11.9089 29.0408 11.8325 28.0305 12.3288 27.6337C12.4736 27.518 13.0419 27.4509 13.8809 27.4506C14.609 27.4503 16.2509 27.4066 17.5298 27.3536C20.1007 27.2471 20.3918 27.1391 20.3918 26.2925C20.3918 25.4876 20.1564 25.4064 17.7878 25.395C14.9327 25.3811 13.3988 25.2357 13.2261 24.9625C12.988 24.5859 13.0689 23.8587 13.3803 23.5768C13.5603 23.4141 13.9813 23.2849 14.4623 23.245L15.2499 23.1797L15.3003 21.8968C15.3833 19.7859 14.2104 19.999 25.7478 19.999H35.5882V23.2866ZM40.1282 21.1745C40.5086 21.4187 41.1088 21.9279 41.4621 22.3063C42.1705 23.0648 43.3325 24.7148 43.3325 24.9622C43.3325 25.0703 42.4552 25.107 40.5197 25.0798L37.7069 25.0401L37.665 22.9214C37.6419 21.7561 37.6587 20.6584 37.7022 20.482L37.7814 20.1613L38.609 20.4461C39.0643 20.6027 39.7479 20.9305 40.1282 21.1745ZM21.5698 35.3162C20.2732 36.0116 20.2159 37.7701 21.4649 38.5419C22.7486 39.3353 24.337 38.4542 24.337 36.9488C24.337 36.1352 23.9583 35.5586 23.2213 35.2507C22.575 34.9807 22.1651 34.9969 21.5698 35.3162ZM40.1615 35.3356C39.2677 35.8805 38.9847 37.0377 39.5275 37.9279C40.4945 39.5142 43.0414 38.8693 43.0396 37.0386C43.0383 35.4971 41.4439 34.5536 40.1615 35.3356Z" fill="white"/>
</svg>
