<svg width="38" height="71" viewBox="0 0 38 71" fill="none" xmlns="http://www.w3.org/2000/svg">
    <path fill-rule="evenodd" clip-rule="evenodd" d="M8.95009 0.0632432C8.49963 0.152648 8.19016 0.553489 8.19016 1.04757C8.19016 1.19371 8.34712 1.80899 8.53892 2.41495C9.18013 4.44026 9.46225 6.24346 9.46225 8.31677C9.46225 10.3353 9.12324 12.2754 8.47574 13.9622L8.19341 14.6978L8.38613 14.9061C8.72366 15.271 9.42409 15.7405 10.1787 16.1077C11.5274 16.7639 13.3143 17.2115 15.5538 17.4541C16.9345 17.6038 20.2864 17.5629 21.5825 17.3807C24.4785 16.9736 26.8468 16.1931 28.4096 15.1308L28.8762 14.8136L28.5617 14.0108C28.1591 12.9835 27.8114 11.5684 27.6576 10.3307C27.5624 9.56497 27.5445 9.02312 27.5741 7.80108C27.6253 5.68304 27.8846 4.17826 28.5395 2.19848C28.6972 1.72146 28.8263 1.19775 28.8263 1.0347C28.8263 0.670721 28.6043 0.313895 28.2621 0.12793C28.0257 -0.000503877 27.6376 -0.00556314 18.6154 0.00238718C13.4451 0.00694055 9.09574 0.034333 8.95009 0.0632432ZM19.0309 11.1136C19.5141 11.3953 19.6721 11.9119 19.4394 12.4496C19.26 12.8646 18.9462 13.0755 18.5082 13.0755C17.5202 13.0755 17.0902 11.9091 17.8209 11.2111C18.1495 10.8973 18.5979 10.8612 19.0309 11.1136ZM7.04379 16.9247C6.72591 17.4286 5.57975 20.3322 5.66448 20.4188C5.67572 20.4303 6.09756 20.4757 6.60188 20.5196C8.4662 20.6818 10.1712 21.1858 12.004 22.1167C13.9428 23.1015 15.7412 24.4366 17.5448 26.2302L18.526 27.2059L18.8528 26.8372C19.7874 25.7828 21.5047 24.2989 22.8546 23.3795C25.4752 21.5945 27.9278 20.6946 30.7521 20.4817C31.0923 20.4561 31.3705 20.4254 31.3705 20.4135C31.3705 20.2818 30.7312 18.556 30.469 17.98C29.8965 16.7221 29.903 16.732 29.7227 16.8623C26.5207 19.1759 20.196 20.2944 14.5727 19.5415C11.6338 19.148 8.9467 18.1828 7.5069 17.0034C7.34485 16.8706 7.19743 16.762 7.17934 16.762C7.16117 16.762 7.10018 16.8352 7.04379 16.9247ZM5.1283 22.7321C4.93635 23.404 4.86604 26.2918 5.00943 27.6119C5.35268 30.7728 6.40576 33.9659 7.86662 36.2754C8.35807 37.0524 7.97673 36.9992 13.0595 36.9992H17.4482V33.0951V29.191L16.2998 28.0094C13.9443 25.5859 11.6694 24.0667 9.09525 23.1982C8.08175 22.8562 7.20273 22.6908 6.13113 22.6403C5.22476 22.5976 5.16512 22.603 5.1283 22.7321ZM29.827 22.7303C27.4987 23.0771 25.0072 24.2841 22.6072 26.2279C22.1991 26.5585 21.3484 27.3549 20.7167 27.9977L19.5683 29.1665V33.0828V36.9992H23.957C29.0364 36.9992 28.6597 37.0513 29.1449 36.2817C30.4026 34.2867 31.3605 31.6489 31.8377 28.8666C31.9905 27.9758 32.0296 27.4818 32.0589 26.0777C32.0907 24.5497 32.0231 23.196 31.8922 22.7428C31.8605 22.6329 31.766 22.6174 31.1714 22.6241C30.795 22.6284 30.19 22.6761 29.827 22.7303Z" fill="white"/>
    <path d="M6.06747 70.24C5.25413 70.24 4.51747 70.1067 3.85747 69.84C3.19747 69.5667 2.63747 69.1967 2.17747 68.73C1.72413 68.2567 1.39413 67.72 1.18747 67.12L2.82747 66.52C3.10747 67.14 3.5308 67.6433 4.09747 68.03C4.6708 68.41 5.3408 68.6 6.10747 68.6C6.94747 68.6 7.61747 68.4 8.11747 68C8.61747 67.5933 8.86747 67.0067 8.86747 66.24C8.86747 65.7 8.71747 65.2467 8.41747 64.88C8.11747 64.5133 7.72747 64.2067 7.24747 63.96C6.76747 63.7067 6.25413 63.48 5.70747 63.28C5.2208 63.1 4.73413 62.9 4.24747 62.68C3.7608 62.46 3.31747 62.2 2.91747 61.9C2.52413 61.5933 2.20747 61.2233 1.96747 60.79C1.72747 60.35 1.60747 59.8267 1.60747 59.22C1.60747 58.5933 1.77747 58.02 2.11747 57.5C2.45747 56.9733 2.94747 56.5533 3.58747 56.24C4.22747 55.92 5.0008 55.76 5.90747 55.76C6.64747 55.76 7.29747 55.87 7.85747 56.09C8.42413 56.3033 8.88747 56.6 9.24747 56.98C9.61413 57.3533 9.86747 57.78 10.0075 58.26L8.40747 58.8C8.2408 58.4067 7.93413 58.0733 7.48747 57.8C7.04747 57.52 6.4808 57.38 5.78747 57.38C5.04747 57.38 4.46413 57.5433 4.03747 57.87C3.61747 58.1967 3.40747 58.6467 3.40747 59.22C3.40747 59.6533 3.54747 60.0167 3.82747 60.31C4.11413 60.5967 4.48747 60.8467 4.94747 61.06C5.40747 61.2733 5.9008 61.48 6.42747 61.68C6.9208 61.8667 7.41413 62.08 7.90747 62.32C8.40747 62.5533 8.86413 62.84 9.27747 63.18C9.69747 63.52 10.0341 63.9367 10.2875 64.43C10.5408 64.9167 10.6675 65.5067 10.6675 66.2C10.6675 67.06 10.4675 67.79 10.0675 68.39C9.66747 68.99 9.1208 69.45 8.42747 69.77C7.73413 70.0833 6.94747 70.24 6.06747 70.24ZM13.6601 70V56.38L15.4001 55.56V63.3L18.7201 59.78H20.8001L18.1201 62.56L21.9601 70H20.0601L16.9001 63.82L15.4001 65.38V70H13.6601ZM24.3051 70V59.78H26.0451V70H24.3051ZM25.1651 57.92C24.8651 57.92 24.6085 57.8167 24.3951 57.61C24.1885 57.3967 24.0851 57.14 24.0851 56.84C24.0851 56.5267 24.1885 56.2633 24.3951 56.05C24.6085 55.83 24.8651 55.72 25.1651 55.72C25.4785 55.72 25.7385 55.83 25.9451 56.05C26.1585 56.2633 26.2651 56.5267 26.2651 56.84C26.2651 57.14 26.1585 57.3967 25.9451 57.61C25.7385 57.8167 25.4785 57.92 25.1651 57.92ZM29.3632 70V59.78H31.1032V60.82C31.4166 60.3867 31.7932 60.0667 32.2332 59.86C32.6732 59.6467 33.1766 59.54 33.7432 59.54C34.9832 59.54 35.9032 59.9167 36.5032 60.67C37.1032 61.4167 37.4032 62.5667 37.4032 64.12V70H35.6632V63.82C35.6632 62.96 35.4699 62.3 35.0832 61.84C34.7032 61.3733 34.1632 61.14 33.4632 61.14C32.6832 61.14 32.0932 61.3633 31.6932 61.81C31.2999 62.25 31.1032 62.9067 31.1032 63.78V70H29.3632Z" fill="white"/>
</svg>
