<svg width="38" height="71" viewBox="0 0 38 71" fill="none" xmlns="http://www.w3.org/2000/svg">
    <path fill-rule="evenodd" clip-rule="evenodd" d="M8.94985 0.0632432C8.49938 0.152648 8.18991 0.553489 8.18991 1.04757C8.18991 1.19371 8.34687 1.80899 8.53868 2.41495C9.17988 4.44026 9.46201 6.24346 9.46201 8.31677C9.46201 10.3353 9.12299 12.2754 8.4755 13.9622L8.19316 14.6978L8.38589 14.9061C8.72341 15.271 9.42384 15.7405 10.1785 16.1077C11.5271 16.7639 13.314 17.2115 15.5536 17.4541C16.9343 17.6038 20.2862 17.5629 21.5822 17.3807C24.4783 16.9736 26.8465 16.1931 28.4093 15.1308L28.876 14.8136L28.5614 14.0108C28.1588 12.9835 27.8112 11.5684 27.6573 10.3307C27.5622 9.56497 27.5442 9.02312 27.5739 7.80108C27.625 5.68304 27.8843 4.17826 28.5392 2.19848C28.697 1.72146 28.8261 1.19775 28.8261 1.0347C28.8261 0.670721 28.604 0.313895 28.2618 0.12793C28.0255 -0.000503877 27.6373 -0.00556314 18.6151 0.00238718C13.4449 0.00694055 9.0955 0.034333 8.94985 0.0632432ZM19.0306 11.1136C19.5139 11.3953 19.6718 11.9119 19.4392 12.4496C19.2597 12.8646 18.946 13.0755 18.508 13.0755C17.5199 13.0755 17.09 11.9091 17.8206 11.2111C18.1493 10.8973 18.5977 10.8612 19.0306 11.1136ZM7.04354 16.9247C6.72566 17.4286 5.57951 20.3322 5.66424 20.4188C5.67548 20.4303 6.09732 20.4757 6.60163 20.5196C8.46596 20.6818 10.1709 21.1858 12.0037 22.1167C13.9425 23.1015 15.741 24.4366 17.5445 26.2302L18.5257 27.2059L18.8526 26.8372C19.7872 25.7828 21.5045 24.2989 22.8543 23.3795C25.475 21.5945 27.9276 20.6946 30.7519 20.4817C31.092 20.4561 31.3703 20.4254 31.3703 20.4135C31.3703 20.2818 30.7309 18.556 30.4688 17.98C29.8962 16.7221 29.9028 16.732 29.7225 16.8623C26.5205 19.1759 20.1957 20.2944 14.5725 19.5415C11.6335 19.148 8.94645 18.1828 7.50666 17.0034C7.34461 16.8706 7.19718 16.762 7.17909 16.762C7.16093 16.762 7.09994 16.8352 7.04354 16.9247ZM5.12805 22.7321C4.93611 23.404 4.86579 26.2918 5.00918 27.6119C5.35244 30.7728 6.40552 33.9659 7.86638 36.2754C8.35783 37.0524 7.97648 36.9992 13.0593 36.9992H17.4479V33.0951V29.191L16.2995 28.0094C13.9441 25.5859 11.6692 24.0667 9.09501 23.1982C8.0815 22.8562 7.20248 22.6908 6.13089 22.6403C5.22452 22.5976 5.16487 22.603 5.12805 22.7321ZM29.8267 22.7303C27.4985 23.0771 25.007 24.2841 22.607 26.2279C22.1988 26.5585 21.3482 27.3549 20.7165 27.9977L19.5681 29.1665V33.0828V36.9992H23.9567C29.0361 36.9992 28.6594 37.0513 29.1447 36.2817C30.4024 34.2867 31.3602 31.6489 31.8374 28.8666C31.9902 27.9758 32.0294 27.4818 32.0586 26.0777C32.0905 24.5497 32.0229 23.196 31.892 22.7428C31.8603 22.6329 31.7658 22.6174 31.1712 22.6241C30.7948 22.6284 30.1898 22.6761 29.8267 22.7303Z" fill="white"/>
    <path d="M6.06734 70.24C5.25401 70.24 4.51734 70.1067 3.85734 69.84C3.19734 69.5667 2.63734 69.1967 2.17734 68.73C1.72401 68.2567 1.39401 67.72 1.18734 67.12L2.82734 66.52C3.10734 67.14 3.53068 67.6433 4.09734 68.03C4.67068 68.41 5.34068 68.6 6.10734 68.6C6.94734 68.6 7.61734 68.4 8.11734 68C8.61734 67.5933 8.86734 67.0067 8.86734 66.24C8.86734 65.7 8.71734 65.2467 8.41734 64.88C8.11734 64.5133 7.72734 64.2067 7.24734 63.96C6.76734 63.7067 6.25401 63.48 5.70734 63.28C5.22068 63.1 4.73401 62.9 4.24734 62.68C3.76068 62.46 3.31734 62.2 2.91734 61.9C2.52401 61.5933 2.20734 61.2233 1.96734 60.79C1.72734 60.35 1.60734 59.8267 1.60734 59.22C1.60734 58.5933 1.77734 58.02 2.11734 57.5C2.45734 56.9733 2.94734 56.5533 3.58734 56.24C4.22734 55.92 5.00068 55.76 5.90734 55.76C6.64734 55.76 7.29734 55.87 7.85734 56.09C8.42401 56.3033 8.88734 56.6 9.24734 56.98C9.61401 57.3533 9.86734 57.78 10.0073 58.26L8.40734 58.8C8.24068 58.4067 7.93401 58.0733 7.48734 57.8C7.04734 57.52 6.48068 57.38 5.78734 57.38C5.04734 57.38 4.46401 57.5433 4.03734 57.87C3.61734 58.1967 3.40734 58.6467 3.40734 59.22C3.40734 59.6533 3.54734 60.0167 3.82734 60.31C4.11401 60.5967 4.48734 60.8467 4.94734 61.06C5.40734 61.2733 5.90068 61.48 6.42734 61.68C6.92068 61.8667 7.41401 62.08 7.90734 62.32C8.40734 62.5533 8.86401 62.84 9.27734 63.18C9.69734 63.52 10.034 63.9367 10.2873 64.43C10.5407 64.9167 10.6673 65.5067 10.6673 66.2C10.6673 67.06 10.4673 67.79 10.0673 68.39C9.66734 68.99 9.12068 69.45 8.42734 69.77C7.73401 70.0833 6.94734 70.24 6.06734 70.24ZM13.66 70V56.38L15.4 55.56V63.3L18.72 59.78H20.8L18.12 62.56L21.96 70H20.06L16.9 63.82L15.4 65.38V70H13.66ZM24.305 70V59.78H26.045V70H24.305ZM25.165 57.92C24.865 57.92 24.6083 57.8167 24.395 57.61C24.1883 57.3967 24.085 57.14 24.085 56.84C24.085 56.5267 24.1883 56.2633 24.395 56.05C24.6083 55.83 24.865 55.72 25.165 55.72C25.4783 55.72 25.7383 55.83 25.945 56.05C26.1583 56.2633 26.265 56.5267 26.265 56.84C26.265 57.14 26.1583 57.3967 25.945 57.61C25.7383 57.8167 25.4783 57.92 25.165 57.92ZM29.3631 70V59.78H31.1031V60.82C31.4165 60.3867 31.7931 60.0667 32.2331 59.86C32.6731 59.6467 33.1765 59.54 33.7431 59.54C34.9831 59.54 35.9031 59.9167 36.5031 60.67C37.1031 61.4167 37.4031 62.5667 37.4031 64.12V70H35.6631V63.82C35.6631 62.96 35.4698 62.3 35.0831 61.84C34.7031 61.3733 34.1631 61.14 33.4631 61.14C32.6831 61.14 32.0931 61.3633 31.6931 61.81C31.2998 62.25 31.1031 62.9067 31.1031 63.78V70H29.3631Z" fill="white"/>
</svg>
