<svg width="111" height="98" viewBox="0 0 111 98" fill="none" xmlns="http://www.w3.org/2000/svg">
<g clip-path="url(#clip0_2_1280)">
<path fill-rule="evenodd" clip-rule="evenodd" d="M54.5028 0.0293361C48.996 0.233092 43.4199 2.14026 38.7399 5.4205C35.3433 7.80127 32.2841 11.0989 30.1693 14.6593C27.9233 18.4403 26.6023 22.4587 26.1101 27.006C25.9321 28.6501 25.9769 32.2866 26.1942 33.846C26.5348 36.2886 27.1661 38.7678 27.9789 40.8543C28.442 42.0429 29.8872 45.0147 30.074 45.1626C30.1448 45.2188 31.8484 44.1555 35.5561 41.742L40.9355 38.2401V34.9806V31.7214L41.1368 31.4274C41.2991 31.1901 41.9788 30.7866 44.6582 29.3366L47.9784 27.5399L48.0216 23.3411C48.0634 19.2846 48.0707 19.1367 48.2377 18.9771C48.3327 18.8862 49.266 18.3728 50.3117 17.836C51.3573 17.2992 52.9517 16.4727 53.8547 15.9993C55.4478 15.1641 56.0261 14.9556 56.252 15.1351C56.3117 15.1827 56.9828 15.5544 57.7433 15.9612C58.5038 16.3679 59.4956 16.8989 59.9471 17.1411C60.3986 17.3835 61.4351 17.9328 62.2502 18.3619C63.0656 18.7911 63.7655 19.2093 63.8057 19.2913C63.8459 19.3734 63.8981 20.3059 63.9221 21.3636L63.9653 23.2869L66.9467 21.3486C68.5865 20.2825 70.6865 18.9189 71.6132 18.3182C72.5399 17.7174 74.0372 16.7442 74.9402 16.1553C75.8432 15.5665 76.8932 14.8851 77.2733 14.6412C78.608 13.7851 80.3846 12.6312 80.4191 12.5982C80.4752 12.5441 79.5011 11.3001 78.5624 10.2271C75.0614 6.22522 70.4186 3.14277 65.3912 1.48288C61.8332 0.30819 58.6067 -0.122507 54.5028 0.0293361ZM82.0262 16.3244C81.5258 16.6611 78.9386 18.3477 77.7698 19.0992C77.33 19.382 76.433 19.9639 75.7763 20.3922C75.1199 20.8204 73.6217 21.7938 72.4475 22.5552C71.273 23.3165 69.9824 24.1536 69.5789 24.4153C69.1757 24.6771 67.8554 25.5328 66.6455 26.3169C65.4356 27.1009 64.4735 27.7689 64.508 27.8011C64.5422 27.8334 64.784 27.974 65.0456 28.1137C68.7962 30.1164 70.4957 31.0638 70.7273 31.2807L71.0084 31.5438V36.1422C71.0084 40.4133 70.9976 40.7502 70.8569 40.8741C70.7204 40.9947 69.9791 41.4045 67.6811 42.6291C64.9508 44.0847 63.689 44.7768 63.5696 44.8842C63.4121 45.0261 63.0074 45.0483 62.9276 44.9193C62.8979 44.871 62.7497 44.7792 62.5985 44.715C62.4473 44.6511 60.9431 43.8483 59.2556 42.9315C57.5684 42.0147 56.1491 41.2641 56.1014 41.2638C56.054 41.2632 55.3929 41.6031 54.6324 42.0192C53.872 42.435 52.9581 42.9321 52.6017 43.1238C50.5827 44.2086 49.6818 44.7057 49.4774 44.8479C49.3512 44.9355 49.1931 45.0072 49.126 45.0072C48.9877 45.0072 48.3846 44.697 45.2275 43.0035C43.9997 42.3447 42.9531 41.8059 42.9017 41.8059C42.8502 41.8059 42.0748 42.2829 41.1786 42.8658C37.0728 45.5361 35.9348 46.2747 34.2604 47.3547C33.2745 47.9907 32.4676 48.5539 32.4673 48.6061C32.4654 48.9397 35.5806 52.1335 37.09 53.3461C41.1105 56.5753 46.154 58.8436 51.0462 59.623C52.988 59.9323 53.9111 60.0022 56.015 60.0001C59.4212 59.9965 62.12 59.5783 65.2184 58.5739C69.9293 57.0469 74.0069 54.5053 77.4908 50.9233C80.9675 47.3493 83.3312 43.3245 84.7757 38.5182C86.6763 32.196 86.3531 25.0962 83.8823 18.878C83.4365 17.7563 82.6118 16.0217 82.5272 16.0283C82.4894 16.0313 82.2638 16.1645 82.0262 16.3244ZM50.0505 21.4908C50.0265 21.5533 50.0171 22.9265 50.0296 24.5421L50.0524 27.4796L50.4845 27.811C50.7221 27.9933 51.6212 28.4989 52.4823 28.9346L54.0482 29.7267L54.5772 29.3855L55.1063 29.0442L55.107 26.5163L55.1077 23.9885L53.8763 23.3701C53.1991 23.03 52.4893 22.664 52.2992 22.5568C50.9105 21.774 50.0909 21.3854 50.0505 21.4908ZM61.1999 21.7184C60.8672 21.8992 59.7785 22.4667 58.7804 22.9796C57.7823 23.4924 56.9357 23.9404 56.8991 23.975C56.8625 24.0097 56.843 24.9049 56.8559 25.9645L56.8793 27.8909L59.3852 26.2592L61.8914 24.6274L61.9148 23.0073C61.9277 22.1162 61.9085 21.3877 61.8716 21.3883C61.835 21.389 61.5326 21.5375 61.1999 21.7184ZM42.7502 35.2479C42.7502 36.6726 42.7732 37.0437 42.8583 36.9927C42.9177 36.957 43.5155 36.5694 44.1867 36.1314C44.858 35.6931 45.4923 35.289 45.5963 35.2335C45.7002 35.1777 45.7721 35.0925 45.7559 35.0439C45.7397 34.9953 45.0569 34.614 44.2384 34.197L42.7502 33.4383V35.2479ZM56.8361 36.6468V39.7935L59.8736 41.4573L62.9114 43.1208L63.2222 42.9495C63.3935 42.8556 64.622 42.1854 65.9528 41.4606C67.2836 40.7358 68.5184 40.0491 68.6966 39.9348L69.0206 39.7269V36.6135C69.0206 34.4508 68.9924 33.4998 68.9279 33.4998C68.8766 33.4998 67.7312 34.068 66.3824 34.7625L63.9299 36.0252L63.9044 38.3514L63.8789 40.6776L63.6491 40.9074C63.4793 41.0775 63.3044 41.1486 62.9813 41.1798C62.5712 41.2191 62.5247 41.2026 62.2391 40.917L61.9346 40.6119V38.3595V36.1074L61.697 35.9424C61.3844 35.7255 57.0338 33.4998 56.9222 33.4998C56.8664 33.4998 56.8361 34.611 56.8361 36.6468ZM53.6624 34.7406C53.0814 35.1288 51.9858 35.8488 51.2277 36.3402L49.8494 37.2336L49.8212 38.9208L49.7932 40.6083L49.4704 40.9041C49.2263 41.1279 49.0707 41.2002 48.8325 41.2002C48.4888 41.2002 47.9921 40.9386 47.8847 40.701C47.8475 40.6185 47.795 40.1148 47.7682 39.5811L47.7192 38.6106L46.0973 39.6615C45.2053 40.2396 44.5054 40.7415 44.5418 40.7769C44.5783 40.8123 45.5493 41.3538 46.6994 41.9805L48.7907 43.1196L51.8196 41.4597L54.8485 39.7998V36.9096C54.8485 35.3196 54.8194 34.0224 54.7837 34.0269C54.748 34.0311 54.2435 34.3521 53.6624 34.7406Z" fill="#505050"/>
</g>
<path d="M7.23381 93.16C6.36981 93.16 5.53248 93.0373 4.72181 92.792C3.92181 92.5467 3.28715 92.2213 2.81781 91.816L3.53781 90.2C3.99648 90.5627 4.55648 90.8613 5.21781 91.096C5.88981 91.32 6.56181 91.432 7.23381 91.432C8.06581 91.432 8.68448 91.2987 9.08981 91.032C9.50581 90.7653 9.71381 90.4133 9.71381 89.976C9.71381 89.656 9.59648 89.3947 9.36181 89.192C9.13781 88.9787 8.84981 88.8133 8.49781 88.696C8.14581 88.5787 7.66581 88.4453 7.05781 88.296C6.20448 88.0933 5.51115 87.8907 4.97781 87.688C4.45515 87.4853 4.00181 87.1707 3.61781 86.744C3.24448 86.3067 3.05781 85.72 3.05781 84.984C3.05781 84.3653 3.22315 83.8053 3.55381 83.304C3.89515 82.792 4.40181 82.3867 5.07381 82.088C5.75648 81.7893 6.58848 81.64 7.56981 81.64C8.25248 81.64 8.92448 81.7253 9.58581 81.896C10.2471 82.0667 10.8178 82.312 11.2978 82.632L10.6418 84.248C10.1511 83.96 9.63915 83.7413 9.10581 83.592C8.57248 83.4427 8.05515 83.368 7.55381 83.368C6.73248 83.368 6.11915 83.5067 5.71381 83.784C5.31915 84.0613 5.12181 84.4293 5.12181 84.888C5.12181 85.208 5.23381 85.4693 5.45781 85.672C5.69248 85.8747 5.98581 86.0347 6.33781 86.152C6.68981 86.2693 7.16981 86.4027 7.77781 86.552C8.60981 86.744 9.29248 86.9467 9.82581 87.16C10.3591 87.3627 10.8125 87.6773 11.1858 88.104C11.5698 88.5307 11.7618 89.1067 11.7618 89.832C11.7618 90.4507 11.5911 91.0107 11.2498 91.512C10.9191 92.0133 10.4125 92.4133 9.72981 92.712C9.04715 93.0107 8.21515 93.16 7.23381 93.16ZM18.6403 93.16C17.0936 93.16 15.8883 92.728 15.0243 91.864C14.1603 90.9893 13.7283 89.7413 13.7283 88.12V81.8H15.8083V88.04C15.8083 90.2373 16.7576 91.336 18.6563 91.336C20.5443 91.336 21.4883 90.2373 21.4883 88.04V81.8H23.5363V88.12C23.5363 89.7413 23.1043 90.9893 22.2403 91.864C21.387 92.728 20.187 93.16 18.6403 93.16ZM34.0973 87.272H36.0653V91.736C35.4893 92.1947 34.8173 92.5467 34.0493 92.792C33.2813 93.0373 32.492 93.16 31.6813 93.16C30.54 93.16 29.5106 92.9147 28.5933 92.424C27.676 91.9227 26.956 91.2347 26.4333 90.36C25.9106 89.4853 25.6493 88.4987 25.6493 87.4C25.6493 86.3013 25.9106 85.3147 26.4333 84.44C26.956 83.5653 27.676 82.8827 28.5933 82.392C29.5213 81.8907 30.5613 81.64 31.7133 81.64C32.652 81.64 33.5053 81.7947 34.2733 82.104C35.0413 82.4133 35.6866 82.8667 36.2093 83.464L34.8973 84.744C34.044 83.8907 33.0146 83.464 31.8093 83.464C31.02 83.464 30.316 83.6293 29.6973 83.96C29.0893 84.2907 28.6093 84.7547 28.2573 85.352C27.916 85.9493 27.7453 86.632 27.7453 87.4C27.7453 88.1467 27.916 88.8187 28.2573 89.416C28.6093 90.0133 29.0893 90.4827 29.6973 90.824C30.316 91.1653 31.0146 91.336 31.7933 91.336C32.668 91.336 33.436 91.144 34.0973 90.76V87.272ZM46.0727 90.408H40.4727L39.3687 93H37.2247L42.2647 81.8H44.3127L49.3687 93H47.1927L46.0727 90.408ZM45.3847 88.776L43.2727 83.88L41.1767 88.776H45.3847ZM58.1211 93L55.8331 89.72C55.7371 89.7307 55.5931 89.736 55.4011 89.736H52.8731V93H50.7931V81.8H55.4011C56.3717 81.8 57.2144 81.96 57.9291 82.28C58.6544 82.6 59.2091 83.0587 59.5931 83.656C59.9771 84.2533 60.1691 84.9627 60.1691 85.784C60.1691 86.6267 59.9611 87.352 59.5451 87.96C59.1397 88.568 58.5531 89.0213 57.7851 89.32L60.3611 93H58.1211ZM58.0731 85.784C58.0731 85.0693 57.8384 84.52 57.3691 84.136C56.8997 83.752 56.2117 83.56 55.3051 83.56H52.8731V88.024H55.3051C56.2117 88.024 56.8997 87.832 57.3691 87.448C57.8384 87.0533 58.0731 86.4987 58.0731 85.784ZM68.9981 83.544V86.952H74.4061V88.712H68.9981V93H66.9181V81.8H75.0941V83.544H68.9981ZM84.4336 93L82.1456 89.72C82.0496 89.7307 81.9056 89.736 81.7136 89.736H79.1856V93H77.1056V81.8H81.7136C82.6842 81.8 83.5269 81.96 84.2416 82.28C84.9669 82.6 85.5216 83.0587 85.9056 83.656C86.2896 84.2533 86.4816 84.9627 86.4816 85.784C86.4816 86.6267 86.2736 87.352 85.8576 87.96C85.4522 88.568 84.8656 89.0213 84.0976 89.32L86.6736 93H84.4336ZM84.3856 85.784C84.3856 85.0693 84.1509 84.52 83.6816 84.136C83.2122 83.752 82.5242 83.56 81.6176 83.56H79.1856V88.024H81.6176C82.5242 88.024 83.2122 87.832 83.6816 87.448C84.1509 87.0533 84.3856 86.4987 84.3856 85.784ZM97.2087 91.256V93H88.8087V81.8H96.9847V83.544H90.8887V86.456H96.2967V88.168H90.8887V91.256H97.2087ZM107.927 91.256V93H99.5274V81.8H107.703V83.544H101.607V86.456H107.015V88.168H101.607V91.256H107.927Z" fill="#505050"/>
<defs>
<clipPath id="clip0_2_1280">
<rect width="60" height="60" fill="white" transform="translate(26)"/>
</clipPath>
</defs>
</svg>
