<svg width="68" height="68" viewBox="0 0 68 68" fill="none" xmlns="http://www.w3.org/2000/svg">
    <path fill-rule="evenodd" clip-rule="evenodd" d="M32.1356 0.0413152C29.4748 0.309565 26.8931 1.04182 24.6612 2.16132C19.1671 4.91711 15.1222 9.93706 13.6346 15.8459C12.3581 20.9163 13.0265 26.4132 15.4669 30.9133C15.7535 31.4418 15.8949 31.6468 15.9565 31.6233C16.0041 31.605 16.957 30.995 18.0742 30.2679C19.1913 29.5407 21.4383 28.0806 23.0676 27.023C24.6967 25.9655 26.5396 24.7691 27.1628 24.3644L28.296 23.6288L28.2926 23.326C28.2896 23.0414 28.274 23.0118 28.0362 22.8392C27.8037 22.6703 27.7815 22.6304 27.765 22.3511C27.743 21.9763 27.897 21.7447 28.2072 21.6865C28.4223 21.646 28.478 21.6707 29.007 22.0418C29.2021 22.1787 29.3501 22.2218 29.7758 22.2657C30.2666 22.3165 30.3172 22.311 30.5082 22.1871C30.6211 22.1138 30.7138 22.0382 30.7142 22.0189C30.7146 21.9996 30.572 21.919 30.3975 21.8394C29.1214 21.2587 28.2968 20.1292 28.2968 18.9621C28.2968 18.6466 28.2602 18.5046 28.0912 18.1659C27.6952 17.3719 27.6922 17.346 27.6922 14.7064C27.6922 12.4063 27.6968 12.3096 27.8157 12.1169C28.0466 11.7427 28.4633 11.7177 28.7804 12.0589L28.9315 12.2215L28.9618 14.6848C28.9914 17.0976 28.9948 17.1545 29.1319 17.4578L29.2718 17.7675L29.7666 17.8018C30.0388 17.8207 30.4197 17.879 30.613 17.9315C31.717 18.2309 32.7579 19.1227 33.108 20.0691C33.1669 20.228 33.2223 20.368 33.2312 20.3801C33.2705 20.4333 35.3997 19.0076 35.5681 18.8154C35.9238 18.409 36.4568 18.0658 37.0652 17.8512C37.217 17.7976 37.6994 17.5221 38.1374 17.239L38.9338 16.7241L38.9352 14.5256C38.9367 12.0698 38.9417 12.0373 39.3399 11.8706C39.6053 11.7595 39.8435 11.8067 40.0323 12.0079L40.1759 12.1609L40.1942 14.0034C40.2045 15.0168 40.2259 15.8459 40.2421 15.8459C40.258 15.8459 40.7666 15.5228 41.3723 15.1279C43.6966 13.6119 48.2756 10.64 49.5763 9.80315C50.3246 9.32183 50.9754 8.89126 51.0228 8.84632C51.0965 8.77625 51.0474 8.68378 50.6807 8.20183C48.8308 5.77019 46.1748 3.57708 43.3769 2.17096C41.3227 1.13866 39.0291 0.44923 36.5664 0.123747C35.6958 0.00866997 32.9634 -0.0421455 32.1356 0.0413152ZM34.2793 10.5546C34.6006 10.7447 34.6443 10.9033 34.6443 11.8764V12.7638L34.9503 13.1389C35.2697 13.531 35.6691 14.2899 35.801 14.7557C35.9213 15.1814 35.9032 16.466 35.7707 16.9058C35.5026 17.7948 34.7978 18.7954 34.3119 18.9765C33.9469 19.1127 33.8337 19.084 33.495 18.7692C32.777 18.1025 32.372 17.3999 32.1918 16.5096C31.9606 15.3659 32.2449 14.2653 33.0442 13.2102L33.3662 12.7852L33.3856 11.8082C33.4031 10.9324 33.4176 10.8173 33.526 10.6968C33.7501 10.4476 34.0143 10.3977 34.2793 10.5546ZM31.2391 11.3164C31.4953 11.5511 31.5062 11.6635 31.488 13.8916L31.4706 16.0198L31.2958 16.2025C31.0741 16.4343 30.8404 16.4884 30.5995 16.3636C30.2382 16.1764 30.2313 16.1278 30.2313 13.7783C30.2313 11.6652 30.2326 11.6421 30.3673 11.4422C30.5864 11.1173 30.9624 11.0629 31.2391 11.3164ZM37.4556 11.3712L37.6368 11.5478L37.6551 13.6212C37.6651 14.7615 37.6576 15.78 37.6385 15.8845C37.5971 16.1106 37.3621 16.3634 37.1416 16.4189C36.9194 16.4746 36.6618 16.3507 36.519 16.1193C36.4033 15.9319 36.3976 15.8199 36.3976 13.7778C36.3976 11.864 36.4085 11.6171 36.4996 11.4835C36.6653 11.2408 36.9325 11.1105 37.1532 11.1649C37.2197 11.1812 37.3558 11.2741 37.4556 11.3712ZM51.8435 11.6627C51.4445 11.9246 50.3019 12.6688 49.3044 13.3165C48.3069 13.9641 47.1372 14.7244 46.7048 15.0061C44.3058 16.5697 42.9391 17.4584 42.0609 18.0263C39.3857 19.756 39.3874 19.7548 39.3109 20.0101C39.1965 20.3925 38.7962 20.9539 38.4148 21.2665C37.7496 21.8119 36.7216 22.2016 35.9415 22.2044C35.6525 22.2054 35.5666 22.2508 34.2921 23.0754C33.5528 23.554 32.9311 23.9623 32.9107 23.9826C32.8903 24.0032 32.9483 24.1868 33.0397 24.3905C33.3549 25.0942 33.4742 26.2483 33.2592 26.514C33.1474 26.6524 33.1147 26.657 32.2769 26.657C31.3019 26.657 31.0713 26.6099 30.2868 26.2506L29.7679 26.0129L29.3644 26.2706L28.9609 26.5285L29.1156 26.6902C29.2455 26.826 29.3395 26.8577 29.7054 26.889C30.5989 26.9653 31.5336 27.2962 32.1175 27.7429C32.4233 27.9766 32.8557 28.5951 33.0664 29.0999C33.2344 29.5025 33.3748 30.2215 33.3748 30.6795C33.3748 30.975 33.3515 31.0489 33.2185 31.1739C33.0695 31.3137 33.026 31.3205 32.2966 31.3169C31.3985 31.3123 30.9684 31.218 30.2615 30.87C29.6957 30.5915 29.2142 30.1984 28.8596 29.7257C28.5071 29.2555 28.3511 28.8196 28.313 28.1984C28.2849 27.7374 28.2624 27.6593 28.1086 27.4867C28.0135 27.3802 27.9041 27.2931 27.8656 27.2931C27.8269 27.2931 27.3301 27.5948 26.7614 27.9636C24.9186 29.1591 19.1606 32.9007 18.337 33.4379C17.8965 33.7252 17.536 33.986 17.536 34.0173C17.536 34.0486 17.7775 34.3541 18.0727 34.6962C21.7369 38.9428 26.6893 41.4616 32.3472 41.9557C33.3594 42.0441 35.672 41.9935 36.6393 41.8618C39.3916 41.487 41.9487 40.6409 44.2228 39.3525C48.5089 36.9241 51.7257 33.2462 53.5252 28.7162C55.5091 23.7233 55.4906 18.0543 53.475 13.1205C53.2052 12.4598 52.6184 11.1808 52.5869 11.1843C52.577 11.1854 52.2425 11.4008 51.8435 11.6627ZM39.9655 21.5702C40.1984 21.6907 40.2666 21.832 40.2666 22.1949C40.2666 22.4784 40.2465 22.5162 39.9044 22.8801C39.5875 23.217 39.5419 23.2957 39.5407 23.5076C39.5354 24.3212 39.1349 25.2225 38.5333 25.775C37.7874 26.4598 36.9343 26.7926 35.7756 26.851C34.9803 26.8913 34.8646 26.8594 34.6151 26.5318C34.4717 26.3435 34.4689 26.3204 34.5261 25.8157C34.5586 25.5289 34.6624 25.083 34.7566 24.8249C35.3157 23.2936 36.4786 22.4309 38.2055 22.2667L38.7742 22.2128L39.082 21.9139C39.5524 21.4574 39.6641 21.4139 39.9655 21.5702ZM40.0898 26.3193C40.228 26.4577 40.2666 26.5507 40.2666 26.7462C40.2666 27.0631 40.165 27.2549 39.8181 27.5934C39.5677 27.8374 39.5411 27.8903 39.5411 28.1438C39.5411 28.5277 39.3372 29.2954 39.1343 29.6747C38.8857 30.1403 38.3017 30.6846 37.7336 30.9807C37.0524 31.3358 36.4591 31.4796 35.6231 31.492L34.9391 31.5023L34.6926 31.2381L34.4463 30.9742L34.479 30.3904C34.5374 29.3486 34.9549 28.5464 35.7817 27.8867C36.5448 27.278 37.3134 26.9722 38.283 26.8911L38.7565 26.8514L39.1171 26.4968C39.422 26.1969 39.5113 26.1423 39.6954 26.1423C39.8554 26.1423 39.96 26.1891 40.0898 26.3193Z" fill="#1D2E42"/>
    <path d="M7.50168 62.156C6.97302 62.156 6.49418 62.0693 6.06518 61.896C5.63618 61.7183 5.27218 61.4778 4.97318 61.1745C4.67852 60.8668 4.46402 60.518 4.32968 60.128L5.39568 59.738C5.57768 60.141 5.85285 60.4682 6.22118 60.7195C6.59385 60.9665 7.02935 61.09 7.52768 61.09C8.07368 61.09 8.50918 60.96 8.83418 60.7C9.15918 60.4357 9.32168 60.0543 9.32168 59.556C9.32168 59.205 9.22418 58.9103 9.02918 58.672C8.83418 58.4337 8.58068 58.2343 8.26868 58.074C7.95668 57.9093 7.62302 57.762 7.26768 57.632C6.95135 57.515 6.63502 57.385 6.31868 57.242C6.00235 57.099 5.71418 56.93 5.45418 56.735C5.19852 56.5357 4.99268 56.2952 4.83668 56.0135C4.68068 55.7275 4.60268 55.3873 4.60268 54.993C4.60268 54.5857 4.71318 54.213 4.93418 53.875C5.15518 53.5327 5.47368 53.2597 5.88968 53.056C6.30568 52.848 6.80835 52.744 7.39768 52.744C7.87868 52.744 8.30118 52.8155 8.66518 52.9585C9.03352 53.0972 9.33468 53.29 9.56868 53.537C9.80702 53.7797 9.97168 54.057 10.0627 54.369L9.02268 54.72C8.91435 54.4643 8.71502 54.2477 8.42468 54.07C8.13868 53.888 7.77035 53.797 7.31968 53.797C6.83868 53.797 6.45952 53.9032 6.18218 54.1155C5.90918 54.3278 5.77268 54.6203 5.77268 54.993C5.77268 55.2747 5.86368 55.5108 6.04568 55.7015C6.23202 55.8878 6.47468 56.0503 6.77368 56.189C7.07268 56.3277 7.39335 56.462 7.73568 56.592C8.05635 56.7133 8.37702 56.852 8.69768 57.008C9.02268 57.1597 9.31952 57.346 9.58818 57.567C9.86118 57.788 10.08 58.0588 10.2447 58.3795C10.4094 58.6958 10.4917 59.0793 10.4917 59.53C10.4917 60.089 10.3617 60.5635 10.1017 60.9535C9.84168 61.3435 9.48635 61.6425 9.03568 61.8505C8.58502 62.0542 8.07368 62.156 7.50168 62.156ZM14.7899 62.156C13.9709 62.156 13.3621 61.9133 12.9634 61.428C12.5691 60.9427 12.3719 60.1973 12.3719 59.192V55.357H13.5029V59.361C13.5029 59.9243 13.6264 60.3555 13.8734 60.6545C14.1204 60.9535 14.4736 61.103 14.9329 61.103C15.4399 61.103 15.8212 60.9578 16.0769 60.6675C16.3369 60.3772 16.4669 59.9503 16.4669 59.387V55.357H17.5979V62H16.4669V61.363C16.2546 61.636 16.0141 61.8375 15.7454 61.9675C15.4811 62.0932 15.1626 62.156 14.7899 62.156ZM21.7396 64.769L21.1936 63.885C21.783 63.8503 22.264 63.7702 22.6366 63.6445C23.0136 63.5188 23.291 63.3412 23.4686 63.1115C23.6506 62.8818 23.7416 62.5937 23.7416 62.247V61.35C23.343 61.8873 22.771 62.156 22.0256 62.156C21.4796 62.156 21.003 62.0108 20.5956 61.7205C20.1883 61.4302 19.872 61.025 19.6466 60.505C19.4213 59.9807 19.3086 59.3697 19.3086 58.672C19.3086 57.9657 19.4213 57.3525 19.6466 56.8325C19.8763 56.3125 20.197 55.9117 20.6086 55.63C21.0203 55.344 21.5056 55.201 22.0646 55.201C22.3983 55.201 22.7103 55.2638 23.0006 55.3895C23.2953 55.5108 23.5423 55.682 23.7416 55.903V55.357H24.8726V61.818C24.8726 62.2903 24.8098 62.7042 24.6841 63.0595C24.5585 63.4192 24.3656 63.7203 24.1056 63.963C23.8456 64.2057 23.5185 64.392 23.1241 64.522C22.7341 64.6563 22.2726 64.7387 21.7396 64.769ZM22.2596 61.103C22.5456 61.103 22.823 61.0163 23.0916 60.843C23.3646 60.6697 23.5813 60.4443 23.7416 60.167V57.125C23.5943 56.8693 23.3776 56.6592 23.0916 56.4945C22.81 56.3255 22.5326 56.241 22.2596 56.241C21.6746 56.241 21.2261 56.449 20.9141 56.865C20.6065 57.281 20.4526 57.8833 20.4526 58.672C20.4526 59.166 20.5263 59.595 20.6736 59.959C20.8253 60.323 21.0355 60.6047 21.3041 60.804C21.5771 61.0033 21.8956 61.103 22.2596 61.103ZM29.0367 62.156C28.3174 62.156 27.7519 61.9567 27.3402 61.558C26.9285 61.1593 26.7227 60.6133 26.7227 59.92C26.7227 59.4737 26.8245 59.0858 27.0282 58.7565C27.2319 58.4272 27.52 58.1737 27.8927 57.996C28.2654 57.814 28.703 57.723 29.2057 57.723C29.5307 57.723 29.834 57.7598 30.1157 57.8335C30.4017 57.9028 30.6704 58.009 30.9217 58.152V57.684C30.9217 57.1683 30.8047 56.7913 30.5707 56.553C30.3367 56.3103 29.9727 56.189 29.4787 56.189C29.1624 56.189 28.833 56.2475 28.4907 56.3645C28.1527 56.4815 27.8364 56.644 27.5417 56.852L27.2167 55.903C27.5504 55.682 27.9295 55.5108 28.3542 55.3895C28.7832 55.2638 29.2057 55.201 29.6217 55.201C30.4104 55.201 31.0019 55.4025 31.3962 55.8055C31.7905 56.2042 31.9877 56.8 31.9877 57.593V62H30.9217V61.389C30.6617 61.636 30.3692 61.8267 30.0442 61.961C29.7192 62.091 29.3834 62.156 29.0367 62.156ZM29.2057 61.168C29.5134 61.168 29.8167 61.0922 30.1157 60.9405C30.419 60.7888 30.6877 60.5743 30.9217 60.297V59.153C30.7007 59.0143 30.4494 58.906 30.1677 58.828C29.886 58.75 29.6174 58.711 29.3617 58.711C28.8764 58.711 28.4929 58.8215 28.2112 59.0425C27.9295 59.2592 27.7887 59.556 27.7887 59.933C27.7887 60.3143 27.9144 60.6155 28.1657 60.8365C28.417 61.0575 28.7637 61.168 29.2057 61.168ZM34.1205 62V55.357H35.2515V56.228C35.4032 55.89 35.6112 55.6343 35.8755 55.461C36.1442 55.2877 36.4605 55.201 36.8245 55.201C37.2275 55.201 37.5698 55.3137 37.8515 55.539L37.6825 56.605C37.5395 56.5053 37.39 56.4338 37.234 56.3905C37.0823 56.3428 36.9155 56.319 36.7335 56.319C36.4345 56.319 36.1745 56.3992 35.9535 56.5595C35.7325 56.7198 35.5592 56.9452 35.4335 57.2355C35.3122 57.5258 35.2515 57.866 35.2515 58.256V62H34.1205ZM42.6098 62V56.345H41.5828V55.357H42.6098V54.252C42.6098 53.7753 42.7355 53.4048 42.9868 53.1405C43.2425 52.8762 43.5978 52.744 44.0528 52.744C44.2738 52.744 44.4861 52.77 44.6898 52.822C44.8935 52.874 45.0928 52.952 45.2878 53.056V54.005C45.1015 53.9183 44.9346 53.8555 44.7873 53.8165C44.64 53.7775 44.4905 53.758 44.3388 53.758C44.1265 53.758 43.9726 53.8122 43.8773 53.9205C43.7863 54.0245 43.7408 54.2 43.7408 54.447V55.357H45.2878V56.345H43.7408V62H42.6098ZM46.5619 62V55.357H47.6929V56.228C47.8446 55.89 48.0526 55.6343 48.3169 55.461C48.5856 55.2877 48.9019 55.201 49.2659 55.201C49.6689 55.201 50.0112 55.3137 50.2929 55.539L50.1239 56.605C49.9809 56.5053 49.8314 56.4338 49.6754 56.3905C49.5237 56.3428 49.3569 56.319 49.1749 56.319C48.8759 56.319 48.6159 56.3992 48.3949 56.5595C48.1739 56.7198 48.0006 56.9452 47.8749 57.2355C47.7536 57.5258 47.6929 57.866 47.6929 58.256V62H46.5619ZM53.8456 62.156C53.2389 62.156 52.7146 62.0065 52.2726 61.7075C51.8306 61.4085 51.4904 60.9968 51.2521 60.4725C51.0137 59.9482 50.8946 59.348 50.8946 58.672C50.8946 57.9397 51.0181 57.3157 51.2651 56.8C51.5121 56.28 51.8566 55.8835 52.2986 55.6105C52.7406 55.3375 53.2562 55.201 53.8456 55.201C54.3439 55.201 54.8011 55.3137 55.2171 55.539C55.6331 55.76 55.9646 56.1045 56.2116 56.5725C56.4629 57.0362 56.5886 57.632 56.5886 58.36C56.5886 58.464 56.5842 58.5853 56.5756 58.724C56.5712 58.8583 56.5626 58.997 56.5496 59.14H52.0516C52.0949 59.543 52.1946 59.8962 52.3506 60.1995C52.5066 60.5028 52.7124 60.7412 52.9681 60.9145C53.2237 61.0835 53.5249 61.168 53.8716 61.168C54.1532 61.168 54.4132 61.1182 54.6516 61.0185C54.8942 60.9188 55.1196 60.765 55.3276 60.557L55.9906 61.298C55.7436 61.545 55.4359 61.7508 55.0676 61.9155C54.7036 62.0758 54.2962 62.156 53.8456 62.156ZM52.0386 58.152H55.4446C55.4446 57.775 55.3817 57.4392 55.2561 57.1445C55.1347 56.8455 54.9549 56.6115 54.7166 56.4425C54.4782 56.2735 54.1879 56.189 53.8456 56.189C53.3646 56.189 52.9507 56.345 52.6041 56.657C52.2617 56.969 52.0732 57.4673 52.0386 58.152ZM61.0692 62.156C60.4625 62.156 59.9382 62.0065 59.4962 61.7075C59.0542 61.4085 58.714 60.9968 58.4757 60.4725C58.2374 59.9482 58.1182 59.348 58.1182 58.672C58.1182 57.9397 58.2417 57.3157 58.4887 56.8C58.7357 56.28 59.0802 55.8835 59.5222 55.6105C59.9642 55.3375 60.4799 55.201 61.0692 55.201C61.5675 55.201 62.0247 55.3137 62.4407 55.539C62.8567 55.76 63.1882 56.1045 63.4352 56.5725C63.6865 57.0362 63.8122 57.632 63.8122 58.36C63.8122 58.464 63.8079 58.5853 63.7992 58.724C63.7949 58.8583 63.7862 58.997 63.7732 59.14H59.2752C59.3185 59.543 59.4182 59.8962 59.5742 60.1995C59.7302 60.5028 59.936 60.7412 60.1917 60.9145C60.4474 61.0835 60.7485 61.168 61.0952 61.168C61.3769 61.168 61.6369 61.1182 61.8752 61.0185C62.1179 60.9188 62.3432 60.765 62.5512 60.557L63.2142 61.298C62.9672 61.545 62.6595 61.7508 62.2912 61.9155C61.9272 62.0758 61.5199 62.156 61.0692 62.156ZM59.2622 58.152H62.6682C62.6682 57.775 62.6054 57.4392 62.4797 57.1445C62.3584 56.8455 62.1785 56.6115 61.9402 56.4425C61.7019 56.2735 61.4115 56.189 61.0692 56.189C60.5882 56.189 60.1744 56.345 59.8277 56.657C59.4854 56.969 59.2969 57.4673 59.2622 58.152Z" fill="#1D2E42"/>
</svg>
