<svg width="60" height="60" viewBox="0 0 60 60" fill="none" xmlns="http://www.w3.org/2000/svg">
<path fill-rule="evenodd" clip-rule="evenodd" d="M28.5028 0.0293361C22.996 0.233092 17.4199 2.14026 12.7399 5.4205C9.34327 7.80127 6.28414 11.0989 4.16928 14.6593C1.92333 18.4403 0.602284 22.4587 0.110057 27.006C-0.0678741 28.6501 -0.0231106 32.2866 0.194226 33.846C0.534792 36.2886 1.16606 38.7678 1.97889 40.8543C2.44199 42.0429 3.88722 45.0147 4.07403 45.1626C4.14483 45.2188 5.84841 44.1555 9.55612 41.742L14.9355 38.2401V34.9806V31.7214L15.1368 31.4274C15.2991 31.1901 15.9788 30.7866 18.6582 29.3366L21.9784 27.5399L22.0216 23.3411C22.0634 19.2846 22.0707 19.1367 22.2377 18.9771C22.3327 18.8862 23.266 18.3728 24.3117 17.836C25.3573 17.2992 26.9517 16.4727 27.8547 15.9993C29.4478 15.1641 30.0261 14.9556 30.252 15.1351C30.3117 15.1827 30.9828 15.5544 31.7433 15.9612C32.5038 16.3679 33.4956 16.8989 33.9471 17.1411C34.3986 17.3835 35.4351 17.9328 36.2502 18.3619C37.0656 18.7911 37.7655 19.2093 37.8057 19.2913C37.8459 19.3734 37.8981 20.3059 37.9221 21.3636L37.9653 23.2869L40.9467 21.3486C42.5865 20.2825 44.6865 18.9189 45.6132 18.3182C46.5399 17.7174 48.0372 16.7442 48.9402 16.1553C49.8432 15.5665 50.8932 14.8851 51.2733 14.6412C52.608 13.7851 54.3846 12.6312 54.4191 12.5982C54.4752 12.5441 53.5011 11.3001 52.5624 10.2271C49.0614 6.22522 44.4186 3.14277 39.3912 1.48288C35.8332 0.30819 32.6067 -0.122507 28.5028 0.0293361ZM56.0262 16.3244C55.5258 16.6611 52.9386 18.3477 51.7698 19.0992C51.33 19.382 50.433 19.9639 49.7763 20.3922C49.1199 20.8204 47.6217 21.7938 46.4475 22.5552C45.273 23.3165 43.9824 24.1536 43.5789 24.4153C43.1757 24.6771 41.8554 25.5328 40.6455 26.3169C39.4356 27.1009 38.4735 27.7689 38.508 27.8011C38.5422 27.8334 38.784 27.974 39.0456 28.1137C42.7962 30.1164 44.4957 31.0638 44.7273 31.2807L45.0084 31.5438V36.1422C45.0084 40.4133 44.9976 40.7502 44.8569 40.8741C44.7204 40.9947 43.9791 41.4045 41.6811 42.6291C38.9508 44.0847 37.689 44.7768 37.5696 44.8842C37.4121 45.0261 37.0074 45.0483 36.9276 44.9193C36.8979 44.871 36.7497 44.7792 36.5985 44.715C36.4473 44.6511 34.9431 43.8483 33.2556 42.9315C31.5684 42.0147 30.1491 41.2641 30.1014 41.2638C30.054 41.2632 29.3929 41.6031 28.6324 42.0192C27.872 42.435 26.9581 42.9321 26.6017 43.1238C24.5827 44.2086 23.6818 44.7057 23.4774 44.8479C23.3512 44.9355 23.1931 45.0072 23.126 45.0072C22.9877 45.0072 22.3846 44.697 19.2275 43.0035C17.9997 42.3447 16.9531 41.8059 16.9017 41.8059C16.8502 41.8059 16.0748 42.2829 15.1786 42.8658C11.0728 45.5361 9.93478 46.2747 8.26039 47.3547C7.27447 47.9907 6.46759 48.5539 6.46726 48.6061C6.46537 48.9397 9.58057 52.1335 11.09 53.3461C15.1105 56.5753 20.154 58.8436 25.0462 59.623C26.988 59.9323 27.9111 60.0022 30.015 60.0001C33.4212 59.9965 36.12 59.5783 39.2184 58.5739C43.9293 57.0469 48.0069 54.5053 51.4908 50.9233C54.9675 47.3493 57.3312 43.3245 58.7757 38.5182C60.6763 32.196 60.3531 25.0962 57.8823 18.878C57.4365 17.7563 56.6118 16.0217 56.5272 16.0283C56.4894 16.0313 56.2638 16.1645 56.0262 16.3244ZM24.0505 21.4908C24.0265 21.5533 24.0171 22.9265 24.0296 24.5421L24.0524 27.4796L24.4845 27.811C24.7221 27.9933 25.6212 28.4989 26.4823 28.9346L28.0482 29.7267L28.5772 29.3855L29.1063 29.0442L29.107 26.5163L29.1077 23.9885L27.8763 23.3701C27.1991 23.03 26.4893 22.664 26.2992 22.5568C24.9105 21.774 24.0909 21.3854 24.0505 21.4908ZM35.1999 21.7184C34.8672 21.8992 33.7785 22.4667 32.7804 22.9796C31.7823 23.4924 30.9357 23.9404 30.8991 23.975C30.8625 24.0097 30.843 24.9049 30.8559 25.9645L30.8793 27.8909L33.3852 26.2592L35.8914 24.6274L35.9148 23.0073C35.9277 22.1162 35.9085 21.3877 35.8716 21.3883C35.835 21.389 35.5326 21.5375 35.1999 21.7184ZM16.7502 35.2479C16.7502 36.6726 16.7732 37.0437 16.8583 36.9927C16.9177 36.957 17.5155 36.5694 18.1867 36.1314C18.858 35.6931 19.4923 35.289 19.5963 35.2335C19.7002 35.1777 19.7721 35.0925 19.7559 35.0439C19.7397 34.9953 19.0569 34.614 18.2384 34.197L16.7502 33.4383V35.2479ZM30.8361 36.6468V39.7935L33.8736 41.4573L36.9114 43.1208L37.2222 42.9495C37.3935 42.8556 38.622 42.1854 39.9528 41.4606C41.2836 40.7358 42.5184 40.0491 42.6966 39.9348L43.0206 39.7269V36.6135C43.0206 34.4508 42.9924 33.4998 42.9279 33.4998C42.8766 33.4998 41.7312 34.068 40.3824 34.7625L37.9299 36.0252L37.9044 38.3514L37.8789 40.6776L37.6491 40.9074C37.4793 41.0775 37.3044 41.1486 36.9813 41.1798C36.5712 41.2191 36.5247 41.2026 36.2391 40.917L35.9346 40.6119V38.3595V36.1074L35.697 35.9424C35.3844 35.7255 31.0338 33.4998 30.9222 33.4998C30.8664 33.4998 30.8361 34.611 30.8361 36.6468ZM27.6624 34.7406C27.0814 35.1288 25.9858 35.8488 25.2277 36.3402L23.8494 37.2336L23.8212 38.9208L23.7932 40.6083L23.4704 40.9041C23.2263 41.1279 23.0707 41.2002 22.8325 41.2002C22.4888 41.2002 21.9921 40.9386 21.8847 40.701C21.8475 40.6185 21.795 40.1148 21.7682 39.5811L21.7192 38.6106L20.0973 39.6615C19.2053 40.2396 18.5054 40.7415 18.5418 40.7769C18.5783 40.8123 19.5493 41.3538 20.6994 41.9805L22.7907 43.1196L25.8196 41.4597L28.8485 39.7998V36.9096C28.8485 35.3196 28.8194 34.0224 28.7837 34.0269C28.748 34.0311 28.2435 34.3521 27.6624 34.7406Z" fill="white"/>
</svg>
