<svg width="68" height="68" viewBox="0 0 68 68" fill="none" xmlns="http://www.w3.org/2000/svg">
    <path d="M7.50168 62.156C6.97302 62.156 6.49418 62.0693 6.06518 61.896C5.63618 61.7183 5.27218 61.4778 4.97318 61.1745C4.67852 60.8668 4.46402 60.518 4.32968 60.128L5.39568 59.738C5.57768 60.141 5.85285 60.4682 6.22118 60.7195C6.59385 60.9665 7.02935 61.09 7.52768 61.09C8.07368 61.09 8.50918 60.96 8.83418 60.7C9.15918 60.4357 9.32168 60.0543 9.32168 59.556C9.32168 59.205 9.22418 58.9103 9.02918 58.672C8.83418 58.4337 8.58068 58.2343 8.26868 58.074C7.95668 57.9093 7.62302 57.762 7.26768 57.632C6.95135 57.515 6.63502 57.385 6.31868 57.242C6.00235 57.099 5.71418 56.93 5.45418 56.735C5.19852 56.5357 4.99268 56.2952 4.83668 56.0135C4.68068 55.7275 4.60268 55.3873 4.60268 54.993C4.60268 54.5857 4.71318 54.213 4.93418 53.875C5.15518 53.5327 5.47368 53.2597 5.88968 53.056C6.30568 52.848 6.80835 52.744 7.39768 52.744C7.87868 52.744 8.30118 52.8155 8.66518 52.9585C9.03352 53.0972 9.33468 53.29 9.56868 53.537C9.80702 53.7797 9.97168 54.057 10.0627 54.369L9.02268 54.72C8.91435 54.4643 8.71502 54.2477 8.42468 54.07C8.13868 53.888 7.77035 53.797 7.31968 53.797C6.83868 53.797 6.45952 53.9032 6.18218 54.1155C5.90918 54.3278 5.77268 54.6203 5.77268 54.993C5.77268 55.2747 5.86368 55.5108 6.04568 55.7015C6.23202 55.8878 6.47468 56.0503 6.77368 56.189C7.07268 56.3277 7.39335 56.462 7.73568 56.592C8.05635 56.7133 8.37702 56.852 8.69768 57.008C9.02268 57.1597 9.31952 57.346 9.58818 57.567C9.86118 57.788 10.08 58.0588 10.2447 58.3795C10.4094 58.6958 10.4917 59.0793 10.4917 59.53C10.4917 60.089 10.3617 60.5635 10.1017 60.9535C9.84168 61.3435 9.48635 61.6425 9.03568 61.8505C8.58502 62.0542 8.07368 62.156 7.50168 62.156ZM14.7899 62.156C13.9709 62.156 13.3621 61.9133 12.9634 61.428C12.5691 60.9427 12.3719 60.1973 12.3719 59.192V55.357H13.5029V59.361C13.5029 59.9243 13.6264 60.3555 13.8734 60.6545C14.1204 60.9535 14.4736 61.103 14.9329 61.103C15.4399 61.103 15.8212 60.9578 16.0769 60.6675C16.3369 60.3772 16.4669 59.9503 16.4669 59.387V55.357H17.5979V62H16.4669V61.363C16.2546 61.636 16.0141 61.8375 15.7454 61.9675C15.4811 62.0932 15.1626 62.156 14.7899 62.156ZM21.7396 64.769L21.1936 63.885C21.783 63.8503 22.264 63.7702 22.6366 63.6445C23.0136 63.5188 23.291 63.3412 23.4686 63.1115C23.6506 62.8818 23.7416 62.5937 23.7416 62.247V61.35C23.343 61.8873 22.771 62.156 22.0256 62.156C21.4796 62.156 21.003 62.0108 20.5956 61.7205C20.1883 61.4302 19.872 61.025 19.6466 60.505C19.4213 59.9807 19.3086 59.3697 19.3086 58.672C19.3086 57.9657 19.4213 57.3525 19.6466 56.8325C19.8763 56.3125 20.197 55.9117 20.6086 55.63C21.0203 55.344 21.5056 55.201 22.0646 55.201C22.3983 55.201 22.7103 55.2638 23.0006 55.3895C23.2953 55.5108 23.5423 55.682 23.7416 55.903V55.357H24.8726V61.818C24.8726 62.2903 24.8098 62.7042 24.6841 63.0595C24.5585 63.4192 24.3656 63.7203 24.1056 63.963C23.8456 64.2057 23.5185 64.392 23.1241 64.522C22.7341 64.6563 22.2726 64.7387 21.7396 64.769ZM22.2596 61.103C22.5456 61.103 22.823 61.0163 23.0916 60.843C23.3646 60.6697 23.5813 60.4443 23.7416 60.167V57.125C23.5943 56.8693 23.3776 56.6592 23.0916 56.4945C22.81 56.3255 22.5326 56.241 22.2596 56.241C21.6746 56.241 21.2261 56.449 20.9141 56.865C20.6065 57.281 20.4526 57.8833 20.4526 58.672C20.4526 59.166 20.5263 59.595 20.6736 59.959C20.8253 60.323 21.0355 60.6047 21.3041 60.804C21.5771 61.0033 21.8956 61.103 22.2596 61.103ZM29.0367 62.156C28.3174 62.156 27.7519 61.9567 27.3402 61.558C26.9285 61.1593 26.7227 60.6133 26.7227 59.92C26.7227 59.4737 26.8245 59.0858 27.0282 58.7565C27.2319 58.4272 27.52 58.1737 27.8927 57.996C28.2654 57.814 28.703 57.723 29.2057 57.723C29.5307 57.723 29.834 57.7598 30.1157 57.8335C30.4017 57.9028 30.6704 58.009 30.9217 58.152V57.684C30.9217 57.1683 30.8047 56.7913 30.5707 56.553C30.3367 56.3103 29.9727 56.189 29.4787 56.189C29.1624 56.189 28.833 56.2475 28.4907 56.3645C28.1527 56.4815 27.8364 56.644 27.5417 56.852L27.2167 55.903C27.5504 55.682 27.9295 55.5108 28.3542 55.3895C28.7832 55.2638 29.2057 55.201 29.6217 55.201C30.4104 55.201 31.0019 55.4025 31.3962 55.8055C31.7905 56.2042 31.9877 56.8 31.9877 57.593V62H30.9217V61.389C30.6617 61.636 30.3692 61.8267 30.0442 61.961C29.7192 62.091 29.3834 62.156 29.0367 62.156ZM29.2057 61.168C29.5134 61.168 29.8167 61.0922 30.1157 60.9405C30.419 60.7888 30.6877 60.5743 30.9217 60.297V59.153C30.7007 59.0143 30.4494 58.906 30.1677 58.828C29.886 58.75 29.6174 58.711 29.3617 58.711C28.8764 58.711 28.4929 58.8215 28.2112 59.0425C27.9295 59.2592 27.7887 59.556 27.7887 59.933C27.7887 60.3143 27.9144 60.6155 28.1657 60.8365C28.417 61.0575 28.7637 61.168 29.2057 61.168ZM34.1205 62V55.357H35.2515V56.228C35.4032 55.89 35.6112 55.6343 35.8755 55.461C36.1442 55.2877 36.4605 55.201 36.8245 55.201C37.2275 55.201 37.5698 55.3137 37.8515 55.539L37.6825 56.605C37.5395 56.5053 37.39 56.4338 37.234 56.3905C37.0823 56.3428 36.9155 56.319 36.7335 56.319C36.4345 56.319 36.1745 56.3992 35.9535 56.5595C35.7325 56.7198 35.5592 56.9452 35.4335 57.2355C35.3122 57.5258 35.2515 57.866 35.2515 58.256V62H34.1205ZM42.6098 62V56.345H41.5828V55.357H42.6098V54.252C42.6098 53.7753 42.7355 53.4048 42.9868 53.1405C43.2425 52.8762 43.5978 52.744 44.0528 52.744C44.2738 52.744 44.4861 52.77 44.6898 52.822C44.8935 52.874 45.0928 52.952 45.2878 53.056V54.005C45.1015 53.9183 44.9346 53.8555 44.7873 53.8165C44.64 53.7775 44.4905 53.758 44.3388 53.758C44.1265 53.758 43.9726 53.8122 43.8773 53.9205C43.7863 54.0245 43.7408 54.2 43.7408 54.447V55.357H45.2878V56.345H43.7408V62H42.6098ZM46.5619 62V55.357H47.6929V56.228C47.8446 55.89 48.0526 55.6343 48.3169 55.461C48.5856 55.2877 48.9019 55.201 49.2659 55.201C49.6689 55.201 50.0112 55.3137 50.2929 55.539L50.1239 56.605C49.9809 56.5053 49.8314 56.4338 49.6754 56.3905C49.5237 56.3428 49.3569 56.319 49.1749 56.319C48.8759 56.319 48.6159 56.3992 48.3949 56.5595C48.1739 56.7198 48.0006 56.9452 47.8749 57.2355C47.7536 57.5258 47.6929 57.866 47.6929 58.256V62H46.5619ZM53.8456 62.156C53.2389 62.156 52.7146 62.0065 52.2726 61.7075C51.8306 61.4085 51.4904 60.9968 51.2521 60.4725C51.0137 59.9482 50.8946 59.348 50.8946 58.672C50.8946 57.9397 51.0181 57.3157 51.2651 56.8C51.5121 56.28 51.8566 55.8835 52.2986 55.6105C52.7406 55.3375 53.2562 55.201 53.8456 55.201C54.3439 55.201 54.8011 55.3137 55.2171 55.539C55.6331 55.76 55.9646 56.1045 56.2116 56.5725C56.4629 57.0362 56.5886 57.632 56.5886 58.36C56.5886 58.464 56.5842 58.5853 56.5756 58.724C56.5712 58.8583 56.5626 58.997 56.5496 59.14H52.0516C52.0949 59.543 52.1946 59.8962 52.3506 60.1995C52.5066 60.5028 52.7124 60.7412 52.9681 60.9145C53.2237 61.0835 53.5249 61.168 53.8716 61.168C54.1532 61.168 54.4132 61.1182 54.6516 61.0185C54.8942 60.9188 55.1196 60.765 55.3276 60.557L55.9906 61.298C55.7436 61.545 55.4359 61.7508 55.0676 61.9155C54.7036 62.0758 54.2962 62.156 53.8456 62.156ZM52.0386 58.152H55.4446C55.4446 57.775 55.3817 57.4392 55.2561 57.1445C55.1347 56.8455 54.9549 56.6115 54.7166 56.4425C54.4782 56.2735 54.1879 56.189 53.8456 56.189C53.3646 56.189 52.9507 56.345 52.6041 56.657C52.2617 56.969 52.0732 57.4673 52.0386 58.152ZM61.0692 62.156C60.4625 62.156 59.9382 62.0065 59.4962 61.7075C59.0542 61.4085 58.714 60.9968 58.4757 60.4725C58.2374 59.9482 58.1182 59.348 58.1182 58.672C58.1182 57.9397 58.2417 57.3157 58.4887 56.8C58.7357 56.28 59.0802 55.8835 59.5222 55.6105C59.9642 55.3375 60.4799 55.201 61.0692 55.201C61.5675 55.201 62.0247 55.3137 62.4407 55.539C62.8567 55.76 63.1882 56.1045 63.4352 56.5725C63.6865 57.0362 63.8122 57.632 63.8122 58.36C63.8122 58.464 63.8079 58.5853 63.7992 58.724C63.7949 58.8583 63.7862 58.997 63.7732 59.14H59.2752C59.3185 59.543 59.4182 59.8962 59.5742 60.1995C59.7302 60.5028 59.936 60.7412 60.1917 60.9145C60.4474 61.0835 60.7485 61.168 61.0952 61.168C61.3769 61.168 61.6369 61.1182 61.8752 61.0185C62.1179 60.9188 62.3432 60.765 62.5512 60.557L63.2142 61.298C62.9672 61.545 62.6595 61.7508 62.2912 61.9155C61.9272 62.0758 61.5199 62.156 61.0692 62.156ZM59.2622 58.152H62.6682C62.6682 57.775 62.6054 57.4392 62.4797 57.1445C62.3584 56.8455 62.1785 56.6115 61.9402 56.4425C61.7019 56.2735 61.4115 56.189 61.0692 56.189C60.5882 56.189 60.1744 56.345 59.8277 56.657C59.4854 56.969 59.2969 57.4673 59.2622 58.152Z" fill="#1D2E42"/>
    <mask id="mask0_111_24" style="mask-type:luminance" maskUnits="userSpaceOnUse" x="13" y="0" width="42" height="42">
        <path d="M55 0H13V42H55V0Z" fill="white"/>
    </mask>
    <g mask="url(#mask0_111_24)">
        <path fill-rule="evenodd" clip-rule="evenodd" d="M32.952 0.0205353C29.0972 0.163164 25.1939 1.49818 21.9179 3.79435C19.5403 5.46089 17.3989 7.76923 15.9185 10.2615C14.3463 12.9082 13.4216 15.7211 13.0771 18.9042C12.9525 20.0551 12.9838 22.6006 13.1359 23.6922C13.3744 25.402 13.8163 27.1375 14.3852 28.598C14.7094 29.43 15.721 31.5103 15.8518 31.6138C15.9014 31.6532 17.0939 30.9089 19.6893 29.2194L23.4549 26.7681V24.4864V22.205L23.5958 21.9992C23.7094 21.8331 24.1852 21.5506 26.0607 20.5356L28.3849 19.2779L28.4151 16.3388C28.4444 13.4992 28.4495 13.3957 28.5664 13.284C28.6329 13.2203 29.2862 12.861 30.0182 12.4852C30.7501 12.1094 31.8662 11.5309 32.4983 11.1995C33.6135 10.6149 34.0183 10.4689 34.1764 10.5946C34.2182 10.6279 34.688 10.8881 35.2203 11.1728C35.7527 11.4575 36.4469 11.8292 36.763 11.9988C37.079 12.1685 37.8046 12.553 38.3751 12.8533C38.9459 13.1538 39.4358 13.4465 39.464 13.5039C39.4921 13.5614 39.5287 14.2141 39.5455 14.9545L39.5757 16.3008L41.6627 14.944C42.8106 14.1978 44.2805 13.2432 44.9292 12.8227C45.5779 12.4022 46.626 11.7209 47.2581 11.3087C47.8902 10.8966 48.6252 10.4196 48.8913 10.2488C49.8256 9.64957 51.0692 8.84184 51.0934 8.81874C51.1326 8.78087 50.4508 7.91007 49.7937 7.15897C47.343 4.35765 44.093 2.19994 40.5738 1.03802C38.0832 0.215733 35.8247 -0.0857549 32.952 0.0205353ZM52.2183 11.4271C51.8681 11.6628 50.057 12.8434 49.2389 13.3694C48.931 13.5674 48.3031 13.9747 47.8434 14.2745C47.3839 14.5743 46.3352 15.2557 45.5133 15.7886C44.6911 16.3216 43.7877 16.9075 43.5052 17.0907C43.223 17.274 42.2988 17.873 41.4518 18.4218C40.6049 18.9706 39.9315 19.4382 39.9556 19.4608C39.9795 19.4834 40.1488 19.5818 40.3319 19.6796C42.9573 21.0815 44.147 21.7447 44.3091 21.8965L44.5059 22.0807V25.2995C44.5059 28.2893 44.4983 28.5251 44.3998 28.6119C44.3043 28.6963 43.7854 28.9832 42.1768 29.8404C40.2656 30.8593 39.3823 31.3438 39.2987 31.4189C39.1885 31.5183 38.9052 31.5338 38.8493 31.4435C38.8285 31.4097 38.7248 31.3454 38.6189 31.3005C38.5131 31.2558 37.4602 30.6938 36.2789 30.0521C35.0979 29.4103 34.1044 28.8849 34.071 28.8847C34.0378 28.8842 33.575 29.1222 33.0427 29.4134C32.5104 29.7045 31.8707 30.0525 31.6212 30.1867C30.2079 30.946 29.5773 31.294 29.4342 31.3935C29.3458 31.4549 29.2352 31.505 29.1882 31.505C29.0914 31.505 28.6692 31.2879 26.4593 30.1025C25.5998 29.6413 24.8672 29.2641 24.8312 29.2641C24.7951 29.2641 24.2524 29.598 23.625 30.0061C20.751 31.8753 19.9544 32.3923 18.7823 33.1483C18.0921 33.5935 17.5273 33.9877 17.5271 34.0243C17.5258 34.2578 19.7064 36.4935 20.763 37.3423C23.5774 39.6027 27.1078 41.1905 30.5323 41.7361C31.8916 41.9526 32.5378 42.0015 34.0105 42.0001C36.3948 41.9976 38.284 41.7048 40.4529 41.0017C43.7505 39.9328 46.6048 38.1537 49.0436 35.6463C51.4772 33.1445 53.1318 30.3272 54.143 26.9627C55.4734 22.5372 55.2472 17.5673 53.5176 13.2146C53.2056 12.4294 52.6283 11.2152 52.569 11.2198C52.5426 11.2219 52.3847 11.3152 52.2183 11.4271ZM29.8354 15.0436C29.8186 15.0873 29.812 16.0486 29.8207 17.1795L29.8367 19.2357L30.1392 19.4677C30.3055 19.5953 30.9348 19.9492 31.5376 20.2542L32.6337 20.8087L33.004 20.5699L33.3744 20.3309L33.3749 18.5614L33.3754 16.792L32.5134 16.3591C32.0394 16.121 31.5425 15.8648 31.4094 15.7898C30.4373 15.2418 29.8636 14.9698 29.8354 15.0436ZM37.6399 15.2029C37.407 15.3294 36.6449 15.7267 35.9463 16.0857C35.2476 16.4447 34.655 16.7583 34.6294 16.7825C34.6038 16.8068 34.5901 17.4334 34.5991 18.1752L34.6155 19.5236L36.3696 18.3814L38.124 17.2392L38.1404 16.1051C38.1494 15.4813 38.136 14.9714 38.1101 14.9718C38.0845 14.9723 37.8728 15.0763 37.6399 15.2029ZM24.7251 24.6735C24.7251 25.6708 24.7412 25.9306 24.8008 25.8949C24.8424 25.8699 25.2609 25.5986 25.7307 25.292C26.2006 24.9852 26.6446 24.7023 26.7174 24.6635C26.7901 24.6244 26.8405 24.5648 26.8291 24.5307C26.8178 24.4967 26.3398 24.2298 25.7669 23.9379L24.7251 23.4068V24.6735ZM34.5853 25.6528V27.8555L36.7115 29.0201L38.838 30.1846L39.0555 30.0647C39.1754 29.9989 40.0354 29.5298 40.967 29.0224C41.8985 28.5151 42.7629 28.0344 42.8876 27.9544L43.1144 27.8088V25.6295C43.1144 24.1156 43.0947 23.4499 43.0495 23.4499C43.0136 23.4499 42.2118 23.8476 41.2677 24.3338L39.5509 25.2176L39.5331 26.846L39.5152 28.4743L39.3544 28.6352C39.2355 28.7543 39.1131 28.804 38.8869 28.8259C38.5998 28.8534 38.5673 28.8418 38.3674 28.6419L38.1542 28.4283V26.8517V25.2752L37.9879 25.1597C37.7691 25.0079 34.7237 23.4499 34.6455 23.4499C34.6065 23.4499 34.5853 24.2277 34.5853 25.6528ZM32.3637 24.3184C31.957 24.5902 31.1901 25.0942 30.6594 25.4381L29.6946 26.0635L29.6748 27.2446L29.6552 28.4258L29.4293 28.6329C29.2584 28.7895 29.1495 28.8401 28.9828 28.8401C28.7422 28.8401 28.3945 28.657 28.3193 28.4907C28.2933 28.433 28.2565 28.0804 28.2377 27.7068L28.2034 27.0274L27.0681 27.7631C26.4437 28.1677 25.9538 28.5191 25.9793 28.5438C26.0048 28.5686 26.6845 28.9477 27.4896 29.3864L28.9535 30.1837L31.0737 29.0218L33.194 27.8599V25.8367C33.194 24.7237 33.1736 23.8157 33.1486 23.8188C33.1236 23.8218 32.7705 24.0465 32.3637 24.3184Z" fill="#1D2E42"/>
    </g>
</svg>
