<svg width="111" height="98" viewBox="0 0 111 98" fill="none" xmlns="http://www.w3.org/2000/svg">
    <g clip-path="url(#clip0_102_12)">
        <mask id="mask0_102_12" style="mask-type:luminance" maskUnits="userSpaceOnUse" x="26" y="0" width="60" height="60">
            <path d="M86 0H26V60H86V0Z" fill="white"/>
        </mask>
        <g mask="url(#mask0_102_12)">
            <path fill-rule="evenodd" clip-rule="evenodd" d="M54.5028 0.0293362C48.996 0.233092 43.4199 2.14026 38.7399 5.4205C35.3433 7.80127 32.2841 11.0989 30.1693 14.6593C27.9233 18.4403 26.6023 22.4587 26.1101 27.006C25.9321 28.6501 25.9769 32.2866 26.1942 33.846C26.5348 36.2886 27.1661 38.7678 27.9789 40.8543C28.442 42.0429 29.8872 45.0147 30.074 45.1626C30.1448 45.2188 31.8484 44.1555 35.5561 41.742L40.9355 38.2401V34.9806V31.7214L41.1368 31.4274C41.2991 31.1901 41.9788 30.7866 44.6582 29.3366L47.9784 27.5399L48.0216 23.3411C48.0634 19.2846 48.0707 19.1367 48.2377 18.9771C48.3327 18.8862 49.266 18.3728 50.3117 17.836C51.3573 17.2992 52.9517 16.4727 53.8547 15.9993C55.4478 15.1641 56.0261 14.9556 56.252 15.1351C56.3117 15.1827 56.9828 15.5544 57.7433 15.9612C58.5038 16.3679 59.4956 16.8989 59.9471 17.1411C60.3986 17.3835 61.4351 17.9328 62.2502 18.3619C63.0656 18.7911 63.7655 19.2093 63.8057 19.2913C63.8459 19.3734 63.8981 20.3059 63.9221 21.3636L63.9653 23.2869L66.9467 21.3486C68.5865 20.2825 70.6865 18.9189 71.6132 18.3182C72.5399 17.7174 74.0372 16.7442 74.9402 16.1553C75.8432 15.5665 76.8932 14.8851 77.2733 14.6412C78.608 13.7851 80.3846 12.6312 80.4191 12.5982C80.4752 12.5441 79.5011 11.3001 78.5624 10.2271C75.0614 6.22522 70.4186 3.14277 65.3912 1.48288C61.8332 0.30819 58.6067 -0.122507 54.5028 0.0293362ZM82.0262 16.3244C81.5258 16.6611 78.9386 18.3477 77.7698 19.0992C77.33 19.382 76.433 19.9639 75.7763 20.3922C75.1199 20.8204 73.6217 21.7938 72.4475 22.5552C71.273 23.3165 69.9824 24.1536 69.5789 24.4153C69.1757 24.6771 67.8554 25.5328 66.6455 26.3169C65.4356 27.1009 64.4735 27.7689 64.508 27.8011C64.5422 27.8334 64.784 27.974 65.0456 28.1137C68.7962 30.1164 70.4957 31.0638 70.7273 31.2807L71.0084 31.5438V36.1422C71.0084 40.4133 70.9976 40.7502 70.8569 40.8741C70.7204 40.9947 69.9791 41.4045 67.6811 42.6291C64.9508 44.0847 63.689 44.7768 63.5696 44.8842C63.4121 45.0261 63.0074 45.0483 62.9276 44.9193C62.8979 44.871 62.7497 44.7792 62.5985 44.715C62.4473 44.6511 60.9431 43.8483 59.2556 42.9315C57.5684 42.0147 56.1491 41.2641 56.1014 41.2638C56.054 41.2632 55.3929 41.6031 54.6324 42.0192C53.872 42.435 52.9581 42.9321 52.6017 43.1238C50.5827 44.2086 49.6818 44.7057 49.4774 44.8479C49.3512 44.9355 49.1931 45.0072 49.126 45.0072C48.9877 45.0072 48.3846 44.697 45.2275 43.0035C43.9997 42.3447 42.9531 41.8059 42.9017 41.8059C42.8502 41.8059 42.0748 42.2829 41.1786 42.8658C37.0728 45.5361 35.9348 46.2747 34.2604 47.3547C33.2745 47.9907 32.4676 48.5539 32.4673 48.6061C32.4654 48.9397 35.5806 52.1335 37.09 53.3461C41.1105 56.5753 46.154 58.8436 51.0462 59.623C52.988 59.9323 53.9111 60.0022 56.015 60.0001C59.4212 59.9965 62.12 59.5783 65.2184 58.5739C69.9293 57.0469 74.0069 54.5053 77.4908 50.9233C80.9675 47.3493 83.3312 43.3245 84.7757 38.5182C86.6763 32.196 86.3531 25.0962 83.8823 18.878C83.4365 17.7563 82.6118 16.0217 82.5272 16.0283C82.4894 16.0313 82.2638 16.1645 82.0262 16.3244ZM50.0505 21.4908C50.0265 21.5533 50.0171 22.9265 50.0296 24.5421L50.0524 27.4796L50.4845 27.811C50.7221 27.9933 51.6212 28.4989 52.4823 28.9346L54.0482 29.7267L54.5772 29.3855L55.1063 29.0442L55.107 26.5163L55.1077 23.9885L53.8763 23.3701C53.1991 23.03 52.4893 22.664 52.2992 22.5568C50.9105 21.774 50.0909 21.3854 50.0505 21.4908ZM61.1999 21.7184C60.8672 21.8992 59.7785 22.4667 58.7804 22.9796C57.7823 23.4924 56.9357 23.9404 56.8991 23.975C56.8625 24.0097 56.843 24.9049 56.8559 25.9645L56.8793 27.8909L59.3852 26.2592L61.8914 24.6274L61.9148 23.0073C61.9277 22.1162 61.9085 21.3877 61.8716 21.3883C61.835 21.389 61.5326 21.5375 61.1999 21.7184ZM42.7502 35.2479C42.7502 36.6726 42.7732 37.0437 42.8583 36.9927C42.9177 36.957 43.5155 36.5694 44.1867 36.1314C44.858 35.6931 45.4923 35.289 45.5963 35.2335C45.7002 35.1777 45.7721 35.0925 45.7559 35.0439C45.7397 34.9953 45.0569 34.614 44.2384 34.197L42.7502 33.4383V35.2479ZM56.8361 36.6468V39.7935L59.8736 41.4573L62.9114 43.1208L63.2222 42.9495C63.3935 42.8556 64.622 42.1854 65.9528 41.4606C67.2836 40.7358 68.5184 40.0491 68.6966 39.9348L69.0206 39.7269V36.6135C69.0206 34.4508 68.9924 33.4998 68.9279 33.4998C68.8766 33.4998 67.7312 34.068 66.3824 34.7625L63.9299 36.0252L63.9044 38.3514L63.8789 40.6776L63.6491 40.9074C63.4793 41.0775 63.3044 41.1486 62.9813 41.1798C62.5712 41.2191 62.5247 41.2026 62.2391 40.917L61.9346 40.6119V38.3595V36.1074L61.697 35.9424C61.3844 35.7255 57.0338 33.4998 56.9222 33.4998C56.8664 33.4998 56.8361 34.611 56.8361 36.6468ZM53.6624 34.7406C53.0814 35.1288 51.9858 35.8488 51.2277 36.3402L49.8494 37.2336L49.8212 38.9208L49.7932 40.6083L49.4704 40.9041C49.2263 41.1279 49.0707 41.2002 48.8325 41.2002C48.4888 41.2002 47.9921 40.9386 47.8847 40.701C47.8475 40.6185 47.795 40.1148 47.7682 39.5811L47.7192 38.6106L46.0973 39.6615C45.2053 40.2396 44.5054 40.7415 44.5418 40.7769C44.5783 40.8123 45.5493 41.3538 46.6994 41.9805L48.7907 43.1196L51.8196 41.4597L54.8485 39.7998V36.9096C54.8485 35.3196 54.8194 34.0224 54.7837 34.0269C54.748 34.0311 54.2435 34.3521 53.6624 34.7406Z" fill="#1D2E42"/>
        </g>
        <path d="M17.2717 94.228C16.499 94.228 15.7992 94.1013 15.1722 93.848C14.5452 93.5883 14.0132 93.2368 13.5762 92.7935C13.1455 92.3438 12.832 91.834 12.6357 91.264L14.1937 90.694C14.4597 91.283 14.8619 91.7612 15.4002 92.1285C15.9449 92.4895 16.5814 92.67 17.3097 92.67C18.1077 92.67 18.7442 92.48 19.2192 92.1C19.6942 91.7137 19.9317 91.1563 19.9317 90.428C19.9317 89.915 19.7892 89.4843 19.5042 89.136C19.2192 88.7877 18.8487 88.4963 18.3927 88.262C17.9367 88.0213 17.449 87.806 16.9297 87.616C16.4674 87.445 16.005 87.255 15.5427 87.046C15.0804 86.837 14.6592 86.59 14.2792 86.305C13.9055 86.0137 13.6047 85.6622 13.3767 85.2505C13.1487 84.8325 13.0347 84.3353 13.0347 83.759C13.0347 83.1637 13.1962 82.619 13.5192 82.125C13.8422 81.6247 14.3077 81.2257 14.9157 80.928C15.5237 80.624 16.2584 80.472 17.1197 80.472C17.8227 80.472 18.4402 80.5765 18.9722 80.7855C19.5105 80.9882 19.9507 81.27 20.2927 81.631C20.641 81.9857 20.8817 82.391 21.0147 82.847L19.4947 83.36C19.3364 82.9863 19.045 82.6697 18.6207 82.41C18.2027 82.144 17.6644 82.011 17.0057 82.011C16.3027 82.011 15.7485 82.1662 15.3432 82.4765C14.9442 82.7868 14.7447 83.2143 14.7447 83.759C14.7447 84.1707 14.8777 84.5158 15.1437 84.7945C15.416 85.0668 15.7707 85.3043 16.2077 85.507C16.6447 85.7097 17.1134 85.906 17.6137 86.096C18.0824 86.2733 18.551 86.476 19.0197 86.704C19.4947 86.9257 19.9285 87.198 20.3212 87.521C20.7202 87.844 21.04 88.2398 21.2807 88.7085C21.5214 89.1708 21.6417 89.7313 21.6417 90.39C21.6417 91.207 21.4517 91.9005 21.0717 92.4705C20.6917 93.0405 20.1724 93.4775 19.5137 93.7815C18.855 94.0792 18.1077 94.228 17.2717 94.228ZM27.9237 94.228C26.7267 94.228 25.8369 93.8733 25.2542 93.164C24.6779 92.4547 24.3897 91.3653 24.3897 89.896V84.291H26.0427V90.143C26.0427 90.9663 26.2232 91.5965 26.5842 92.0335C26.9452 92.4705 27.4614 92.689 28.1327 92.689C28.8737 92.689 29.431 92.4768 29.8047 92.0525C30.1847 91.6282 30.3747 91.0043 30.3747 90.181V84.291H32.0277V94H30.3747V93.069C30.0644 93.468 29.7129 93.7625 29.3202 93.9525C28.9339 94.1362 28.4684 94.228 27.9237 94.228ZM38.081 98.047L37.283 96.755C38.1443 96.7043 38.8473 96.5872 39.392 96.4035C39.943 96.2198 40.3483 95.9602 40.608 95.6245C40.874 95.2888 41.007 94.8677 41.007 94.361V93.05C40.4243 93.8353 39.5883 94.228 38.499 94.228C37.701 94.228 37.0043 94.0158 36.409 93.5915C35.8137 93.1672 35.3513 92.575 35.022 91.815C34.6927 91.0487 34.528 90.1557 34.528 89.136C34.528 88.1037 34.6927 87.2075 35.022 86.4475C35.3577 85.6875 35.8263 85.1017 36.428 84.69C37.0297 84.272 37.739 84.063 38.556 84.063C39.0437 84.063 39.4997 84.1548 39.924 84.3385C40.3547 84.5158 40.7157 84.766 41.007 85.089V84.291H42.66V93.734C42.66 94.4243 42.5682 95.0292 42.3845 95.5485C42.2008 96.0742 41.919 96.5143 41.539 96.869C41.159 97.2237 40.6808 97.496 40.1045 97.686C39.5345 97.8823 38.86 98.0027 38.081 98.047ZM38.841 92.689C39.259 92.689 39.6643 92.5623 40.057 92.309C40.456 92.0557 40.7727 91.7263 41.007 91.321V86.875C40.7917 86.5013 40.475 86.1942 40.057 85.9535C39.6453 85.7065 39.24 85.583 38.841 85.583C37.986 85.583 37.3305 85.887 36.8745 86.495C36.4248 87.103 36.2 87.9833 36.2 89.136C36.2 89.858 36.3077 90.485 36.523 91.017C36.7447 91.549 37.0518 91.9607 37.4445 92.252C37.8435 92.5433 38.309 92.689 38.841 92.689ZM48.7459 94.228C47.6946 94.228 46.8681 93.9367 46.2664 93.354C45.6648 92.7713 45.3639 91.9733 45.3639 90.96C45.3639 90.3077 45.5128 89.7408 45.8104 89.2595C46.1081 88.7782 46.5293 88.4077 47.0739 88.148C47.6186 87.882 48.2583 87.749 48.9929 87.749C49.4679 87.749 49.9113 87.8028 50.3229 87.9105C50.7409 88.0118 51.1336 88.167 51.5009 88.376V87.692C51.5009 86.9383 51.3299 86.3873 50.9879 86.039C50.6459 85.6843 50.1139 85.507 49.3919 85.507C48.9296 85.507 48.4483 85.5925 47.9479 85.7635C47.4539 85.9345 46.9916 86.172 46.5609 86.476L46.0859 85.089C46.5736 84.766 47.1278 84.5158 47.7484 84.3385C48.3754 84.1548 48.9929 84.063 49.6009 84.063C50.7536 84.063 51.6181 84.3575 52.1944 84.9465C52.7708 85.5292 53.0589 86.4 53.0589 87.559V94H51.5009V93.107C51.1209 93.468 50.6934 93.7467 50.2184 93.943C49.7434 94.133 49.2526 94.228 48.7459 94.228ZM48.9929 92.784C49.4426 92.784 49.8859 92.6732 50.3229 92.4515C50.7663 92.2298 51.1589 91.9163 51.5009 91.511V89.839C51.1779 89.6363 50.8106 89.478 50.3989 89.364C49.9873 89.25 49.5946 89.193 49.2209 89.193C48.5116 89.193 47.9511 89.3545 47.5394 89.6775C47.1278 89.9942 46.9219 90.428 46.9219 90.979C46.9219 91.5363 47.1056 91.9765 47.4729 92.2995C47.8403 92.6225 48.3469 92.784 48.9929 92.784ZM56.1761 94V84.291H57.8291V85.564C58.0508 85.07 58.3548 84.6963 58.7411 84.443C59.1338 84.1897 59.5961 84.063 60.1281 84.063C60.7171 84.063 61.2175 84.2277 61.6291 84.557L61.3821 86.115C61.1731 85.9693 60.9546 85.8648 60.7266 85.8015C60.505 85.7318 60.2611 85.697 59.9951 85.697C59.5581 85.697 59.1781 85.8142 58.8551 86.0485C58.5321 86.2828 58.2788 86.6122 58.0951 87.0365C57.9178 87.4608 57.8291 87.958 57.8291 88.528V94H56.1761ZM68.5836 94V85.735H67.0826V84.291H68.5836V82.676C68.5836 81.9793 68.7672 81.4378 69.1346 81.0515C69.5082 80.6652 70.0276 80.472 70.6926 80.472C71.0156 80.472 71.3259 80.51 71.6236 80.586C71.9212 80.662 72.2126 80.776 72.4976 80.928V82.315C72.2252 82.1883 71.9814 82.0965 71.7661 82.0395C71.5507 81.9825 71.3322 81.954 71.1106 81.954C70.8002 81.954 70.5754 82.0332 70.4361 82.1915C70.3031 82.3435 70.2366 82.6 70.2366 82.961V84.291H72.4976V85.735H70.2366V94H68.5836ZM74.3597 94V84.291H76.0127V85.564C76.2344 85.07 76.5384 84.6963 76.9247 84.443C77.3174 84.1897 77.7797 84.063 78.3117 84.063C78.9007 84.063 79.401 84.2277 79.8127 84.557L79.5657 86.115C79.3567 85.9693 79.1382 85.8648 78.9102 85.8015C78.6885 85.7318 78.4447 85.697 78.1787 85.697C77.7417 85.697 77.3617 85.8142 77.0387 86.0485C76.7157 86.2828 76.4624 86.6122 76.2787 87.0365C76.1014 87.4608 76.0127 87.958 76.0127 88.528V94H74.3597ZM85.0051 94.228C84.1184 94.228 83.3521 94.0095 82.7061 93.5725C82.0601 93.1355 81.5629 92.5338 81.2146 91.7675C80.8662 91.0012 80.6921 90.124 80.6921 89.136C80.6921 88.0657 80.8726 87.1537 81.2336 86.4C81.5946 85.64 82.0981 85.0605 82.7441 84.6615C83.3901 84.2625 84.1437 84.063 85.0051 84.063C85.7334 84.063 86.4016 84.2277 87.0096 84.557C87.6176 84.88 88.1021 85.3835 88.4631 86.0675C88.8304 86.7452 89.0141 87.616 89.0141 88.68C89.0141 88.832 89.0077 89.0093 88.9951 89.212C88.9887 89.4083 88.9761 89.611 88.9571 89.82H82.3831C82.4464 90.409 82.5921 90.9252 82.8201 91.3685C83.0481 91.8118 83.3489 92.1602 83.7226 92.4135C84.0962 92.6605 84.5364 92.784 85.0431 92.784C85.4547 92.784 85.8347 92.7112 86.1831 92.5655C86.5377 92.4198 86.8671 92.195 87.1711 91.891L88.1401 92.974C87.7791 93.335 87.3294 93.6358 86.7911 93.8765C86.2591 94.1108 85.6637 94.228 85.0051 94.228ZM82.3641 88.376H87.3421C87.3421 87.825 87.2502 87.3342 87.0666 86.9035C86.8892 86.4665 86.6264 86.1245 86.2781 85.8775C85.9297 85.6305 85.5054 85.507 85.0051 85.507C84.3021 85.507 83.6972 85.735 83.1906 86.191C82.6902 86.647 82.4147 87.3753 82.3641 88.376ZM95.5627 94.228C94.676 94.228 93.9097 94.0095 93.2637 93.5725C92.6177 93.1355 92.1205 92.5338 91.7722 91.7675C91.4238 91.0012 91.2497 90.124 91.2497 89.136C91.2497 88.0657 91.4302 87.1537 91.7912 86.4C92.1522 85.64 92.6557 85.0605 93.3017 84.6615C93.9477 84.2625 94.7013 84.063 95.5627 84.063C96.291 84.063 96.9592 84.2277 97.5672 84.557C98.1752 84.88 98.6597 85.3835 99.0207 86.0675C99.388 86.7452 99.5717 87.616 99.5717 88.68C99.5717 88.832 99.5653 89.0093 99.5527 89.212C99.5463 89.4083 99.5337 89.611 99.5147 89.82H92.9407C93.004 90.409 93.1497 90.9252 93.3777 91.3685C93.6057 91.8118 93.9065 92.1602 94.2802 92.4135C94.6538 92.6605 95.094 92.784 95.6007 92.784C96.0123 92.784 96.3923 92.7112 96.7407 92.5655C97.0953 92.4198 97.4247 92.195 97.7287 91.891L98.6977 92.974C98.3367 93.335 97.887 93.6358 97.3487 93.8765C96.8167 94.1108 96.2213 94.228 95.5627 94.228ZM92.9217 88.376H97.8997C97.8997 87.825 97.8078 87.3342 97.6242 86.9035C97.4468 86.4665 97.184 86.1245 96.8357 85.8775C96.4873 85.6305 96.063 85.507 95.5627 85.507C94.8597 85.507 94.2548 85.735 93.7482 86.191C93.2478 86.647 92.9723 87.3753 92.9217 88.376Z" fill="#1D2E42"/>
    </g>
    <defs>
        <clipPath id="clip0_102_12">
            <rect width="111" height="98" fill="white"/>
        </clipPath>
    </defs>
</svg>
