<svg width="60" height="60" viewBox="0 0 60 60" fill="none" xmlns="http://www.w3.org/2000/svg">
<path fill-rule="evenodd" clip-rule="evenodd" d="M28.3058 0.0237112C24.5219 0.35173 21.6256 1.00321 18.7616 2.17034C8.61797 6.30446 1.61314 15.3733 0.19113 26.2123C-0.0632865 28.1517 -0.0637938 31.7925 0.190115 33.7379C0.885824 39.0677 2.83368 43.8223 6.111 48.1903C7.99031 50.6949 11.4178 53.7915 14.2734 55.5644C17.8576 57.7897 22.8002 59.4323 27.217 59.8661C34.7714 60.608 42.6946 58.2406 48.8089 53.4144C49.3675 52.9735 50.512 51.9236 51.352 51.0813C55.8419 46.58 58.6768 40.9738 59.7507 34.4729C60.1107 32.2929 60.0745 27.3084 59.6828 25.1184C58.1646 16.632 53.6242 9.65116 46.594 4.99429C42.7132 2.42348 38.2641 0.777557 33.6617 0.209955C32.4719 0.0632398 29.1734 -0.0514201 28.3058 0.0237112ZM30.6317 7.87461C31.127 8.09279 31.4796 8.36151 31.4796 8.52077C31.4796 8.58652 31.2789 8.83447 31.0338 9.07165L30.5878 9.50292L30.1804 9.26283C29.6402 8.94432 28.6493 8.95572 28.1967 9.28564C26.6102 10.4417 27.7887 12.8785 29.6877 12.3682L30.2342 12.2213L30.1458 11.3426L30.0574 10.4638H30.8136H31.5699L31.6508 11.319C31.8124 13.0259 31.8334 12.9645 30.9401 13.3805C29.2772 14.1549 27.7054 13.9752 26.653 12.8904C25.1587 11.3503 25.5751 8.96877 27.5183 7.94202C28.278 7.54051 29.7982 7.50757 30.6317 7.87461ZM37.1291 8.28372C37.5775 8.37152 37.6558 8.44184 37.7992 8.88502C37.9914 9.47974 39.1981 14.6913 39.1562 14.7458C39.1403 14.7664 38.7499 14.714 38.2886 14.6291C37.4649 14.4777 37.4484 14.4668 37.368 14.0214C37.2299 13.2564 37.1461 13.1874 36.1548 13.0208C35.6433 12.9349 35.101 12.8321 34.9498 12.7925C34.7266 12.7339 34.6191 12.8197 34.3785 13.2478C34.0826 13.7746 34.0814 13.7751 33.478 13.6987C32.2005 13.5368 32.153 13.7283 34.2117 10.7437C35.8226 8.40826 36.1023 8.06415 36.3436 8.12003C36.4963 8.15538 36.8498 8.22911 37.1291 8.28372ZM23.8851 9.05505L24.0833 9.67346L22.735 10.0826C21.9935 10.3074 21.3432 10.5317 21.2899 10.5807C21.1516 10.7079 21.4443 11.4774 21.6309 11.4774C21.7166 11.4774 22.2065 11.3348 22.7198 11.1606C23.9919 10.7288 24.0786 10.7404 24.2467 11.3635C24.3239 11.6492 24.3584 11.9114 24.3236 11.9463C24.2888 11.981 23.7565 12.1674 23.1409 12.3604C22.0259 12.7103 22.0217 12.7132 22.0417 13.1219C22.0529 13.3475 22.1173 13.5874 22.1848 13.6548C22.2639 13.7337 22.8189 13.6175 23.7449 13.3282C24.5354 13.0811 25.2033 12.9 25.2292 12.9259C25.2551 12.9516 25.3528 13.2267 25.4464 13.537L25.6165 14.1011L23.3358 14.8304C22.0815 15.2315 21.0366 15.5391 21.0142 15.5139C20.978 15.4736 20.1326 12.8489 19.4407 10.6293L19.1962 9.84463L21.307 9.15387C22.4682 8.77404 23.4786 8.45717 23.5525 8.44994C23.6265 8.4426 23.7762 8.71499 23.8851 9.05505ZM42.9468 9.9731L43.5027 10.2427L43.9216 12.0319C44.1521 13.0161 44.3858 13.9068 44.4408 14.0113C44.5116 14.1457 44.7298 13.8026 45.186 12.8394C45.5408 12.0903 45.8889 11.4774 45.9595 11.4774C46.1021 11.4774 47.3489 12.0894 47.3489 12.1594C47.3489 12.3354 44.7655 17.4321 44.6763 17.4321C44.6138 17.4321 44.3128 17.3109 44.0072 17.1628L43.4518 16.8935L43.0372 15.1039C42.8091 14.1198 42.5842 13.2434 42.5371 13.1565C42.4868 13.0636 42.1697 13.5685 41.7674 14.3823L41.0832 15.7661L40.3391 15.3912C39.9298 15.185 39.6152 14.9755 39.64 14.9256C39.6647 14.8756 40.2491 13.6802 40.9385 12.2692C41.628 10.8582 42.2367 9.70361 42.2914 9.70361C42.3461 9.70361 42.6411 9.82486 42.9468 9.9731ZM35.9543 10.7761C35.3786 11.677 35.3602 11.6347 36.3991 11.796C36.6958 11.842 36.9366 11.832 36.9342 11.7736C36.9249 11.5548 36.5842 10.0679 36.5311 10.0148C36.5007 9.9845 36.241 10.3271 35.9543 10.7761ZM17.6448 10.6222C17.6466 10.7093 17.8417 12.1478 18.0785 13.819C18.3152 15.4901 18.4902 16.8869 18.4673 16.9231C18.4445 16.9592 18.1166 17.1549 17.7385 17.358L17.0513 17.7275L14.4265 15.8566C12.9829 14.8276 11.8017 13.9696 11.8017 13.95C11.8017 13.9303 12.1467 13.7093 12.5681 13.4587L13.3344 13.0031L14.9865 14.219C15.895 14.8877 16.665 15.4083 16.6976 15.3758C16.7301 15.3433 16.6207 14.419 16.4545 13.3217L16.1522 11.3266L16.8017 10.9017C17.5228 10.4297 17.6401 10.3908 17.6448 10.6222ZM49.3548 23.6656C49.6148 23.9251 49.5345 24.0873 48.6059 25.1785C46.4256 27.7404 45.6784 29.2621 44.6331 33.2692C43.7454 36.6718 43.172 37.9085 41.817 39.342C40.4109 40.8296 39.0099 41.3778 36.6149 41.3778C34.653 41.3778 33.1402 40.9734 31.6345 40.0464L31.091 39.7118L30.6534 40.6572C30.4126 41.1772 30.0551 42.1601 29.8587 42.8416C29.4814 44.1512 29.2443 44.4694 28.8741 44.1628C28.4386 43.8021 28.9121 42.0877 30.0843 39.7815C31.4528 37.0885 33.3441 34.5667 35.6849 32.3134C37.1127 30.9389 38.3245 30.014 40.1125 28.9339C41.226 28.2613 41.4455 28.0773 41.4455 27.8166C41.4455 27.1156 40.5885 27.425 38.3183 28.9455C35.8743 30.5824 33.411 33.0527 31.6063 35.6765C30.2445 37.6564 30.1005 37.8303 29.8229 37.8303C29.5121 37.8303 29.2452 37.3086 28.9334 36.0923C28.6352 34.9283 28.6225 34.0831 28.8838 32.7888C29.8608 27.9505 34.8637 24.7955 43.0793 23.8368C45.9514 23.5017 49.1043 23.4156 49.3548 23.6656ZM15.7557 29.0207C18.9041 29.4345 21.5631 30.3613 23.3009 31.6506C24.3051 32.3955 24.8818 33.1121 25.4748 34.3516C25.9467 35.3381 25.9571 35.3912 25.9571 36.8168C25.9571 38.0493 25.9142 38.3665 25.6786 38.8756C25.5255 39.2066 25.3213 39.4774 25.225 39.4774C25.1286 39.4774 24.6062 38.8538 24.0641 38.0917C22.3928 35.7417 21.1616 34.4414 19.292 33.0522C18.3198 32.3298 16.9128 31.5824 16.6874 31.6688C16.2672 31.8297 16.5673 32.166 17.9273 33.058C20.4523 34.7142 22.3537 36.6059 23.9338 39.034C25.5576 41.5289 26.4525 44.0077 25.8173 44.251C25.5625 44.3485 25.4358 44.1463 25.2483 43.3428C25.1668 42.9937 24.9108 42.294 24.6792 41.788L24.2582 40.8676L23.4403 41.3163C21.5536 42.3513 18.7897 42.4045 17.2515 41.4354C15.6794 40.445 14.823 38.8832 13.9547 35.4231C13.3821 33.1408 12.6354 31.6979 11.0795 29.8672C10.1014 28.7164 10.1881 28.6481 12.4991 28.7489C13.4771 28.7915 14.9426 28.9139 15.7557 29.0207Z" fill="#3FA847"/>
</svg>
