<svg width="60" height="60" viewBox="0 0 60 60" fill="none" xmlns="http://www.w3.org/2000/svg">
<path fill-rule="evenodd" clip-rule="evenodd" d="M28.0776 0.0770694C21.9 0.453077 15.838 2.83239 10.9764 6.78938C9.75561 7.78303 7.52457 10.0288 6.57119 11.2239C2.95212 15.7603 0.865246 20.7795 0.11498 26.7523C-0.0370507 27.9627 -0.0387126 32.0085 0.112356 33.2262C0.485521 36.2341 1.0695 38.5801 2.07239 41.0997C5.88303 50.6739 14.3718 57.6428 24.5049 59.5159C27.9209 60.1474 31.8992 60.1618 35.2942 59.5549C44.0795 57.9844 51.7562 52.5151 56.196 44.6631C60.5582 36.9483 61.2114 27.3272 57.9345 19.0537C54.2525 9.75755 46.2358 2.90141 36.5189 0.738538C35.0735 0.416771 33.2774 0.172252 31.6188 0.0713831C30.0342 -0.024937 29.7459 -0.0244997 28.0776 0.0770694ZM52.1442 18.0562C52.3143 18.1019 52.5267 18.4156 52.5267 18.6212C52.5267 18.6674 52.2198 19.0494 51.8448 19.47C50.2118 21.3014 49.3131 22.581 48.5394 24.1763C47.8529 25.5917 47.5214 26.5799 46.9255 28.9875C46.125 32.2218 45.5843 33.6466 44.5902 35.1411C43.0543 37.4504 41.0026 38.5852 38.1372 38.7103C35.8236 38.8113 33.519 38.217 31.8544 37.0901C31.6535 36.954 31.4386 36.8133 31.377 36.7772C31.1713 36.6571 30.0734 39.1783 29.7675 40.4733C29.4257 41.9205 29.4371 41.89 29.1982 41.9809C28.9161 42.0881 28.5866 41.8975 28.5072 41.581C28.3658 41.0172 28.8948 39.2217 29.7011 37.5287C31.4366 33.8851 33.6878 30.853 36.9594 27.752C38.5056 26.2865 40.5429 24.8222 42.4889 23.7775C43.062 23.4698 43.2547 23.2882 43.2531 23.057C43.2504 22.6583 42.9217 22.4382 42.532 22.5741C41.6457 22.8831 39.3139 24.3614 37.7873 25.5822C36.5904 26.5393 34.432 28.6841 33.4399 29.9022C32.6265 30.9007 31.4598 32.5323 30.8085 33.5817C30.5826 33.9456 30.3028 34.3327 30.1866 34.4418C29.7342 34.8669 29.3533 34.5177 28.9506 33.3085C28.4735 31.8757 28.3734 30.6894 28.6015 29.1754C29.5886 22.6266 36.7247 18.6713 48.5903 18.0966C50.3554 18.0111 51.9102 17.9935 52.1442 18.0562ZM11.7637 24.1737C15.4232 24.5101 17.9861 25.1095 20.1168 26.1275C22.4123 27.2241 23.8631 28.5411 24.7087 30.2954C25.2474 31.4131 25.4407 32.2256 25.4474 33.4011C25.4571 35.0967 24.8257 36.744 24.2944 36.4095C24.2102 36.3566 23.7838 35.7789 23.3467 35.1259C21.0327 31.6679 18.2723 29.0902 15.2715 27.5853C14.8793 27.3888 14.7632 27.3649 14.5878 27.4448C14.4261 27.5185 14.3829 27.5975 14.404 27.781C14.4254 27.9669 14.5356 28.0799 14.8938 28.2833C17.8863 29.9822 20.0811 31.9282 22.1954 34.7571C23.9005 37.0385 25.2146 39.6793 25.4472 41.2919C25.4971 41.638 25.4781 41.7311 25.3268 41.8825C24.9701 42.2392 24.7547 42.0297 24.5757 41.1515C24.4239 40.407 24.0925 39.5073 23.6375 38.6047L23.3528 38.04L22.8285 38.3896C20.9723 39.628 17.6017 39.917 15.7727 38.9949C14.5793 38.3931 13.6201 37.4145 12.9535 36.1182C12.4292 35.0986 12.0914 34.1001 11.6219 32.1816C10.8792 29.1471 10.0394 27.4736 8.22822 25.4198C7.09543 24.1351 7.14887 24.0401 9.00385 24.0407C9.72788 24.0408 10.9698 24.1008 11.7637 24.1737Z" fill="white"/>
</svg>
