<svg width="55" height="55" viewBox="0 0 55 55" fill="none" xmlns="http://www.w3.org/2000/svg">
<path fill-rule="evenodd" clip-rule="evenodd" d="M26.0009 0.0167177C19.655 0.394527 13.9325 2.76009 9.18129 6.96952C8.59894 7.48548 7.49198 8.59256 6.97462 9.17644C4.41204 12.0685 2.54386 15.3034 1.35925 18.8999C0.652934 21.0444 0.244284 23.1238 0.0482514 25.5709C0.000831803 26.163 -0.0168818 28.1448 0.019123 28.8307C0.224892 32.7487 1.17257 36.3768 2.88281 39.7937C4.593 43.2105 6.99555 46.2269 9.9927 48.7203C12.2801 50.6232 15.0469 52.224 17.873 53.2795C20.3363 54.1996 22.7628 54.7264 25.5746 54.9517C26.1667 54.9992 28.1483 55.0169 28.834 54.9809C35.2359 54.6446 41.0112 52.279 45.8187 48.0239C46.3968 47.5122 47.5038 46.4048 48.0252 45.8166C50.2215 43.3388 51.9046 40.6118 53.0929 37.6061C54.1304 34.9815 54.7112 32.4245 54.9517 29.4221C54.9992 28.83 55.0169 26.8482 54.9809 26.1623C54.8162 23.0274 54.1867 20.1203 53.0625 17.3044C51.3561 13.03 48.6112 9.27088 45.0073 6.27272C42.4592 4.1529 39.3535 2.43111 36.178 1.37776C34.0104 0.658697 31.9128 0.24342 29.4254 0.0407881C28.946 0.00175277 26.537 -0.0151928 26.0009 0.0167177ZM35.6084 18.728L36.518 20.5642H35.6853H34.8526L34.5595 19.959L34.2664 19.3538H33.2812H32.2959L32.004 19.959L31.712 20.5642H30.8866H30.0612L30.8389 18.9893C31.2666 18.1232 31.9928 16.6548 32.4525 15.7264L33.2883 14.0384L33.9936 15.4651C34.3815 16.2498 35.1082 17.7181 35.6084 18.728ZM39.3802 16.0665C40.4872 17.0499 41.4047 17.8587 41.4191 17.8637C41.4355 17.8695 41.4453 17.2251 41.4453 16.1376V14.4022H42.1467H42.8481V17.6221V20.842L42.4149 20.4584C42.1766 20.2474 41.2267 19.4051 40.3038 18.5867C39.381 17.7682 38.6167 17.0985 38.6054 17.0983C38.594 17.0982 38.5847 17.878 38.5847 18.8312V20.5642H37.8834H37.182V17.3437V14.1231L37.2747 14.2007C37.3258 14.2435 38.2732 15.083 39.3802 16.0665ZM27.5818 14.3349C28.3213 14.4752 29.0345 14.9245 29.5205 15.556L29.6458 15.7189L28.9974 16.0536C28.6407 16.2377 28.3448 16.384 28.3397 16.3787C28.3345 16.3734 28.2751 16.2939 28.2076 16.2019C27.9909 15.9071 27.6479 15.6722 27.3255 15.5981C27.2099 15.5715 27.0152 15.5533 26.8536 15.554C25.9724 15.5578 25.2802 16.0794 25.0599 16.9055C24.9937 17.1539 24.9944 17.806 25.0613 18.0747C25.1481 18.4236 25.3065 18.7044 25.5584 18.9565C25.9474 19.3455 26.3379 19.4822 26.9875 19.4566C27.5236 19.4356 27.812 19.3175 28.117 18.9941C28.2769 18.8247 28.4902 18.4699 28.4902 18.3736C28.4902 18.3427 28.3462 18.336 27.6788 18.336H26.8674V17.7721V17.2081H28.4214H29.9755V17.4155C29.9755 18.12 29.781 18.8401 29.4469 19.3731C29.0006 20.0849 28.3363 20.5314 27.4862 20.6909C27.158 20.7525 26.4774 20.7533 26.1347 20.6924C24.7542 20.4473 23.7819 19.5121 23.5217 18.1788C23.4564 17.8447 23.4562 17.1434 23.5212 16.8144C23.7128 15.845 24.3162 15.0633 25.2033 14.6354C25.5705 14.4583 26.0525 14.3316 26.5511 14.2813C26.7475 14.2614 27.3634 14.2935 27.5818 14.3349ZM13.8413 16.2363C14.2509 17.2375 14.5933 18.0637 14.602 18.0723C14.6107 18.081 14.9569 17.2587 15.3713 16.2451L16.1248 14.4022H16.9835H17.8421L16.2296 17.6483C15.3428 19.4336 14.6102 20.8941 14.6016 20.8939C14.5887 20.8935 14.033 19.7735 11.5135 14.67L11.3808 14.4014L12.2386 14.4087L13.0964 14.416L13.8413 16.2363ZM22.5765 15.0074V15.6126H21.2425H19.9085V16.1765V16.7405H21.16H22.4115V17.3319V17.9234H21.16H19.9085V18.6386V19.3538H21.2425H22.5765V19.959V20.5642H20.5411H18.5057V17.4832V14.4022H20.5411H22.5765V15.0074ZM33.225 16.7709C33.1961 16.8374 33.0459 17.1827 32.8913 17.5382C32.7366 17.8938 32.6039 18.2002 32.5964 18.2191C32.5856 18.246 32.7318 18.2535 33.2732 18.2535C33.6913 18.2535 33.9638 18.2432 33.9638 18.2273C33.9638 18.2015 33.3081 16.6818 33.2879 16.6609C33.2822 16.655 33.2539 16.7045 33.225 16.7709ZM15.4251 27.5532C18.2072 27.6858 20.5579 28.2032 22.6315 29.1393C24.6552 30.0529 26.159 31.223 27.3815 32.8353C27.8778 33.4898 28.1329 33.9218 28.6718 35.0202C29.2225 36.1429 29.4818 36.8421 29.7837 38.0187C30.2552 39.8564 30.4706 41.6789 30.4706 43.8314V44.7551L26.5717 40.8633C24.4273 38.7229 22.4356 36.7476 22.1457 36.4737C21.6616 36.0166 21.6068 35.9731 21.4755 35.9416C21.069 35.8441 20.6393 36.0294 20.4453 36.3859C20.3832 36.5001 20.3636 36.5768 20.3539 36.7448C20.343 36.9336 20.3498 36.9754 20.4128 37.1035C20.5461 37.3747 21.5642 38.4227 26.4634 43.3317L29.1576 46.0312L28.927 46.0542C28.2057 46.1258 25.9902 46.0175 24.8595 45.8553C22.0645 45.4542 19.6953 44.6098 17.8221 43.3468C15.8399 42.0104 14.3288 40.1062 13.4085 37.7849C12.3733 35.174 11.9139 32.3622 12.0154 29.2571C12.0501 28.1957 12.0797 28.0593 12.3237 27.8355C12.5715 27.608 12.7188 27.573 13.6234 27.5257C14.081 27.5018 14.4717 27.5078 15.4251 27.5532ZM40.3883 33.0507C40.8988 33.0707 40.9522 33.0777 41.0958 33.1435C41.2873 33.2311 41.4741 33.419 41.5687 33.6189C41.675 33.8437 41.6956 34.1852 41.6651 35.2217C41.6372 36.1707 41.5879 36.8275 41.4991 37.4356C41.1574 39.7747 40.1766 41.8694 38.7693 43.2653C37.3453 44.6776 35.4031 45.5269 32.6848 45.9258C32.1423 46.0054 32.1484 46.006 32.1484 45.8776C32.1484 45.8199 32.1604 45.7054 32.175 45.6232C32.2123 45.4127 32.2531 44.9075 32.2856 44.2525L32.3134 43.6916L33.8194 42.1751C35.6824 40.2989 36.013 39.9459 36.0561 39.7866C36.1674 39.3751 35.8917 38.8325 35.5088 38.7094C35.1592 38.597 34.9797 38.6299 34.6652 38.864C34.5593 38.9429 33.9642 39.5122 33.3428 40.1292C32.7214 40.7462 32.2064 41.251 32.1982 41.251C32.1813 41.251 32.1753 41.2115 32.0655 40.3708C31.8974 39.0844 31.6398 37.8741 31.2807 36.6848L31.1521 36.2587L31.5063 35.9146C32.9278 34.5336 34.672 33.6948 37.0228 33.2615C38.1491 33.0539 39.0433 32.9979 40.3883 33.0507Z" fill="#12635F"/>
</svg>
