<svg width="55" height="55" viewBox="0 0 55 55" fill="none" xmlns="http://www.w3.org/2000/svg">
    <path fill-rule="evenodd" clip-rule="evenodd" d="M25.947 0.0217353C22.4784 0.322419 19.8234 0.919605 17.1981 1.98948C7.89981 5.77909 1.47872 14.0922 0.175202 24.028C-0.0580126 25.8057 -0.0584776 29.1431 0.174272 30.9264C0.812005 35.812 2.59754 40.1705 5.60175 44.1745C7.32445 46.4703 10.4663 49.3089 13.0839 50.934C16.3694 52.9739 20.9001 54.4796 24.9489 54.8773C31.8738 55.5574 39.1367 53.3872 44.7415 48.9632C45.2535 48.5591 46.3026 47.5966 47.0727 46.8245C51.1884 42.6984 53.787 37.5593 54.7715 31.6001C55.1015 29.6018 55.0683 25.0327 54.7092 23.0252C53.3176 15.246 49.1556 8.8469 42.7112 4.5781C39.1537 2.22152 35.0754 0.712761 30.8566 0.192459C29.7659 0.0579698 26.7423 -0.0471351 25.947 0.0217353ZM28.0791 7.2184C28.533 7.41839 28.8563 7.66472 28.8563 7.8107C28.8563 7.87098 28.6723 8.09826 28.4476 8.31568L28.0388 8.71101L27.6653 8.49093C27.1702 8.19896 26.2619 8.20941 25.847 8.51184C24.3927 9.5716 25.473 11.8053 27.2137 11.3375L27.7147 11.2029L27.6337 10.3974L27.5526 9.59181H28.2458H28.9391L29.0132 10.3757C29.1613 11.9404 29.1807 11.8842 28.3617 12.2654C26.8375 12.9753 25.3966 12.8106 24.4319 11.8162C23.0621 10.4044 23.4439 8.22137 25.2251 7.28018C25.9215 6.91214 27.3151 6.88194 28.0791 7.2184ZM34.035 7.59341C34.446 7.67389 34.5178 7.73835 34.6492 8.1446C34.8254 8.68976 35.9316 13.467 35.8932 13.517C35.8786 13.5359 35.5208 13.4878 35.0978 13.41C34.3428 13.2712 34.3277 13.2612 34.254 12.853C34.1274 12.1517 34.0506 12.0884 33.1419 11.9357C32.6731 11.857 32.1759 11.7628 32.0373 11.7264C31.8327 11.6728 31.7342 11.7514 31.5136 12.1438C31.2424 12.6268 31.2413 12.6272 30.6882 12.5572C29.5171 12.4088 29.4736 12.5842 31.3607 9.84836C32.8374 7.70757 33.0938 7.39214 33.315 7.44336C33.455 7.47576 33.779 7.54335 34.035 7.59341ZM21.8947 8.30046L22.0763 8.86734L20.8404 9.24235C20.1607 9.44849 19.5646 9.65406 19.5157 9.69901C19.389 9.81561 19.6573 10.5209 19.8283 10.5209C19.9069 10.5209 20.356 10.3903 20.8265 10.2306C21.9925 9.83477 22.072 9.84534 22.2261 10.4165C22.2969 10.6784 22.3285 10.9188 22.2966 10.9508C22.2647 10.9826 21.7768 11.1534 21.2125 11.3304C20.1904 11.6511 20.1865 11.6537 20.2049 12.0284C20.2152 12.2352 20.2742 12.4551 20.3361 12.5169C20.4086 12.5892 20.9174 12.4827 21.7662 12.2175C22.4907 11.991 23.103 11.825 23.1267 11.8487C23.1505 11.8723 23.2401 12.1245 23.3258 12.4089L23.4818 12.926L21.3911 13.5945C20.2413 13.9622 19.2836 14.2442 19.263 14.2211C19.2298 14.1842 18.4549 11.7781 17.8206 9.74349L17.5965 9.02424L19.5315 8.39105C20.5958 8.04287 21.522 7.7524 21.5898 7.74578C21.6576 7.73905 21.7948 7.98875 21.8947 8.30046ZM39.3679 9.142L39.8775 9.38915L40.2615 11.0293C40.4727 11.9314 40.687 12.7479 40.7374 12.8437C40.8023 12.9669 41.0023 12.6524 41.4205 11.7694C41.7458 11.0828 42.0648 10.5209 42.1296 10.5209C42.2602 10.5209 43.4032 11.082 43.4032 11.1461C43.4032 11.3074 41.035 15.9794 40.9532 15.9794C40.896 15.9794 40.6201 15.8683 40.3399 15.7325L39.8308 15.4857L39.4507 13.8453C39.2417 12.9431 39.0355 12.1398 38.9923 12.0601C38.9462 11.975 38.6555 12.4378 38.2867 13.1838L37.6596 14.4522L36.9775 14.1086C36.6023 13.9196 36.314 13.7275 36.3367 13.6818C36.3594 13.636 36.895 12.5402 37.5269 11.2468C38.159 9.95335 38.717 8.89498 38.7671 8.89498C38.8173 8.89498 39.0876 9.00612 39.3679 9.142ZM32.9581 9.87809C32.4304 10.704 32.4136 10.6652 33.3658 10.813C33.6378 10.8552 33.8586 10.846 33.8564 10.7925C33.8479 10.5919 33.5355 9.22888 33.4869 9.18021C33.4589 9.15246 33.221 9.4665 32.9581 9.87809ZM16.1744 9.73698C16.176 9.81689 16.3549 11.1355 16.5719 12.6674C16.789 14.1993 16.9493 15.4797 16.9284 15.5128C16.9074 15.5459 16.6068 15.7253 16.2603 15.9115L15.6303 16.2502L13.2243 14.5353C11.901 13.592 10.8182 12.8055 10.8182 12.7875C10.8182 12.7695 11.1344 12.5668 11.5208 12.3371L12.2232 11.9195L13.7376 13.0341C14.5704 13.647 15.2762 14.1242 15.3061 14.0945C15.3359 14.0647 15.2356 13.2174 15.0833 12.2116L14.8062 10.3827L15.4016 9.99319C16.0626 9.56057 16.1701 9.52491 16.1744 9.73698ZM45.2419 21.6935C45.4802 21.9313 45.4067 22.08 44.5554 23.0803C42.5568 25.4287 41.8719 26.8236 40.9137 30.4968C40.1 33.6158 39.5743 34.7495 38.3322 36.0635C37.0433 37.4272 35.7591 37.9297 33.5637 37.9297C31.7652 37.9297 30.3785 37.559 28.9983 36.7092L28.5001 36.4025L28.099 37.2691C27.8782 37.7457 27.5505 38.6467 27.3705 39.2714C27.0246 40.472 26.8073 40.7636 26.468 40.4825C26.0687 40.1519 26.5028 38.5804 27.5773 36.4663C28.8318 33.9978 30.5654 31.6862 32.7111 29.6207C34.02 28.3607 35.1308 27.5129 36.7698 26.5228C37.7905 25.9062 37.9917 25.7376 37.9917 25.4985C37.9917 24.8559 37.2061 25.1396 35.1251 26.5333C32.8848 28.0338 30.6267 30.2983 28.9725 32.7034C27.7241 34.5183 27.5921 34.6778 27.3376 34.6778C27.0528 34.6778 26.8081 34.1995 26.5223 33.0846C26.249 32.0176 26.2373 31.2429 26.4768 30.0564C27.3724 25.6213 31.9584 22.7292 39.4894 21.8504C42.1221 21.5432 45.0123 21.4643 45.2419 21.6935ZM14.4427 26.6023C17.3287 26.9816 19.7662 27.8312 21.3591 29.013C22.2796 29.6959 22.8083 30.3528 23.3519 31.489C23.7845 32.3932 23.794 32.4419 23.794 33.7487C23.794 34.8785 23.7547 35.1693 23.5387 35.636C23.3984 35.9394 23.2112 36.1876 23.1229 36.1876C23.0346 36.1876 22.5557 35.616 22.0588 34.9174C20.5267 32.7633 19.3981 31.5713 17.6844 30.2979C16.7932 29.6356 15.5034 28.9505 15.2968 29.0297C14.9116 29.1772 15.1867 29.4855 16.4333 30.3032C18.7479 31.8214 20.4908 33.5554 21.9394 35.7811C23.4278 38.0681 24.2481 40.3404 23.6659 40.5634C23.4323 40.6528 23.3162 40.4674 23.1443 39.7309C23.0696 39.4109 22.8349 38.7695 22.6226 38.3056L22.2367 37.462L21.4869 37.8732C19.7575 38.822 17.2239 38.8708 15.8139 37.9824C14.3728 37.0746 13.5877 35.6429 12.7918 32.4712C12.2669 30.379 11.5825 29.0565 10.1562 27.3782C9.25964 26.3234 9.33913 26.2608 11.4575 26.3532C12.354 26.3922 13.6974 26.5044 14.4427 26.6023Z" fill="#12635F"/>
</svg>
