<svg width="100" height="76" viewBox="0 0 100 76" fill="none" xmlns="http://www.w3.org/2000/svg">
    <path fill-rule="evenodd" clip-rule="evenodd" d="M44.8879 0.106864C44.5962 0.23707 44.3082 0.563383 44.213 0.871558C44.17 1.01065 43.9677 1.87232 43.7633 2.78637C43.559 3.70042 43.3545 4.48455 43.3089 4.52884C43.2632 4.57313 41.5189 5.13414 39.4325 5.77542C37.3461 6.41677 35.5006 7.01108 35.3315 7.09613C34.9914 7.26701 34.7713 7.56731 34.7033 7.95273C34.6685 8.15021 34.8947 9.02979 35.7358 11.9669L36.8128 15.7282L36.665 16.2662C36.5421 16.7129 36.517 17.0189 36.5166 18.0687C36.5162 19.2094 36.5348 19.4028 36.7072 20.044C36.8962 20.7468 37.3172 21.6837 37.944 22.7966C39.1554 24.9473 39.6438 29.3281 39.0682 32.8814C38.9878 33.3781 38.8059 34.2355 38.6641 34.7866C38.4986 35.4298 38.4218 35.8667 38.4499 36.0067C38.5223 36.369 38.7702 36.6923 39.0967 36.8504C39.4049 36.9996 39.4375 37 49.5599 37H59.7139L60.0286 36.8336C60.4196 36.6269 60.7005 36.1515 60.6562 35.7716C60.6399 35.6325 60.5248 35.1285 60.4001 34.6517C59.6405 31.7438 59.5675 28.8686 60.175 25.7845C60.4583 24.3467 60.8106 23.2885 61.2283 22.6209C62.4144 20.7249 62.8478 18.7882 62.5219 16.8398C62.4533 16.4289 62.3688 16.0185 62.3344 15.9278C62.2869 15.8029 62.534 14.8473 63.3541 11.9843C64.1957 9.04656 64.4269 8.14934 64.3928 7.95273C64.3289 7.58379 64.117 7.28118 63.8046 7.1126C63.6537 7.0311 61.8068 6.4336 59.7005 5.78495C57.5942 5.13623 55.8336 4.57017 55.788 4.52689C55.7424 4.48368 55.5216 3.63957 55.2976 2.65117C55.0735 1.66277 54.8457 0.768592 54.7913 0.664109C54.6603 0.412366 54.4007 0.176447 54.1501 0.0815736C53.8239 -0.042058 45.1685 -0.0183577 44.8879 0.106864ZM42.6402 7.61334C42.7814 7.75453 42.8144 7.8851 42.8577 8.47443C43.0281 10.7955 44.1621 12.7249 46.0355 13.8809C48.7643 15.5648 52.2661 15.0644 54.4526 12.6783C55.5347 11.4974 56.112 10.1196 56.2439 8.40304C56.2836 7.88618 56.3206 7.74933 56.4575 7.61247C56.6845 7.38544 57.059 7.39202 57.3395 7.62794L57.5546 7.80894L57.5881 9.63307C57.6169 11.1945 57.6443 11.5456 57.7785 12.0714C57.9784 12.855 58.4519 13.8183 59.0212 14.6004C59.7862 15.6511 60.1367 16.5646 60.2188 17.722C60.3037 18.9181 60.0154 19.9783 59.2595 21.2503C58.62 22.3264 58.4175 22.8405 58.0363 24.355C57.8568 25.0684 57.7492 25.3645 57.6358 25.457C57.4902 25.5757 56.9957 25.5834 49.5484 25.5834C42.1016 25.5834 41.6066 25.5757 41.4601 25.457C41.3505 25.3682 41.2512 25.1156 41.1263 24.6079C40.7468 23.0642 40.4645 22.3637 39.6126 20.8506C39.1274 19.9889 38.9188 19.2739 38.8748 18.3216C38.8123 16.9695 39.1797 15.831 40.0757 14.6004C40.645 13.8183 41.1184 12.855 41.3184 12.0714C41.4526 11.5456 41.48 11.1945 41.5088 9.63307L41.5423 7.80894L41.7574 7.62794C42.0383 7.39159 42.4124 7.38544 42.6402 7.61334ZM50.0564 30.5872C50.2334 30.6767 50.4517 30.8603 50.5414 30.9953C50.6875 31.2151 50.7045 31.3293 50.7045 32.0865C50.7045 32.8443 50.6876 32.9574 50.5418 33.1739C50.0729 33.8695 49.0277 33.8751 48.5622 33.1843C48.2563 32.7304 48.2565 31.4456 48.5626 30.9848C48.7362 30.7233 49.2619 30.4246 49.5484 30.4246C49.6508 30.4246 49.8794 30.4977 50.0564 30.5872Z" fill="white"/>
    <path d="M3.01039 71L0.150391 57H1.97039L3.69039 66.12C3.75039 66.4267 3.80039 66.7 3.84039 66.94C3.88706 67.18 3.92372 67.4067 3.95039 67.62C3.99039 67.4067 4.04372 67.1767 4.11039 66.93C4.17706 66.6833 4.25039 66.42 4.33039 66.14L6.81039 57H8.19039L10.6904 66.12C10.7704 66.4067 10.8371 66.6567 10.8904 66.87C10.9437 67.0833 10.9837 67.2867 11.0104 67.48C11.0437 67.2867 11.0804 67.08 11.1204 66.86C11.1604 66.64 11.2104 66.3867 11.2704 66.1L13.1704 57H14.9504L11.9104 71H10.5304L7.83039 61.44C7.75039 61.16 7.68039 60.91 7.62039 60.69C7.56039 60.47 7.51039 60.26 7.47039 60.06C7.43039 60.26 7.38372 60.4667 7.33039 60.68C7.27706 60.8933 7.21039 61.1467 7.13039 61.44L4.43039 71H3.01039ZM21.1566 71.24C20.2233 71.24 19.4166 71.01 18.7366 70.55C18.0566 70.09 17.5333 69.4567 17.1666 68.65C16.8 67.8433 16.6166 66.92 16.6166 65.88C16.6166 64.7533 16.8066 63.7933 17.1866 63C17.5666 62.2 18.0966 61.59 18.7766 61.17C19.4566 60.75 20.25 60.54 21.1566 60.54C21.9233 60.54 22.6266 60.7133 23.2666 61.06C23.9066 61.4 24.4166 61.93 24.7966 62.65C25.1833 63.3633 25.3766 64.28 25.3766 65.4C25.3766 65.56 25.37 65.7467 25.3566 65.96C25.35 66.1667 25.3366 66.38 25.3166 66.6H18.3966C18.4633 67.22 18.6166 67.7633 18.8566 68.23C19.0966 68.6967 19.4133 69.0633 19.8066 69.33C20.2 69.59 20.6633 69.72 21.1966 69.72C21.63 69.72 22.03 69.6433 22.3966 69.49C22.77 69.3367 23.1166 69.1 23.4366 68.78L24.4566 69.92C24.0766 70.3 23.6033 70.6167 23.0366 70.87C22.4766 71.1167 21.85 71.24 21.1566 71.24ZM18.3766 65.08H23.6166C23.6166 64.5 23.52 63.9833 23.3266 63.53C23.14 63.07 22.8633 62.71 22.4966 62.45C22.13 62.19 21.6833 62.06 21.1566 62.06C20.4166 62.06 19.78 62.3 19.2466 62.78C18.72 63.26 18.43 64.0267 18.3766 65.08ZM27.9984 71V60.78H29.7384V71H27.9984ZM28.8584 58.92C28.5584 58.92 28.3017 58.8167 28.0884 58.61C27.8817 58.3967 27.7784 58.14 27.7784 57.84C27.7784 57.5267 27.8817 57.2633 28.0884 57.05C28.3017 56.83 28.5584 56.72 28.8584 56.72C29.1717 56.72 29.4317 56.83 29.6384 57.05C29.8517 57.2633 29.9584 57.5267 29.9584 57.84C29.9584 58.14 29.8517 58.3967 29.6384 58.61C29.4317 58.8167 29.1717 58.92 28.8584 58.92ZM36.1965 75.26L35.3565 73.9C36.2632 73.8467 37.0032 73.7233 37.5765 73.53C38.1565 73.3367 38.5832 73.0633 38.8565 72.71C39.1365 72.3567 39.2765 71.9133 39.2765 71.38V70C38.6632 70.8267 37.7832 71.24 36.6365 71.24C35.7965 71.24 35.0632 71.0167 34.4365 70.57C33.8098 70.1233 33.3232 69.5 32.9765 68.7C32.6298 67.8933 32.4565 66.9533 32.4565 65.88C32.4565 64.7933 32.6298 63.85 32.9765 63.05C33.3298 62.25 33.8232 61.6333 34.4565 61.2C35.0898 60.76 35.8365 60.54 36.6965 60.54C37.2098 60.54 37.6898 60.6367 38.1365 60.83C38.5898 61.0167 38.9698 61.28 39.2765 61.62V60.78H41.0165V70.72C41.0165 71.4467 40.9198 72.0833 40.7265 72.63C40.5332 73.1833 40.2365 73.6467 39.8365 74.02C39.4365 74.3933 38.9332 74.68 38.3265 74.88C37.7265 75.0867 37.0165 75.2133 36.1965 75.26ZM36.9965 69.62C37.4365 69.62 37.8632 69.4867 38.2765 69.22C38.6965 68.9533 39.0298 68.6067 39.2765 68.18V63.5C39.0498 63.1067 38.7165 62.7833 38.2765 62.53C37.8432 62.27 37.4165 62.14 36.9965 62.14C36.0965 62.14 35.4065 62.46 34.9265 63.1C34.4532 63.74 34.2165 64.6667 34.2165 65.88C34.2165 66.64 34.3298 67.3 34.5565 67.86C34.7898 68.42 35.1132 68.8533 35.5265 69.16C35.9465 69.4667 36.4365 69.62 36.9965 69.62ZM44.326 71V57.36L46.066 56.56V61.84C46.3793 61.4067 46.756 61.0833 47.196 60.87C47.6427 60.65 48.146 60.54 48.706 60.54C49.5927 60.54 50.3027 60.7233 50.836 61.09C51.376 61.4567 51.766 61.9833 52.006 62.67C52.246 63.35 52.366 64.1667 52.366 65.12V71H50.626V64.82C50.626 64.02 50.446 63.3733 50.086 62.88C49.7327 62.3867 49.1793 62.14 48.426 62.14C47.646 62.14 47.056 62.3633 46.656 62.81C46.2627 63.25 46.066 63.9067 46.066 64.78V71H44.326ZM58.1426 71.24C57.4426 71.24 56.9059 71.03 56.5326 70.61C56.1659 70.19 55.9826 69.5867 55.9826 68.8V62.3H54.3226V60.78H55.9826V57.4L57.7226 56.56V60.78H60.2426V62.3H57.7226V68.22C57.7226 68.7067 57.8059 69.0633 57.9726 69.29C58.1459 69.51 58.4159 69.62 58.7826 69.62C59.2492 69.62 59.7559 69.44 60.3026 69.08L60.1026 70.78C59.8026 70.94 59.4892 71.0567 59.1626 71.13C58.8426 71.2033 58.5026 71.24 58.1426 71.24ZM67.6682 71V57.38L69.4082 56.56V71H67.6682ZM76.7226 71.24C75.3226 71.24 74.2192 70.7633 73.4126 69.81C72.6059 68.85 72.2026 67.5467 72.2026 65.9C72.2026 64.8 72.3859 63.85 72.7526 63.05C73.1192 62.25 73.6392 61.6333 74.3126 61.2C74.9926 60.76 75.7959 60.54 76.7226 60.54C77.6559 60.54 78.4592 60.7567 79.1326 61.19C79.8126 61.6167 80.3326 62.23 80.6926 63.03C81.0592 63.83 81.2426 64.78 81.2426 65.88C81.2426 66.98 81.0592 67.9333 80.6926 68.74C80.3259 69.54 79.8026 70.1567 79.1226 70.59C78.4492 71.0233 77.6492 71.24 76.7226 71.24ZM76.7226 69.62C77.5826 69.62 78.2559 69.29 78.7426 68.63C79.2359 67.9633 79.4826 67.0467 79.4826 65.88C79.4826 64.7067 79.2359 63.79 78.7426 63.13C78.2559 62.47 77.5826 62.14 76.7226 62.14C75.8559 62.14 75.1792 62.47 74.6926 63.13C74.2059 63.7833 73.9626 64.7067 73.9626 65.9C73.9626 67.0667 74.2059 67.98 74.6926 68.64C75.1792 69.2933 75.8559 69.62 76.7226 69.62ZM86.7796 71.24C86.0596 71.24 85.3663 71.0867 84.6996 70.78C84.0396 70.4667 83.4996 70.0467 83.0796 69.52L84.3196 68.46C84.6796 68.8467 85.0796 69.1467 85.5196 69.36C85.9596 69.5733 86.3929 69.68 86.8196 69.68C87.4196 69.68 87.8863 69.5667 88.2196 69.34C88.5529 69.1067 88.7196 68.7867 88.7196 68.38C88.7196 68.1133 88.6429 67.8733 88.4896 67.66C88.3429 67.4467 88.0963 67.2433 87.7496 67.05C87.4096 66.8567 86.9529 66.6533 86.3796 66.44C85.2529 66.02 84.4429 65.5633 83.9496 65.07C83.4629 64.5767 83.2196 63.9667 83.2196 63.24C83.2196 62.44 83.5363 61.79 84.1696 61.29C84.8096 60.79 85.6396 60.54 86.6596 60.54C87.3596 60.54 88.0029 60.6733 88.5896 60.94C89.1763 61.2 89.6796 61.58 90.0996 62.08L88.8996 63.08C88.2863 62.4267 87.5329 62.1 86.6396 62.1C86.1129 62.1 85.6963 62.2033 85.3896 62.41C85.0896 62.61 84.9396 62.8867 84.9396 63.24C84.9396 63.58 85.1096 63.88 85.4496 64.14C85.7963 64.3933 86.4196 64.6867 87.3196 65.02C88.0529 65.2867 88.6463 65.5767 89.0996 65.89C89.5596 66.2033 89.8929 66.56 90.0996 66.96C90.3129 67.36 90.4196 67.82 90.4196 68.34C90.4196 69.24 90.0963 69.95 89.4496 70.47C88.8029 70.9833 87.9129 71.24 86.7796 71.24ZM96.1546 71.24C95.4346 71.24 94.7413 71.0867 94.0746 70.78C93.4146 70.4667 92.8746 70.0467 92.4546 69.52L93.6946 68.46C94.0546 68.8467 94.4546 69.1467 94.8946 69.36C95.3346 69.5733 95.7679 69.68 96.1946 69.68C96.7946 69.68 97.2613 69.5667 97.5946 69.34C97.9279 69.1067 98.0946 68.7867 98.0946 68.38C98.0946 68.1133 98.0179 67.8733 97.8646 67.66C97.7179 67.4467 97.4713 67.2433 97.1246 67.05C96.7846 66.8567 96.3279 66.6533 95.7546 66.44C94.6279 66.02 93.8179 65.5633 93.3246 65.07C92.8379 64.5767 92.5946 63.9667 92.5946 63.24C92.5946 62.44 92.9113 61.79 93.5446 61.29C94.1846 60.79 95.0146 60.54 96.0346 60.54C96.7346 60.54 97.3779 60.6733 97.9646 60.94C98.5513 61.2 99.0546 61.58 99.4746 62.08L98.2746 63.08C97.6613 62.4267 96.9079 62.1 96.0146 62.1C95.4879 62.1 95.0713 62.2033 94.7646 62.41C94.4646 62.61 94.3146 62.8867 94.3146 63.24C94.3146 63.58 94.4846 63.88 94.8246 64.14C95.1713 64.3933 95.7946 64.6867 96.6946 65.02C97.4279 65.2867 98.0213 65.5767 98.4746 65.89C98.9346 66.2033 99.2679 66.56 99.4746 66.96C99.6879 67.36 99.7946 67.82 99.7946 68.34C99.7946 69.24 99.4713 69.95 98.8246 70.47C98.1779 70.9833 97.2879 71.24 96.1546 71.24Z" fill="white"/>
</svg>
